<svg width="407" height="265" viewBox="0 0 407 265" fill="none" xmlns="http://www.w3.org/2000/svg">
<path d="M406.335 230.451H0.157745V230.642H406.335V230.451Z" fill="#E6E6E6"/>
<path d="M360.754 237.734H333.848V237.925H360.754V237.734Z" fill="#E6E6E6"/>
<path d="M147.462 240.328H106.958V240.519H147.462V240.328Z" fill="#E6E6E6"/>
<path d="M333.036 244.842H309.047V245.033H333.036V244.842Z" fill="#E6E6E6"/>
<path d="M60.3205 243.557H42.7737V243.748H60.3205V243.557Z" fill="#E6E6E6"/>
<path d="M98.7204 243.557H67.5504V243.748H98.7204V243.557Z" fill="#E6E6E6"/>
<path d="M269.226 235.662H193.124V235.853H269.226V235.662Z" fill="#E6E6E6"/>
<path d="M368.4 206.191H212.036C210.81 206.189 209.635 205.75 208.769 204.969C207.902 204.189 207.414 203.131 207.412 202.028V4.12673C207.425 3.02951 207.917 1.98103 208.783 1.20856C209.648 0.436084 210.817 0.00185797 212.036 0H368.4C369.616 0.00379462 370.782 0.439103 371.645 1.21157C372.507 1.98404 372.997 3.03144 373.007 4.12673V202.028C373.007 203.129 372.522 204.186 371.659 204.966C370.795 205.747 369.623 206.187 368.4 206.191ZM212.036 0.145821C210.864 0.147749 209.741 0.567783 208.912 1.31393C208.083 2.06008 207.617 3.07152 207.615 4.12673V202.028C207.617 203.083 208.083 204.094 208.912 204.84C209.741 205.586 210.864 206.007 212.036 206.008H368.4C369.572 206.007 370.695 205.586 371.524 204.84C372.352 204.094 372.819 203.083 372.821 202.028V4.12673C372.819 3.07152 372.352 2.06008 371.524 1.31393C370.695 0.567783 369.572 0.147749 368.4 0.145821H212.036Z" fill="#E6E6E6"/>
<path d="M354.019 8.68799H231.264C225.88 8.68799 221.516 12.7982 221.516 17.8683V138.574C221.516 143.644 225.88 147.755 231.264 147.755H354.019C359.403 147.755 363.767 143.644 363.767 138.574V17.8683C363.767 12.7982 359.403 8.68799 354.019 8.68799Z" fill="#FAFAFA"/>
<path d="M331.769 40.3779C337.973 40.3779 343.003 35.641 343.003 29.7976C343.003 23.9543 337.973 19.2173 331.769 19.2173C325.564 19.2173 320.534 23.9543 320.534 29.7976C320.534 35.641 325.564 40.3779 331.769 40.3779Z" fill="#F2F2F2"/>
<path d="M302.353 40.3779C308.558 40.3779 313.588 35.641 313.588 29.7976C313.588 23.9543 308.558 19.2173 302.353 19.2173C296.148 19.2173 291.118 23.9543 291.118 29.7976C291.118 35.641 296.148 40.3779 302.353 40.3779Z" fill="white"/>
<path d="M303.312 121.695C295.379 121.697 287.625 119.483 281.028 115.333C274.432 111.184 269.29 105.286 266.253 98.3847C263.216 91.4834 262.421 83.889 263.968 76.5619C265.514 69.2349 269.333 62.5043 274.942 57.2214C280.55 51.9385 287.697 48.3405 295.477 46.8826C303.257 45.4246 311.321 46.1721 318.65 49.0306C325.979 51.889 332.243 56.73 336.65 62.9413C341.057 69.1526 343.41 76.4553 343.41 83.9257C343.399 93.9383 339.171 103.538 331.654 110.619C324.137 117.7 313.944 121.683 303.312 121.695ZM303.312 46.9213C295.54 46.9198 287.942 49.0888 281.479 53.1539C275.017 57.2191 269.979 62.9979 267.004 69.7594C264.028 76.5209 263.249 83.9615 264.764 91.1402C266.28 98.3188 270.021 104.913 275.516 110.089C281.011 115.265 288.013 118.79 295.635 120.218C303.257 121.647 311.158 120.915 318.339 118.114C325.519 115.313 331.657 110.57 335.975 104.485C340.293 98.3995 342.597 91.2448 342.597 83.9257C342.584 74.1165 338.442 64.7126 331.077 57.7757C323.713 50.8389 313.728 46.9355 303.312 46.9213Z" fill="white"/>
<path d="M305.042 160.275C298.553 160.276 292.27 162.42 287.287 166.335C282.304 170.249 278.937 175.685 277.771 181.696C276.699 187.296 275.635 192.888 274.197 198.412L265.797 230.643H344.271L335.887 198.397C334.449 192.873 333.393 187.281 332.313 181.681C331.144 175.672 327.775 170.24 322.792 166.329C317.81 162.418 311.529 160.276 305.042 160.275Z" fill="#E0E0E0"/>
<path d="M309.38 160.275C302.891 160.276 296.608 162.42 291.625 166.335C286.642 170.249 283.275 175.685 282.109 181.696C281.029 187.296 279.965 192.888 278.535 198.412L270.143 230.658H348.609L340.217 198.397C338.787 192.873 337.723 187.281 336.651 181.681C335.482 175.672 332.113 170.24 327.13 166.329C322.148 162.418 315.867 160.276 309.38 160.275Z" fill="#E6E6E6"/>
<path d="M137.291 36.211C138.168 32.8226 140.432 29.8987 143.591 28.0781C146.749 26.2576 150.545 25.6885 154.148 26.4951L280.062 55.0383C283.659 55.8654 286.763 57.9987 288.695 60.9727C290.628 63.9467 291.234 67.5199 290.379 70.9126C289.505 74.302 287.24 77.2272 284.081 79.0481C280.922 80.869 277.126 81.4372 273.523 80.6284L147.608 52.0853C144.009 51.2618 140.903 49.1292 138.969 46.1542C137.036 43.1791 136.432 39.6039 137.291 36.211Z" fill="#E0E0E0"/>
<path d="M139.72 34.8109C140.602 31.4267 142.869 28.5084 146.027 26.6925C149.185 24.8766 152.977 24.3106 156.576 25.118L282.491 53.6611C286.074 54.4918 289.163 56.6202 291.089 59.584C293.015 62.5477 293.621 66.1074 292.776 69.4895C291.899 72.8779 289.634 75.8018 286.476 77.6224C283.317 79.4429 279.522 80.012 275.919 79.2054L150.004 50.6622C146.419 49.8282 143.327 47.6956 141.402 44.7276C139.476 41.7597 138.872 38.196 139.72 34.8109Z" fill="#E6E6E6"/>
<path d="M156.609 38.6363C157.06 36.894 158.224 35.3905 159.848 34.4544C161.473 33.5184 163.424 33.2258 165.277 33.6407L270.582 57.5172C272.428 57.9435 274.02 59.0384 275.013 60.5639C276.006 62.0895 276.32 63.9224 275.887 65.6647C275.436 67.407 274.271 68.9104 272.647 69.8465C271.023 70.7826 269.071 71.0752 267.219 70.6603L161.914 46.8068C160.063 46.3806 158.466 45.2823 157.472 43.7515C156.479 42.2207 156.168 40.3818 156.609 38.6363Z" fill="#E0E0E0"/>
<path d="M139.996 35.9663C136.664 32.8243 132.575 30.4877 128.077 29.1556C123.579 27.8235 118.805 27.5355 114.163 28.316C105.658 29.7084 102.514 39.6537 108.591 45.4297L129.947 65.5422C136.048 71.2876 146.641 68.304 148.136 60.3018C148.964 55.928 148.656 51.4304 147.239 47.1928C145.822 42.9553 143.337 39.1035 139.996 35.9663Z" fill="#F5F5F5"/>
<path d="M90.792 124.067V116.416C97.9569 116.419 104.962 114.421 110.921 110.675C116.88 106.928 121.525 101.602 124.269 95.3688C127.013 89.1358 127.733 82.2764 126.337 75.6582C124.941 69.04 121.493 62.9603 116.427 58.1881C111.362 53.4158 104.908 50.1654 97.8809 48.8479C90.854 47.5304 83.5699 48.2051 76.9501 50.7865C70.3303 53.368 64.6721 57.7402 60.6912 63.3504C56.7102 68.9605 54.5854 75.5564 54.5854 82.3039H46.4619C46.4619 74.044 49.0627 65.9695 53.9356 59.1017C58.8084 52.2338 65.7344 46.881 73.8376 43.72C81.9409 40.5591 90.8574 39.7321 99.4598 41.3435C108.062 42.9549 115.964 46.9324 122.166 52.7731C128.368 58.6137 132.591 66.0551 134.303 74.1563C136.014 82.2575 135.135 90.6546 131.779 98.2858C128.422 105.917 122.738 112.439 115.446 117.028C108.153 121.617 99.5791 124.067 90.8082 124.067H90.792Z" fill="#E6E6E6"/>
<path d="M114.87 59.6282C117.746 62.3364 122.612 62.5506 127.689 60.6533C132.433 58.8785 135.48 53.1561 132.986 50.7998L124.245 42.5758C121.743 40.2195 115.666 43.0883 113.79 47.5561C111.775 52.3452 111.995 56.92 114.87 59.6282Z" fill="#F5F5F5"/>
<path d="M139.996 44.3814C144.931 44.3814 148.932 40.6137 148.932 35.9661C148.932 31.3184 144.931 27.5508 139.996 27.5508C135.061 27.5508 131.06 31.3184 131.06 35.9661C131.06 40.6137 135.061 44.3814 139.996 44.3814Z" fill="#FAFAFA"/>
<path d="M262.369 44.8275L257.166 46.6842C247.709 50.0582 242.947 60.013 246.53 68.9187L289.333 175.314C292.916 184.219 303.487 188.704 312.943 185.329L318.147 183.473C327.603 180.099 332.365 170.144 328.782 161.238L285.979 54.8434C282.396 45.9377 271.826 41.4535 262.369 44.8275Z" fill="#E0E0E0"/>
<path d="M266.703 44.829L261.499 46.6856C252.042 50.0597 247.281 60.0144 250.863 68.9201L293.666 175.315C297.249 184.221 307.82 188.705 317.276 185.331L322.48 183.474C331.937 180.1 336.698 170.145 333.116 161.24L290.312 54.8449C286.73 45.9392 276.159 41.4549 266.703 44.829Z" fill="#F2F2F2"/>
<path d="M310.842 170.351C310.583 170.348 310.331 170.274 310.116 170.138C309.901 170.002 309.733 169.81 309.632 169.586L266.821 63.1933C266.712 62.8995 266.727 62.5778 266.861 62.2936C266.995 62.0094 267.239 61.784 267.544 61.6632L272.751 59.8042C272.878 59.7592 273.013 59.7359 273.149 59.7354C273.408 59.7374 273.661 59.8109 273.876 59.9469C274.091 60.0829 274.259 60.2753 274.359 60.5004L317.17 166.893C317.281 167.186 317.268 167.509 317.133 167.794C316.998 168.078 316.753 168.303 316.447 168.423L311.24 170.282C311.114 170.329 310.978 170.353 310.842 170.351Z" fill="#E0E0E0"/>
<path d="M318.446 160.275C311.957 160.276 305.674 162.42 300.691 166.335C295.708 170.249 292.341 175.685 291.175 181.696C290.103 187.296 289.039 192.888 287.601 198.412L279.217 230.658H357.675L349.291 198.397C347.853 192.873 346.797 187.281 345.717 181.681C344.548 175.672 341.179 170.24 336.196 166.329C331.214 162.418 324.932 160.276 318.446 160.275Z" fill="#E0E0E0"/>
<path d="M322.784 160.275C316.295 160.276 310.012 162.42 305.029 166.335C300.046 170.249 296.679 175.685 295.513 181.696C294.433 187.296 293.369 192.888 291.939 198.412L283.547 230.658H362.013L353.621 198.397C352.191 192.873 351.127 187.281 350.055 181.681C348.886 175.672 345.517 170.24 340.534 166.329C335.552 162.418 329.271 160.276 322.784 160.275Z" fill="#F5F5F5"/>
<path d="M285.454 77.6483C293.011 70.5318 293.011 58.9936 285.454 51.8771C277.897 44.7606 265.645 44.7606 258.088 51.8771C250.532 58.9936 250.532 70.5318 258.088 77.6483C265.645 84.7648 277.897 84.7648 285.454 77.6483Z" fill="#FAFAFA"/>
<path d="M271.768 79.5577C268.659 79.5593 265.618 78.6921 263.032 77.0661C260.446 75.4401 258.43 73.1282 257.239 70.423C256.048 67.7177 255.736 64.7406 256.343 61.8684C256.949 58.9961 258.446 56.3577 260.645 54.287C262.844 52.2162 265.645 50.8062 268.695 50.2352C271.745 49.6643 274.907 49.9581 277.779 51.0795C280.652 52.2009 283.107 54.0994 284.833 56.535C286.56 58.9705 287.481 61.8337 287.479 64.7621C287.473 68.6843 285.815 72.4441 282.87 75.2175C279.925 77.9909 275.933 79.5517 271.768 79.5577ZM271.768 50.678C268.81 50.678 265.919 51.504 263.459 53.0516C261 54.5992 259.083 56.7988 257.951 59.3723C256.819 61.9459 256.523 64.7777 257.1 67.5098C257.677 70.2418 259.102 72.7514 261.193 74.7211C263.285 76.6908 265.949 78.0322 268.851 78.5756C271.752 79.1191 274.759 78.8402 277.491 77.7742C280.224 76.7082 282.56 74.903 284.203 72.5868C285.846 70.2707 286.724 67.5477 286.724 64.7621C286.719 61.028 285.142 57.448 282.339 54.8076C279.535 52.1672 275.733 50.682 271.768 50.678Z" fill="#E0E0E0"/>
<path d="M115.544 180.419H58.8177V230.452H115.544V180.419Z" fill="#F5F5F5"/>
<path d="M41.7583 230.451H58.8177L58.8177 180.418H41.7583L41.7583 230.451Z" fill="#E6E6E6"/>
<path d="M61.799 180.419H110.061V149.65H61.799L61.799 180.419Z" fill="#F2F2F2"/>
<path d="M124.578 149.649H110.061V180.419H124.578V149.649Z" fill="#E0E0E0"/>
<path d="M141.524 230.451H183.514V183.983H141.524V230.451Z" fill="#E6E6E6"/>
<path d="M179.412 225.838H145.634V188.589H179.412V225.838ZM146.446 225.073H178.599V189.354H146.446V225.073Z" fill="#F5F5F5"/>
<path d="M196.138 183.976H183.514V230.444H196.138V183.976Z" fill="#F5F5F5"/>
<path d="M36.1694 128.779H78.1599V82.3039H36.1694L36.1694 128.779Z" fill="#E6E6E6"/>
<path d="M90.7839 82.3115H78.1599V128.787H90.7839V82.3115Z" fill="#F5F5F5"/>
<path d="M203.246 265C290.235 265 360.753 261.123 360.753 256.34C360.753 251.557 290.235 247.68 203.246 247.68C116.257 247.68 45.7389 251.557 45.7389 256.34C45.7389 261.123 116.257 265 203.246 265Z" fill="#F5F5F5"/>
<path d="M128.404 150.812H204.595V143.628H128.404C127.394 143.628 126.424 144.006 125.71 144.679C124.995 145.352 124.594 146.265 124.594 147.216C124.593 147.688 124.691 148.156 124.882 148.592C125.073 149.028 125.353 149.424 125.707 149.758C126.061 150.092 126.481 150.357 126.944 150.538C127.407 150.719 127.903 150.812 128.404 150.812Z" fill="#263238"/>
<path d="M157.844 255.314H162.701V150.804H157.844V255.314Z" fill="#D00000"/>
<path opacity="0.7" d="M157.844 255.314H162.701V150.804H157.844V255.314Z" fill="white"/>
<path d="M133.733 255.314H138.591V150.804H133.733V255.314Z" fill="#D00000"/>
<path opacity="0.7" d="M133.733 255.314H138.591V150.804H133.733V255.314Z" fill="white"/>
<path d="M128.404 149.55C129.772 149.55 130.882 148.505 130.882 147.217C130.882 145.928 129.772 144.883 128.404 144.883C127.036 144.883 125.926 145.928 125.926 147.217C125.926 148.505 127.036 149.55 128.404 149.55Z" fill="#D00000"/>
<path d="M136.812 147.216C136.812 147.669 136.954 148.111 137.22 148.487C137.486 148.864 137.864 149.158 138.307 149.333C138.75 149.508 139.238 149.555 139.71 149.47C140.181 149.384 140.616 149.169 140.958 148.852C141.3 148.535 141.536 148.13 141.634 147.687C141.733 147.244 141.69 146.784 141.512 146.364C141.334 145.944 141.028 145.583 140.632 145.326C140.237 145.07 139.77 144.929 139.29 144.921C138.966 144.916 138.645 144.972 138.344 145.085C138.044 145.198 137.771 145.366 137.54 145.58C137.309 145.793 137.126 146.048 137.001 146.329C136.876 146.61 136.812 146.912 136.812 147.216Z" fill="#D00000"/>
<path d="M150.175 149.55C151.543 149.55 152.653 148.505 152.653 147.217C152.653 145.928 151.543 144.883 150.175 144.883C148.807 144.883 147.697 145.928 147.697 147.217C147.697 148.505 148.807 149.55 150.175 149.55Z" fill="#D00000"/>
<path d="M161.061 149.55C162.429 149.55 163.538 148.505 163.538 147.217C163.538 145.928 162.429 144.883 161.061 144.883C159.692 144.883 158.583 145.928 158.583 147.217C158.583 148.505 159.692 149.55 161.061 149.55Z" fill="#D00000"/>
<path d="M171.938 149.55C173.306 149.55 174.416 148.505 174.416 147.217C174.416 145.928 173.306 144.883 171.938 144.883C170.57 144.883 169.46 145.928 169.46 147.217C169.46 148.505 170.57 149.55 171.938 149.55Z" fill="#D00000"/>
<path d="M182.824 149.55C184.192 149.55 185.301 148.505 185.301 147.217C185.301 145.928 184.192 144.883 182.824 144.883C181.455 144.883 180.346 145.928 180.346 147.217C180.346 148.505 181.455 149.55 182.824 149.55Z" fill="#D00000"/>
<path d="M193.709 149.55C195.077 149.55 196.187 148.505 196.187 147.217C196.187 145.928 195.077 144.883 193.709 144.883C192.341 144.883 191.231 145.928 191.231 147.217C191.231 148.505 192.341 149.55 193.709 149.55Z" fill="#D00000"/>
<path d="M204.595 144.891V149.55C203.939 149.55 203.31 149.304 202.846 148.867C202.382 148.43 202.121 147.838 202.121 147.22C202.121 146.602 202.382 146.01 202.846 145.573C203.31 145.136 203.939 144.891 204.595 144.891Z" fill="#D00000"/>
<path d="M241.955 63.8057H236.91V64.57H241.955V63.8057Z" fill="#D00000"/>
<path d="M232.223 63.8057H215.976V64.57H232.223V63.8057Z" fill="#D00000"/>
<path d="M184.749 66.4834H262.906C264.674 66.4834 266.371 67.1451 267.622 68.323C268.872 69.5009 269.575 71.0985 269.575 72.7643V255.315H178.063V72.7643C178.063 71.9382 178.236 71.1202 178.573 70.3572C178.909 69.5941 179.401 68.9011 180.023 68.3176C180.644 67.7342 181.381 67.2719 182.192 66.9571C183.003 66.6424 183.872 66.4814 184.749 66.4834Z" fill="#D00000"/>
<path opacity="0.2" d="M203.392 121.894H178.08V121.183H202.645V66.4834H203.392V121.894Z" fill="white"/>
<path opacity="0.4" d="M248.624 66.4834H262.905C264.674 66.4834 266.371 67.1451 267.621 68.323C268.872 69.5009 269.575 71.0985 269.575 72.7643V255.315H241.955V72.7643C241.955 71.0985 242.657 69.5009 243.908 68.323C245.159 67.1451 246.855 66.4834 248.624 66.4834Z" fill="#263238"/>
<path d="M250.753 97.7959H260.785C261.647 97.7959 262.473 98.1183 263.083 98.6922C263.692 99.2661 264.035 100.044 264.035 100.856V158.355H247.511V100.856C247.511 100.046 247.853 99.2686 248.46 98.6949C249.068 98.1212 249.892 97.7979 250.753 97.7959Z" fill="#D00000"/>
<path d="M250.753 97.7959H259.445C260.307 97.7959 261.133 98.1183 261.742 98.6922C262.352 99.2661 262.694 100.044 262.694 100.856V158.355H247.511V100.856C247.511 100.044 247.854 99.2661 248.463 98.6922C249.072 98.1183 249.899 97.7959 250.761 97.7959H250.753Z" fill="black"/>
<path opacity="0.2" d="M241.955 245.026H213.636V158.799H241.955V159.503H214.383V244.322H241.955V245.026Z" fill="white"/>
<path opacity="0.2" d="M202.791 245.025C201.855 245.024 200.94 244.761 200.162 244.27C199.384 243.779 198.779 243.082 198.422 242.267C198.064 241.451 197.972 240.555 198.155 239.69C198.339 238.826 198.791 238.032 199.453 237.409C200.116 236.786 200.96 236.362 201.878 236.19C202.797 236.019 203.749 236.107 204.614 236.445C205.479 236.783 206.218 237.355 206.738 238.088C207.258 238.821 207.535 239.683 207.535 240.565C207.535 241.151 207.413 241.732 207.174 242.274C206.936 242.815 206.586 243.307 206.145 243.722C205.705 244.136 205.182 244.464 204.606 244.688C204.031 244.912 203.414 245.026 202.791 245.025ZM202.791 236.809C202.002 236.809 201.231 237.029 200.575 237.442C199.919 237.855 199.408 238.441 199.106 239.128C198.804 239.814 198.725 240.569 198.879 241.298C199.033 242.027 199.413 242.696 199.971 243.221C200.529 243.746 201.239 244.104 202.013 244.249C202.787 244.394 203.589 244.32 204.318 244.035C205.046 243.751 205.669 243.27 206.108 242.652C206.546 242.034 206.78 241.308 206.78 240.565C206.778 239.569 206.357 238.615 205.609 237.911C204.862 237.207 203.848 236.811 202.791 236.809Z" fill="white"/>
<path opacity="0.2" d="M190.127 245.025C189.19 245.025 188.274 244.764 187.495 244.274C186.717 243.783 186.11 243.087 185.751 242.272C185.393 241.457 185.299 240.56 185.482 239.695C185.664 238.83 186.115 238.035 186.778 237.411C187.44 236.788 188.284 236.363 189.203 236.191C190.121 236.019 191.074 236.107 191.939 236.445C192.804 236.782 193.544 237.354 194.064 238.087C194.585 238.821 194.863 239.683 194.863 240.565C194.863 241.748 194.364 242.882 193.475 243.719C192.587 244.555 191.383 245.025 190.127 245.025ZM190.127 236.809C189.338 236.809 188.567 237.029 187.911 237.442C187.255 237.855 186.743 238.441 186.442 239.128C186.14 239.814 186.061 240.569 186.215 241.298C186.369 242.027 186.748 242.696 187.306 243.221C187.864 243.747 188.575 244.104 189.348 244.249C190.122 244.394 190.924 244.32 191.653 244.035C192.382 243.751 193.005 243.27 193.443 242.652C193.881 242.034 194.115 241.308 194.115 240.565C194.113 239.569 193.692 238.615 192.945 237.911C192.197 237.207 191.184 236.811 190.127 236.809Z" fill="white"/>
<path d="M347.772 150.812H271.581V143.628H347.772C348.782 143.628 349.751 144.006 350.466 144.679C351.18 145.352 351.582 146.265 351.582 147.216C351.583 147.688 351.485 148.156 351.294 148.592C351.103 149.028 350.823 149.424 350.469 149.758C350.115 150.092 349.695 150.357 349.232 150.538C348.769 150.719 348.273 150.812 347.772 150.812Z" fill="#D00000"/>
<path d="M323.71 150.812H247.511V143.628H323.71C324.212 143.626 324.709 143.718 325.173 143.897C325.637 144.077 326.059 144.341 326.415 144.674C326.77 145.007 327.052 145.404 327.245 145.84C327.437 146.276 327.536 146.744 327.536 147.216C327.537 147.69 327.439 148.158 327.247 148.595C327.055 149.033 326.773 149.43 326.417 149.764C326.062 150.098 325.64 150.363 325.175 150.543C324.71 150.723 324.212 150.814 323.71 150.812Z" fill="#263238"/>
<path d="M318.332 150.812H313.474V255.322H318.332V150.812Z" fill="#D00000"/>
<path opacity="0.7" d="M318.332 150.812H313.474V255.322H318.332V150.812Z" fill="white"/>
<path d="M342.443 150.812H337.585V255.322H342.443V150.812Z" fill="#D00000"/>
<path opacity="0.7" d="M342.443 150.812H337.585V255.322H342.443V150.812Z" fill="white"/>
<path d="M323.71 149.55C325.078 149.55 326.188 148.505 326.188 147.217C326.188 145.928 325.078 144.883 323.71 144.883C322.342 144.883 321.232 145.928 321.232 147.217C321.232 148.505 322.342 149.55 323.71 149.55Z" fill="#D00000"/>
<path d="M312.824 149.55C314.193 149.55 315.302 148.505 315.302 147.217C315.302 145.928 314.193 144.883 312.824 144.883C311.456 144.883 310.347 145.928 310.347 147.217C310.347 148.505 311.456 149.55 312.824 149.55Z" fill="#D00000"/>
<path d="M301.939 149.55C303.307 149.55 304.417 148.505 304.417 147.217C304.417 145.928 303.307 144.883 301.939 144.883C300.571 144.883 299.461 145.928 299.461 147.217C299.461 148.505 300.571 149.55 301.939 149.55Z" fill="#D00000"/>
<path d="M291.053 149.55C292.422 149.55 293.531 148.505 293.531 147.217C293.531 145.928 292.422 144.883 291.053 144.883C289.685 144.883 288.576 145.928 288.576 147.217C288.576 148.505 289.685 149.55 291.053 149.55Z" fill="#D00000"/>
<path d="M280.168 149.55C281.536 149.55 282.646 148.505 282.646 147.217C282.646 145.928 281.536 144.883 280.168 144.883C278.8 144.883 277.69 145.928 277.69 147.217C277.69 148.505 278.8 149.55 280.168 149.55Z" fill="#D00000"/>
<path d="M269.282 149.55C270.651 149.55 271.76 148.505 271.76 147.217C271.76 145.928 270.651 144.883 269.282 144.883C267.914 144.883 266.805 145.928 266.805 147.217C266.805 148.505 267.914 149.55 269.282 149.55Z" fill="#D00000"/>
<path d="M258.397 149.55C259.765 149.55 260.874 148.505 260.874 147.217C260.874 145.928 259.765 144.883 258.397 144.883C257.028 144.883 255.919 145.928 255.919 147.217C255.919 148.505 257.028 149.55 258.397 149.55Z" fill="#D00000"/>
<path d="M247.511 144.891V149.55C248.167 149.55 248.797 149.304 249.26 148.867C249.724 148.43 249.985 147.838 249.985 147.22C249.985 146.602 249.724 146.01 249.26 145.573C248.797 145.136 248.167 144.891 247.511 144.891Z" fill="#D00000"/>
<path d="M231.427 85.3408H188.607C187.037 85.3408 185.764 86.5396 185.764 88.0184V167.773C185.764 169.251 187.037 170.45 188.607 170.45H231.427C232.997 170.45 234.27 169.251 234.27 167.773V88.0184C234.27 86.5396 232.997 85.3408 231.427 85.3408Z" fill="white"/>
<path opacity="0.3" d="M226.057 94.4297H193.977C192.304 94.4297 190.947 95.7073 190.947 97.2832V116.952C190.947 118.528 192.304 119.806 193.977 119.806H226.057C227.73 119.806 229.087 118.528 229.087 116.952V97.2832C229.087 95.7073 227.73 94.4297 226.057 94.4297Z" fill="#D00000"/>
<path opacity="0.3" d="M226.211 123.439H193.823C192.235 123.439 190.947 124.652 190.947 126.148V138.204C190.947 139.7 192.235 140.913 193.823 140.913H226.211C227.8 140.913 229.087 139.7 229.087 138.204V126.148C229.087 124.652 227.8 123.439 226.211 123.439Z" fill="#D00000"/>
<path d="M202.434 132.222L196.065 130.042C196.576 128.722 197.534 127.598 198.792 126.844C200.051 126.089 201.538 125.747 203.024 125.87C204.509 125.993 205.911 126.574 207.01 127.524C208.109 128.473 208.845 129.737 209.103 131.121L202.434 132.222Z" fill="#D00000"/>
<path d="M202.434 132.222L209.103 131.121C209.171 131.484 209.206 131.853 209.209 132.222C209.24 133.079 209.088 133.933 208.762 134.734C208.435 135.534 207.941 136.265 207.308 136.882C206.676 137.498 205.918 137.989 205.08 138.324C204.241 138.659 203.34 138.831 202.43 138.831C201.519 138.831 200.618 138.659 199.78 138.324C198.942 137.989 198.184 137.498 197.551 136.882C196.918 136.265 196.424 135.534 196.098 134.734C195.771 133.933 195.619 133.079 195.651 132.222C195.65 131.478 195.791 130.74 196.065 130.042L202.434 132.222Z" fill="white"/>
<path d="M220.947 131.35H218.38V138.556H220.947V131.35Z" fill="white"/>
<path d="M216.577 135.183H214.01V138.556H216.577V135.183Z" fill="white"/>
<path d="M216.577 133.125H214.01V135.182H216.577V133.125Z" fill="#D00000"/>
<path d="M220.947 126.958H218.38V131.35H220.947V126.958Z" fill="#D00000"/>
<path d="M225.31 132.658H222.743V138.549H225.31V132.658Z" fill="white"/>
<path d="M225.31 129.958H222.743V132.658H225.31V129.958Z" fill="#D00000"/>
<path d="M196.495 112.599H223.449C223.633 112.601 223.815 112.558 223.976 112.475C224.138 112.393 224.274 112.272 224.373 112.126C224.471 111.98 224.528 111.812 224.539 111.639C224.549 111.466 224.513 111.294 224.432 111.138C223.379 108.989 222.74 106.681 222.548 104.321C222.044 98.9662 218.193 97.6657 216.553 104.321C214.912 110.977 208.356 107.55 205.683 104.383C203.197 101.445 199.136 104.696 195.529 111.092C195.443 111.249 195.401 111.424 195.407 111.6C195.413 111.777 195.467 111.949 195.564 112.1C195.661 112.251 195.798 112.377 195.961 112.464C196.124 112.551 196.308 112.598 196.495 112.599Z" fill="#D00000"/>
<path d="M195.456 146.834C196.2 146.834 196.927 147.041 197.545 147.431C198.164 147.82 198.646 148.373 198.931 149.02C199.215 149.668 199.29 150.38 199.145 151.067C199 151.754 198.641 152.385 198.115 152.88C197.589 153.376 196.919 153.713 196.19 153.85C195.46 153.986 194.704 153.916 194.016 153.648C193.329 153.38 192.742 152.926 192.329 152.344C191.915 151.761 191.695 151.076 191.695 150.376C191.697 149.437 192.094 148.537 192.799 147.873C193.504 147.21 194.459 146.836 195.456 146.834ZM195.456 146.13C194.562 146.13 193.689 146.38 192.946 146.847C192.203 147.315 191.624 147.98 191.282 148.757C190.941 149.535 190.852 150.391 191.027 151.216C191.201 152.041 191.632 152.799 192.265 153.394C192.897 153.988 193.703 154.393 194.58 154.556C195.456 154.719 196.365 154.634 197.19 154.311C198.015 153.988 198.72 153.442 199.215 152.741C199.711 152.041 199.974 151.217 199.973 150.376C199.974 149.817 199.857 149.264 199.631 148.748C199.404 148.232 199.071 147.763 198.652 147.369C198.232 146.974 197.733 146.661 197.185 146.449C196.637 146.236 196.049 146.128 195.456 146.13Z" fill="#263238"/>
<path d="M207.714 146.834C208.458 146.834 209.185 147.042 209.804 147.431C210.422 147.82 210.904 148.374 211.189 149.021C211.474 149.668 211.548 150.38 211.403 151.067C211.258 151.754 210.9 152.386 210.374 152.881C209.848 153.376 209.177 153.714 208.448 153.85C207.718 153.987 206.962 153.917 206.275 153.649C205.587 153.381 205 152.927 204.587 152.344C204.173 151.762 203.953 151.077 203.953 150.376C203.955 149.437 204.352 148.538 205.057 147.874C205.762 147.21 206.717 146.836 207.714 146.834ZM207.714 146.13C206.82 146.129 205.946 146.377 205.202 146.844C204.458 147.311 203.877 147.975 203.535 148.753C203.192 149.53 203.102 150.386 203.276 151.212C203.45 152.038 203.88 152.796 204.512 153.392C205.144 153.987 205.95 154.392 206.827 154.556C207.704 154.72 208.613 154.635 209.438 154.312C210.264 153.989 210.969 153.443 211.465 152.742C211.96 152.042 212.224 151.218 212.223 150.376C212.224 149.818 212.108 149.266 211.882 148.75C211.655 148.235 211.323 147.766 210.904 147.372C210.486 146.977 209.988 146.665 209.441 146.452C208.893 146.239 208.306 146.129 207.714 146.13Z" fill="#D00000"/>
<path d="M229.087 161.668C229.087 162.032 228.973 162.387 228.758 162.689C228.544 162.991 228.239 163.226 227.882 163.365C227.525 163.504 227.133 163.54 226.754 163.468C226.376 163.397 226.028 163.221 225.756 162.964C225.484 162.706 225.299 162.378 225.224 162.022C225.15 161.665 225.19 161.296 225.339 160.96C225.488 160.625 225.739 160.339 226.06 160.138C226.382 159.937 226.76 159.831 227.146 159.832C227.661 159.834 228.155 160.028 228.519 160.373C228.883 160.717 229.087 161.182 229.087 161.668Z" fill="#D00000"/>
<path opacity="0.3" d="M220.525 161.668C220.525 162.032 220.41 162.387 220.196 162.689C219.981 162.991 219.676 163.226 219.319 163.365C218.963 163.504 218.57 163.54 218.192 163.468C217.813 163.397 217.466 163.221 217.194 162.964C216.921 162.706 216.736 162.378 216.662 162.022C216.588 161.665 216.627 161.296 216.776 160.96C216.925 160.625 217.176 160.339 217.498 160.138C217.82 159.937 218.197 159.831 218.583 159.832C219.099 159.834 219.593 160.028 219.957 160.373C220.321 160.717 220.525 161.182 220.525 161.668Z" fill="#D00000"/>
<path d="M211.963 161.668C211.963 162.031 211.848 162.386 211.634 162.688C211.42 162.99 211.115 163.225 210.759 163.364C210.403 163.503 210.011 163.54 209.633 163.469C209.255 163.398 208.907 163.223 208.634 162.966C208.362 162.71 208.176 162.382 208.101 162.026C208.026 161.67 208.064 161.301 208.212 160.965C208.359 160.63 208.609 160.343 208.93 160.141C209.251 159.94 209.627 159.832 210.013 159.832C210.53 159.832 211.026 160.025 211.392 160.37C211.757 160.714 211.963 161.181 211.963 161.668Z" fill="#D00000"/>
<path d="M203.4 161.668C203.4 162.031 203.286 162.386 203.072 162.688C202.858 162.99 202.553 163.225 202.197 163.364C201.841 163.503 201.449 163.54 201.07 163.469C200.692 163.398 200.345 163.223 200.072 162.966C199.8 162.71 199.614 162.382 199.539 162.026C199.463 161.67 199.502 161.301 199.65 160.965C199.797 160.63 200.047 160.343 200.368 160.141C200.688 159.94 201.065 159.832 201.451 159.832C201.968 159.832 202.464 160.025 202.829 160.37C203.195 160.714 203.4 161.181 203.4 161.668Z" fill="#D00000"/>
<path d="M194.838 161.668C194.838 162.031 194.724 162.386 194.51 162.688C194.295 162.99 193.991 163.225 193.635 163.364C193.278 163.503 192.886 163.54 192.508 163.469C192.13 163.398 191.783 163.223 191.51 162.966C191.237 162.71 191.052 162.382 190.976 162.026C190.901 161.67 190.94 161.301 191.087 160.965C191.235 160.63 191.485 160.343 191.805 160.141C192.126 159.94 192.503 159.832 192.889 159.832C193.406 159.832 193.902 160.025 194.267 160.37C194.633 160.714 194.838 161.181 194.838 161.668Z" fill="#D00000"/>
<path d="M325.734 116H284.534V143H325.734V116Z" fill="#EFC46F"/>
<path opacity="0.7" d="M294.583 116H287.549V126H294.583V116Z" fill="white"/>
<g style="mix-blend-mode:luminosity" opacity="0.2">
<path d="M325.734 116H312.671V143H325.734V116Z" fill="black"/>
</g>
<path opacity="0.7" d="M321.714 116H317.695V126H321.714V116Z" fill="#D06100"/>
<path d="M291.212 140.358V142.646H288.914V140.358H291.212ZM291.568 140H288.554V143H291.568V140Z" fill="white"/>
<path opacity="0.4" d="M297.598 140H292.573V143H297.598V140Z" fill="#263238"/>
<path d="M164.871 120.395H152.295C151.945 120.395 151.662 120.662 151.662 120.991V143.032C151.662 143.361 151.945 143.628 152.295 143.628H164.871C165.22 143.628 165.504 143.361 165.504 143.032V120.991C165.504 120.662 165.22 120.395 164.871 120.395Z" fill="#263238"/>
<path d="M151.556 120.395H164.123C164.291 120.395 164.452 120.457 164.571 120.569C164.69 120.681 164.757 120.833 164.757 120.991V143.024C164.757 143.182 164.69 143.334 164.571 143.446C164.452 143.558 164.291 143.621 164.123 143.621H151.556C151.386 143.621 151.223 143.557 151.102 143.444C150.982 143.33 150.914 143.177 150.914 143.016V120.984C150.915 120.905 150.933 120.828 150.966 120.756C150.998 120.684 151.046 120.619 151.106 120.564C151.165 120.509 151.236 120.466 151.313 120.437C151.39 120.408 151.473 120.394 151.556 120.395Z" fill="#D00000"/>
<path d="M164.017 142.374V121.657C164.017 121.353 163.755 121.106 163.432 121.106H152.263C151.94 121.106 151.678 121.353 151.678 121.657V142.374C151.678 142.678 151.94 142.925 152.263 142.925H163.432C163.755 142.925 164.017 142.678 164.017 142.374Z" fill="white"/>
<path opacity="0.2" d="M157.6 121.106H155.049L153.132 142.925H155.691L157.6 121.106Z" fill="#D00000"/>
<path opacity="0.2" d="M160.159 121.106H158.502L156.593 142.925H158.242L160.159 121.106Z" fill="#D00000"/>
<path d="M152.677 98.4459H132.133C132.031 98.451 131.93 98.4332 131.838 98.3939C131.745 98.3546 131.664 98.2949 131.601 98.2199C131.538 98.145 131.496 98.0569 131.476 97.9631C131.457 97.8693 131.462 97.7725 131.491 97.6809L136.82 70.9049C136.862 70.6958 136.978 70.5064 137.149 70.3674C137.32 70.2285 137.536 70.1483 137.762 70.1399H158.298C158.4 70.1352 158.501 70.1532 158.594 70.1926C158.686 70.2319 158.768 70.2913 158.831 70.366C158.894 70.4407 158.938 70.5285 158.959 70.6221C158.979 70.7158 158.975 70.8127 158.948 70.9049L153.619 97.6809C153.577 97.8899 153.461 98.0794 153.29 98.2183C153.119 98.3573 152.903 98.4375 152.677 98.4459Z" fill="#D00000"/>
<path d="M151.946 97.3211H132.612C132.518 97.325 132.425 97.3082 132.34 97.2721C132.254 97.236 132.179 97.1816 132.12 97.1132C132.06 97.0449 132.019 96.9644 131.999 96.8783C131.978 96.7922 131.98 96.7028 132.003 96.6173L137.015 71.3714C137.06 71.1773 137.172 71.0028 137.334 70.8754C137.495 70.748 137.698 70.6749 137.908 70.6675H157.242C157.336 70.6637 157.429 70.6805 157.515 70.7166C157.6 70.7526 157.675 70.807 157.735 70.8754C157.794 70.9438 157.835 71.0242 157.856 71.1103C157.876 71.1964 157.875 71.2858 157.852 71.3714L152.831 96.6173C152.789 96.8113 152.679 96.9864 152.518 97.1141C152.358 97.2418 152.156 97.3147 151.946 97.3211Z" fill="white"/>
<path d="M107.006 72.0137L106.828 72.3733L106.608 72.84L106.178 73.8039C105.902 74.4695 105.642 75.1503 105.406 75.8465C104.927 77.2312 104.48 78.6465 104.131 80.1001C103.399 83.0134 102.905 85.975 102.652 88.9591L102.563 90.0301C102.563 90.1755 102.563 90.2214 102.49 90.099C102.369 89.8926 102.189 89.7227 101.97 89.6094C101.759 89.5023 101.694 89.5405 101.783 89.6094C102.269 89.6936 102.767 89.6936 103.253 89.6094C103.965 89.509 104.668 89.3607 105.357 89.1656C108.434 88.248 111.441 87.1362 114.358 85.8378L116.324 88.7219C113.57 90.8502 110.547 92.6489 107.323 94.0771C106.435 94.4563 105.52 94.7784 104.586 95.0411C103.435 95.377 102.229 95.5093 101.028 95.4312C100.12 95.3705 99.2401 95.1084 98.4605 94.6662C97.5393 94.1204 96.8211 93.3183 96.4053 92.3711C96.1023 91.6394 95.9453 90.8614 95.9422 90.076V88.6913C95.9519 85.3262 96.3083 81.9698 97.0064 78.6695C97.3531 76.9915 97.8117 75.3358 98.3793 73.7121C98.6555 72.8935 98.9804 72.0749 99.3216 71.2564C99.5003 70.8509 99.6709 70.4454 99.874 70.0323L100.191 69.405C100.313 69.1831 100.402 69.0148 100.581 68.7012L107.006 72.0137Z" fill="#FFC3BD"/>
<path d="M111.848 44.7563C112.66 48.7727 114.561 57.5247 111.58 60.1946C111.58 60.1946 112.742 64.2645 120.654 64.2645C129.362 64.2645 124.813 60.1946 124.813 60.1946C120.069 59.1312 120.191 55.811 121.02 52.6973L111.848 44.7563Z" fill="#FFC3BD"/>
<path d="M109.825 61.5944C109.825 61.5944 109.062 59.2993 108.777 57.9605C108.493 56.6217 119.167 57.0501 122.701 57.907C126.235 58.7638 127.364 62.6578 127.364 62.6578L109.825 61.5944Z" fill="#263238"/>
<path d="M130.882 43.8306C131.12 45.1544 131.549 46.4413 132.157 47.6557C131.825 47.7941 131.464 47.8624 131.1 47.8558C130.737 47.8492 130.38 47.7678 130.053 47.6174L130.882 43.8306Z" fill="#A02724"/>
<path d="M129.623 39.7221C129.572 39.7086 129.527 39.6821 129.493 39.6456C129.46 39.6163 129.435 39.5813 129.417 39.5425C129.4 39.5037 129.391 39.462 129.391 39.4199C129.391 39.3778 129.4 39.3361 129.417 39.2973C129.435 39.2585 129.46 39.2235 129.493 39.1942C129.867 38.8272 130.329 38.5506 130.841 38.3881C131.353 38.2256 131.9 38.182 132.433 38.2609C132.477 38.2691 132.518 38.2853 132.555 38.3087C132.591 38.332 132.623 38.362 132.647 38.397C132.671 38.4319 132.688 38.4709 132.696 38.5119C132.703 38.5529 132.703 38.595 132.693 38.6358C132.674 38.7189 132.62 38.7914 132.544 38.8373C132.468 38.8832 132.375 38.8988 132.287 38.8806C131.864 38.826 131.434 38.8669 131.031 38.9999C130.629 39.1329 130.266 39.3543 129.972 39.6456C129.927 39.6884 129.871 39.7183 129.809 39.7319C129.747 39.7455 129.682 39.7421 129.623 39.7221Z" fill="#263238"/>
<path d="M130.581 42.8129C130.459 43.3484 130.662 43.838 131.036 43.9069C131.41 43.9757 131.8 43.6085 131.922 43.073C132.043 42.5375 131.832 42.0478 131.458 41.979C131.085 41.9101 130.695 42.2774 130.581 42.8129Z" fill="#263238"/>
<path d="M131.288 41.9485L132.734 41.8491C132.734 41.8491 131.816 42.7128 131.288 41.9485Z" fill="#263238"/>
<path d="M75.3003 254.925H82.4734L84.7642 239.272H77.583L75.3003 254.925Z" fill="#FFC3BD"/>
<path d="M83.7004 250.288H75.6337C75.495 250.287 75.3604 250.332 75.2545 250.416C75.1485 250.501 75.0784 250.618 75.0569 250.747L74.139 256.753C74.1219 256.905 74.139 257.059 74.1892 257.205C74.2394 257.35 74.3215 257.485 74.4302 257.599C74.539 257.713 74.6719 257.804 74.8205 257.866C74.969 257.929 75.1298 257.961 75.2925 257.961C78.1033 257.915 79.4599 257.755 83.0099 257.755C85.187 257.755 88.3714 257.969 91.3852 257.969C94.3991 257.969 94.5615 255.161 93.3105 254.909C87.6809 253.769 86.8117 252.201 84.8945 250.701C84.5601 250.436 84.1375 250.29 83.7004 250.288Z" fill="#263238"/>
<path opacity="0.2" d="M77.583 239.272H84.7642L83.5782 247.344H76.3969L77.583 239.272Z" fill="black"/>
<path d="M102.555 61.793C99.6465 62.6651 97.4613 73.0083 97.4613 73.0083L106.682 80.6586C106.682 80.6586 112.717 70.5985 110.963 67.2476C109.127 63.7821 105.991 60.7679 102.555 61.793Z" fill="#263238"/>
<path d="M137.803 67.1941C137.803 71.5318 137.973 79.5952 134.968 93.9701C134.423 96.5788 135.504 97.734 135.016 100.404C134.699 102.141 133.668 101.888 133.522 102.699H104.366C104.366 101.88 103.091 101.444 102.798 99.6848C102.116 95.6378 104.602 95.3012 104.521 92.7537C104.317 86.3275 103.326 79.1056 100.337 66.4215C100.185 65.802 100.171 65.1595 100.297 64.5348C100.423 63.9101 100.685 63.3168 101.066 62.7924C101.448 62.2681 101.942 61.8242 102.515 61.4889C103.089 61.1535 103.73 60.9341 104.399 60.8444C106.495 60.5613 109.021 60.2859 111.572 60.1635C115.977 59.8687 120.399 59.8687 124.805 60.1635C127.388 60.3854 130.134 60.7679 132.352 61.1122C133.881 61.3475 135.271 62.0896 136.27 63.2048C137.27 64.32 137.813 65.7348 137.803 67.1941Z" fill="#263238"/>
<path opacity="0.4" d="M136.69 79.7025C136.503 81.6303 136.633 83.803 136.308 86.2587C131.491 83.9637 130.825 78.0883 132.303 75.1123C134.012 76.4157 135.493 77.9647 136.69 79.7025Z" fill="black"/>
<path d="M138.891 69.0688C139.704 72.0372 140.581 75.0973 141.507 78.0732C142.433 81.0492 143.424 84.0251 144.586 86.8404C145.136 88.2133 145.759 89.559 146.454 90.8721C146.255 90.6767 146.014 90.523 145.748 90.4208C145.268 90.2601 144.935 90.3672 144.992 90.4208C145.421 90.3595 145.828 90.2021 146.178 89.9617C147.449 89.1901 148.645 88.3145 149.753 87.3453C150.955 86.3432 152.19 85.2492 153.327 84.1934L156.292 86.1825C155.464 87.6733 154.531 89.1097 153.498 90.482C152.413 91.9442 151.151 93.2819 149.736 94.4677C149.31 94.8108 148.856 95.1228 148.38 95.4011C147.782 95.758 147.134 96.0336 146.454 96.2197C145.384 96.5099 144.241 96.4588 143.205 96.0743C142.147 95.6496 141.265 94.9108 140.695 93.9705C139.761 92.4893 138.923 90.9565 138.185 89.3803C136.765 86.3561 135.531 83.2578 134.488 80.1005C133.96 78.5705 133.465 76.9869 133.018 75.4109C132.571 73.835 132.124 72.282 131.743 70.6448L138.891 69.0688Z" fill="#FFC3BD"/>
<path d="M136.633 63.4155C140.402 67.4089 141.986 74.6843 141.986 74.6843L131.109 81.3477C131.109 81.3477 125.731 69.8723 127.047 66.3532C128.778 61.6483 132.961 59.5445 136.633 63.4155Z" fill="#263238"/>
<path d="M156.787 84.5071C157.258 83.1377 155.821 83.153 156.308 80.353C156.479 79.3661 155.569 78.9453 155.496 79.4656C155.025 82.1049 149.509 86.0984 152.457 87.3683C154.22 88.141 156.787 84.5071 156.787 84.5071Z" fill="#FFC3BD"/>
<path d="M158.965 83.1989C158.908 81.6688 157.649 79.718 156.406 82.1431L155.756 82.6175C155.756 82.6175 154.001 82.8623 151.8 85.6776L154.156 87.6666L154.968 87.5519C156.252 87.3543 157.462 86.8543 158.485 86.0983L158.648 85.9683C158.831 85.8145 158.973 85.622 159.062 85.4066C159.151 85.1912 159.184 84.9589 159.16 84.7289L158.965 83.1989Z" fill="#FFC3BD"/>
<path d="M111.913 37.2664C110.906 43.9069 110.288 46.6992 113.099 50.7462C117.283 56.8664 126.162 56.5604 129.265 50.3408C132.051 44.7408 133.237 34.8184 126.999 30.8785C125.624 30.0111 124.038 29.4875 122.389 29.357C120.74 29.2264 119.083 29.4932 117.575 30.1322C116.066 30.7712 114.754 31.7614 113.764 33.0095C112.773 34.2576 112.136 35.7226 111.913 37.2664Z" fill="#FFC3BD"/>
<path d="M125.999 42.2855C128.851 40.5489 131.864 38.0625 131.604 34.6811C131.344 31.2997 126.82 28.1172 120.589 28.1172C112.262 28.1172 112.603 33.2123 112.603 33.2123C110.979 33.4035 94.7967 46.8833 114.837 52.1161C134.878 57.3489 125.999 42.2855 125.999 42.2855Z" fill="#263238"/>
<path d="M109.37 33.6787C109.37 33.6787 108.558 35.3618 108.826 36.1268C111.539 36.7847 121.011 37.1672 125.78 36.341C126.338 35.4396 127.036 34.6222 127.851 33.9159L109.37 33.6787Z" fill="white"/>
<path d="M108.607 34.4894C109.037 35.8588 125.496 35.132 130.792 34.4894C132.06 34.3252 133.308 34.0486 134.521 33.6631V33.1429H132.254C132.254 33.1429 130.792 23.8172 120.735 23.8325C112.1 23.8861 107.039 29.4861 108.607 34.4894Z" fill="#D00000"/>
<path d="M123.01 23.3966C121.388 23.2767 119.758 23.2767 118.136 23.3966C116.56 23.8709 115.138 24.0851 113.197 26.9157L117.543 27.0534C117.543 27.0534 120.37 24.0927 123.189 24.0698C123.176 23.8366 123.115 23.6079 123.01 23.3966Z" fill="#D00000"/>
<path opacity="0.2" d="M116.219 33.3111H116.178C116.138 33.3064 116.1 33.2943 116.065 33.2755C116.031 33.2567 116.001 33.2317 115.976 33.2018C115.952 33.1718 115.935 33.1377 115.925 33.1013C115.914 33.0649 115.912 33.027 115.918 32.9897C117.047 26.1504 122.303 23.8094 122.531 23.7482C122.567 23.733 122.606 23.7247 122.646 23.7237C122.685 23.7228 122.725 23.7293 122.762 23.7428C122.799 23.7563 122.833 23.7766 122.861 23.8025C122.89 23.8283 122.913 23.8593 122.929 23.8936C122.946 23.9271 122.956 23.9636 122.958 24.0009C122.961 24.0382 122.955 24.0755 122.941 24.1106C122.927 24.1456 122.906 24.1777 122.879 24.2049C122.852 24.232 122.819 24.2536 122.782 24.2684C122.725 24.2684 117.6 26.5635 116.519 33.0739C116.509 33.1415 116.473 33.2031 116.417 33.2469C116.362 33.2908 116.291 33.3136 116.219 33.3111Z" fill="black"/>
<path d="M128.729 41.5509C129.16 42.9217 129.068 44.3914 128.469 45.705C127.657 47.4263 125.951 47.0438 125.081 45.5137C124.269 44.1443 123.765 41.5968 125.081 40.3727C126.397 39.1487 128.193 39.8984 128.729 41.5509Z" fill="#FFC3BD"/>
<path d="M125.821 102.73C125.821 102.73 113.18 149.129 104.082 175.278C96.7302 196.4 84.9592 245.767 84.9592 245.767H75.2109C75.2109 245.767 80.475 197.876 86.064 176.984C100.207 124.12 90.995 119.821 104.407 102.73H125.821Z" fill="#D00000"/>
<path opacity="0.4" d="M112.636 117.266C108.404 131.801 108.729 147.66 110.54 155.433C113.156 146.972 115.772 138.136 118.079 130.187C117.283 125.872 114.854 120.861 112.636 117.266Z" fill="black"/>
<path d="M86.3971 245.951H73.9275L74.2605 241.827L87.5506 241.406L86.3971 245.951Z" fill="#263238"/>
<path d="M123.595 254.909H130.776L130.216 239.257H123.034L123.595 254.909Z" fill="#FFC3BD"/>
<path d="M131.345 250.288H123.278C123.14 250.285 123.005 250.33 122.9 250.415C122.795 250.5 122.727 250.618 122.709 250.747L121.791 256.753C121.773 256.905 121.789 257.059 121.838 257.204C121.888 257.35 121.969 257.484 122.077 257.598C122.185 257.713 122.318 257.804 122.466 257.866C122.614 257.929 122.774 257.961 122.937 257.961C125.748 257.916 127.104 257.755 130.654 257.755C132.831 257.755 136.024 257.969 139.038 257.969C142.052 257.969 142.206 255.161 140.955 254.909C135.325 253.769 134.456 252.201 132.547 250.701C132.209 250.436 131.784 250.29 131.345 250.288Z" fill="#263238"/>
<path opacity="0.2" d="M123.034 239.257H130.216L130.5 247.328H123.319L123.034 239.257Z" fill="black"/>
<path d="M133.522 102.73C133.522 102.73 133.522 149.129 131.58 175.278C129.996 196.4 131.702 245.767 131.702 245.767H121.913C121.913 245.767 114.106 197.876 113.993 176.984C113.708 124.12 103.318 119.821 112.067 102.73H133.522Z" fill="#D00000"/>
<path d="M133.042 245.951H120.573L119.915 241.827L133.107 241.406L133.042 245.951Z" fill="#263238"/>
<path d="M103.928 101.116L102.612 103.579C102.514 103.77 102.75 103.961 103.091 103.961H133.66C133.928 103.961 134.147 103.839 134.163 103.686L134.423 101.23C134.423 101.054 134.212 100.909 133.928 100.909H104.407C104.315 100.902 104.222 100.917 104.138 100.953C104.054 100.989 103.982 101.045 103.928 101.116Z" fill="white"/>
<path d="M107.892 104.23H107.08C106.925 104.23 106.804 104.153 106.812 104.061L107.185 100.864C107.185 100.772 107.332 100.695 107.486 100.695H108.298C108.453 100.695 108.574 100.772 108.566 100.864L108.193 104.061C108.201 104.153 108.055 104.23 107.892 104.23Z" fill="#263238"/>
<path d="M127.063 104.23H126.251C126.097 104.23 125.975 104.153 125.983 104.061L126.357 100.864C126.357 100.772 126.503 100.695 126.665 100.695H127.478C127.632 100.695 127.754 100.772 127.746 100.864L127.372 104.061C127.356 104.153 127.218 104.23 127.063 104.23Z" fill="#263238"/>
</svg>
