<svg width="400" height="265" viewBox="0 0 400 265" fill="none" xmlns="http://www.w3.org/2000/svg">
<path d="M400 232.878H0V233.056H400V232.878Z" fill="#E6E6E6"/>
<path d="M359.92 244.323H333.424V244.501H359.92V244.323Z" fill="#E6E6E6"/>
<path d="M264.976 246.257H258.024V246.435H264.976V246.257Z" fill="#E6E6E6"/>
<path d="M332.624 237.722H317.272V237.9H332.624V237.722Z" fill="#E6E6E6"/>
<path d="M76.52 238.917H41.968V239.095H76.52V238.917Z" fill="#E6E6E6"/>
<path d="M88.712 238.917H83.648V239.095H88.712V238.917Z" fill="#E6E6E6"/>
<path d="M180.12 241.918H105.176V242.096H180.12V241.918Z" fill="#E6E6E6"/>
<path d="M189.6 201.154H35.128C33.9179 201.152 32.758 200.724 31.9031 199.962C31.0482 199.201 30.568 198.169 30.568 197.093V4.02593C30.5785 2.95616 31.0633 1.93328 31.9171 1.17948C32.7709 0.42568 33.9248 0.00183257 35.128 0H189.6C190.811 0 191.973 0.427906 192.83 1.18958C193.687 1.95126 194.168 2.98432 194.168 4.06149V197.093C194.168 198.17 193.687 199.203 192.83 199.965C191.973 200.726 190.811 201.154 189.6 201.154ZM35.128 0.142259C33.9709 0.144144 32.862 0.554145 32.0445 1.28227C31.2271 2.0104 30.768 2.99715 30.768 4.02593V197.093C30.768 198.121 31.2271 199.108 32.0445 199.836C32.862 200.564 33.9709 200.974 35.128 200.976H189.6C190.758 200.974 191.868 200.565 192.686 199.837C193.505 199.109 193.966 198.122 193.968 197.093V4.02593C193.966 2.99649 193.505 2.00976 192.686 1.28184C191.868 0.553914 190.758 0.14414 189.6 0.142259H35.128Z" fill="#E6E6E6"/>
<path d="M362.648 201.154H208.168C206.957 201.152 205.796 200.724 204.94 199.963C204.084 199.201 203.602 198.169 203.6 197.093V4.02593C203.613 2.95551 204.099 1.93264 204.954 1.17904C205.809 0.425432 206.964 0.00181259 208.168 0H362.648C363.85 0.00370193 365.002 0.428377 365.854 1.18198C366.706 1.93558 367.189 2.95739 367.2 4.02593V197.093C367.2 198.167 366.721 199.198 365.868 199.96C365.014 200.721 363.857 201.15 362.648 201.154ZM208.168 0.142259C207.01 0.14414 205.9 0.553914 205.082 1.28184C204.263 2.00976 203.802 2.99649 203.8 4.02593V197.093C203.802 198.122 204.263 199.109 205.082 199.837C205.9 200.565 207.01 200.974 208.168 200.976H362.648C363.806 200.974 364.916 200.565 365.734 199.837C366.553 199.109 367.014 198.122 367.016 197.093V4.02593C367.014 2.99649 366.553 2.00976 365.734 1.28184C364.916 0.553914 363.806 0.14414 362.648 0.142259H208.168Z" fill="#E6E6E6"/>
<path d="M177.4 232.878L177.4 18.9702L48.624 18.9702L48.624 232.878H177.4Z" fill="#E6E6E6"/>
<path d="M180.392 70.1621V55.9006H177.4V70.1621H180.392Z" fill="#E0E0E0"/>
<path d="M180.392 199.696V185.435H177.4V199.696H180.392Z" fill="#E0E0E0"/>
<path d="M257.784 232.878V18.9702L180.392 18.9702V232.878H257.784Z" fill="#F2F2F2"/>
<path d="M247.744 223.951V27.897L190.432 27.897V223.951H247.744Z" stroke="#E6E6E6" stroke-width="1.04585" stroke-miterlimit="10"/>
<path d="M261.752 232.871V18.9629H257.776V232.871H261.752Z" fill="#E6E6E6"/>
<path d="M169.032 26.4104H56.9921V232.878H169.032V26.4104Z" fill="#F5F5F5"/>
<path d="M99.856 64.9057C99.8412 63.1504 99.0466 61.4716 97.6455 60.2351C96.2443 58.9986 94.3502 58.3048 92.376 58.3048C91.4162 58.3031 90.4652 58.4674 89.576 58.7885C88.7528 57.2904 87.4263 56.0568 85.7801 55.2582C84.1339 54.4596 82.2493 54.1355 80.3869 54.3308C78.5245 54.526 76.7763 55.231 75.3842 56.3482C73.9921 57.4653 73.0247 58.9395 72.616 60.5668C70.5985 60.6819 68.7105 61.4905 67.3516 62.8214C65.9927 64.1523 65.2694 65.901 65.3349 67.6976C65.4004 69.4942 66.2494 71.1976 67.7024 72.4475C69.1554 73.6973 71.0983 74.3955 73.12 74.3943H97.92C99.2073 74.3898 100.452 73.9855 101.44 73.2511C102.427 72.5168 103.095 71.4987 103.328 70.373C103.56 69.2472 103.343 68.0846 102.713 67.0863C102.084 66.0879 101.082 65.3165 99.88 64.9057H99.856Z" fill="white"/>
<path d="M128.344 48.1193C128.35 47.2043 128.609 46.3046 129.097 45.4991C129.585 44.6935 130.287 44.0065 131.143 43.4983C131.999 42.9901 132.982 42.6762 134.005 42.584C135.029 42.4918 136.063 42.6242 137.016 42.9695C137.709 41.7054 138.827 40.6643 140.215 39.9903C141.603 39.3163 143.193 39.0428 144.763 39.2077C146.334 39.3726 147.808 39.9677 148.981 40.9106C150.155 41.8535 150.969 43.0975 151.312 44.4703C153.005 44.5754 154.587 45.26 155.724 46.3802C156.862 47.5004 157.467 48.969 157.412 50.4774C157.357 51.9858 156.647 53.4166 155.43 54.4691C154.213 55.5216 152.585 56.1138 150.888 56.1213H130C128.915 56.1173 127.865 55.7762 127.033 55.1571C126.2 54.538 125.637 53.6798 125.44 52.7308C125.244 51.7817 125.427 50.8015 125.957 49.9594C126.487 49.1174 127.331 48.4665 128.344 48.1193Z" fill="white"/>
<path d="M169.032 192.569H56.9921V232.878H169.032V192.569Z" fill="#FAFAFA"/>
<path d="M134.896 164.97C126.584 171.436 108.496 192.569 94.8481 175.96C81.2001 159.351 56.9921 153.974 56.9921 153.974V192.569H169.032V162.886C169.032 162.886 149.024 153.974 134.896 164.97Z" fill="#E6E6E6"/>
<path d="M252.8 116.602C252.8 117.175 252.609 117.735 252.251 118.211C251.893 118.687 251.385 119.058 250.79 119.277C250.195 119.496 249.54 119.554 248.909 119.442C248.277 119.33 247.697 119.054 247.242 118.65C246.786 118.245 246.476 117.729 246.351 117.167C246.225 116.606 246.289 116.024 246.536 115.495C246.782 114.966 247.2 114.514 247.735 114.195C248.27 113.877 248.9 113.708 249.544 113.708C250.408 113.708 251.236 114.013 251.846 114.555C252.457 115.098 252.8 115.835 252.8 116.602Z" fill="#E0E0E0"/>
<path d="M250.232 116.603C250.23 117.543 249.915 118.463 249.326 119.244C248.737 120.026 247.901 120.635 246.922 120.994C245.944 121.353 244.868 121.446 243.831 121.262C242.793 121.077 241.84 120.624 241.093 119.958C240.345 119.292 239.836 118.444 239.63 117.521C239.424 116.598 239.531 115.642 239.936 114.773C240.341 113.904 241.027 113.161 241.907 112.638C242.787 112.116 243.822 111.837 244.88 111.837C246.3 111.839 247.661 112.342 248.665 113.235C249.668 114.129 250.232 115.34 250.232 116.603Z" fill="#E6E6E6"/>
<path d="M374.664 163.022H360.176V232.871H374.664V163.022Z" fill="#E6E6E6"/>
<path d="M370.32 232.878H374.664V219.513H365.768L370.32 232.878Z" fill="#F2F2F2"/>
<path d="M292.464 163.022H277.976V232.871H292.464V163.022Z" fill="#E6E6E6"/>
<path d="M374.664 163.022H288.672V224.67H374.664V163.022Z" fill="#F2F2F2"/>
<path d="M293.016 232.878H288.672V219.513H297.568L293.016 232.878Z" fill="#F2F2F2"/>
<path d="M371.296 167.361H292.04V192.028H371.296V167.361Z" fill="#E6E6E6"/>
<path d="M345.272 175.028H320.976C316.744 175.028 312.688 171.984 309.776 166.614H356.48C353.6 171.984 349.512 175.028 345.272 175.028Z" fill="#F2F2F2"/>
<path d="M371.296 196.019H292.04V220.686H371.296V196.019Z" fill="#E6E6E6"/>
<path d="M345.272 203.687H320.976C316.744 203.687 312.688 200.642 309.776 195.272H356.48C353.6 200.642 349.512 203.687 345.272 203.687Z" fill="#F2F2F2"/>
<path d="M200 265C285.666 265 355.112 261.395 355.112 256.948C355.112 252.501 285.666 248.896 200 248.896C114.334 248.896 44.888 252.501 44.888 256.948C44.888 261.395 114.334 265 200 265Z" fill="#F5F5F5"/>
<path d="M283.424 57.885C282.568 61.7829 282.048 67.1745 285.112 69.7779C285.112 69.7779 283.912 73.7255 275.776 73.7255C266.824 73.7255 271.472 70.2615 271.472 70.2615C275.192 69.2302 275.16 65.4674 274.304 62.4373L283.424 57.885Z" fill="#FFB573"/>
<path d="M270.728 70.9515C270.728 70.9515 271.728 68.2059 272.744 67.7293C273.76 67.2527 284.592 66.0151 286.088 67.1105C287.584 68.2059 284.216 71.7197 284.216 71.7197L270.728 70.9515Z" fill="#263238"/>
<path d="M266.4 251.798C265.6 251.798 264.896 251.706 264.68 251.393C264.625 251.307 264.601 251.208 264.612 251.11C264.624 251.012 264.67 250.919 264.744 250.845C264.796 250.771 264.865 250.706 264.946 250.656C265.028 250.606 265.119 250.571 265.216 250.554C266.232 250.312 268.232 251.372 268.312 251.414C268.336 251.428 268.354 251.447 268.366 251.47C268.377 251.493 268.381 251.518 268.376 251.542C268.369 251.569 268.353 251.594 268.33 251.613C268.307 251.632 268.279 251.644 268.248 251.649C267.638 251.745 267.02 251.795 266.4 251.798ZM265.6 250.753C265.51 250.742 265.418 250.742 265.328 250.753C265.268 250.762 265.21 250.783 265.159 250.814C265.108 250.844 265.065 250.884 265.032 250.931C264.92 251.087 264.944 251.158 264.976 251.208C265.224 251.549 266.736 251.557 267.864 251.421C267.168 251.064 266.398 250.837 265.6 250.753Z" fill="#D00000"/>
<path d="M268.24 251.635H268.184C267.488 251.343 266.16 250.212 266.328 249.593C266.328 249.451 266.488 249.273 266.888 249.238C267.025 249.224 267.163 249.235 267.294 249.272C267.425 249.309 267.546 249.37 267.648 249.451C268.36 250.013 268.392 251.443 268.392 251.507C268.392 251.543 268.376 251.577 268.348 251.602C268.319 251.628 268.281 251.642 268.24 251.642V251.635ZM266.976 249.501H266.888C266.632 249.501 266.608 249.615 266.6 249.643C266.504 250.006 267.4 250.909 268.096 251.308C268.088 250.713 267.863 250.136 267.456 249.664C267.329 249.55 267.157 249.483 266.976 249.479V249.501Z" fill="#D00000"/>
<path d="M274.832 251.507H268.848L269.384 239.18H275.368L274.832 251.507Z" fill="#FFB573"/>
<path d="M268.944 250.895H275.48C275.596 250.892 275.709 250.928 275.798 250.995C275.886 251.062 275.944 251.155 275.96 251.258L276.704 255.988C276.72 256.106 276.707 256.227 276.667 256.341C276.627 256.455 276.56 256.56 276.471 256.649C276.381 256.738 276.272 256.81 276.15 256.859C276.027 256.908 275.894 256.934 275.76 256.934C273.4 256.898 270.008 256.777 267.04 256.777C263.576 256.777 263.136 256.948 259.04 256.948C256.584 256.948 256.104 254.736 257.152 254.537C261.952 253.626 263.176 253.527 267.432 251.307C267.884 251.05 268.407 250.908 268.944 250.895Z" fill="#263238"/>
<path d="M251.768 83.7336C252.023 83.8575 252.237 84.0379 252.39 84.2573C252.542 84.4767 252.629 84.7276 252.64 84.9854L252.68 86.1733C252.698 86.4739 252.61 86.7721 252.43 87.0268C252.249 87.2815 251.985 87.4803 251.672 87.5959L248.984 88.5988C248.223 88.8792 247.378 88.9243 246.584 88.7269L243.2 87.8662C242.845 87.7403 242.538 87.5267 242.316 87.2507C242.093 86.9746 241.964 86.6476 241.944 86.3085L241.832 84.6227C241.815 84.3727 241.857 84.1223 241.956 83.8877C242.055 83.6532 242.208 83.4397 242.406 83.2613C242.603 83.0829 242.841 82.9434 243.103 82.852C243.366 82.7605 243.647 82.7192 243.928 82.7306L245.528 82.7947C247.667 82.4466 249.876 82.779 251.768 83.7336Z" fill="#FFB573"/>
<path d="M292.744 78.5554C291.643 80.1915 290.405 81.7513 289.04 83.2215C287.662 84.7108 286.145 86.0933 284.504 87.3542C281.316 89.7343 277.845 91.7975 274.152 93.5069L273.824 93.6633C273.093 94.0208 272.242 94.1368 271.424 93.9905C269.632 93.6776 267.848 93.2792 266.064 92.9165C264.28 92.5537 262.52 92.0772 260.76 91.5864C259 91.0956 257.256 90.5692 255.528 89.9575C254.664 89.6516 253.816 89.3173 252.96 88.9759C252.104 88.6345 251.296 88.2646 250.352 87.8236C249.881 87.5914 249.518 87.2168 249.33 86.7675C249.143 86.3183 249.142 85.8241 249.329 85.3745C249.515 84.9248 249.877 84.5495 250.348 84.3164C250.819 84.0832 251.368 84.0077 251.896 84.1035L252.112 84.1462L254.552 84.5872C255.4 84.7366 256.256 84.8575 257.112 84.9855C258.824 85.2416 260.544 85.4787 262.272 85.6968C263.992 85.9245 265.728 86.1023 267.464 86.3014L272.672 86.8207L269.928 87.3044C272.963 85.5638 275.829 83.6009 278.496 81.4362C279.737 80.3808 280.902 79.2571 281.984 78.0718C283.078 76.8657 284.101 75.6098 285.048 74.309C285.718 73.4696 286.723 72.8895 287.857 72.6874C288.992 72.4854 290.171 72.6766 291.152 73.2219C292.134 73.7673 292.843 74.6256 293.136 75.6211C293.429 76.6165 293.283 77.6739 292.728 78.5768L292.744 78.5554Z" fill="#FFB573"/>
<path d="M260.368 75.134C259.144 80.8813 258.376 92.6959 261.968 116.083H293.968C292.398 103.023 292.57 89.8439 294.48 76.8198C294.628 75.8585 294.555 74.8805 294.266 73.9451C293.976 73.0096 293.476 72.1363 292.795 71.378C292.114 70.6197 291.267 69.9923 290.305 69.5339C289.344 69.0754 288.287 68.7955 287.2 68.711C286.512 68.6612 285.816 68.6185 285.128 68.5901C280.598 68.3557 276.057 68.3557 271.528 68.5901C270.024 68.711 268.552 68.903 267.24 69.1093C265.542 69.3742 263.975 70.0926 262.747 71.1688C261.52 72.245 260.69 73.6281 260.368 75.134Z" fill="#D00000"/>
<path opacity="0.2" d="M269.384 239.187L269.104 245.539H275.096L275.376 239.187H269.384Z" fill="black"/>
<path d="M286.272 52.1876C284.736 57.2947 284.12 60.3462 280.584 62.473C275.256 65.6596 268.584 61.9964 268.408 56.5905C268.224 51.7182 270.768 44.1927 276.928 43.1613C278.285 42.9292 279.687 43.0093 281 43.394C282.312 43.7788 283.493 44.4553 284.429 45.3596C285.365 46.2638 286.025 47.3657 286.348 48.5607C286.671 49.7557 286.644 51.0041 286.272 52.1876Z" fill="#FFB573"/>
<path d="M271.472 53.1478C270.448 51.1348 271.824 47.8202 273.512 46.9311C272.264 46.0349 270.984 45.16 271.472 43.0332C271.96 40.9064 276.664 38.2533 279.472 40.1098C282.28 41.9662 293.208 39.1637 289.832 45.9566C297.384 48.4888 287.832 58.8666 282.856 61.5197C277.88 64.1729 273.664 58.9164 271.472 53.1478Z" fill="#263238"/>
<path d="M288.8 46.035C288.8 46.035 291.776 45.4019 292.088 41.689C294.536 45.1245 293.112 46.8245 288.8 46.035Z" fill="#263238"/>
<path d="M275.712 52.3297C275.357 53.603 274.542 54.7375 273.392 55.559C271.864 56.6259 270.672 55.6443 270.736 54.0723C270.792 52.6498 271.656 50.4021 273.36 49.9397C275.064 49.4774 276.112 50.7862 275.712 52.3297Z" fill="#FFB573"/>
<path d="M332.296 231.989L326.992 234.265L319.824 223.425L325.128 221.148L332.296 231.989Z" fill="#FFB573"/>
<path d="M324 234.557C323.424 235.019 322.816 235.389 322.4 235.268C322.264 235.268 322.088 235.133 322.032 234.827C322.002 234.65 322.047 234.47 322.16 234.322C322.736 233.532 325.016 233.127 325.112 233.113C325.138 233.107 325.166 233.109 325.191 233.12C325.216 233.13 325.236 233.148 325.248 233.169C325.263 233.192 325.272 233.218 325.272 233.244C325.272 233.271 325.263 233.296 325.248 233.319C324.873 233.762 324.455 234.177 324 234.557ZM322.584 234.308C322.514 234.362 322.452 234.424 322.4 234.493C322.331 234.582 322.3 234.69 322.312 234.798C322.312 234.983 322.432 235.026 322.488 235.04C322.928 235.147 324.088 234.244 324.784 233.468C324.001 233.617 323.258 233.902 322.6 234.308H322.584Z" fill="#D00000"/>
<path d="M325.248 233.362H325.2C324.464 233.561 322.616 233.504 322.28 232.956C322.2 232.828 322.168 232.622 322.432 232.359C322.522 232.266 322.634 232.191 322.76 232.141C322.886 232.091 323.022 232.065 323.16 232.067C324.104 232.067 325.216 233.091 325.264 233.141C325.274 233.16 325.279 233.181 325.279 233.201C325.279 233.222 325.274 233.243 325.264 233.262C325.27 233.279 325.271 233.296 325.268 233.313C325.266 233.33 325.259 233.347 325.248 233.362ZM322.68 232.515L322.624 232.572C322.448 232.743 322.496 232.821 322.512 232.849C322.712 233.177 324.056 233.312 324.872 233.191C324.421 232.751 323.819 232.457 323.16 232.351C322.983 232.354 322.813 232.412 322.68 232.515Z" fill="#D00000"/>
<path d="M325.208 232.394L330.048 228.482C330.136 228.416 330.248 228.379 330.364 228.379C330.48 228.379 330.592 228.416 330.68 228.482L334.808 231.541C334.909 231.62 334.989 231.718 335.044 231.827C335.1 231.936 335.128 232.054 335.128 232.174C335.128 232.293 335.1 232.412 335.044 232.521C334.989 232.63 334.909 232.727 334.808 232.807C333.04 234.187 330.432 236.129 328.232 237.9C325.672 239.97 325.472 240.354 322.464 242.786C320.64 244.252 318.616 242.907 319.264 242.132C322.104 238.575 322.968 237.779 324.432 233.596C324.564 233.141 324.832 232.725 325.208 232.394Z" fill="#263238"/>
<path opacity="0.2" d="M319.824 223.432L323.52 229.015L328.824 226.739L325.136 221.148L319.824 223.432Z" fill="black"/>
<path d="M273.296 116.083C273.296 116.083 283.312 156.983 287.144 172.162C291.344 188.785 319.576 227.771 319.576 227.771L329.32 223.24C329.32 223.24 311.2 190.392 304.184 171.315C301.064 153.533 293.96 116.097 293.96 116.097L273.296 116.083Z" fill="#575A89"/>
<path opacity="0.5" d="M273.296 116.083C273.296 116.083 283.312 156.983 287.144 172.162C291.344 188.785 319.576 227.771 319.576 227.771L329.32 223.24C329.32 223.24 311.2 190.392 304.184 171.315C301.064 153.533 293.96 116.097 293.96 116.097L273.296 116.083Z" fill="#575A89"/>
<path d="M316.912 226.078C316.872 226.078 319.088 229.25 319.088 229.25L330.488 223.908L329.32 220.708L316.912 226.078Z" fill="#D00000"/>
<path opacity="0.3" d="M279.2 135.039C286.736 135.928 287.608 159.55 287.472 173.406C287.368 172.965 287.256 172.553 287.16 172.155C285.072 163.868 281.136 147.899 277.992 135.117C278.382 135.008 278.796 134.981 279.2 135.039Z" fill="black"/>
<path d="M261.936 116.083C261.936 116.083 260.488 155.916 260.992 172.126C261.512 188.991 266.592 244.308 266.592 244.308H276.8C276.8 244.308 278.144 190.001 279.264 173.414C280.472 155.332 283.024 116.083 283.024 116.083H261.936Z" fill="#575A89"/>
<path opacity="0.5" d="M261.936 116.083C261.936 116.083 260.488 155.916 260.992 172.126C261.512 188.991 266.592 244.308 266.592 244.308H276.8C276.8 244.308 278.144 190.001 279.264 173.414C280.472 155.332 283.024 116.083 283.024 116.083H261.936Z" fill="#575A89"/>
<path d="M265.368 240.716C265.32 240.716 265.592 244.458 265.592 244.458H277.936L278.576 241.122L265.368 240.716Z" fill="#D00000"/>
<path d="M232.8 92.4112C233.086 92.4591 233.352 92.5731 233.573 92.7417C233.793 92.9102 233.96 93.1274 234.056 93.3715L234.496 94.4882C234.608 94.7685 234.621 95.0724 234.534 95.3596C234.447 95.6467 234.263 95.9035 234.008 96.0957L231.784 97.7744C231.145 98.2505 230.345 98.5234 229.512 98.5497L226.064 98.635C225.683 98.6108 225.318 98.49 225.012 98.2871C224.705 98.0842 224.471 97.8075 224.336 97.4898L223.656 95.9108C223.556 95.677 223.512 95.4272 223.527 95.1774C223.542 94.9277 223.617 94.6836 223.745 94.4609C223.873 94.2383 224.053 94.0421 224.271 93.885C224.49 93.728 224.744 93.6136 225.016 93.5493L226.544 93.1865C228.462 92.2821 230.677 92.0076 232.8 92.4112Z" fill="#FFB573"/>
<path d="M268.8 76.9835C268.136 79.1529 267.4 81.3153 266.664 83.4776C265.928 85.6399 265.128 87.788 264.264 89.929C263.4 92.07 262.52 94.1968 261.52 96.3307C261.024 97.4047 260.504 98.4646 259.92 99.5671C259.311 100.728 258.621 101.854 257.856 102.939L257.672 103.195C257.288 103.73 256.738 104.155 256.087 104.416C255.436 104.678 254.714 104.765 254.008 104.667C253 104.525 251.992 104.404 250.992 104.233C249.992 104.062 249 103.885 248.008 103.65C247.016 103.415 246.04 103.195 245.064 102.903C244.088 102.611 243.128 102.32 242.176 101.993C240.268 101.317 238.42 100.513 236.648 99.5884C235.758 99.1184 234.895 98.608 234.064 98.0591C233.64 97.7888 233.264 97.4972 232.824 97.1985C232.616 97.0491 232.416 96.8997 232.216 96.729C232.016 96.5583 231.84 96.4161 231.568 96.1742C231.184 95.8446 230.946 95.4036 230.897 94.9313C230.847 94.4589 230.99 93.9865 231.298 93.5995C231.607 93.2125 232.061 92.9365 232.579 92.8217C233.096 92.7068 233.643 92.7606 234.12 92.9734L234.488 93.137L235.528 93.6064C235.912 93.77 236.328 93.9407 236.704 94.0901C237.504 94.4031 238.304 94.6663 239.152 94.9294C240.818 95.4428 242.513 95.875 244.232 96.224C245.952 96.5654 247.696 96.8357 249.448 97.0349C250.312 97.1487 251.208 97.1914 252.08 97.2838L254.728 97.4332L250.888 99.1545C251.382 98.308 251.82 97.4363 252.2 96.5441C252.624 95.5838 253.048 94.588 253.448 93.578C254.248 91.5508 254.992 89.4667 255.736 87.3755L257.912 81.0592L260.072 74.7073C260.401 73.6783 261.176 72.8075 262.227 72.2866C263.278 71.7657 264.519 71.6373 265.676 71.9297C266.833 72.2221 267.813 72.9113 268.399 73.8458C268.984 74.7802 269.129 75.8833 268.8 76.9123V76.9835Z" fill="#FFB573"/>
<path d="M273.736 74.7428C276.136 81.7704 265.736 91.4013 265.736 91.4013L254.352 86.593C254.352 86.593 255.632 78.2352 260.448 73.2206C266.4 67.0395 271.912 69.401 273.736 74.7428Z" fill="#D00000"/>
<path d="M143.52 117.143C148.2 121.041 149.048 124.555 148.424 129.235C147.8 133.915 140.776 135.317 140.776 135.317L141.384 118.246L143.52 117.143Z" fill="#263238"/>
<path d="M128.128 251.094L134.536 251.009L134.136 237.764L127.728 237.85L128.128 251.094Z" fill="#FFC3BD"/>
<path d="M134.608 250.376L127.608 250.475C127.484 250.475 127.365 250.515 127.273 250.589C127.182 250.663 127.124 250.764 127.112 250.874L126.504 255.959C126.492 256.088 126.51 256.218 126.558 256.341C126.605 256.463 126.682 256.575 126.781 256.67C126.881 256.764 127.001 256.839 127.136 256.89C127.27 256.94 127.414 256.965 127.56 256.962C130.08 256.891 133.712 256.706 136.888 256.664C140.6 256.614 140.232 256.749 144.592 256.664C147.216 256.628 147.64 254.252 146.512 254.053C141.376 253.143 140.856 253.093 136.216 250.774C135.728 250.519 135.174 250.382 134.608 250.376Z" fill="#263238"/>
<path d="M141.416 75.9165C144 78.7617 146.752 81.7349 149.496 84.5516C152.24 87.3684 155.096 90.1495 158.008 92.6391L158.552 93.0943L158.832 93.329L158.968 93.4428L158.92 93.4073L158.808 93.3361C158.564 93.1985 158.292 93.1043 158.008 93.0587C157.916 93.0367 157.82 93.0367 157.728 93.0587C157.728 93.0587 157.952 93.0587 158.24 93.0587C158.6 92.9935 158.956 92.908 159.304 92.8026C161.093 92.1863 162.82 91.4343 164.464 90.555C168 88.734 171.6 86.593 175.096 84.4805L178.352 87.6458C175.433 90.6921 172.209 93.4966 168.72 96.0248C166.837 97.397 164.796 98.589 162.632 99.5813C161.984 99.8575 161.316 100.095 160.632 100.293C159.765 100.559 158.86 100.715 157.944 100.755C157.31 100.784 156.675 100.736 156.056 100.613C155.251 100.461 154.488 100.171 153.808 99.7591L153.536 99.5884L153.344 99.4604L153.176 99.3394L152.832 99.0976L152.152 98.6139C150.344 97.3194 148.648 95.9608 147.024 94.5738C145.4 93.1868 143.824 91.7286 142.304 90.306C139.255 87.3977 136.377 84.3516 133.68 81.1801L141.416 75.9165Z" fill="#FFC3BD"/>
<path d="M130.248 78.3206C129.768 83.826 144.88 95.1996 144.88 95.1996L155.2 85.6754C151.921 81.7361 148.166 78.1295 144 74.9206C137.776 70.4181 130.768 72.2817 130.248 78.3206Z" fill="#D00000"/>
<path opacity="0.2" d="M138.928 82.7377C141.6 83.136 147.784 89.4239 148.016 92.3046L144.88 95.1996C141.251 92.4265 137.867 89.4088 134.76 86.1732C136 84.2456 137.52 82.5101 138.928 82.7377Z" fill="black"/>
<path d="M175.728 88.9615L183.08 88.6983L181.544 82.3393C181.544 82.3393 175.856 81.8699 174.248 85.8531L175.728 88.9615Z" fill="#FFC3BD"/>
<path d="M188.504 85.0994L186.656 82.5103C186.507 82.3004 186.294 82.1327 186.042 82.0268C185.79 81.921 185.509 81.8814 185.232 81.9128L181.544 82.3182L183.08 88.6772L187.8 87.0057C188 86.9347 188.18 86.8257 188.327 86.6862C188.474 86.5468 188.585 86.3804 188.652 86.1986C188.72 86.0169 188.741 85.8243 188.715 85.6344C188.69 85.4445 188.618 85.2619 188.504 85.0994Z" fill="#FFC3BD"/>
<path opacity="0.2" d="M134.136 237.764L134.344 244.593L127.928 244.685L127.728 237.857L134.136 237.764Z" fill="black"/>
<path d="M138.184 72.5521C127.809 71.4189 117.286 72.0905 107.2 74.5295C106.643 74.6574 106.164 74.9735 105.865 75.4106C105.566 75.8477 105.471 76.3712 105.6 76.8697C110.984 98.0165 108.744 119.903 109.16 124.434L143.512 123.943C145.96 97.8742 143.144 81.5145 141.768 75.5396C141.59 74.7738 141.15 74.0757 140.509 73.5408C139.867 73.006 139.055 72.6607 138.184 72.5521Z" fill="#D00000"/>
<path d="M114.536 72.7297L112.936 73.0711C112.892 73.0814 112.852 73.102 112.82 73.1306C112.788 73.1592 112.765 73.1949 112.754 73.234C112.742 73.2731 112.743 73.3142 112.755 73.3531C112.768 73.392 112.791 73.4272 112.824 73.4552C118.784 78.3276 142.744 103.906 143.44 125.422H145.512C144.808 103.586 120.232 77.0544 114.728 72.7866C114.703 72.7644 114.673 72.7476 114.64 72.7378C114.606 72.7279 114.571 72.7251 114.536 72.7297Z" fill="#263238"/>
<path opacity="0.2" d="M112.064 84.3735C112.592 86.4719 111.48 96.0459 108.912 98.4074C108.704 95.3417 108.392 92.1409 107.944 88.8689L112.064 84.3735Z" fill="black"/>
<path d="M117.448 58.3262C118.536 62.4303 119.768 69.7638 116.6 72.7583C119.248 74.8353 122.688 77.46 128.272 77.268C133.856 77.0759 132.808 73.7115 131.264 72.0257C125.976 71.2646 125.912 67.8148 126.688 64.5216L117.448 58.3262Z" fill="#FFC3BD"/>
<path opacity="0.2" d="M121.216 60.8794L126.68 64.5426C126.489 65.3077 126.372 66.0858 126.328 66.8685C124.32 66.7405 121.528 64.9765 121.2 63.1342C121.052 62.3879 121.057 61.6239 121.216 60.8794Z" fill="black"/>
<path d="M115.888 52.1165C116.688 57.7286 116.848 61.0575 120.264 63.7391C125.408 67.7721 133.064 64.6709 134.152 58.945C135.144 53.7881 133.664 45.473 127.28 43.6379C125.868 43.2386 124.366 43.1627 122.912 43.4173C121.458 43.6719 120.1 44.2487 118.964 45.0943C117.828 45.9399 116.95 47.0269 116.413 48.2545C115.875 49.482 115.694 50.8104 115.888 52.1165Z" fill="#FFC3BD"/>
<path d="M135.624 43.6876C136.091 43.8365 136.512 44.0797 136.855 44.3982C137.198 44.7167 137.453 45.1017 137.6 45.5228C137.622 45.6161 137.616 45.7131 137.581 45.8033C137.546 45.8935 137.484 45.9736 137.402 46.0349C137.32 46.0963 137.22 46.1367 137.114 46.1517C137.008 46.1667 136.9 46.1559 136.8 46.1203C133.392 44.8257 125.216 45.3592 125.216 45.3592C125.216 45.3592 132.264 42.6776 135.624 43.6876Z" fill="#D00000"/>
<path opacity="0.2" d="M135.624 43.6876C136.091 43.8365 136.512 44.0797 136.855 44.3982C137.198 44.7167 137.453 45.1017 137.6 45.5228C137.622 45.6161 137.616 45.7131 137.581 45.8033C137.546 45.8935 137.484 45.9736 137.402 46.0349C137.32 46.0963 137.22 46.1367 137.114 46.1517C137.008 46.1667 136.9 46.1559 136.8 46.1203C133.392 44.8257 125.216 45.3592 125.216 45.3592C125.216 45.3592 132.264 42.6776 135.624 43.6876Z" fill="black"/>
<path d="M117.4 57.1384L120.2 56.6689C120.2 56.6689 122.6 51.8108 119.8 50.3028C123 47.3296 134.368 49.3781 132.496 45.9212C130.96 43.0761 123.792 41.3832 118.096 43.2468C112.4 45.1104 113.08 47.5145 113.08 47.5145C113.08 47.5145 108.616 50.5162 112.096 54.0513C112.136 55.5735 115.472 57.8497 117.4 57.1384Z" fill="#263238"/>
<path d="M111.512 54.0583C111.564 54.108 111.628 54.1469 111.699 54.1722C111.77 54.1974 111.847 54.2084 111.923 54.2043C112 54.2002 112.074 54.1812 112.141 54.1486C112.209 54.1159 112.267 54.0705 112.312 54.0156C113.464 52.7139 117.32 48.6737 122.12 46.9738C125 45.9121 128.057 45.2801 131.168 45.1031C131.261 45.1021 131.352 45.0791 131.431 45.0364C131.51 44.9937 131.575 44.933 131.619 44.8604C131.663 44.7879 131.685 44.7061 131.681 44.6237C131.678 44.5413 131.65 44.4612 131.6 44.3918C130.854 43.058 129.918 41.8149 128.816 40.693C127.552 39.683 118.48 39.2278 115.832 40.7784C114.048 41.8311 109.016 46.3265 108.816 48.503C108.664 50.0323 109.712 52.3369 111.512 54.0583Z" fill="#D00000"/>
<path opacity="0.3" d="M111.512 54.0583C111.564 54.108 111.628 54.1469 111.699 54.1722C111.77 54.1974 111.847 54.2084 111.923 54.2043C112 54.2002 112.074 54.1812 112.141 54.1486C112.209 54.1159 112.267 54.0705 112.312 54.0156C113.464 52.7139 117.32 48.6737 122.12 46.9738C125 45.9121 128.057 45.2801 131.168 45.1031C131.261 45.1021 131.352 45.0791 131.431 45.0364C131.51 44.9937 131.575 44.933 131.619 44.8604C131.663 44.7879 131.685 44.7061 131.681 44.6237C131.678 44.5413 131.65 44.4612 131.6 44.3918C130.854 43.058 129.918 41.8149 128.816 40.693C127.552 39.683 118.48 39.2278 115.832 40.7784C114.048 41.8311 109.016 46.3265 108.816 48.503C108.664 50.0323 109.712 52.3369 111.512 54.0583Z" fill="white"/>
<path d="M117.712 49.2216C120.929 47.782 124.518 47.129 128.112 47.3295C128.507 47.3494 128.9 47.2724 129.248 47.1067C129.597 46.9411 129.887 46.6934 130.088 46.3906C130.968 45.1103 132.44 44.1145 135.024 43.8015C135.06 43.8015 135.095 43.7888 135.12 43.7661C135.146 43.7434 135.16 43.7127 135.16 43.6806C135.16 43.6485 135.146 43.6178 135.12 43.5951C135.095 43.5724 135.06 43.5597 135.024 43.5597C131.2 42.6777 119.512 45.3094 117.712 49.2216Z" fill="#D00000"/>
<path d="M113.288 57.8424C113.709 58.438 114.259 58.9534 114.906 59.3587C115.553 59.7641 116.284 60.0513 117.056 60.2039C119.128 60.6022 120.056 58.9236 119.392 57.2449C118.792 55.7298 116.992 53.6884 114.952 54.0512C114.509 54.1362 114.096 54.3174 113.751 54.5788C113.406 54.8403 113.139 55.1736 112.974 55.5492C112.809 55.9247 112.752 56.3307 112.806 56.7309C112.861 57.1311 113.027 57.513 113.288 57.8424Z" fill="#FFC3BD"/>
<path d="M123.632 180.612C123.888 151.904 116.744 124.327 116.744 124.327L143.52 123.943C143.52 123.943 140.44 165.412 139.368 182.781C138.256 200.841 136.704 243.241 136.704 243.241L125.832 243.391C125.832 243.391 122.128 203.274 123.632 180.612Z" fill="#263238"/>
<path opacity="0.2" d="M122.568 140.125C130.2 149.414 126.768 166.891 123.64 179.246C123.517 165.627 122.215 152.037 119.744 138.596L122.568 140.125Z" fill="black"/>
<path d="M124.472 239.905L125.16 243.625L137.416 243.448L138.128 239.507L124.472 239.905Z" fill="#D00000"/>
<path d="M135.776 250.852C135.749 250.845 135.724 250.832 135.706 250.813C135.687 250.794 135.676 250.77 135.672 250.745C135.667 250.718 135.672 250.69 135.687 250.666C135.701 250.642 135.724 250.622 135.752 250.61C136.04 250.468 138.6 249.273 139.384 249.643C139.457 249.678 139.518 249.73 139.563 249.792C139.608 249.854 139.634 249.925 139.64 249.999C139.663 250.12 139.65 250.245 139.603 250.361C139.555 250.477 139.474 250.58 139.368 250.66C138.68 251.229 136.832 251.03 135.792 250.859L135.776 250.852ZM139.184 249.863C138.696 249.721 137.312 250.212 136.296 250.66C137.72 250.852 138.776 250.781 139.168 250.461C139.235 250.407 139.286 250.339 139.317 250.264C139.348 250.188 139.357 250.107 139.344 250.027C139.344 249.997 139.334 249.968 139.316 249.942C139.297 249.917 139.271 249.897 139.24 249.885L139.184 249.863Z" fill="#D00000"/>
<path d="M135.776 250.852H135.736C135.713 250.84 135.695 250.822 135.684 250.8C135.672 250.779 135.668 250.755 135.672 250.731C135.672 250.667 135.824 249.124 136.624 248.519C136.738 248.43 136.871 248.362 137.016 248.319C137.16 248.276 137.312 248.26 137.464 248.27C137.888 248.306 138.008 248.491 138.04 248.64C138.168 249.287 136.656 250.546 135.888 250.866C135.869 250.871 135.85 250.873 135.83 250.87C135.811 250.868 135.792 250.862 135.776 250.852ZM137.592 248.555H137.44C137.329 248.545 137.216 248.557 137.11 248.589C137.004 248.621 136.906 248.672 136.824 248.74C136.359 249.243 136.079 249.861 136.024 250.511C136.824 250.077 137.832 249.088 137.752 248.704C137.736 248.654 137.72 248.59 137.6 248.555H137.592Z" fill="#D00000"/>
<path d="M92.7761 251.094L99.2001 251.009L100.736 237.764L94.3201 237.85L92.7761 251.094Z" fill="#FFC3BD"/>
<path d="M99.6721 250.376L92.6721 250.475C92.5479 250.473 92.4275 250.513 92.3353 250.587C92.2432 250.661 92.1862 250.763 92.1761 250.874L91.5601 255.959C91.549 256.088 91.5681 256.218 91.6163 256.339C91.6645 256.461 91.7406 256.573 91.8399 256.667C91.9392 256.762 92.0595 256.836 92.1931 256.887C92.3267 256.938 92.4708 256.964 92.6161 256.962C95.1361 256.891 95.9281 256.706 99.1041 256.663C102.816 256.614 101.104 256.749 105.456 256.663C108.088 256.628 108.512 254.259 107.384 254.053C103.816 253.384 102.88 252.125 101.272 250.774C100.814 250.468 100.243 250.325 99.6721 250.376Z" fill="#263238"/>
<path opacity="0.2" d="M100.736 237.764L99.944 244.593L93.52 244.685L94.312 237.857L100.736 237.764Z" fill="black"/>
<path d="M101.248 179.894C104.888 154.23 102.848 137.045 109.192 124.413L131.888 124.085C131.888 124.085 120.248 164.629 115.816 181.757C111.216 199.54 102.472 241.506 102.472 241.506L92.1201 241.641C92.1201 241.641 96.4081 201.154 101.248 179.894Z" fill="#263238"/>
<path d="M91.0081 239.905L91.6641 243.625L103.216 243.448L103.888 239.507L91.0081 239.905Z" fill="#D00000"/>
<path d="M98.4 250.781C98.3722 250.782 98.3448 250.775 98.3208 250.763C98.2968 250.75 98.2772 250.732 98.264 250.71C98.2468 250.687 98.2376 250.66 98.2376 250.632C98.2376 250.604 98.2468 250.577 98.264 250.554C98.488 250.333 100.424 248.42 101.312 248.541C101.394 248.551 101.472 248.58 101.538 248.625C101.604 248.669 101.656 248.729 101.688 248.797C101.752 248.906 101.786 249.029 101.786 249.152C101.786 249.276 101.752 249.398 101.688 249.508C101.256 250.219 99.448 250.625 98.408 250.781H98.4ZM101.224 248.804C100.712 248.804 99.624 249.707 98.824 250.433C100.232 250.177 101.224 249.793 101.44 249.373C101.483 249.302 101.506 249.222 101.506 249.142C101.506 249.061 101.483 248.981 101.44 248.911C101.427 248.883 101.406 248.86 101.379 248.842C101.353 248.825 101.321 248.814 101.288 248.811L101.224 248.804Z" fill="#D00000"/>
<path d="M98.4 250.781C98.3741 250.775 98.3503 250.764 98.3308 250.748C98.3112 250.731 98.2965 250.711 98.288 250.689C98.288 250.625 97.808 249.131 98.336 248.32C98.4062 248.2 98.5036 248.095 98.622 248.01C98.7404 247.926 98.8773 247.864 99.024 247.829C99.432 247.737 99.624 247.872 99.704 248.007C100.08 248.569 99.144 250.212 98.544 250.746C98.5244 250.761 98.5013 250.771 98.4764 250.778C98.4516 250.784 98.4255 250.785 98.4 250.781ZM99.2 248.064H99.04C98.9329 248.089 98.8328 248.134 98.746 248.195C98.6592 248.256 98.5877 248.333 98.536 248.42C98.2857 249.034 98.2549 249.702 98.448 250.333C99.016 249.686 99.6 248.448 99.384 248.114C99.3621 248.091 99.333 248.073 99.3003 248.065C99.2676 248.056 99.2328 248.056 99.2 248.064Z" fill="#D00000"/>
<path d="M125.856 102.825C126.082 102.506 126.188 102.131 126.157 101.755C126.127 101.378 125.963 101.021 125.688 100.733L124.56 99.631C124.477 99.5505 124.424 99.4498 124.407 99.3419C124.39 99.234 124.41 99.124 124.464 99.0264C124.601 98.7882 124.652 98.5186 124.612 98.2536C124.572 97.9886 124.442 97.7407 124.24 97.543C124.038 97.3453 123.772 97.207 123.479 97.1467C123.186 97.0864 122.88 97.1069 122.6 97.2055C122.486 97.246 122.36 97.2548 122.24 97.2307C122.12 97.2066 122.012 97.1506 121.928 97.0703L120.8 95.9678C120.502 95.6982 120.115 95.5198 119.695 95.4585C119.275 95.3971 118.844 95.4559 118.464 95.6264L118.128 95.7615L121.904 99.4389L125.68 103.138L125.856 102.825Z" fill="white"/>
<path d="M129.842 106.663L114.547 91.7646L92.2476 109.862L107.543 124.761L129.842 106.663Z" fill="#263238"/>
<path d="M111.92 82.5884C109.936 85.967 107.92 89.4382 105.984 92.8737C104.048 96.3093 102.128 99.7662 100.384 103.216C99.96 104.077 99.528 104.937 99.152 105.798L98.856 106.438L98.784 106.602C98.7557 106.436 98.7074 106.274 98.64 106.118C98.528 105.876 98.328 105.755 98.336 105.798C98.344 105.841 98.448 105.962 98.688 106.097C99.347 106.46 100.057 106.745 100.8 106.943C102.708 107.455 104.658 107.833 106.632 108.074C107.672 108.209 108.72 108.337 109.776 108.451L112.976 108.743L113.328 113.01C112.144 113.238 111.032 113.387 109.88 113.523C108.728 113.658 107.576 113.764 106.408 113.821C105.24 113.878 104.056 113.907 102.856 113.878C101.607 113.86 100.361 113.762 99.128 113.587C97.7012 113.407 96.3093 113.053 94.992 112.534C94.1199 112.194 93.3107 111.738 92.592 111.182C91.6402 110.441 90.9162 109.496 90.488 108.437C90.0071 107.105 89.982 105.677 90.416 104.333L90.52 104.005L90.584 103.821L90.856 103.109C91.208 102.113 91.592 101.153 91.984 100.193C93.584 96.3662 95.36 92.703 97.256 89.0825C99.152 85.462 101.176 81.9696 103.384 78.4131L111.92 82.5884Z" fill="#FFC3BD"/>
<path d="M106.472 74.7712C100.536 76.4001 94.312 90.4695 94.312 90.4695L107.224 96.8711C109.652 92.8345 111.79 88.6651 113.624 84.3879C116.656 77.1256 113.648 72.7938 106.472 74.7712Z" fill="#D00000"/>
<path d="M121.728 111.446L119.2 109.945C118.639 109.611 118.003 109.39 117.336 109.298L113.592 108.785C113.094 108.715 112.584 108.772 112.122 108.951C111.66 109.13 111.265 109.423 110.984 109.795L109.704 111.467C109.336 114.312 115.048 115.735 115.048 115.735L117.984 116.972C118.466 117.175 119.014 117.219 119.53 117.097C120.045 116.974 120.495 116.693 120.8 116.304L122.4 114.277C122.571 114.053 122.689 113.801 122.748 113.536C122.807 113.271 122.805 112.998 122.742 112.734C122.68 112.469 122.557 112.219 122.383 111.998C122.209 111.776 121.986 111.589 121.728 111.446Z" fill="#FFC3BD"/>
<path d="M229.777 47.7776L229.376 51.8818" stroke="#EFC46F" stroke-opacity="0.27451" stroke-miterlimit="10"/>
<path d="M224.944 32.2998L231.264 32.7977L230.104 44.4558" stroke="#EFC46F" stroke-opacity="0.27451" stroke-miterlimit="10"/>
<path d="M228.664 34.7165L165.173 29.7578L161.486 67.078L224.977 72.0367L228.664 34.7165Z" fill="#EFC46F"/>
<path opacity="0.2" d="M194.401 32.0456L184.702 31.2881L183.955 38.8485L193.654 39.606L194.401 32.0456Z" fill="white"/>
<path opacity="0.2" d="M175.999 57.2612L166.149 56.4919L165.39 64.1728L175.24 64.9421L175.999 57.2612Z" fill="white"/>
<g opacity="0.2">
<path d="M179.12 58.0203L187.84 58.7316L187.184 65.4107L178.456 64.6994L179.12 58.0203ZM178.6 57.4797L177.848 65.1546L187.696 65.9299L188.456 58.2479L178.6 57.4797Z" fill="white"/>
</g>
<path opacity="0.1" d="M228.661 34.7159L213.918 33.5645L210.231 70.8846L224.974 72.0361L228.661 34.7159Z" fill="black"/>
<path opacity="0.1" d="M161.48 67.0894L224.968 72.0543L226.392 57.6719L161.48 67.0894Z" fill="black"/>
</svg>
