<svg width="400" height="265" viewBox="0 0 400 265" fill="none" xmlns="http://www.w3.org/2000/svg">
<g clip-path="url(#clip0_104_2526)">
<path d="M394.381 138.214L392.996 150.414L389.56 180.716H320.526C321.065 173.924 321.802 164.149 322.59 153.596C322.667 152.542 322.749 151.481 322.826 150.414C324.8 123.886 326.961 93.8669 326.961 93.8669L336.036 95.7378L353.645 99.3609L360.82 100.837L380.034 104.796C389.614 106.765 396.204 122.114 394.381 138.214Z" fill="#F2F2F2"/>
<path d="M342.163 44.7773L350.653 61.2161L334.336 74.0116L327.376 53.8053L342.163 44.7773Z" fill="#FFC3BD"/>
<path d="M331.356 60.3292C342.971 60.3292 352.387 49.91 352.387 37.0573C352.387 24.2046 342.971 13.7854 331.356 13.7854C319.74 13.7854 310.325 24.2046 310.325 37.0573C310.325 49.91 319.74 60.3292 331.356 60.3292Z" fill="#FFC3BD"/>
<path d="M329.845 42.2598C328.176 39.4475 328.831 37.9765 327.433 36.943C327.433 36.943 326.87 36.5271 322.844 36.29C321.943 29.1106 320.817 28.2399 320.817 28.2399C319.52 27.2365 317.595 27.5625 316.398 28.1762C313.866 29.4742 314.159 32.278 312.454 32.8145C310.099 33.5557 305.813 29.3774 305.391 24.5941C305.046 20.6922 307.318 16.9025 308.219 17.103C309.113 17.3018 311.252 14.2801 312.406 14.3267C313.195 14.3585 316.418 12.8086 317.285 12.9297C318.231 13.0621 321.353 14.8647 321.483 14.4529C322.387 11.591 322.121 10.7969 322.888 9.97821C324.248 8.52744 326.471 9.53772 329.959 10.0801C337.136 11.196 338.388 8.57753 342.066 10.3524C343.924 11.2489 345.479 13.6669 348.512 18.4661C352.754 25.1779 354.875 28.5337 354.889 32.4479C354.903 36.4396 353.156 36.1862 352.389 42.0956C351.535 48.6737 353.349 51.6816 351.367 53.8188C349.834 55.4705 346.72 55.8625 345.084 54.4129C342.282 51.931 345.948 45.9423 342.848 41.5669C340.945 38.881 337.118 37.686 335.364 39.0136C333.382 40.5148 334.474 44.9209 333.08 45.3387C331.886 45.6965 330.136 42.7499 329.845 42.2598Z" fill="#2F2E41"/>
<path d="M378.836 133.917C378.25 145.016 375.92 148.52 375.104 161.627C374.925 164.505 374.818 167.845 374.818 171.829C374.818 172.845 374.823 173.826 374.823 174.786C374.823 176.828 374.788 178.758 374.573 180.716C374.41 182.279 374.13 183.853 373.666 185.512H328.37C328.365 185.501 328.365 185.489 328.36 185.478C328.095 184.203 327.926 182.984 327.799 181.816C327.758 181.444 327.722 181.077 327.692 180.716C327.651 180.293 327.615 179.875 327.58 179.463C327.442 177.821 327.304 176.27 326.978 174.786C326.54 172.737 325.744 170.808 324.112 168.946C323.444 168.184 322.776 167.592 322.124 167.073C321.996 166.976 321.874 166.881 321.746 166.785C319.941 165.413 318.233 164.426 316.754 161.627C316.729 161.588 316.708 161.543 316.688 161.503C316.433 161.012 315.77 159.726 315.291 158.011C314.786 156.228 314.48 153.987 315.031 151.697C316.341 146.269 321.195 145.727 325.163 140.242C325.591 139.65 326.014 138.995 326.417 138.268C328.212 135.04 328.696 132.196 329.267 128.816C329.359 128.269 329.441 127.727 329.507 127.203C329.558 126.808 329.604 126.418 329.64 126.035C329.956 122.813 329.803 120.037 329.431 117.554C328.217 109.423 324.637 104.39 327.166 97.0942C327.962 94.8036 329.089 93.0825 330.226 91.6099C332.633 88.4895 335.106 86.4639 334.678 82.4354C334.244 78.3727 331.46 77.8139 331.149 74.2648C330.991 72.4706 331.521 70.5804 332.516 68.724V68.7185C335.698 62.7429 343.642 57.2415 348.69 57.4164C349.623 57.4448 350.449 57.6759 351.137 58.1217C353.631 59.7467 352.591 63.2958 356.41 68.2727C359.25 71.9684 362.463 73.4468 363.682 74.1463C368.51 76.9339 372.437 85.1549 375.104 95.6668C375.124 95.7459 375.144 95.8247 375.165 95.9095C376.812 102.494 377.975 109.971 378.551 117.554C378.795 120.765 378.938 123.992 378.969 127.186C378.995 129.736 378.943 131.948 378.836 133.917Z" fill="#575A89"/>
<path d="M344.917 171.942L343.994 174.786L343.413 176.569L342.066 180.716L340.506 185.512H330.476L332.159 180.716L332.939 178.482L334.234 174.786L336.406 168.579L344.917 171.942Z" fill="#FFC3BD"/>
<path d="M375.262 94.6963C375.236 95.0633 375.201 95.4694 375.165 95.9096C374.767 100.39 373.829 108.408 372.457 117.554C371.733 122.378 370.887 127.519 369.933 132.625C367.884 143.645 365.334 154.496 362.453 161.627C361.938 162.914 361.407 164.076 360.867 165.103C360.454 165.888 360.02 166.66 359.567 167.422C358.098 169.922 356.451 172.292 354.743 174.504C354.677 174.6 354.6 174.69 354.524 174.786C354.248 175.147 353.962 175.502 353.677 175.858C352.28 177.601 350.852 179.226 349.47 180.716C347.788 182.533 346.166 184.141 344.713 185.512H328.426L328.36 185.478L326.014 184.327C326.014 184.327 326.682 183.458 327.799 181.816C328.028 181.483 328.273 181.117 328.538 180.716C328.865 180.225 329.217 179.683 329.594 179.097C330.379 177.867 331.271 176.422 332.23 174.786C334.086 171.62 336.202 167.727 338.339 163.219C338.584 162.694 338.833 162.164 339.083 161.627C339.088 161.611 339.099 161.594 339.104 161.577C339.527 160.663 339.945 159.72 340.363 158.761C343.907 150.602 344.922 143.831 345.213 141.636C345.621 138.533 346.186 134.194 346.033 129.42C345.931 126.272 345.518 122.943 344.534 119.636V119.631C344.33 118.937 344.101 118.243 343.841 117.554C343.377 116.318 342.826 115.1 342.173 113.898C339.292 108.605 336.952 108.385 335.091 102.618C334.54 100.909 333.29 97.0494 333.673 92.9754V92.9699C333.719 92.4677 333.795 91.9599 333.897 91.4518V91.4463C333.923 91.3053 333.959 91.1587 333.995 91.0176C334.285 89.7707 334.764 88.5347 335.493 87.3611C336.916 85.0817 338.859 83.7273 340.598 82.9206L340.603 82.9148C342.612 81.9897 344.346 81.7921 344.682 81.7582C352.132 81.0248 357.909 87.9537 361.066 91.7398C362.284 93.2011 363.401 94.4257 364.421 95.4242C372.36 103.267 374.538 98.2567 375.104 95.6669C375.19 95.2663 375.236 94.9222 375.262 94.6963Z" fill="#575A89"/>
<path d="M375.287 94.4031C375.287 94.4312 375.282 94.5271 375.262 94.6852C375.272 94.6003 375.277 94.5158 375.282 94.4367C375.282 94.4199 375.282 94.4086 375.287 94.4031Z" fill="#575A89"/>
<path d="M334.79 213.465H61.4496C58.91 213.465 56.84 215.75 56.84 218.56C56.84 221.376 58.91 223.661 61.4496 223.661H334.79C337.329 223.661 339.395 221.376 339.395 218.56C339.395 215.75 337.329 213.465 334.79 213.465Z" fill="#E6E6E6"/>
<path d="M274.13 254.804H122.104C119.565 254.804 117.5 257.089 117.5 259.899C117.5 262.709 119.565 265 122.104 265H274.13C276.67 265 278.74 262.709 278.74 259.899C278.74 257.089 276.67 254.804 274.13 254.804Z" fill="#E6E6E6"/>
<path d="M91.8656 45.859L109.092 37.8367L116.481 54.5979L98.3784 62.7741L91.8656 45.859Z" fill="#FFC3BD"/>
<path opacity="0.1" d="M91.8656 45.859L109.092 37.8367L116.481 54.5979L98.3784 62.7741L91.8656 45.859Z" fill="black"/>
<path d="M94.3146 39.4719L111.309 61.1389C111.309 61.1389 99.4868 102.429 87.6645 106.108C75.8423 109.787 54.045 127.775 54.045 127.775L26.706 108.152L40.006 86.4852C40.006 86.4852 72.1478 37.8367 80.6451 37.8367C89.1423 37.8367 94.3146 39.4719 94.3146 39.4719Z" fill="#D00000"/>
<path d="M71.3535 180.716H31.7932L29.2921 177.016L19.0806 161.911L16.7309 158.436C16.7309 158.436 7.86423 140.448 9.71146 124.096C11.5587 107.744 30.7699 104.064 30.7699 104.064H31.5605L55.0794 126.933L53.6755 148.216L61.1235 161.911L71.3535 180.716Z" fill="#2F2E41"/>
<path d="M39.8952 180.716H29.2921V163.342L39.8952 180.716Z" fill="#2F2E41"/>
<path d="M268.589 154.34L267.271 161.911L263.997 180.716H198.24C198.753 176.501 199.455 170.435 200.205 163.886C200.279 163.231 200.357 162.573 200.43 161.911C202.311 145.448 204.369 126.819 204.369 126.819L213.014 127.98L229.787 130.228L236.621 131.144L254.924 133.601C264.049 134.823 270.326 144.348 268.589 154.34Z" fill="#F2F2F2"/>
<path d="M361.649 180.716H325.983C326.526 180.009 326.833 179.6 326.833 179.6L337.524 177.646L359.554 173.623C359.554 173.623 360.559 176.497 361.649 180.716Z" fill="#2F2E41"/>
<path d="M210.363 54.0359L225.873 78.3087L198.818 79.2028L195.913 56.392L210.363 54.0359Z" fill="#FFC3BD"/>
<path opacity="0.1" d="M210.363 54.0359L225.873 78.3087L198.818 79.2028L195.913 56.392L210.363 54.0359Z" fill="black"/>
<path d="M133.871 104.327C131.881 97.9744 127.305 93.9612 123.651 95.3634C119.998 96.7655 118.65 103.051 120.642 109.406C121.406 111.957 122.711 114.268 124.448 116.146L133.188 142.946L144.466 138.14L134.652 112.23C134.966 109.564 134.698 106.855 133.871 104.327Z" fill="#FFC3BD"/>
<path d="M238.863 91.9592L238.842 116.696L236.762 125.833L232.484 144.626L229.369 161.911L227.049 174.788L226.221 179.387C225.597 179.849 224.976 180.291 224.356 180.716H170.317C167.247 178.676 165.529 177.09 165.529 177.09C165.529 177.09 166.379 176.207 167.35 174.788C168.991 172.393 170.975 168.468 169.759 164.719C169.504 163.934 169.438 162.978 169.515 161.911C170.01 154.871 176.682 142.966 176.682 142.966L175.301 125.298L174.695 117.555L178.967 79.8009L192.891 70.8439L195.295 70.5865L219.025 69.168L228.833 69.7934L229.28 69.9284L238.863 91.9592Z" fill="#CCCCCC"/>
<path d="M239.917 180.716H228.095L227.574 174.789L227.562 174.67L230.91 174.416L239.618 173.758L239.769 177.307L239.887 180.029L239.917 180.716Z" fill="#FFC3BD"/>
<path d="M242.827 97.9402L247.793 130.183L243.741 161.911L243.109 166.849L241.993 175.569L241.649 178.251L241.661 178.541L241.746 180.716H227.707L227.189 174.788L227.145 174.257L226.088 162.115L226.07 161.911L223.827 136.164L228.224 117.555L228.549 116.185V116.181L230.462 84.3186L228.98 69.8386L228.966 69.7036C228.995 69.7241 229.021 69.7445 229.051 69.7649C229.128 69.8181 229.206 69.8712 229.28 69.9285C237.91 75.9871 243.053 86.6162 242.827 97.9402Z" fill="#CCCCCC"/>
<path d="M183.996 85.9794L178.598 79.8005C178.598 79.8005 167.041 85.5658 166.465 88.7643C165.889 91.9628 145.483 138.94 145.483 138.94L136.606 112.704L125.05 121.241C125.05 121.241 134.322 161.975 142.994 163.887C151.665 165.8 180.729 115.674 180.729 115.674L183.996 85.9794Z" fill="#CCCCCC"/>
<path d="M390.231 161.504H9.76461C4.37939 161.504 0 166.966 0 173.675C0 180.385 4.37938 185.841 9.76461 185.841H390.231C395.616 185.841 400 180.385 400 173.675C400 166.966 395.616 161.504 390.231 161.504Z" fill="#E6E6E6"/>
<path d="M236.403 125.229L235.585 167.436C235.506 171.522 232.49 174.788 228.797 174.788H158.631C155.025 174.788 152.049 171.669 151.852 167.685L149.766 125.478C149.554 121.174 152.651 117.555 156.546 117.555H229.614C233.421 117.555 236.484 121.018 236.403 125.229Z" fill="#3F3D56"/>
<path d="M123.131 56.0474C132.403 56.0474 139.919 47.7306 139.919 37.4713C139.919 27.2121 132.403 18.8953 123.131 18.8953C113.86 18.8953 106.344 27.2121 106.344 37.4713C106.344 47.7306 113.86 56.0474 123.131 56.0474Z" fill="#FFC3BD"/>
<path d="M95.0534 86.0764L96.9007 108.152L109.462 164.159L98.6098 168.368L80.2756 107.335L77.7433 82.8059L95.0534 86.0764Z" fill="#FFC3BD"/>
<path d="M111.462 175.074C118.784 175.074 124.72 172.168 124.72 168.585C124.72 165.001 118.784 162.096 111.462 162.096C104.14 162.096 98.2041 165.001 98.2041 168.585C98.2041 172.168 104.14 175.074 111.462 175.074Z" fill="#FFC3BD"/>
<path d="M69.0075 89.4515L76.5812 44.7865C76.5812 44.7865 97.6396 41.516 98.3784 49.2834C99.1173 57.0508 97.8505 95.0112 97.8505 95.0112L69.0075 89.4515Z" fill="#D00000"/>
<path d="M116.355 40.3923C116.355 40.3923 126.739 36.2911 131.12 34.0845C135.5 31.8779 144.203 47.2689 144.396 39.1404C144.59 31.0119 141.583 27.6031 141.583 27.6031C141.583 27.6031 140.832 9.82083 124.642 12.044C124.642 12.044 128.203 3.14735 116.513 1.77164C104.824 0.395926 86.6377 31.6322 88.2664 36.3003C89.8951 40.9684 91.8475 44.8277 87.2267 49.8189C82.6059 54.8101 73.9534 82.9793 80.5366 90.5594C87.1198 98.1395 87.5518 101.429 83.0413 106.145C78.5307 110.86 67.8691 121.114 79.3968 122.894C90.9245 124.675 78.3422 123.345 86.9362 114.98C95.5303 106.615 108.071 106.957 103.388 93.5361C98.706 80.1153 106.841 60.8835 105.823 57.9659C104.805 55.0484 108.104 36.5217 108.104 36.5217C108.104 36.5217 115.781 35.2737 116.355 40.3923Z" fill="#2F2E41"/>
<path d="M202.069 62.8214C212.162 62.8214 220.344 53.768 220.344 42.6001C220.344 31.4321 212.162 22.3787 202.069 22.3787C191.977 22.3787 183.795 31.4321 183.795 42.6001C183.795 53.768 191.977 62.8214 202.069 62.8214Z" fill="#FFC3BD"/>
<path d="M203.528 15.4138C202.999 15.7554 202.291 15.2386 202.121 14.5876C201.952 13.9365 202.149 13.2453 202.345 12.6034L203.331 9.37186C204.03 7.07998 204.772 4.70801 206.287 2.9636C208.573 0.330679 212.206 -0.339122 215.476 0.146125C219.675 0.769281 223.819 3.28563 225.772 7.44674C227.724 11.6079 226.893 17.4141 223.365 20.0102C228.393 26.3881 230.146 33.4961 229.87 41.9547C229.593 50.4133 221.263 58.198 215.83 64.1567C214.617 63.343 213.514 59.5294 214.181 58.144C214.848 56.7586 213.892 55.1535 214.719 53.8774C215.545 52.6013 216.236 54.6333 215.401 53.3644C214.874 52.5637 216.931 50.7217 216.147 50.2425C212.358 47.9246 211.098 42.6979 208.718 38.6954C205.847 33.8676 200.933 30.5982 195.734 30.0558C192.87 29.757 189.844 30.2982 187.496 32.1382C185.149 33.9783 183.629 37.2664 184.173 40.3924C182.763 38.8083 182.061 36.4867 182.326 34.2826C182.591 32.0785 183.816 30.0404 185.551 28.9187C184.496 25.0585 185.4 20.618 187.849 17.6308C190.297 14.6436 200.23 15.1524 203.804 15.9386L203.528 15.4138Z" fill="#2F2E41"/>
<path d="M204.083 30.1731C208.817 30.7386 212.236 35.2768 215.122 39.4677C216.786 41.8833 218.529 44.5508 218.487 47.5877C218.445 50.6579 216.59 53.2914 215.703 56.2011C214.254 60.9571 215.666 66.6157 219.116 69.8745C215.707 70.5902 212.023 67.7621 211.434 63.9785C210.749 59.574 213.766 55.3229 213.409 50.8712C213.094 46.9491 210.301 43.9306 207.927 40.9981C205.552 38.0656 203.322 34.1742 204.414 30.4269L204.083 30.1731Z" fill="#2F2E41"/>
<path d="M274.863 164.183C270.174 167.135 267.748 172.205 269.446 175.507C271.144 178.809 276.322 179.093 281.013 176.139C282.901 174.988 284.513 173.353 285.713 171.371L305.441 158.588L299.822 148.472L280.971 162.148C278.817 162.277 276.723 162.975 274.863 164.183Z" fill="#FFC3BD"/>
<path d="M341.656 70.4412C341.066 70.1826 335.893 68.015 331.171 70.8769C325.746 74.1644 324.909 81.6689 324.615 84.3011C323.936 90.3814 325.936 91.7443 326.358 97.8999C327.148 109.416 329.23 96.2783 325.904 101.535C324.753 103.355 312.995 131.552 306.51 137.075C293.898 147.817 285.889 155.382 285.889 155.382L295.032 166.372C295.032 166.372 309.48 162.112 322.25 152.937C335.349 143.525 341.898 138.819 346.965 129.614C347.401 128.821 357.842 109.201 352.235 87.5069C350.956 82.5585 348.612 73.4918 341.656 70.4412Z" fill="#575A89"/>
<g clip-path="url(#clip1_104_2526)">
<path d="M172.986 142.507C173.105 142.666 173.206 142.834 173.285 143.012C173.451 143.376 173.545 143.782 173.549 144.198L174.891 143.849C174.79 142.653 174.196 141.556 173.232 140.814L172.404 141.904C172.628 142.08 172.825 142.284 172.986 142.507Z" fill="white"/>
<path d="M172.634 148.62C172.551 148.507 172.478 148.388 172.418 148.265C172.215 147.869 172.107 147.427 172.103 146.966L172.103 146.938L170.756 147.287C170.852 148.497 171.447 149.603 172.42 150.354L173.248 149.264C173.006 149.079 172.8 148.861 172.634 148.62Z" fill="white"/>
<path d="M177.974 144.273C177.636 144.011 177.23 143.877 176.817 143.88C176.667 143.881 176.513 143.905 176.359 143.943L174.908 144.32L173.511 144.683L173.298 144.739L173.09 144.791L172.845 144.857L172.251 145.008L171.811 145.126L171.806 145.126L169.059 145.837C169.018 145.847 168.973 145.852 168.932 145.852C168.873 145.852 168.814 145.844 168.759 145.826C168.705 145.808 168.655 145.781 168.604 145.745C168.476 145.64 168.402 145.49 168.401 145.326L168.398 144.9C168.395 144.608 168.63 144.368 168.92 144.366L172.841 144.336L172.83 142.965L168.91 142.996C167.865 143.004 167.027 143.865 167.035 144.911L167.039 145.337C167.043 145.926 167.311 146.473 167.777 146.83C168.115 147.092 168.525 147.231 168.939 147.228C169.093 147.227 169.248 147.202 169.401 147.165L170.743 146.816L172.145 146.453L172.149 146.453L172.589 146.336L172.857 146.269L176.697 145.271C176.742 145.261 176.783 145.252 176.824 145.251C176.942 145.25 177.051 145.291 177.147 145.363C177.275 145.463 177.353 145.613 177.355 145.777L177.358 146.225C177.358 146.257 177.354 146.289 177.354 146.293C177.32 146.559 177.099 146.757 176.835 146.759L172.861 146.79L172.871 148.161L176.846 148.13C177.791 148.123 178.594 147.404 178.709 146.434C178.717 146.366 178.721 146.292 178.721 146.215L178.717 145.767C178.712 145.177 178.44 144.636 177.974 144.274L177.974 144.273Z" fill="white"/>
<path d="M180.32 149.35L180.261 141.876L182.807 141.856C183.648 141.849 184.289 142.014 184.73 142.349C185.171 142.684 185.395 143.187 185.4 143.858C185.403 144.2 185.313 144.509 185.131 144.784C184.95 145.06 184.683 145.274 184.33 145.427C184.733 145.533 185.045 145.737 185.266 146.038C185.488 146.339 185.601 146.702 185.604 147.126C185.61 147.828 185.39 148.369 184.945 148.749C184.501 149.128 183.862 149.322 183.029 149.328L180.32 149.349L180.32 149.35ZM181.577 145.012L182.842 145.002C183.244 144.999 183.557 144.905 183.782 144.721C184.006 144.536 184.118 144.276 184.115 143.94C184.112 143.571 184.005 143.305 183.795 143.142C183.584 142.979 183.258 142.9 182.816 142.903L181.56 142.913L181.577 145.013L181.577 145.012ZM181.584 145.967L181.603 148.303L183.036 148.292C183.441 148.288 183.757 148.185 183.983 147.981C184.21 147.778 184.321 147.496 184.318 147.137C184.312 146.36 183.915 145.966 183.125 145.955L181.584 145.967Z" fill="white"/>
<path d="M189.507 144.863C189.344 144.837 189.175 144.824 189.002 144.826C188.434 144.83 188.052 145.052 187.859 145.492L187.888 149.29L186.648 149.3L186.605 143.746L187.789 143.737L187.824 144.358C188.12 143.873 188.533 143.628 189.064 143.624C189.24 143.623 189.387 143.646 189.503 143.692L189.507 144.863L189.507 144.863Z" fill="white"/>
<path d="M193.535 149.246C193.48 149.141 193.431 148.969 193.388 148.729C192.997 149.146 192.515 149.357 191.944 149.362C191.372 149.366 190.935 149.21 190.583 148.895C190.23 148.579 190.052 148.187 190.048 147.718C190.043 147.126 190.258 146.67 190.693 146.35C191.128 146.03 191.752 145.867 192.565 145.86L193.325 145.854L193.322 145.49C193.32 145.202 193.238 144.973 193.077 144.802C192.916 144.63 192.672 144.546 192.346 144.548C192.063 144.55 191.832 144.623 191.653 144.767C191.474 144.91 191.385 145.091 191.387 145.31L190.147 145.32C190.145 145.015 190.243 144.73 190.441 144.463C190.64 144.196 190.912 143.986 191.256 143.833C191.6 143.68 191.984 143.601 192.41 143.598C193.056 143.593 193.573 143.752 193.96 144.076C194.347 144.4 194.548 144.858 194.563 145.45L194.582 147.954C194.586 148.454 194.659 148.852 194.801 149.149L194.802 149.236L193.536 149.246L193.535 149.246ZM192.166 148.359C192.41 148.357 192.64 148.295 192.856 148.174C193.071 148.052 193.232 147.89 193.339 147.687L193.331 146.64L192.663 146.645C192.203 146.649 191.859 146.732 191.629 146.895C191.399 147.058 191.285 147.286 191.287 147.58C191.289 147.82 191.369 148.01 191.529 148.151C191.688 148.291 191.9 148.361 192.166 148.359L192.166 148.359Z" fill="white"/>
<path d="M196.878 143.666L196.918 144.307C197.323 143.808 197.856 143.555 198.52 143.55C199.669 143.541 200.26 144.199 200.29 145.523L200.319 149.193L199.079 149.203L199.051 145.605C199.048 145.252 198.97 144.992 198.818 144.824C198.665 144.656 198.417 144.573 198.073 144.576C197.573 144.58 197.202 144.81 196.961 145.267L196.992 149.22L195.752 149.229L195.709 143.675L196.877 143.666L196.878 143.666Z" fill="white"/>
<path d="M201.224 146.368C201.217 145.513 201.409 144.824 201.8 144.303C202.19 143.781 202.717 143.518 203.381 143.513C203.966 143.508 204.44 143.71 204.804 144.118L204.782 141.273L206.022 141.264L206.083 149.148L204.961 149.157L204.895 148.582C204.528 149.037 204.035 149.267 203.415 149.272C202.796 149.277 202.244 149.019 201.84 148.499C201.436 147.978 201.231 147.268 201.224 146.368ZM202.465 146.467C202.469 147.031 202.581 147.471 202.799 147.786C203.018 148.101 203.326 148.257 203.724 148.253C204.23 148.25 204.599 148.019 204.83 147.562L204.812 145.19C204.58 144.748 204.211 144.528 203.705 144.532C203.303 144.535 202.995 144.697 202.78 145.019C202.565 145.341 202.46 145.823 202.465 146.467Z" fill="white"/>
<path d="M207.272 142.142C207.271 141.951 207.33 141.791 207.45 141.663C207.569 141.536 207.741 141.471 207.966 141.469C208.19 141.468 208.364 141.53 208.488 141.655C208.611 141.781 208.674 141.94 208.675 142.131C208.677 142.323 208.617 142.477 208.495 142.602C208.374 142.728 208.201 142.792 207.976 142.794C207.751 142.796 207.578 142.734 207.457 142.61C207.335 142.487 207.274 142.33 207.272 142.142ZM208.643 149.129L207.403 149.138L207.36 143.584L208.6 143.574L208.643 149.128L208.643 149.129Z" fill="white"/>
<path d="M210.429 149.114L210.393 144.484L209.551 144.491L209.544 143.567L210.386 143.56L210.382 143.052C210.377 142.436 210.543 141.959 210.881 141.621C211.218 141.283 211.693 141.111 212.306 141.107C212.523 141.105 212.755 141.134 213.001 141.193L212.978 142.169C212.841 142.143 212.683 142.13 212.503 142.131C211.911 142.136 211.617 142.445 211.622 143.057L211.626 143.55L212.748 143.541L212.755 144.465L211.633 144.474L211.669 149.104L210.429 149.113L210.429 149.114Z" fill="white"/>
<path d="M215.615 147.288L216.708 143.511L218.029 143.501L215.885 149.914C215.556 150.851 214.988 151.322 214.182 151.329C214.001 151.33 213.802 151.301 213.584 151.24L213.576 150.271L213.811 150.284C214.124 150.282 214.36 150.222 214.517 150.107C214.674 149.991 214.797 149.797 214.887 149.527L215.062 149.048L213.08 143.539L214.417 143.529L215.614 147.288L215.615 147.288Z" fill="white"/>
</g>
</g>
<defs>
<clipPath id="clip0_104_2526">
<rect width="400" height="265" fill="white"/>
</clipPath>
<clipPath id="clip1_104_2526">
<rect width="50.9733" height="11.7631" fill="white" transform="translate(167 140.398) rotate(-0.447757)"/>
</clipPath>
</defs>
</svg>
