<svg width="450" height="265" viewBox="0 0 450 265" fill="none" xmlns="http://www.w3.org/2000/svg">
<path d="M203.705 107.092H149.27V157.744H203.705V107.092Z" fill="#E6E6E6"/>
<path d="M231.814 107.092H203.706V157.744H231.814V107.092Z" fill="#E0E0E0"/>
<path d="M229.917 154.516C227.831 150.91 225.768 147.296 223.726 143.677L217.608 132.784L211.583 121.846C209.595 118.196 207.62 114.53 205.66 110.85C207.741 114.452 209.802 118.063 211.844 121.683L217.948 132.582L223.965 143.526C225.954 147.172 227.938 150.836 229.917 154.516Z" fill="#E6E6E6"/>
<path d="M229.917 110.843C227.957 114.515 225.98 118.18 223.987 121.84L217.933 132.784L211.815 143.676C209.773 147.3 207.712 150.914 205.631 154.516C207.586 150.84 209.561 147.174 211.554 143.519L217.608 132.575L223.69 121.676C225.732 118.056 227.807 114.445 229.917 110.843Z" fill="#E6E6E6"/>
<path d="M200.121 149.146H194.075V154.601H200.121V149.146Z" fill="white"/>
<path d="M200.129 75.5854H145.693V107.092H200.129V75.5854Z" fill="#E0E0E0"/>
<path d="M228.244 75.5854H200.136V107.092H228.244V75.5854Z" fill="#CCCCCC"/>
<path d="M177.53 87.3401H176.379H175.517L175.018 86.4385L174.33 87.3401L173.389 85.478L172.498 87.3401H169.949H168.784L168.364 86.0987L167.965 87.3401H167.212V75.5854H177.53V87.3401Z" fill="white"/>
<path d="M10.318 52.7547H9.16671H8.30507L7.80546 51.853L7.1176 52.7547L6.17631 50.8925L5.2857 52.7547H2.73698H1.57123L1.15127 51.5132L0.753032 52.7547H0V41H10.318V52.7547Z" fill="white"/>
<path d="M226.297 105.218C224.216 102.931 222.155 100.635 220.113 98.3307L213.987 91.4046L207.999 84.4328C206.001 82.1067 204.024 79.7762 202.069 77.4414C204.154 79.7283 206.218 82.0239 208.26 84.3283L214.357 91.2543L220.374 98.2065C222.391 100.546 224.366 102.883 226.297 105.218Z" fill="#E0E0E0"/>
<path d="M226.296 77.4609C224.366 79.8001 222.389 82.1306 220.366 84.4523L214.349 91.4045L208.253 98.3306C206.211 100.631 204.147 102.926 202.062 105.217C204.017 102.878 205.994 100.548 207.992 98.226L213.987 91.2738L220.091 84.3478C222.152 82.0478 224.221 79.7522 226.296 77.4609Z" fill="#E0E0E0"/>
<path d="M196.472 157.744H142.036V205.331H196.472V157.744Z" fill="#E0E0E0"/>
<path d="M224.58 157.744H196.472V205.331H224.58V157.744Z" fill="#CCCCCC"/>
<path d="M173.874 169.505H172.723H171.854L171.361 168.597L170.666 169.505L169.725 167.637L168.834 169.505H166.286H165.127L164.707 168.257L164.309 169.505H163.549V157.744H173.874V169.505Z" fill="white"/>
<path d="M222.676 202.502C220.591 199.048 218.527 195.58 216.486 192.1L210.389 181.646L204.365 171.139C202.366 167.654 200.39 164.137 198.435 160.586C200.52 164.041 202.583 167.508 204.625 170.989L210.722 181.443L216.746 191.95C218.721 195.452 220.697 198.969 222.676 202.502Z" fill="#E0E0E0"/>
<path d="M222.676 160.58C220.712 164.108 218.735 167.626 216.746 171.133L210.722 181.639L204.625 192.094C202.583 195.578 200.52 199.046 198.435 202.496C200.394 198.967 202.371 195.45 204.365 191.943L210.367 181.443L216.464 170.989C218.501 167.508 220.572 164.039 222.676 160.58Z" fill="#E0E0E0"/>
<path d="M160.833 177.255L151.334 177.431L146.511 177.51C144.897 177.51 143.275 177.51 141.66 177.542H141.341V177.255L141.298 169.943V169.61H141.66L151.247 169.649C154.447 169.649 157.64 169.721 160.833 169.754H161.036V169.93C161.036 171.165 160.971 172.4 160.942 173.622L160.833 177.255ZM160.833 177.255L160.732 173.556C160.732 172.341 160.652 171.139 160.638 169.943L160.833 170.12C157.64 170.152 154.447 170.224 151.247 170.224L141.66 170.27L142.022 169.943V177.255L141.696 176.961C143.275 176.961 144.853 176.961 146.439 176.993L151.203 177.072L160.833 177.255Z" fill="#E6E6E6"/>
<path d="M150.139 186.474L140.639 186.65L135.817 186.729C134.202 186.729 132.58 186.729 130.966 186.762H130.647V186.474L130.604 179.176V178.842H130.966L140.552 178.881C143.745 178.881 146.946 178.953 150.139 178.986H150.342V179.176C150.342 180.41 150.284 181.645 150.248 182.867L150.139 186.474ZM150.139 186.474L150.038 182.776C150.038 181.56 149.958 180.358 149.943 179.162L150.139 179.339C146.946 179.372 143.745 179.443 140.552 179.443L130.966 179.483L131.328 179.162L131.291 186.474L130.966 186.18C132.544 186.18 134.122 186.18 135.708 186.18L140.473 186.258L150.139 186.474Z" fill="#E6E6E6"/>
<path d="M353.443 54.1148L343.936 54.2978L339.114 54.3697C337.506 54.3697 335.884 54.3697 334.27 54.4089H333.951V54.1148L333.915 46.8033V46.4766H334.277L343.863 46.5158C347.057 46.5158 350.257 46.5942 353.45 46.6268H353.653V46.8033C353.653 48.0447 353.595 49.2797 353.559 50.495L353.443 54.1148ZM353.443 54.1148L353.342 50.4231C353.342 49.2012 353.262 47.999 353.247 46.8033L353.443 46.9797C350.25 46.9797 347.049 47.0842 343.856 47.0908L334.27 47.13L334.632 46.8033L334.588 54.1148L334.27 53.8208C335.848 53.8208 337.427 53.8208 339.005 53.86L343.769 53.9319L353.443 54.1148Z" fill="#E6E6E6"/>
<path d="M332.09 54.1148L322.59 54.2978L317.768 54.3697C316.153 54.3697 314.539 54.3697 312.917 54.4089H312.598V54.1148L312.555 46.8033V46.4766H312.917L322.503 46.5158C325.704 46.5158 328.897 46.5942 332.09 46.6268H332.293V46.8033C332.293 48.0447 332.228 49.2797 332.199 50.495L332.09 54.1148ZM332.09 54.1148L332.01 50.4558C332.01 49.2339 331.931 48.0317 331.916 46.8359L332.112 47.0124C328.919 47.0124 325.725 47.1169 322.525 47.1234L312.938 47.1626L313.3 46.8359L313.264 54.1475L312.938 53.8535C314.524 53.8535 316.095 53.8535 317.681 53.8927L322.445 53.9645L332.09 54.1148Z" fill="#E6E6E6"/>
<path d="M436.921 7.65133L427.414 7.82775L422.591 7.90616C420.984 7.90616 419.362 7.90616 417.747 7.93883H417.451V7.6448V0.333236V0H417.82L427.407 0.039205C430.6 0.039205 433.793 0.111079 436.993 0.143749H437.189V0.320168C437.189 1.56163 437.124 2.79002 437.095 4.01189L436.921 7.65133ZM436.921 7.65133L436.819 3.95308C436.783 2.73776 436.733 1.53549 436.718 0.339769L436.921 0.516188C433.72 0.516188 430.527 0.620732 427.334 0.620732L417.747 0.66647L418.109 0.339769L418.066 7.65133L417.747 7.35731C419.326 7.35731 420.897 7.3573 422.483 7.39651L427.247 7.46838L436.921 7.65133Z" fill="#E6E6E6"/>
<path d="M447.615 16.8709L438.108 17.0473L433.286 17.1257C431.678 17.1257 430.057 17.1257 428.442 17.1584H428.116V16.8709L428.08 9.55931V9.22607H428.442L438.029 9.26528C441.222 9.26528 444.422 9.33715 447.615 9.36982H447.811V9.54624C447.811 10.7812 447.753 12.0161 447.717 13.238L447.615 16.8709ZM447.615 16.8709L447.514 13.1726C447.514 11.9573 447.427 10.755 447.42 9.55931L447.615 9.73573C444.422 9.73573 441.222 9.84027 438.029 9.84027L428.442 9.88601L428.804 9.55931L428.76 16.8709L428.442 16.5768C430.02 16.5768 431.599 16.5768 433.177 16.616L437.942 16.6879L447.615 16.8709Z" fill="#E6E6E6"/>
<path d="M160.833 7.65163L151.333 7.82806L146.511 7.90646C144.896 7.90646 143.275 7.90646 141.66 7.93913H141.341V7.6451L141.298 0.34007V0.00683594H141.66L151.247 0.0460384C154.447 0.0460384 157.64 0.117913 160.833 0.150583H161.036V0.327001C161.036 1.56846 160.971 2.79686 160.942 4.01872L160.833 7.65163ZM160.833 7.65163L160.732 3.95338C160.732 2.73806 160.652 1.53579 160.638 0.34007L160.833 0.516488C157.64 0.516488 154.447 0.621033 151.247 0.621033L141.66 0.666771L142.022 0.34007V7.65163L141.66 7.33147C143.238 7.33147 144.817 7.33147 146.403 7.37067L151.167 7.44255L160.833 7.65163Z" fill="#E6E6E6"/>
<path d="M137.446 205.43L175.409 205.266L213.365 205.208L289.29 205.103L365.216 205.208L403.172 205.266L441.135 205.43L403.172 205.587L365.216 205.645L289.29 205.75L213.365 205.645L175.409 205.587L137.446 205.43Z" fill="#2F2E41"/>
<path d="M293.606 265C379.851 265 449.766 257.803 449.766 248.926C449.766 240.049 379.851 232.853 293.606 232.853C207.361 232.853 137.446 240.049 137.446 248.926C137.446 257.803 207.361 265 293.606 265Z" fill="#E6E6E6"/>
<g clip-path="url(#clip0_104_3046)">
<path d="M345.065 59.1209C345.346 66.7889 345.51 72.3876 345.445 73.0277C345.405 73.8388 345.29 73.8738 339.979 73.8384C337.019 73.8382 330.861 73.8072 326.306 73.842C321.759 73.8461 315.165 73.8632 311.679 73.8542C308.193 73.8452 304.6 73.8406 303.712 73.8669L302.052 73.8843L301.949 70.7013C301.785 65.1027 301.736 58.9428 301.875 58.4211C301.973 58.0528 303.412 57.9433 307.745 57.948C321.319 57.9181 323.753 57.9095 331.629 57.8398C345.252 57.7574 345.014 57.7267 345.065 59.1209ZM345.908 81.2043C346.01 83.7296 345.83 84.5363 345.049 84.5582C344.695 84.5626 341.884 84.5361 338.784 84.5315C330.669 84.4389 318.764 84.4207 310.443 84.4377C306.456 84.4594 302.986 84.389 302.69 84.3101C302.295 84.2048 302.146 83.442 302.152 81.4384C302.125 79.9521 302.255 78.6719 302.411 78.6149C302.576 78.5273 304.343 78.5054 306.374 78.5538C308.397 78.6328 313.535 78.6551 317.802 78.6422C322.07 78.6293 326.822 78.6471 328.367 78.6648C329.905 78.7131 334.098 78.7133 337.699 78.6873C341.3 78.6612 344.581 78.7798 345 78.9245C345.675 79.17 345.832 79.5076 345.908 81.2043ZM346.343 93.0549C346.461 95.1243 346.605 98.5484 346.649 100.631C346.693 102.713 346.82 106.067 346.946 108.106C347.08 110.114 347.267 114.7 347.379 118.247C347.523 121.802 347.651 125.419 347.694 126.318L347.803 127.892L346.43 128.151C343.824 128.672 339.477 130.176 336.461 131.574C322.772 137.983 316.943 150.596 321.204 164.617C321.617 165.976 321.799 167.143 321.627 167.261L321.626 167.261C321.42 167.344 318.86 168.368 315.94 169.558C310.895 171.566 305.973 173.639 300.665 175.971C291.33 180.057 289.662 180.763 289.399 180.692C289.267 180.657 288.566 178.925 287.889 176.839C284.867 167.421 279.388 157.973 272.858 150.743C271.664 149.405 270.577 148.195 270.454 147.998C270.248 147.713 275.136 144.842 293.917 134.399C297.639 132.335 301.081 130.261 301.574 129.867C303.11 128.468 303.118 128.701 302.691 109.949C302.497 100.365 302.345 90.7593 302.418 89.8254C302.483 89.0538 302.598 89.0187 306.98 89.1023C309.438 89.1331 314.084 89.1554 317.298 89.1249C320.513 89.0944 325.726 89.1035 328.916 89.165C332.114 89.1959 337.113 89.2138 340.015 89.1657C342.942 89.1571 345.474 89.1748 345.713 89.2055C345.943 89.2669 346.2 90.9461 346.343 93.0549ZM348.185 137.559C348.415 143.57 347.5 148.191 345.277 152.036C342.029 157.744 337.602 161.396 330.864 163.938C327.1 165.367 326.845 165.398 326.557 164.762C325.823 163.153 324.738 157.572 324.769 155.608C324.823 152.894 326.254 147.523 327.469 145.481C329.651 141.789 334.159 137.962 338.851 135.827C341.908 134.407 347.274 132.649 347.735 132.903C347.883 133.009 348.1 135.104 348.185 137.559ZM267.524 151.983C274.818 159.516 281.229 170.626 283.84 180.262L284.567 182.954L282.373 183.52C273.587 185.812 264.472 182.199 259.768 174.601C257.007 170.151 256.344 165.766 257.669 160.795C258.463 157.818 259.775 155.407 261.787 153.28C263.306 151.68 265.269 150.264 265.762 150.396C265.96 150.448 266.725 151.146 267.524 151.983Z" fill="white"/>
<path d="M345.908 81.2043C346.01 83.7296 345.83 84.5363 345.049 84.5582C344.695 84.5626 341.884 84.5361 338.784 84.5315C330.669 84.4389 318.764 84.4207 310.443 84.4377C306.456 84.4594 302.986 84.389 302.69 84.3101C302.295 84.2048 302.146 83.442 302.152 81.4384C302.125 79.9521 302.255 78.6719 302.411 78.6149C302.576 78.5273 304.343 78.5054 306.374 78.5538C308.397 78.6328 313.535 78.6551 317.802 78.6422C322.07 78.6293 326.822 78.6471 328.367 78.6648C329.905 78.7131 334.098 78.7133 337.699 78.6873C341.3 78.6612 344.581 78.7798 345 78.9245C345.675 79.17 345.832 79.5076 345.908 81.2043Z" fill="#D00000"/>
<path d="M348.185 137.559C348.415 143.57 347.5 148.191 345.277 152.036C342.029 157.744 337.602 161.396 330.864 163.938C327.1 165.367 326.845 165.398 326.557 164.762C325.823 163.153 324.738 157.572 324.769 155.608C324.823 152.894 326.254 147.523 327.469 145.481C329.651 141.789 334.159 137.962 338.851 135.827C341.908 134.407 347.274 132.649 347.735 132.903C347.883 133.009 348.1 135.104 348.185 137.559Z" fill="#D00000"/>
<path fill-rule="evenodd" clip-rule="evenodd" d="M342.928 53.1275C341.406 53.1701 337.99 53.1751 335.208 53.1793L334.985 53.1796C332.174 53.1531 326.459 53.1747 322.291 53.2139L321.93 53.2173C317.759 53.2565 311.59 53.3145 308.059 53.3314C304.392 53.3399 300.865 53.4844 300.224 53.6422C299.509 53.8131 298.532 54.44 297.842 55.1765L296.652 56.4698L296.713 59.1486C296.852 71.4464 296.941 76.269 297.064 82.1527C297.159 85.8924 297.3 93.1615 297.397 98.3481C297.462 103.526 297.628 111.624 297.742 116.354C297.822 121.076 297.852 125.324 297.77 125.763C297.623 126.578 294.748 128.244 266.124 144.28C257.227 149.238 254.328 152.311 252.265 158.861C250.808 163.534 250.688 166.362 251.763 170.79C252.771 174.938 255.919 180.182 259.014 182.848C263.286 186.517 269.011 188.964 274.364 189.372C279.791 189.767 282.997 189.11 289.077 186.392C290.967 185.515 292.66 184.849 292.824 184.893L297.483 182.749L299.258 181.907C300.252 181.482 304.361 179.685 308.379 177.962C315.405 175.003 315.717 174.889 316.137 175.56L320.656 173.017C320.746 172.811 324.51 171.382 332.991 168.384C338.784 166.346 343.606 162.931 347.316 158.266C350.124 154.741 351.411 151.896 352.522 146.933C353.364 143.246 353.47 142.19 353.276 138.555C353.09 134.495 352.571 121.636 352.256 113.302C352.163 111.009 352.001 107.12 351.916 104.665C351.798 102.201 351.745 100.017 351.794 99.8333L351.566 94.6117C351.417 94.3749 351.296 89.8065 351.419 89.3462L351.132 83.6817C350.942 83.2038 350.472 69.1085 350.602 68.6175L350.299 63.2774C350.209 63.0889 350.084 61.7079 350.024 60.2128C349.929 56.9992 349.533 55.5787 348.438 54.6623C346.948 53.3776 345.863 53.0882 342.928 53.1275ZM345.445 73.0277C345.51 72.3876 345.346 66.7889 345.065 59.1209C345.014 57.7267 345.252 57.7574 331.629 57.8398C323.753 57.9095 321.319 57.9181 307.745 57.948C303.412 57.9433 301.973 58.0528 301.875 58.4211C301.736 58.9428 301.785 65.1027 301.949 70.7013L302.052 73.8843L303.712 73.8669C304.6 73.8406 308.193 73.8452 311.679 73.8542C315.165 73.8632 321.759 73.8461 326.306 73.842C330.861 73.8072 337.019 73.8382 339.979 73.8384C345.29 73.8738 345.405 73.8388 345.445 73.0277ZM345.049 84.5582C345.83 84.5363 346.01 83.7296 345.908 81.2043C345.832 79.5076 345.675 79.17 345 78.9245C344.581 78.7798 341.3 78.6612 337.699 78.6873C334.098 78.7133 329.905 78.7131 328.367 78.6648C326.822 78.6471 322.07 78.6293 317.802 78.6422C313.535 78.6551 308.397 78.6328 306.374 78.5538C304.343 78.5054 302.576 78.5273 302.411 78.6149C302.255 78.6719 302.125 79.9521 302.152 81.4384C302.146 83.442 302.295 84.2048 302.69 84.3101C302.986 84.389 306.456 84.4594 310.443 84.4377C318.764 84.4207 330.669 84.4389 338.784 84.5315C341.884 84.5361 344.695 84.5626 345.049 84.5582ZM346.649 100.631C346.605 98.5484 346.461 95.1243 346.343 93.0549C346.2 90.9461 345.943 89.2669 345.713 89.2055C345.474 89.1748 342.942 89.1571 340.015 89.1657C337.113 89.2138 332.114 89.1959 328.916 89.165C325.726 89.1035 320.513 89.0944 317.298 89.1249C314.084 89.1554 309.438 89.1331 306.98 89.1023C302.598 89.0187 302.483 89.0538 302.418 89.8254C302.345 90.7593 302.497 100.365 302.691 109.949C303.118 128.701 303.11 128.468 301.574 129.867C301.081 130.261 297.639 132.335 293.917 134.399C275.136 144.842 270.248 147.713 270.454 147.998C270.577 148.195 271.664 149.405 272.858 150.743C279.388 157.973 284.867 167.421 287.889 176.839C288.566 178.925 289.267 180.657 289.399 180.692C289.662 180.763 291.33 180.057 300.665 175.971C305.973 173.639 310.895 171.566 315.94 169.558C318.86 168.368 321.42 167.344 321.626 167.261L321.627 167.261C321.799 167.143 321.617 165.976 321.204 164.617C316.943 150.596 322.772 137.983 336.461 131.574C339.477 130.176 343.824 128.672 346.43 128.151L347.803 127.892L347.694 126.318C347.651 125.419 347.523 121.802 347.379 118.247C347.267 114.7 347.08 110.114 346.946 108.106C346.82 106.067 346.693 102.713 346.649 100.631ZM345.277 152.036C347.5 148.191 348.415 143.57 348.185 137.559C348.1 135.104 347.883 133.009 347.735 132.903C347.274 132.649 341.908 134.407 338.851 135.827C334.159 137.962 329.651 141.789 327.469 145.481C326.254 147.523 324.823 152.894 324.769 155.608C324.738 157.572 325.823 163.153 326.557 164.762C326.845 165.398 327.1 165.367 330.864 163.938C337.602 161.396 342.029 157.744 345.277 152.036ZM283.84 180.262C281.229 170.626 274.818 159.516 267.524 151.983C266.725 151.146 265.96 150.448 265.762 150.396C265.269 150.264 263.306 151.68 261.787 153.28C259.775 155.407 258.463 157.818 257.669 160.795C256.344 165.766 257.007 170.151 259.768 174.601C264.472 182.199 273.587 185.812 282.373 183.52L284.567 182.954L283.84 180.262Z" fill="black"/>
<g filter="url(#filter0_d_104_3046)">
<path d="M349.5 56.5L351 106.5H298.5L297.5 56.5H312.467C313.178 55.3333 313.147 53 314 53H336L338.022 56.5H349.5Z" fill="#E30000"/>
</g>
<path d="M324.428 72.4757C324.736 72.8863 324.996 73.3202 325.199 73.7776C325.628 74.7175 325.871 75.764 325.879 76.8364L329.341 75.9373C329.082 72.8512 327.549 70.0226 325.062 68.1096L322.928 70.9198C323.505 71.3753 324.014 71.9016 324.428 72.4757Z" fill="white"/>
<path d="M323.52 88.2399C323.306 87.9468 323.117 87.6416 322.962 87.3251C322.439 86.3038 322.16 85.1623 322.15 83.9727L322.15 83.9015L318.678 84.8007C318.924 87.9219 320.458 90.7746 322.969 92.7115L325.103 89.9014C324.479 89.4231 323.947 88.8609 323.52 88.2399Z" fill="white"/>
<path d="M337.292 77.0302C336.42 76.3534 335.375 76.0078 334.309 76.0161C333.922 76.0191 333.524 76.0814 333.126 76.1787L329.385 77.1512L325.783 78.0864L325.233 78.232L324.695 78.3654L324.064 78.5358L322.533 78.9246L321.398 79.2282L321.386 79.2282L314.301 81.0638C314.196 81.0887 314.079 81.1006 313.974 81.1014C313.821 81.1026 313.668 81.0797 313.528 81.0337C313.387 80.9877 313.258 80.9175 313.127 80.8243C312.798 80.5552 312.607 80.1678 312.604 79.7438L312.595 78.6473C312.589 77.8926 313.193 77.2755 313.944 77.2696L324.054 77.1906L324.026 73.6568L313.917 73.7358C311.222 73.7569 309.061 75.9779 309.082 78.6759L309.09 79.7724C309.102 81.2928 309.793 82.7017 310.994 83.6234C311.866 84.3002 312.923 84.6578 313.99 84.6495C314.389 84.6464 314.787 84.5841 315.184 84.4868L318.645 83.5878L322.258 82.6525L322.27 82.6524L323.405 82.3488L324.095 82.178L333.998 79.6018C334.115 79.5768 334.22 79.553 334.325 79.5522C334.63 79.5498 334.912 79.6538 335.159 79.8403C335.489 80.0974 335.692 80.4847 335.695 80.9086L335.704 82.0632C335.705 82.1453 335.693 82.2287 335.693 82.2396C335.605 82.9239 335.035 83.4356 334.356 83.4409L324.105 83.521L324.133 87.057L334.383 86.9769C336.82 86.9578 338.891 85.1034 339.187 82.6023C339.209 82.4258 339.219 82.2362 339.218 82.0368L339.209 80.8823C339.197 79.3618 338.494 77.9651 337.292 77.0313L337.292 77.0302Z" fill="white"/>
<circle cx="325" cy="57" r="2" fill="black"/>
</g>
<path d="M244.036 22.0589C243.733 24.6771 242.629 27.1678 240.849 29.253C239.068 31.3382 236.68 32.9359 233.952 33.8677C231.224 34.7995 228.262 35.0288 225.398 34.5301C222.533 34.0313 219.879 32.8241 217.731 31.0432L209.86 32.0821L213.799 25.9401C212.813 23.7742 212.442 21.4204 212.72 19.0924C213.155 15.345 215.222 11.9069 218.466 9.53462C221.71 7.16231 225.865 6.05007 230.018 6.44257C234.171 6.83508 237.981 8.70019 240.61 11.6276C243.239 14.555 244.471 18.3049 244.036 22.0523V22.0589Z" fill="white"/>
<path d="M244.036 22.0589C243.725 24.6719 242.625 27.1578 240.857 29.2463C240.408 29.7645 239.925 30.2576 239.409 30.723C238.884 31.1885 238.328 31.6249 237.744 32.0298C235.407 33.6193 232.627 34.5939 229.714 34.846C228.992 34.9073 228.266 34.9204 227.542 34.8852C226.813 34.8697 226.087 34.802 225.37 34.6826C222.475 34.1897 219.788 32.9819 217.608 31.1935L217.796 31.2457L209.925 32.3304L209.36 32.4153L209.643 31.9579L213.56 25.8029V26.0446C212.634 24.0132 212.238 21.817 212.402 19.6254C212.565 17.4338 213.285 15.3054 214.504 13.4044C215.724 11.5034 217.411 9.88059 219.435 8.66107C221.46 7.44156 223.767 6.65796 226.181 6.37072C228.564 6.06915 230.993 6.26582 233.279 6.94556C235.565 7.6253 237.648 8.76993 239.366 10.2911C241.081 11.8057 242.392 13.6518 243.201 15.6903C244.01 17.7287 244.296 19.9063 244.036 22.0589ZM244.036 22.0589C244.29 19.9184 243.996 17.7538 243.176 15.7322C242.356 13.7106 241.032 11.8861 239.307 10.3997C237.581 8.91318 235.5 7.80448 233.224 7.15915C230.948 6.51383 228.538 6.34914 226.181 6.67782C223.84 6.99038 221.611 7.78399 219.664 8.9974C217.742 10.2155 216.136 11.7962 214.958 13.63C213.796 15.4717 213.113 17.527 212.959 19.6413C212.813 21.7526 213.192 23.8666 214.067 25.829L214.125 25.9532L214.045 26.0708L210.085 32.2062L209.802 31.8273L217.702 30.8537H217.81L217.89 30.919C219.994 32.6952 222.603 33.9079 225.428 34.4213C226.132 34.549 226.846 34.6277 227.564 34.6565C229.725 34.7886 231.893 34.5012 233.921 33.8136C235.28 33.3727 236.559 32.7517 237.715 31.971C238.296 31.5817 238.852 31.1629 239.38 30.7165C239.896 30.2556 240.379 29.7668 240.829 29.2529C242.613 27.1678 243.723 24.678 244.036 22.0589Z" fill="#2F2E41"/>
<path d="M226.535 28.6776L219.809 22.5357L222.068 20.5232L226 24.1104L234.16 12.5713L236.832 14.1068L226.535 28.6776Z" fill="#D00000"/>
<path d="M111.92 37.2361C109.633 36.8179 103.878 38.7781 102.065 42.0321C100.253 45.286 100.635 50.4217 101.647 50.8399C102.659 51.2581 106.965 50.7092 109.851 48.8797C112.738 47.0502 113.051 37.4386 111.92 37.2361Z" fill="#2F2E41"/>
<path d="M111.926 37.2486C112.001 37.2486 112.007 37.0918 111.926 37.0983C109.939 37.1375 107.845 37.9347 105.983 38.5946C104.433 39.0381 102.99 39.8173 101.747 40.8815C101.17 41.423 100.714 42.0894 100.41 42.8343C100.106 43.5791 99.9604 44.3844 99.9844 45.194C99.9504 47.1489 100.393 49.0805 101.272 50.8067C101.272 50.8524 101.384 50.8067 101.365 50.8067C100.309 47.396 99.3282 43.2142 102.509 40.7051C105.208 38.5162 108.764 38.1176 111.926 37.2486Z" fill="#2F2E41"/>
<path d="M101.946 49.925C99.9781 50.2844 94.9978 54.4988 94.2979 58.4192C93.5981 62.3397 96.9099 68.0765 97.8972 68.4555C98.8846 68.8345 103.102 64.8553 104.415 62.013C105.29 60.1181 104.415 57.988 103.921 55.8644C103.146 52.7477 102.271 49.8727 101.946 49.925Z" fill="#2F2E41"/>
<path d="M105.577 61.4904C105.996 57.4458 103.653 53.5777 102.19 50.0101C102.19 49.9709 102.115 50.0101 102.128 50.0101C102.997 53.4535 105.134 56.4853 105.346 60.1182C105.452 61.1806 105.312 62.2541 104.938 63.248C104.564 64.2419 103.967 65.1272 103.196 65.829C101.766 67.0443 99.9409 67.6585 98.2537 68.3707C98.1475 68.4164 98.2537 68.5863 98.3349 68.5471C101.697 67.2468 105.146 65.6591 105.577 61.4904Z" fill="#2F2E41"/>
<path d="M101.534 50.3166C101.552 50.3044 101.564 50.2859 101.57 50.2647C101.576 50.2434 101.574 50.2207 101.565 50.2008C101.555 50.1809 101.54 50.1652 101.52 50.1564C101.501 50.1477 101.479 50.1465 101.459 50.1532C98.7034 51.6822 95.3978 53.8711 94.0168 56.929C92.5171 60.2352 94.298 63.5415 95.8915 66.3903H95.9477C94.3855 63.4957 92.7171 59.8563 94.4418 56.6546C95.9102 53.845 98.9346 51.7998 101.534 50.3166Z" fill="#2F2E41"/>
<path d="M98.2535 67.959C99.6157 68.6124 101.672 70.8405 102.271 73.5913C103.284 78.2958 104.946 77.2569 109.976 78.2239C114.225 79.0341 115.388 83.8889 113.288 86.4503C113.288 86.4503 114.419 83.3466 111.513 82.0333C108.039 80.4651 100.516 84.6469 96.3914 79.8836C91.0549 73.7285 98.2535 67.959 98.2535 67.959Z" fill="#2F2E41"/>
<path d="M100.159 70.0234C100.103 69.9581 100.197 69.8535 100.259 69.9123C100.861 70.4677 101.363 71.1316 101.74 71.8725C102.222 72.8526 102.303 73.9438 102.709 74.9435C103.759 77.4918 106.758 77.2239 108.958 77.2566C111.895 77.2958 114.344 79.0208 114.707 82.229C114.709 82.2349 114.71 82.2414 114.71 82.2479C114.709 82.2544 114.707 82.2607 114.704 82.2661C114.7 82.2715 114.696 82.276 114.69 82.2791C114.685 82.2822 114.678 82.2838 114.672 82.2838C114.666 82.2838 114.66 82.2822 114.654 82.2791C114.649 82.276 114.644 82.2715 114.641 82.2661C114.637 82.2607 114.635 82.2544 114.635 82.2479C114.634 82.2414 114.635 82.2349 114.638 82.229C114.506 81.252 114.124 80.3305 113.532 79.5621C112.94 78.7937 112.161 78.207 111.276 77.8642C109.52 77.2108 107.614 77.727 105.821 77.3873C104.571 77.1586 103.321 76.6881 102.696 75.4859C102.402 74.7981 102.178 74.0798 102.028 73.3427C101.689 72.0864 101.045 70.943 100.159 70.0234Z" fill="#2F2E41"/>
<path d="M97.5161 68.5796C97.5161 68.5796 97.5849 68.5796 97.5599 68.6253C95.9977 70.4353 94.3417 72.2582 94.0043 74.7869C93.6356 77.5051 95.1103 80.1187 97.2224 81.6215C99.5907 83.3073 101.965 82.2749 104.471 81.6215C106.277 81.138 108.133 80.7982 109.964 81.3471C110.02 81.3471 109.964 81.4581 109.964 81.4516C107.033 80.9224 104.434 81.9809 101.622 82.6343C100.578 82.9023 99.4827 82.8568 98.4624 82.5031C97.4421 82.1494 96.538 81.5019 95.854 80.6349C92.3046 76.6818 94.0605 71.8139 97.5161 68.5796Z" fill="#2F2E41"/>
<path d="M110.095 35.1451C109.426 34.3349 108.22 35.4326 108.908 36.2428C109.595 37.053 110.757 35.9488 110.095 35.1451Z" fill="#D00000"/>
<path d="M110.764 36.5111C110.101 35.7074 108.889 36.8051 109.583 37.6088C110.276 38.4125 111.432 37.354 110.764 36.5111Z" fill="#D00000"/>
<path d="M111.645 37.7522C110.976 36.9485 109.77 38.0397 110.457 38.8499C111.145 39.6601 112.326 38.5624 111.645 37.7522Z" fill="#D00000"/>
<path d="M112.676 38.8241C112.013 38.0204 110.801 39.1181 111.495 39.9218C112.188 40.7255 113.344 39.6343 112.676 38.8241Z" fill="#D00000"/>
<path d="M113.882 39.7191C113.213 38.9154 112.007 40.0131 112.694 40.8168C113.382 41.6205 114.544 40.5293 113.882 39.7191Z" fill="#D00000"/>
<path d="M115.169 40.3523C114.5 39.5486 113.294 40.6398 113.982 41.45C114.669 42.2602 115.831 41.1625 115.169 40.3523Z" fill="#D00000"/>
<path d="M163.766 257.066C162.322 257.537 120.137 256.583 118.6 255.511C118.006 255.113 121.624 213.328 121.624 213.328L148.375 213.863L145.332 241.809C145.332 241.809 160.898 249.526 162.472 250.892C164.047 252.257 165.216 256.596 163.766 257.066Z" fill="#FFC3BD"/>
<path d="M163.772 257.066C162.329 257.537 120.137 256.583 118.6 255.505C118.412 255.387 118.356 251.14 119.031 245.619C126.679 246.958 153.98 251.342 156.111 250.036C157.592 249.121 156.28 247.696 155.061 246.769C158.548 248.585 161.804 250.33 162.472 250.918C164.041 252.257 165.209 256.602 163.772 257.066Z" fill="#2F2E41"/>
<path d="M146.088 235.112L119.843 234.727C119.843 234.727 125.042 168.949 124.842 167.681C124.53 166.074 105.896 89.6587 105.896 89.6587H130.966C130.966 89.6587 150.731 160.879 151.443 167.734C152.593 178.815 146.088 235.112 146.088 235.112Z" fill="#37474F"/>
<path d="M122.18 228.526C123.736 228.408 125.304 228.428 126.86 228.408C128.416 228.389 129.985 228.408 131.534 228.408C134.659 228.441 137.783 228.493 140.908 228.585C141.757 228.585 142.607 228.637 143.463 228.676C144.319 228.715 145.282 228.885 146.188 228.918C146.203 228.918 146.217 228.924 146.228 228.935C146.238 228.946 146.244 228.961 146.244 228.977C146.244 228.992 146.238 229.007 146.228 229.018C146.217 229.029 146.203 229.035 146.188 229.035C145.419 229.035 144.657 229.16 143.888 229.186C143.12 229.212 142.301 229.186 141.508 229.186H136.833C133.709 229.186 130.585 229.114 127.491 228.983C125.736 228.905 123.961 228.885 122.211 228.696C122.19 228.7 122.167 228.695 122.149 228.682C122.131 228.669 122.119 228.65 122.114 228.627C122.11 228.604 122.115 228.581 122.127 228.562C122.139 228.543 122.158 228.53 122.18 228.526Z" fill="#2F2E41"/>
<path d="M111.413 95.8333C113.657 104.138 115.706 112.515 117.712 120.885C119.718 129.255 121.724 137.638 123.717 146.015C124.717 150.209 125.715 154.4 126.711 158.586C127.679 162.663 128.81 166.767 129.048 171.001C129.285 175.235 128.773 179.606 128.423 183.873C128.073 188.139 127.735 192.445 127.373 196.738C126.654 205.311 125.967 213.896 125.073 222.456C124.967 223.528 124.855 224.599 124.748 225.671C124.748 225.762 124.605 225.762 124.611 225.671C125.155 217.085 125.723 208.506 126.379 199.933C126.704 195.643 127.038 191.354 127.379 187.068C127.717 182.788 128.191 178.489 128.323 174.196C128.454 169.903 127.698 165.702 126.698 161.533C125.698 157.364 124.73 153.333 123.749 149.229C121.741 140.861 119.741 132.485 117.75 124.099C115.525 114.717 113.301 105.321 111.338 95.8725C111.336 95.8674 111.335 95.8618 111.334 95.856C111.334 95.8503 111.334 95.8445 111.336 95.8391C111.338 95.8336 111.341 95.8285 111.344 95.8242C111.348 95.8198 111.352 95.8163 111.357 95.8137C111.362 95.8111 111.368 95.8096 111.373 95.8092C111.378 95.8088 111.384 95.8095 111.389 95.8113C111.394 95.8131 111.399 95.816 111.403 95.8198C111.408 95.8236 111.411 95.8282 111.413 95.8333Z" fill="#2F2E41"/>
<path d="M105.896 89.6655C105.896 89.6655 113.894 122.44 119.487 145.512L130.154 89.6655H105.896Z" fill="#2F2E41"/>
<path d="M132.266 257.165C130.822 257.642 88.6366 256.688 87.0994 255.609C86.5057 255.211 88.7053 213.406 88.7053 213.406L115.106 213.942L113.857 241.914C113.857 241.914 129.422 249.624 130.997 250.996C132.572 252.369 133.709 256.701 132.266 257.165Z" fill="#FFC3BD"/>
<path d="M132.266 257.165C130.822 257.635 88.6366 256.688 87.0994 255.61C86.9119 255.486 86.9557 251.356 87.0994 245.717C94.7479 247.057 122.474 251.448 124.592 250.134C126.073 249.226 124.767 247.802 123.549 246.867C127.035 248.684 130.291 250.435 130.96 251.023C132.534 252.356 133.709 256.701 132.266 257.165Z" fill="#2F2E41"/>
<path d="M130.154 89.6255C130.154 89.6255 129.422 102.158 126.56 112.057C126.329 112.874 126.079 113.677 125.817 114.448C123.287 115.476 120.852 116.745 118.543 118.238C118.543 118.238 116.737 166.171 116.769 169.151C116.887 180.318 114.144 234.563 114.144 234.563L87.6555 234.295C87.6555 234.295 90.4049 172.954 90.4174 168.877C90.4174 162.343 95.9726 89.6582 95.9726 89.6582L130.154 89.6255Z" fill="#37474F"/>
<path d="M124.367 106.483L124.667 104.405C124.855 103.098 125.105 101.87 125.292 100.602C125.773 97.734 126.279 94.8525 126.886 92.0037C126.886 91.9384 127.017 91.9514 127.004 92.0037C126.898 93.1537 126.773 94.3037 126.617 95.4471C126.461 96.5906 126.354 97.7406 126.198 98.884C125.892 101.151 125.573 103.458 125.223 105.686C125.08 106.555 124.561 108.117 125.761 108.385C126.704 108.6 127.404 107.627 127.679 106.81C127.971 105.785 128.181 104.735 128.304 103.673C128.504 102.53 128.673 101.38 128.829 100.23C129.166 97.721 129.541 95.2185 129.929 92.7225C129.929 92.6506 130.054 92.6702 130.047 92.7225C129.995 95.2916 129.818 97.8562 129.516 100.406C129.36 101.628 129.191 102.844 128.991 104.059C128.872 105.225 128.601 106.368 128.185 107.457C128.017 107.887 127.746 108.265 127.4 108.557C127.054 108.848 126.642 109.043 126.204 109.123H126.148C126.16 109.131 126.169 109.141 126.176 109.154C126.182 109.166 126.186 109.18 126.186 109.195C126.186 109.606 126.186 110.018 126.142 110.423C126.098 110.828 126.023 111.22 125.948 111.619C125.878 112.024 125.78 112.424 125.654 112.815C125.586 112.998 125.523 113.18 125.442 113.363C125.361 113.546 125.236 113.69 125.13 113.867C125.092 113.938 125.011 113.867 125.005 113.821C125.005 113.755 125.005 113.69 125.005 113.625C124.998 113.507 124.998 113.389 125.005 113.272C125.032 113.076 125.07 112.882 125.117 112.69C125.198 112.305 125.298 111.919 125.398 111.534C125.498 111.148 125.573 110.769 125.667 110.384C125.761 109.998 125.892 109.606 125.979 109.208C125.979 109.208 125.979 109.208 125.979 109.169C125.627 109.186 125.277 109.09 124.978 108.894C124.678 108.698 124.443 108.411 124.305 108.071C124.197 107.545 124.219 106.998 124.367 106.483Z" fill="#2F2E41"/>
<path d="M116.4 119.218C117.193 118.584 118.029 118.01 118.899 117.5C119.813 116.92 120.763 116.405 121.743 115.958C123.655 115.089 125.629 114.494 127.61 113.814C127.667 113.814 127.704 113.893 127.648 113.919C125.736 114.716 123.898 115.775 122.024 116.722C121.112 117.188 120.191 117.624 119.262 118.029C118.337 118.46 117.387 118.963 116.456 119.336C116.4 119.381 116.344 119.264 116.4 119.218Z" fill="#2F2E41"/>
<path d="M101.453 101.759C102.801 101.742 104.142 101.553 105.446 101.197C106.071 101.034 106.639 100.831 107.227 100.629C107.811 100.46 108.359 100.174 108.839 99.7858C109.745 98.9625 110.17 97.6753 110.564 96.5188C110.994 95.2375 111.343 93.9278 111.607 92.5984C111.607 92.5828 111.613 92.5678 111.624 92.5568C111.634 92.5457 111.648 92.5396 111.663 92.5396C111.678 92.5396 111.693 92.5457 111.703 92.5568C111.714 92.5678 111.72 92.5828 111.72 92.5984C111.752 94.1124 111.568 95.623 111.176 97.0807C110.851 98.3156 110.414 99.6943 109.458 100.563C108.396 101.398 107.122 101.885 105.796 101.962C104.341 102.141 102.871 102.121 101.422 101.903C101.409 101.894 101.399 101.881 101.393 101.867C101.387 101.852 101.386 101.835 101.389 101.819C101.392 101.804 101.4 101.79 101.412 101.779C101.423 101.768 101.438 101.761 101.453 101.759Z" fill="#2F2E41"/>
<path d="M92.7483 200.573C93.1982 191.826 93.6731 183.075 94.173 174.32C95.1353 156.906 96.0476 139.487 97.1162 122.047C97.7411 112.246 98.3159 102.4 99.0533 92.5855C99.0581 92.5678 99.0684 92.5522 99.0825 92.5411C99.0966 92.5299 99.1138 92.5239 99.1314 92.5239C99.1491 92.5239 99.1662 92.5299 99.1803 92.5411C99.1944 92.5522 99.2047 92.5678 99.2095 92.5855C98.5221 110.142 97.5223 127.641 96.5538 145.165C95.5852 162.689 94.5979 179.978 93.5231 197.385C92.9607 207.238 92.2171 217.039 91.6485 226.84C91.6514 226.849 91.6523 226.858 91.651 226.868C91.6498 226.877 91.6464 226.886 91.6412 226.893C91.636 226.901 91.6291 226.907 91.6212 226.912C91.6132 226.916 91.6043 226.918 91.5954 226.918C91.5864 226.918 91.5775 226.916 91.5696 226.912C91.5616 226.907 91.5547 226.901 91.5495 226.893C91.5443 226.886 91.541 226.877 91.5397 226.868C91.5384 226.858 91.5393 226.849 91.5422 226.84C91.9734 218.084 92.2734 209.329 92.7483 200.573Z" fill="#2F2E41"/>
<path d="M88.8553 228.931C90.405 228.813 91.9797 228.833 93.5294 228.813C95.0791 228.794 96.6538 228.813 98.2035 228.813C101.328 228.846 104.452 228.898 107.577 228.99C108.427 228.99 109.283 229.042 110.132 229.081C110.982 229.121 111.951 229.29 112.857 229.323C112.872 229.323 112.886 229.329 112.897 229.34C112.907 229.351 112.913 229.366 112.913 229.382C112.913 229.397 112.907 229.412 112.897 229.423C112.886 229.434 112.872 229.441 112.857 229.441C112.095 229.441 111.326 229.565 110.557 229.591C109.789 229.617 108.97 229.591 108.177 229.591C106.621 229.591 105.052 229.591 103.509 229.591C100.384 229.591 97.2599 229.526 94.1355 229.388C92.3734 229.31 90.5987 229.29 88.8491 229.107C88.838 229.107 88.8271 229.104 88.817 229.099C88.8069 229.095 88.7979 229.088 88.7903 229.079C88.7828 229.071 88.7769 229.061 88.773 229.05C88.7692 229.039 88.7674 229.028 88.7678 229.016C88.7682 229.004 88.7708 228.993 88.7754 228.982C88.7801 228.972 88.7866 228.962 88.7947 228.955C88.8029 228.947 88.8124 228.941 88.8228 228.936C88.8332 228.932 88.8442 228.931 88.8553 228.931Z" fill="#2F2E41"/>
<path d="M119.537 61.3009C122.08 67.9002 132.184 89.2338 138.821 90.7432C143.195 91.7298 160.773 89.946 163.816 85.5944C165.134 83.6995 162.903 70.4747 160.554 70.9974C158.204 71.5201 144.101 73.4738 142.37 72.9576C140.639 72.4414 127.654 56.799 122.799 52.9178C114.425 46.2138 118.168 57.7464 119.537 61.3009Z" fill="#FFC3BD"/>
<path d="M134.934 64.561L123.873 71.4021C123.873 71.4021 119.218 62.1368 117.4 56.0733C115.581 50.0097 117.144 47.2393 123.817 53.2702C127.739 56.7933 131.452 60.564 134.934 64.561Z" fill="#D00000"/>
<path d="M123.399 69.0243C124.865 67.9135 126.358 66.8397 127.879 65.803C128.623 65.2934 129.366 64.7707 130.122 64.2806C130.878 63.7905 131.722 63.3136 132.503 62.8039C132.508 62.7987 132.515 62.7948 132.521 62.7923C132.528 62.7899 132.535 62.7891 132.543 62.7898C132.55 62.7906 132.557 62.793 132.563 62.7968C132.569 62.8007 132.575 62.8059 132.579 62.8121C132.583 62.8183 132.586 62.8253 132.587 62.8327C132.588 62.8402 132.588 62.8478 132.586 62.8551C132.584 62.8624 132.581 62.8692 132.576 62.875C132.572 62.8808 132.566 62.8856 132.559 62.8889C131.822 63.4116 131.122 63.9866 130.385 64.5158C129.647 65.0451 128.848 65.5743 128.079 66.0971C126.563 67.1338 125.019 68.1335 123.449 69.0962C123.405 69.1223 123.355 69.057 123.399 69.0243Z" fill="#2F2E41"/>
<path d="M134.353 98.0415L131.853 83.2942C131.853 83.2942 135.696 76.2832 133.465 71.2455C132.341 68.6972 122.468 52.8326 118.312 49.6832C114.413 46.7233 108.751 49.8858 106.646 52.2054C98.5222 61.1439 96.3601 77.6292 93.4482 101.792L134.353 98.0415Z" fill="#D00000"/>
<path d="M134.14 72.709C133.832 71.6481 133.377 70.64 132.791 69.7164C132.597 69.3701 132.166 68.6513 131.641 67.815C131.495 67.4117 131.328 67.0169 131.141 66.6323C130.833 66.0653 130.555 65.4807 130.31 64.8812C130.31 64.8224 130.197 64.8812 130.229 64.9204C130.49 65.4936 130.724 66.0802 130.928 66.6781C130.047 65.2798 129.123 63.8423 128.723 63.2542C128.723 63.202 128.616 63.2542 128.648 63.3C129.491 64.4565 132.259 69.5269 132.928 70.8141C133.573 72.0856 133.905 73.5045 133.897 74.9436C133.88 76.4356 133.696 77.9203 133.347 79.3671C133.309 79.4847 133.428 79.5501 133.472 79.4325C133.879 78.3873 134.144 77.2876 134.259 76.1655C134.419 75.0152 134.379 73.8442 134.14 72.709Z" fill="#2F2E41"/>
<path d="M117.6 62.601C117.6 62.601 115.1 59.7064 117.144 58.0925C119.187 56.4786 121.174 59.7587 121.174 59.7587L117.6 62.601Z" fill="#2F2E41"/>
<path d="M136.94 81.3994L137.565 85.1565L137.771 86.3914L136.677 85.8621L133.378 84.2482L117.531 62.4834L121.105 59.6411L136.952 81.4059L136.94 81.3994Z" fill="#2F2E41"/>
<path d="M137.552 85.1562L137.758 86.3912L136.665 85.8619L137.552 85.1562Z" fill="#37474F"/>
<path d="M121.297 59.2847L117.126 62.606L117.754 63.4689L121.925 60.1476L121.297 59.2847Z" fill="#2F2E41"/>
<path d="M121.994 60.2402L117.823 63.5615L118.451 64.4244L122.622 61.1032L121.994 60.2402Z" fill="#2F2E41"/>
<path d="M118.456 64.4241L119.799 63.3525L124.792 71.8141L124.273 72.18L118.456 64.4241Z" fill="#2F2E41"/>
<path d="M102.896 56.9558C92.8983 70.0238 82.0066 91.7625 87.4556 95.8985C92.4546 99.6687 109.495 94.6701 120.099 89.5213C122.118 88.5412 112.601 69.9193 110.551 71.2261C108.399 72.6008 106.166 73.8317 103.865 74.9113C103.278 75.1204 106.302 70.736 109.345 60.4646C112.445 49.9971 108.626 49.4351 102.896 56.9558Z" fill="#FFC3BD"/>
<path d="M136.89 68.0637C137.033 70.2852 131.759 70.1872 131.759 70.1872C132.557 70.6665 133.169 71.4223 133.49 72.3238C133.984 73.9377 131.778 75.4536 131.778 75.4536C132.505 76.1312 133.021 77.0211 133.259 78.0084C133.584 79.6027 131.566 81.4649 131.566 81.4649C131.908 82.4719 131.89 83.5742 131.516 84.5686C130.422 87.1822 126.229 87.5024 123.674 88.2407C120.818 89.1225 118.035 90.2412 115.35 91.5861L109.351 71.9122C109.351 71.9122 120.168 64.2151 123.317 64.1694C125.973 64.1432 136.671 64.6594 136.89 68.0637Z" fill="#FFC3BD"/>
<path d="M131.71 70.1221C128.885 69.4687 125.904 69.4687 123.036 69.5798C123.023 69.5798 123.01 69.5853 123.001 69.5951C122.991 69.6049 122.986 69.6182 122.986 69.6321C122.986 69.6459 122.991 69.6592 123.001 69.669C123.01 69.6788 123.023 69.6843 123.036 69.6843C125.892 69.5733 128.848 70.2593 131.697 70.2659C131.706 70.2667 131.715 70.2657 131.724 70.2629C131.732 70.2601 131.74 70.2555 131.747 70.2494C131.754 70.2434 131.76 70.2359 131.764 70.2275C131.769 70.2192 131.771 70.21 131.772 70.2005C131.773 70.1911 131.772 70.1816 131.769 70.1725C131.766 70.1635 131.762 70.1551 131.756 70.1478C131.75 70.1405 131.743 70.1345 131.735 70.1301C131.727 70.1257 131.719 70.123 131.71 70.1221Z" fill="#2F2E41"/>
<path d="M131.691 75.2508C131.033 75.1592 130.367 75.1592 129.71 75.2508C129.01 75.3096 128.316 75.375 127.617 75.4534C126.223 75.6102 124.83 75.8062 123.449 76.0349C123.386 76.0349 123.386 76.146 123.449 76.1395C124.842 75.9892 126.236 75.852 127.629 75.7605C128.329 75.7147 129.029 75.669 129.722 75.6363C130.385 75.6466 131.048 75.5809 131.697 75.4403C131.714 75.4313 131.728 75.4174 131.738 75.4002C131.748 75.3831 131.752 75.3634 131.752 75.3435C131.751 75.3236 131.745 75.3043 131.734 75.2879C131.723 75.2714 131.708 75.2586 131.691 75.2508Z" fill="#2F2E41"/>
<path d="M131.509 81.4582C130.914 81.391 130.312 81.4285 129.728 81.5693L127.854 81.8176C126.604 81.9744 125.311 82.1312 124.036 82.2423C123.973 82.2423 123.98 82.3534 124.036 82.3468C125.329 82.2423 126.629 82.1508 127.923 82.0332C128.547 81.9809 129.172 81.9156 129.797 81.8502C130.382 81.8506 130.962 81.7399 131.509 81.5235C131.515 81.52 131.519 81.5151 131.522 81.5094C131.525 81.5037 131.526 81.4973 131.526 81.4909C131.526 81.4844 131.525 81.478 131.522 81.4723C131.519 81.4666 131.515 81.4618 131.509 81.4582Z" fill="#2F2E41"/>
<path d="M105.883 73.493L95.0353 66.3056C95.0353 66.3056 100.828 57.7722 105.171 53.329C109.514 48.8859 112.582 49.0819 110.47 58.04C109.243 63.2839 107.712 68.4445 105.883 73.493Z" fill="#D00000"/>
<path d="M96.8475 64.7962C98.4597 65.6674 100.051 66.5713 101.622 67.5079C102.396 67.9718 103.178 68.4292 103.94 68.9127C104.702 69.3962 105.49 69.9581 106.277 70.4547C106.333 70.4939 106.277 70.5854 106.233 70.5527C105.452 70.1019 104.64 69.7098 103.859 69.2459C103.078 68.782 102.259 68.2985 101.465 67.8149C99.8907 66.8741 98.341 65.8874 96.81 64.8616C96.7663 64.7962 96.8038 64.744 96.8475 64.7962Z" fill="#2F2E41"/>
<path d="M105.883 73.5519C106.402 71.644 107.133 69.8144 107.758 67.9392C108.383 66.0639 109.008 64.156 109.533 62.2546C109.53 62.2486 109.529 62.2421 109.53 62.2356C109.53 62.2291 109.532 62.2229 109.536 62.2174C109.539 62.212 109.544 62.2075 109.549 62.2044C109.555 62.2013 109.561 62.1997 109.567 62.1997C109.573 62.1997 109.579 62.2013 109.585 62.2044C109.59 62.2075 109.595 62.212 109.598 62.2174C109.602 62.2229 109.604 62.2291 109.604 62.2356C109.605 62.2421 109.604 62.2486 109.601 62.2546C109.376 63.2151 109.17 64.2148 108.914 65.1426C108.789 65.6131 108.645 66.0901 108.502 66.554C108.595 66.3841 108.683 66.2142 108.783 66.0443C109.088 65.5432 109.417 65.059 109.77 64.5938C109.77 64.5938 109.826 64.5938 109.814 64.6264C109.567 65.1614 109.294 65.6827 108.995 66.1881C108.783 66.554 108.545 66.9068 108.32 67.2662L108.052 68.0633C107.525 69.9616 106.832 71.8054 105.983 73.5715C105.952 73.6368 105.871 73.6107 105.883 73.5519Z" fill="#2F2E41"/>
<path d="M103.44 75.0417C100.672 76.5446 97.5411 78.7727 95.9414 80.5369C95.8914 80.5891 95.9414 80.6741 96.0039 80.6283C97.6036 79.3215 102.353 76.2897 103.577 75.4338C103.959 75.1659 104.234 74.5974 103.44 75.0417Z" fill="#2F2E41"/>
<path d="M152.106 91.9453L130.01 92.4419L139.72 62.5684L161.816 62.0718L152.106 91.9453Z" fill="#E6E6E6"/>
<path d="M153.618 91.9126L131.522 92.4026L141.233 62.5356L163.328 62.0391L153.618 91.9126Z" fill="#37474F"/>
<path d="M143.582 62.4838C143.44 63.0042 143.108 63.4453 142.657 63.7122C142.451 63.8363 142.389 63.5488 142.595 63.4312C142.881 63.2565 143.102 62.9844 143.22 62.6602C143.22 62.6014 143.257 62.5426 143.27 62.4903C143.316 62.3061 143.316 62.1126 143.27 61.9284C143.252 61.8476 143.208 61.7759 143.145 61.7258H143.101C143.052 61.7133 143 61.7133 142.951 61.7258C142.855 61.7624 142.769 61.823 142.701 61.9022C142.615 61.9963 142.542 62.1017 142.482 62.2159L142.389 62.3858V62.425C142.386 62.4445 142.386 62.4642 142.389 62.4838C142.387 62.4989 142.387 62.5143 142.389 62.5295H142.076C142.146 62.3226 142.242 62.1269 142.364 61.948C142.454 61.7932 142.576 61.661 142.721 61.5605C142.866 61.4601 143.029 61.3939 143.201 61.3664C143.326 61.3625 143.447 61.4081 143.541 61.4942C143.635 61.5803 143.695 61.7004 143.707 61.8304C143.718 62.0556 143.675 62.2801 143.582 62.4838Z" fill="#CCCCCC"/>
<path d="M145.313 62.4444C145.171 62.9648 144.839 63.4059 144.389 63.6728C144.182 63.797 144.12 63.5095 144.326 63.3919C144.611 63.2152 144.831 62.9437 144.951 62.6208C144.971 62.566 144.986 62.5091 144.995 62.451C145.044 62.2672 145.044 62.0728 144.995 61.889C144.975 61.8078 144.928 61.7363 144.864 61.6865H144.82C144.769 61.6707 144.715 61.6707 144.664 61.6865C144.568 61.7231 144.482 61.7836 144.414 61.8629C144.297 62.0138 144.195 62.1757 144.107 62.3464V62.3856C144.106 62.4074 144.106 62.4292 144.107 62.451C144.105 62.4639 144.105 62.4772 144.107 62.4902H143.795C143.864 62.2833 143.961 62.0875 144.082 61.9086C144.173 61.7539 144.295 61.6216 144.44 61.5212C144.584 61.4208 144.748 61.3545 144.92 61.3271C145.044 61.3216 145.166 61.3669 145.259 61.4535C145.353 61.54 145.41 61.661 145.42 61.791C145.439 62.0147 145.402 62.2398 145.313 62.4444Z" fill="#CCCCCC"/>
<path d="M147.038 62.4049C146.971 62.6632 146.855 62.905 146.697 63.1159C146.539 63.3268 146.343 63.5027 146.119 63.6333C145.913 63.7574 145.851 63.4699 146.051 63.3523C146.336 63.1768 146.557 62.9049 146.675 62.5813C146.675 62.529 146.707 62.4702 146.719 62.4114C146.769 62.2277 146.769 62.0332 146.719 61.8495C146.699 61.7682 146.653 61.6967 146.588 61.6469C146.574 61.6503 146.559 61.6503 146.544 61.6469C146.493 61.6311 146.439 61.6311 146.388 61.6469C146.292 61.6835 146.206 61.7441 146.138 61.8234C146.056 61.9187 145.984 62.024 145.926 62.137C145.891 62.1913 145.859 62.2481 145.832 62.3069V62.3526C145.83 62.3721 145.83 62.3919 145.832 62.4114C145.832 62.4114 145.832 62.4114 145.832 62.4506H145.513C145.585 62.2449 145.682 62.0496 145.801 61.8691C145.894 61.7168 146.017 61.5865 146.161 61.4864C146.305 61.3863 146.468 61.3186 146.638 61.2876C146.763 61.282 146.886 61.3271 146.98 61.4135C147.074 61.4999 147.133 61.6209 147.144 61.7515C147.161 61.9751 147.124 62.1995 147.038 62.4049Z" fill="#CCCCCC"/>
<path d="M148.769 62.3658C148.702 62.6242 148.586 62.8659 148.428 63.0768C148.27 63.2878 148.074 63.4637 147.85 63.5942C147.638 63.7184 147.575 63.4309 147.781 63.3132C148.068 63.1386 148.289 62.8664 148.406 62.5422C148.426 62.4888 148.443 62.4342 148.456 62.3789C148.506 62.1929 148.506 61.9964 148.456 61.8104C148.439 61.7297 148.395 61.658 148.331 61.6079H148.263C148.212 61.5917 148.157 61.5917 148.106 61.6079C148.011 61.6456 147.926 61.706 147.856 61.7843C147.772 61.8779 147.7 61.9835 147.644 62.0979C147.608 62.1537 147.576 62.2127 147.55 62.2743V62.3135C147.548 62.3331 147.548 62.3528 147.55 62.3723C147.55 62.3723 147.55 62.3724 147.55 62.4116H147.238C147.31 62.2079 147.406 62.0147 147.525 61.8366C147.616 61.6811 147.738 61.5481 147.882 61.4466C148.027 61.3451 148.191 61.2775 148.363 61.2485C148.488 61.2429 148.61 61.288 148.705 61.3744C148.799 61.4608 148.858 61.5819 148.869 61.7124C148.887 61.9355 148.853 62.1599 148.769 62.3658Z" fill="#CCCCCC"/>
<path d="M150.5 62.3334C150.357 62.8538 150.025 63.2949 149.575 63.5618C149.369 63.6794 149.306 63.3919 149.512 63.2808C149.798 63.1017 150.018 62.828 150.137 62.5033C150.157 62.4498 150.173 62.3953 150.187 62.3399C150.233 62.1535 150.233 61.9578 150.187 61.7714C150.171 61.6919 150.126 61.6218 150.062 61.5754H150.018C149.97 61.5594 149.917 61.5594 149.868 61.5754C149.773 61.6131 149.688 61.6735 149.619 61.7518C149.534 61.8471 149.461 61.9524 149.4 62.0655L149.306 62.2419V62.2811C149.304 62.3006 149.304 62.3204 149.306 62.3399C149.306 62.3399 149.306 62.3399 149.306 62.3791H148.994C149.063 62.1743 149.16 61.9807 149.281 61.8041C149.374 61.6506 149.496 61.5191 149.641 61.4178C149.785 61.3166 149.947 61.2479 150.118 61.2161C150.243 61.2121 150.365 61.2577 150.459 61.3438C150.553 61.4299 150.612 61.55 150.625 61.68C150.634 61.9051 150.591 62.1294 150.5 62.3334Z" fill="#CCCCCC"/>
<path d="M152.262 62.294C152.118 62.8134 151.786 63.2539 151.337 63.5224C151.131 63.64 151.068 63.3525 151.274 63.2415C151.561 63.0639 151.781 62.7897 151.899 62.4639C151.92 62.4113 151.934 62.3565 151.943 62.3006C151.992 62.1146 151.992 61.9181 151.943 61.7321C151.924 61.6537 151.88 61.5845 151.818 61.5361H151.774C151.723 61.5203 151.669 61.5203 151.618 61.5361C151.524 61.5754 151.438 61.6356 151.368 61.7125C151.286 61.8079 151.214 61.9131 151.156 62.0261C151.121 62.0827 151.09 62.1416 151.062 62.2025V62.2418C151.06 62.2613 151.06 62.281 151.062 62.3006C151.059 62.3135 151.059 62.3269 151.062 62.3398H150.75C150.819 62.1349 150.916 61.9414 151.037 61.7648C151.13 61.6113 151.252 61.4797 151.396 61.3785C151.541 61.2772 151.703 61.2085 151.874 61.1767C151.999 61.1712 152.121 61.2166 152.214 61.3031C152.307 61.3896 152.365 61.5106 152.374 61.6406C152.391 61.8649 152.352 62.09 152.262 62.294Z" fill="#CCCCCC"/>
<path d="M153.955 62.2548C153.815 62.7747 153.485 63.2161 153.036 63.4832C152.83 63.6008 152.768 63.3199 152.974 63.2023C153.143 63.1043 153.29 62.9697 153.406 62.8074C153.521 62.6452 153.602 62.459 153.643 62.2614C153.692 62.0754 153.692 61.8789 153.643 61.6929C153.624 61.6126 153.577 61.5425 153.511 61.4969H153.468C153.417 61.4811 153.362 61.4811 153.311 61.4969C153.217 61.5362 153.132 61.5964 153.061 61.6733C152.979 61.7687 152.908 61.8739 152.849 61.9869C152.812 62.0457 152.787 62.1045 152.755 62.1633V62.2025C152.753 62.2221 152.753 62.2418 152.755 62.2614C152.755 62.2614 152.755 62.2614 152.755 62.3006H152.437C152.509 62.0969 152.605 61.9037 152.724 61.7256C152.815 61.5714 152.937 61.4396 153.082 61.3392C153.226 61.2389 153.39 61.1723 153.561 61.144C153.686 61.1384 153.807 61.1826 153.901 61.2676C153.995 61.3526 154.055 61.4721 154.068 61.6014C154.081 61.8255 154.042 62.0497 153.955 62.2548Z" fill="#CCCCCC"/>
<path d="M155.686 62.2155C155.618 62.4734 155.502 62.7147 155.344 62.9255C155.186 63.1363 154.991 63.3124 154.768 63.4439C154.555 63.568 154.493 63.2805 154.699 63.1629C154.987 62.987 155.208 62.7122 155.324 62.3853C155.343 62.3319 155.36 62.2774 155.374 62.222C155.423 62.0361 155.423 61.8395 155.374 61.6535C155.356 61.5747 155.311 61.5052 155.249 61.4575H155.211C155.161 61.4386 155.106 61.4386 155.055 61.4575C154.957 61.4905 154.871 61.5517 154.805 61.6339C154.719 61.7241 154.648 61.8277 154.593 61.941C154.555 61.9998 154.53 62.0586 154.499 62.1174V62.1567L154.468 62.2155C154.468 62.2155 154.468 62.2155 154.468 62.2547H154.136C154.209 62.051 154.305 61.8578 154.424 61.6797C154.515 61.5249 154.637 61.3927 154.781 61.2922C154.926 61.1918 155.09 61.1256 155.261 61.0981C155.386 61.0925 155.507 61.1367 155.601 61.2217C155.695 61.3067 155.755 61.4262 155.767 61.5555C155.792 61.7791 155.764 62.0056 155.686 62.2155Z" fill="#CCCCCC"/>
<path d="M157.417 62.1832C157.277 62.7046 156.944 63.1464 156.492 63.4116C156.286 63.5358 156.224 63.2483 156.43 63.1307C156.718 62.9547 156.938 62.68 157.055 62.3531C157.074 62.2997 157.091 62.2451 157.105 62.1898C157.151 62.0056 157.151 61.812 157.105 61.6278C157.087 61.5471 157.043 61.4754 156.98 61.4253H156.936C156.888 61.4062 156.834 61.4062 156.786 61.4253C156.688 61.4583 156.602 61.5194 156.536 61.6017C156.449 61.6943 156.375 61.8 156.317 61.9153C156.317 61.9676 156.261 62.0264 156.224 62.0852V62.1244C156.221 62.144 156.221 62.1637 156.224 62.1832C156.224 62.1832 156.224 62.1832 156.224 62.2224H155.911C155.982 62.0182 156.079 61.8248 156.199 61.6474C156.289 61.4927 156.411 61.3605 156.556 61.26C156.7 61.1596 156.864 61.0933 157.036 61.0659C157.16 61.0602 157.282 61.1044 157.376 61.1895C157.47 61.2745 157.529 61.3939 157.542 61.5233C157.553 61.7507 157.51 61.9773 157.417 62.1832Z" fill="#CCCCCC"/>
<path d="M159.136 62.1368C158.993 62.6572 158.661 63.0983 158.211 63.3652C158.005 63.4894 157.942 63.2019 158.148 63.0843C158.435 62.9067 158.655 62.6325 158.773 62.3067C158.793 62.2533 158.809 62.1987 158.823 62.1434C158.869 61.9592 158.869 61.7656 158.823 61.5814C158.803 61.5019 158.759 61.431 158.698 61.3789H158.654C158.603 61.3635 158.549 61.3635 158.498 61.3789C158.402 61.4155 158.317 61.476 158.248 61.5553C158.163 61.6483 158.091 61.754 158.036 61.8689C158.001 61.9233 157.97 61.98 157.942 62.0388V62.078C157.94 62.0975 157.94 62.1173 157.942 62.1368C157.939 62.1497 157.939 62.1631 157.942 62.176H157.63C157.7 61.9718 157.797 61.7784 157.917 61.601C158.008 61.4463 158.13 61.314 158.274 61.2136C158.419 61.1132 158.583 61.0469 158.754 61.0195C158.878 61.0139 158.999 61.0584 159.092 61.1435C159.185 61.2287 159.243 61.3481 159.254 61.4769C159.27 61.7039 159.229 61.9314 159.136 62.1368Z" fill="#CCCCCC"/>
<path d="M160.873 62.098C160.804 62.3559 160.688 62.5972 160.531 62.808C160.373 63.0188 160.177 63.1949 159.954 63.3264C159.748 63.4505 159.685 63.163 159.892 63.0454C160.061 62.9475 160.208 62.8129 160.323 62.6506C160.439 62.4883 160.519 62.3021 160.56 62.1045C160.61 61.9208 160.61 61.7263 160.56 61.5426C160.54 61.4613 160.494 61.3898 160.429 61.34H160.385C160.334 61.3242 160.28 61.3242 160.229 61.34C160.133 61.3766 160.047 61.4372 159.979 61.5164C159.894 61.6095 159.822 61.7152 159.767 61.8301C159.732 61.8844 159.7 61.9412 159.673 62V62.0392C159.671 62.0587 159.671 62.0784 159.673 62.098C159.673 62.098 159.673 62.098 159.673 62.1372H159.36C159.427 61.9291 159.524 61.733 159.648 61.5556C159.738 61.4013 159.859 61.2694 160.002 61.1689C160.146 61.0685 160.308 61.002 160.479 60.9741C160.603 60.9684 160.725 61.0126 160.819 61.0977C160.913 61.1827 160.973 61.3021 160.985 61.4315C161.007 61.6603 160.968 61.8909 160.873 62.098Z" fill="#CCCCCC"/>
<path d="M162.604 62.0592C162.535 62.3171 162.419 62.5584 162.261 62.7692C162.104 62.98 161.908 63.1561 161.685 63.2876C161.473 63.4117 161.41 63.1242 161.616 63.0066C161.903 62.8319 162.123 62.5598 162.241 62.2356C162.241 62.1768 162.279 62.118 162.291 62.0657C162.337 61.8815 162.337 61.688 162.291 61.5038C162.268 61.4237 162.223 61.353 162.16 61.3012H162.129H162.091C162.04 61.2885 161.986 61.2885 161.935 61.3012C161.839 61.3378 161.753 61.3984 161.685 61.4776C161.599 61.5702 161.528 61.6759 161.473 61.7913C161.438 61.8456 161.406 61.9024 161.379 61.9612V62.0004C161.376 62.0199 161.376 62.0397 161.379 62.0592C161.376 62.0743 161.376 62.0898 161.379 62.1049H161.01C161.082 61.8992 161.179 61.7039 161.298 61.5234C161.388 61.3686 161.51 61.2364 161.655 61.136C161.799 61.0355 161.963 60.9693 162.135 60.9419C162.26 60.9363 162.383 60.9814 162.477 61.0678C162.571 61.1542 162.63 61.2752 162.641 61.4058C162.679 61.6235 162.667 61.8478 162.604 62.0592Z" fill="#CCCCCC"/>
<path d="M161.916 68.7954C162.96 71.3502 165.703 74.5845 165.865 76.6362C165.919 77.1425 165.817 77.6536 165.573 78.0945C165.329 78.5354 164.956 78.8831 164.509 79.0865C164.509 79.0865 166.428 80.1842 166.278 82.0725C166.197 83.0526 164.641 83.7779 164.641 83.7779C165.057 84.0529 165.394 84.4418 165.614 84.9025C165.834 85.3632 165.93 85.8781 165.89 86.3915C165.703 87.6983 164.172 88.2537 164.172 88.2537C164.172 88.2537 165.203 89.8676 164.597 91.1614C163.347 93.775 152.312 93.3307 150.762 89.0051C150.044 86.9861 152.737 87.2475 152.737 87.2475C152.737 87.2475 148.95 85.8884 148.987 83.5035C149.025 81.1186 152.499 81.687 152.499 81.687C152.499 81.687 148.856 80.3476 149.137 77.8646C149.419 75.2902 152.812 76.4794 152.812 76.4794C152.812 76.4794 150.418 74.6368 151.037 72.7942C152.068 69.7559 156.574 73.8201 159.029 73.3169L160.529 69.1809L161.916 68.7954Z" fill="#FFC3BD"/>
<path d="M163.991 72.5327C163.203 70.0236 166.247 67.0898 165.828 64.5808C165.259 61.1831 161.504 64.3325 160.516 69.1938L160.379 73.1142L163.991 72.5327Z" fill="#FFC3BD"/>
<path d="M163.96 88.3842C163.968 88.3842 163.976 88.3877 163.982 88.3938C163.988 88.3999 163.991 88.4082 163.991 88.4169C163.991 88.4255 163.988 88.4339 163.982 88.44C163.976 88.4461 163.968 88.4496 163.96 88.4496C160.146 89.2704 156.183 88.8579 152.599 87.2669C152.487 87.2146 152.524 86.999 152.655 87.0317C156.34 88.0557 160.149 88.5114 163.96 88.3842Z" fill="#2F2E41"/>
<path d="M164.697 83.8106C164.741 83.8106 164.741 83.8824 164.697 83.889C160.484 84.7507 156.116 84.0091 152.381 81.7981C152.249 81.7131 152.212 81.5106 152.381 81.589C154.968 82.9677 161.123 83.9804 164.697 83.8106Z" fill="#2F2E41"/>
<path d="M152.574 76.2308C156.249 78.3609 160.204 79.0404 164.359 79.1319C164.409 79.1319 164.403 79.2103 164.359 79.2234C162.316 79.7592 159.673 79.4129 157.636 78.962C155.737 78.5733 153.968 77.6723 152.506 76.3484C152.449 76.3157 152.499 76.1851 152.574 76.2308Z" fill="#2F2E41"/>
<path d="M111.176 49.0361C111.332 49.7352 116.175 54.1653 119.256 54.015C120.249 53.9692 118.537 48.3957 118.537 48.3957L118.631 47.9775L119.881 42.0969L113.288 37.6603L112.332 37.0723C112.332 37.0723 112.088 38.7058 111.807 40.7379C111.807 40.8293 111.807 40.9273 111.763 41.0253C111.72 41.1234 111.726 41.2475 111.713 41.3586C111.663 41.6591 111.62 41.9728 111.582 42.2799C111.545 42.587 111.52 42.7438 111.495 42.9921C111.47 43.2404 111.438 43.4821 111.407 43.7304C111.213 45.4913 111.136 47.264 111.176 49.0361Z" fill="#FFC3BD"/>
<path d="M111.82 40.7378C112.385 42.3888 113.287 43.8913 114.463 45.1415C115.639 46.3916 117.061 47.3593 118.631 47.9775L119.881 42.0969L113.288 37.6603L112.332 37.0723C112.332 37.0723 112.101 38.7058 111.82 40.7378Z" fill="#2F2E41"/>
<path d="M128.566 34.7398C127.81 45.2792 121.693 45.9979 119.512 45.8476C117.544 45.6908 110.845 44.8937 110.551 34.3282C110.257 23.7626 115.188 20.7962 119.718 20.9073C124.249 21.0184 129.316 24.1939 128.566 34.7398Z" fill="#FFC3BD"/>
<path d="M110.82 33.5964C113.188 34.0211 113.782 30.1007 113.782 30.1007C113.782 30.1007 116.518 30.2967 117.425 25.7817C117.807 26.7849 118.407 27.6816 119.176 28.4015C119.946 29.1215 120.865 29.6449 121.861 29.9308C122.617 30.1791 120.349 27.6439 120.349 27.6439C120.349 27.6439 122.998 31.1135 128.941 30.9763C129.36 30.9763 129.478 24.4423 125.292 21.515C121.105 18.5878 116.831 19.117 113.569 21.6261C112.704 21.928 111.923 22.4476 111.296 23.1393C110.668 23.8309 110.213 24.6733 109.97 25.5922C109.089 28.8592 109.895 33.4331 110.82 33.5964Z" fill="#2F2E41"/>
<path d="M112.27 34.531C112.27 34.531 110.582 30.9046 109.045 31.4731C107.508 32.0415 108.42 37.0466 109.964 38.0071C110.156 38.1405 110.373 38.2318 110.6 38.2754C110.827 38.319 111.06 38.3142 111.286 38.2611C111.511 38.208 111.724 38.1077 111.911 37.9664C112.099 37.825 112.257 37.6455 112.376 37.4386L112.27 34.531Z" fill="#FFC3BD"/>
<path d="M109.333 32.8975C109.333 32.8975 109.295 32.8975 109.333 32.9432C110.42 33.6358 110.857 34.8642 111.101 36.1122C111.053 35.9786 110.978 35.8575 110.881 35.7574C110.783 35.6573 110.666 35.5806 110.538 35.5327C110.409 35.4848 110.272 35.4668 110.137 35.48C110.001 35.4932 109.869 35.5372 109.751 35.6091C109.714 35.6091 109.751 35.681 109.751 35.6744C109.967 35.642 110.187 35.6799 110.382 35.7827C110.576 35.8856 110.736 36.0485 110.839 36.2494C111.005 36.587 111.136 36.9418 111.232 37.3079C111.27 37.4255 111.47 37.3994 111.445 37.2687V37.236C111.72 35.694 110.901 33.3287 109.333 32.8975Z" fill="#2F2E41"/>
<path d="M128.404 24.2856C127.242 23.9981 120.78 24.1941 117.875 25.5009C114.969 26.8077 109.814 31.179 109.551 31.3815C109.289 31.5841 107.958 20.4697 116.594 18.4377C126.017 16.2618 128.404 24.2856 128.404 24.2856Z" fill="#D00000"/>
<path d="M110.045 30.9631C110.045 30.9631 115.756 23.1223 118.931 21.2862C122.105 19.4501 129.21 18.47 133.603 20.4956C137.033 22.0703 128.666 26.6833 128.666 26.6833C128.589 26.3034 128.428 25.9477 128.196 25.6447C127.964 25.3417 127.667 25.0999 127.329 24.9387C125.192 24.0501 121.13 24.7362 118.812 25.5464C115.9 26.5853 110.045 30.9631 110.045 30.9631Z" fill="#D00000"/>
<path opacity="0.2" d="M110.045 30.9631C110.045 30.9631 115.756 23.1223 118.931 21.2862C122.105 19.4501 129.21 18.47 133.603 20.4956C137.033 22.0703 128.666 26.6833 128.666 26.6833C128.589 26.3034 128.428 25.9477 128.196 25.6447C127.964 25.3417 127.667 25.0999 127.329 24.9387C125.192 24.0501 121.13 24.7362 118.812 25.5464C115.9 26.5853 110.045 30.9631 110.045 30.9631Z" fill="black"/>
<path d="M118.518 48.383L117.156 53.2116L111.088 47.8799L109.695 49.9185C109.695 49.9185 115.944 58.7394 115.944 58.3082L117.412 54.1199L120.312 56.6485L119.462 49.6637L118.518 48.383Z" fill="#D00000"/>
<path d="M120.112 53.1659C119.931 52.0224 119.787 50.8594 119.556 49.7225C119.556 49.6833 119.487 49.6702 119.481 49.7225C119.362 50.8594 120.062 55.2502 120.155 56.3088C120.031 56.1977 117.475 54.1003 117.456 54.1395C117.119 54.7929 116.038 57.8704 115.969 58.1448C114.975 56.74 111.207 51.6696 110.07 50.3628C110.064 50.3541 110.055 50.3482 110.045 50.3464C110.035 50.3446 110.025 50.3469 110.017 50.353C110.009 50.3591 110.003 50.3683 110.001 50.3787C109.999 50.3892 110.002 50.3999 110.007 50.4085C110.907 51.9048 115.906 58.7459 115.969 58.7198C116.553 57.2721 117.064 55.7934 117.5 54.2897C117.943 54.7602 120.549 57.1582 120.543 56.9818C120.474 55.7991 120.287 54.342 120.112 53.1659Z" fill="#2F2E41"/>
<defs>
<filter id="filter0_d_104_3046" x="293.5" y="53" width="61.5" height="61.5" filterUnits="userSpaceOnUse" color-interpolation-filters="sRGB">
<feFlood flood-opacity="0" result="BackgroundImageFix"/>
<feColorMatrix in="SourceAlpha" type="matrix" values="0 0 0 0 0 0 0 0 0 0 0 0 0 0 0 0 0 0 127 0" result="hardAlpha"/>
<feOffset dy="4"/>
<feGaussianBlur stdDeviation="2"/>
<feComposite in2="hardAlpha" operator="out"/>
<feColorMatrix type="matrix" values="0 0 0 0 0 0 0 0 0 0 0 0 0 0 0 0 0 0 0.25 0"/>
<feBlend mode="normal" in2="BackgroundImageFix" result="effect1_dropShadow_104_3046"/>
<feBlend mode="normal" in="SourceGraphic" in2="effect1_dropShadow_104_3046" result="shape"/>
</filter>
<clipPath id="clip0_104_3046">
<rect width="170" height="170" fill="white" transform="matrix(-1 0 0 1 359 38)"/>
</clipPath>
</defs>
</svg>
