<svg width="103" height="102" viewBox="0 0 103 102" fill="none" xmlns="http://www.w3.org/2000/svg">
<path d="M56.4257 19.1226C56.4257 19.1226 45.5632 17.8421 47.1106 29.3014C49.6668 37.1206 59.7221 35.4145 59.991 33.133M51.7177 24.6398L55.2154 29.3893L63.2359 22.8169M35.9302 72.5125C39.5399 73.0344 46.1169 77.0675 43.548 89.0247C43.548 89.0247 22.3947 86.531 11.5322 85.2504C11.4367 80.3236 13.3813 70.5483 21.9233 70.8613M35.9302 72.5125C31.592 74.8926 25.9085 73.9334 21.9233 70.8613M35.9302 72.5125C39.967 71.005 41.6982 66.6661 41.9976 62.24M21.9233 70.8613C21.9233 70.8613 18.776 65.4999 19.1472 59.5463M19.1472 59.5463C19.3755 55.8864 20.9334 52.0026 25.3695 49.003C28.5189 46.8735 36.316 47.1128 39.5615 51.5434C41.2034 53.4568 42.2919 57.8905 41.9976 62.24M19.1472 59.5463C24.0296 59.2544 33.8715 57.5231 34.1807 52.9332C34.1471 53.2184 36.1603 59.5279 41.9976 62.24M75.0925 77.1292C78.7021 77.6511 85.2791 81.6842 82.7103 93.6413C82.7103 93.6413 61.5569 91.1476 50.6944 89.8671C50.5989 84.9403 52.5435 75.1649 61.0855 75.4779M75.0925 77.1292C70.7543 79.5093 65.0708 78.5501 61.0855 75.4779M75.0925 77.1292C79.1293 75.6217 80.8604 71.2828 81.1599 66.8567M61.0855 75.4779C61.0855 75.4779 57.9382 70.1166 58.3095 64.163M58.3095 64.163C58.5377 60.503 60.0956 56.6193 64.5318 53.6196C67.5584 52.5307 74.6341 51.5142 78.7237 56.1601C80.3656 58.0734 81.4541 62.5071 81.1599 66.8567M58.3095 64.163C63.1918 63.8711 73.0337 62.1398 73.343 57.5498C73.3093 57.835 75.3226 64.1445 81.1599 66.8567M39.0398 38.7593L38.2329 45.6038L45.9003 39.5681L61.0507 41.3541L66.5326 48.9399L67.3395 42.0954C70.7361 42.785 77.6706 42.9664 78.2355 38.1752C78.8003 33.3841 79.7483 25.3418 80.1518 21.9195C80.0788 20.0797 78.0463 16.1775 70.4997 15.2879L42.2 11.9517C39.0051 11.1896 32.4607 10.9771 31.8421 16.2245L29.9258 32.4802C29.8194 34.2026 31.4932 37.8697 39.0398 38.7593Z" stroke="white" stroke-width="2.33943" stroke-linecap="round" stroke-linejoin="round"/>
</svg>
