<svg width="100" height="100" viewBox="0 0 100 100" fill="none" xmlns="http://www.w3.org/2000/svg">
<g clip-path="url(#clip0_498_626)">
<path d="M33.2832 6.74888C31.9896 7.4329 31.3024 8.31838 29.0536 12.232C27.9293 14.1888 26.7708 15.9901 26.4772 16.2331C26.1835 16.4761 25.2749 16.9429 24.4606 17.2937C17.8737 20.0898 17.7057 20.1782 16.7701 21.2312C16.2464 21.8166 15.7466 22.6294 15.5109 23.2552C15.1402 24.2842 15.13 24.356 15.4804 29.0396C15.6886 31.864 15.7707 33.9946 15.681 34.3223C15.6052 34.6131 14.5473 36.5276 13.325 38.5654C12.1046 40.6207 11.0088 42.6806 10.883 43.1711C10.576 44.2995 10.7588 46.2074 11.3029 47.3347C11.5298 47.8059 12.9616 49.6178 14.5162 51.4168C16.0689 53.1983 17.4528 54.8915 17.5717 55.1795C17.7294 55.4988 17.9952 57.5217 18.2736 60.3388C18.7192 64.7471 18.7643 65.0076 19.2015 65.7926C20.5232 68.0757 21.4258 68.5643 26.3851 69.6872C30.5608 70.6096 31.4432 70.9058 32.0199 71.4993L32.436 71.9152L31.644 73.6603C30.7412 75.6999 30.6938 76.4298 31.4911 76.9294C32.4785 77.5504 33.329 77.0368 33.9953 75.4463C34.2069 74.929 34.4296 74.5167 34.4998 74.5093C34.5524 74.5038 35.3126 75.3255 36.1651 76.3497C37.8876 78.3963 38.9387 79.1167 40.6721 79.4119C42.3354 79.7144 43.3768 79.4989 45.7756 78.3628C47.77 77.4283 47.9085 77.3961 47.7698 77.7642C47.6432 78.0781 42.0172 90.6913 41.6421 91.5086C41.5986 91.6016 40.6199 90.2194 39.4724 88.413C37.9661 86.0608 37.2649 85.1268 36.9733 85.0514C36.7536 84.9861 35.1085 85.1943 33.1763 85.5388C31.3123 85.8585 29.6395 86.1404 29.4835 86.1745C29.2555 86.1984 29.4284 85.6499 30.2462 83.8137C31.4688 81.104 31.555 80.4055 30.7013 79.8764C30.0166 79.4357 29.4258 79.5508 28.9057 80.1712C28.4208 80.7879 25.4757 87.3559 25.372 88.0563C25.2886 88.6131 25.6105 89.145 26.1468 89.3539C26.4264 89.4836 27.7382 89.3104 31.1347 88.7235C33.6614 88.2989 35.7727 87.9709 35.8115 88.0022C35.8503 88.0334 36.9516 89.7386 38.267 91.7926C39.5824 93.8466 40.7825 95.6475 40.9569 95.7883C41.2725 96.091 42.3516 96.066 42.745 95.7595C42.8586 95.6591 44.9535 91.1252 47.3792 85.6902C50.5221 78.6418 51.9036 75.7563 52.1279 75.6974C53.0604 75.4579 53.2015 75.6199 59.5659 84.374C62.9663 89.0552 65.8823 93.0094 66.0392 93.152C66.4535 93.5505 67.7145 93.4002 68.0563 92.94C68.1958 92.7486 68.9934 90.72 69.8336 88.4218C71.3181 84.3233 71.3458 84.2497 71.8896 84.1925C72.1702 84.163 74.2879 84.0642 76.5495 83.9856C81.4061 83.7934 81.6305 83.7344 81.595 82.5537C81.5658 81.938 81.2845 81.4548 79.2513 78.6454C77.9847 76.8868 76.7909 75.3151 76.6165 75.1743C76.0509 74.6857 75.2579 74.7337 74.7481 75.2823C74.0129 76.049 74.1982 76.6307 75.915 78.9607C76.7416 80.076 77.3901 81.0155 77.343 81.0735C77.3116 81.1122 75.6554 81.2155 73.6762 81.2821C70.9567 81.3912 69.9726 81.4769 69.6559 81.6693C69.3373 81.8442 68.9049 82.7913 67.915 85.3528C67.194 87.2672 66.5397 88.8034 66.4484 88.7776C66.3044 88.7574 57.8136 77.1506 57.8746 77.0558C57.9078 77.0346 58.4875 77.1505 59.1797 77.3252C60.8928 77.7639 62.8526 77.6817 64.0575 77.1661C65.5496 76.5143 66.3928 75.5947 68.0345 72.8233C69.7354 69.9396 69.4621 70.0391 70.7305 71.8151C71.4565 72.8172 71.8192 73.062 72.5559 72.9846C73.1698 72.92 73.7942 72.1119 73.7299 71.4999C73.7004 71.2201 73.159 70.287 72.4542 69.318L71.2144 67.645L71.6059 67.321C71.8349 67.1378 73.7979 66.242 75.9871 65.3047C80.3811 63.4109 81.1613 62.9046 82.0225 61.3113C82.793 59.869 82.8451 59.0149 82.4607 54.1759C82.2341 51.1765 82.1776 49.6267 82.2968 49.2429C82.3902 48.9502 83.4657 47.0339 84.6722 45.0154C87.1306 40.903 87.3801 40.2403 87.1494 38.2137C86.9638 36.4476 86.5395 35.7851 83.2753 32.0619C81.8249 30.4111 80.5259 28.8504 80.3913 28.5817C80.2354 28.2798 79.9843 26.3969 79.6931 23.4574C79.1574 18.1922 78.9879 17.5913 77.5531 16.257C76.4495 15.2062 75.7112 14.9302 71.2225 13.8992C68.951 13.3778 66.8549 12.8379 66.5928 12.7063C66.3307 12.5747 64.9107 11.0444 63.4512 9.30617C61.9935 7.58538 60.4499 5.8913 60.0236 5.54716C58.8434 4.61045 57.4128 4.15972 55.825 4.23821C54.5197 4.30468 54.348 4.35809 50.5393 6.08434C48.3732 7.07221 46.3152 7.9073 45.9644 7.94417C45.6136 7.98104 43.5303 7.56355 41.3289 7.03472C37.5991 6.13615 37.2197 6.06995 35.7426 6.18983C34.4936 6.28575 33.9729 6.39352 33.2832 6.74888ZM40.554 9.78572C45.4432 10.916 45.0657 10.8673 46.3969 10.7097C47.3422 10.5927 48.2286 10.252 51.3596 8.82681C57.2328 6.15872 56.978 6.0971 61.1094 10.9843C63.9048 14.2971 64.6559 15.0314 65.7846 15.4785C66.0975 15.587 68.0847 16.103 70.2104 16.5868C72.3362 17.0705 74.3215 17.569 74.6362 17.695C75.2657 17.9471 76.0961 18.7615 76.3238 19.4094C76.4197 19.6468 76.7204 22.0019 77.0155 24.6404C77.5229 29.1307 77.5754 29.4611 78.0246 30.1917C78.2828 30.6243 79.6861 32.3331 81.1576 34.0171C83.7142 36.9129 84.359 37.8175 84.4399 38.5869C84.5263 39.4088 84.0365 40.4856 82.029 43.8259C80.8695 45.7864 79.7802 47.7395 79.5982 48.2006C79.2895 48.9756 79.293 49.3465 79.6277 54.0493L79.9585 59.0532L79.5621 59.8373C79.3238 60.269 78.898 60.7734 78.6163 60.9621C78.319 61.1702 76.2877 62.0909 74.1318 63.0069C71.7903 64.0133 69.8993 64.9192 69.5078 65.2432C69.0848 65.6059 68.1629 66.958 66.8224 69.2204C65.7082 71.1054 64.6236 72.9343 64.4129 73.2924C63.9409 74.0315 62.8753 74.6915 62.0001 74.8012C61.6318 74.8399 59.638 74.4307 57.289 73.8466C53.429 72.891 53.1235 72.8524 51.7184 72.9824C50.2783 73.1161 50.0733 73.1907 46.4594 74.9142C42.2694 76.8927 41.577 77.0538 40.3173 76.373C39.9213 76.1494 38.6462 74.816 37.0649 72.9315C34.1089 69.4411 33.4354 68.7694 32.3556 68.2818C31.9283 68.0968 29.8847 67.5514 27.7784 67.0833C25.6878 66.5959 23.7412 66.1287 23.4809 66.0146C22.8533 65.78 21.8116 64.8111 21.6161 64.3012C21.5396 64.0794 21.237 61.7069 20.9383 59.0333C20.2949 53.2491 20.6232 54.0102 16.8349 49.688C14.3595 46.8897 13.5911 45.8213 13.5037 45.1586C13.4082 44.2494 13.8369 43.2673 15.8916 39.8691C17.1157 37.8487 18.2327 35.822 18.3797 35.3646C18.6394 34.6301 18.6222 33.9601 18.3437 29.6226C17.9936 24.2672 18.0066 24.0537 18.981 23.032C19.3024 22.7153 20.3772 22.1427 21.9708 21.4448C28.1985 18.7748 28.3314 18.6901 29.3133 17.4024C29.5766 17.0388 30.6473 15.2468 31.6969 13.4216C32.7446 11.5789 33.8106 9.91107 34.0517 9.67358C34.6039 9.19124 35.6639 8.81464 36.2888 8.85504C36.5399 8.88169 38.4634 9.29829 40.554 9.78572Z" fill="white"/>
<path d="M42.119 14.0411C35.7949 15.6251 30.3403 19.2393 26.2382 24.5852C19.9331 32.7616 18.5369 43.2684 22.4851 52.8245C23.3943 55.0626 25.7704 58.773 27.5031 60.7478C29.2533 62.7207 32.662 65.4563 34.8842 66.6901C41.9276 70.5995 50.0903 71.4918 57.4707 69.1603C64.6481 66.9209 70.8392 61.7089 74.401 54.9347C79.1732 45.841 78.6956 35.0538 73.1334 26.3391C72.4951 25.3278 71.4001 23.8517 70.6786 23.0613C69.0271 21.1841 66.724 19.1809 66.1655 19.0981C65.14 18.9584 64.2293 20.0795 64.6267 20.9924C64.7207 21.2124 65.398 21.9191 66.1398 22.566C69.733 25.7065 72.4135 29.9506 73.8928 34.7453C74.5988 37.0755 75.0075 41.47 74.7524 43.9366C74.4835 46.4399 74.095 48.1426 73.2825 50.3672C71.616 54.9268 68.9279 58.7098 65.0576 61.8746C58.6404 67.128 50.1219 68.925 42.1214 66.7073C39.8195 66.0653 38.4831 65.4986 35.6222 63.9253C35.529 63.8821 35.5891 63.6106 35.7896 63.3243C36.063 62.8889 36.0826 62.5687 35.9539 61.3446L35.7995 59.8758L36.6543 59.9097C38.2901 59.9499 40.029 60.2975 41.1107 60.8026C41.7069 61.0759 42.5311 61.3251 42.9401 61.3352C43.3314 61.3471 48.0183 60.8899 53.3117 60.2981L62.9533 59.2317L63.6929 58.6766C65.1741 57.584 65.7701 56.3368 65.5992 54.7106C65.5459 54.2035 65.369 53.5326 65.1956 53.2326C64.8875 52.6639 64.9014 52.6271 65.4104 51.9018C66.3517 50.5653 66.433 48.4706 65.6056 47.1786C65.3316 46.7654 65.34 46.6761 65.6263 46.3632C66.5656 45.3451 66.7855 42.8823 66.0597 41.5442C65.7323 40.9599 65.7286 40.9249 66.1036 40.4435C67.4328 38.748 66.9745 35.7377 65.2009 34.386C63.9856 33.453 63.5942 33.4411 57.0343 34.1305L51.1233 34.7518L51.2706 33.6225C51.5392 31.791 51.0206 27.5318 50.2711 25.2946C49.4646 22.8512 48.9158 21.8481 48.1499 21.3099C47.2483 20.6621 46.3825 20.5233 44.9534 20.7619C42.7442 21.1709 41.6422 22.6657 41.883 24.9563C42.2689 28.6284 41.2184 30.6128 37.0304 34.1292C35.7911 35.1611 34.5397 36.2473 34.2183 36.5639C33.8951 36.8631 33.5682 37.1273 33.5156 37.1328C33.4629 37.1384 33.357 36.6368 33.2927 36.0248C33.2026 35.168 33.0782 34.8275 32.759 34.4897L32.3604 34.072L28.2385 34.5052C25.5724 34.7854 24.1267 34.8667 24.1157 34.7617C24.0789 34.412 25.3885 31.1805 26.0843 29.8698C29.3476 23.7988 35.0307 19.1529 41.7086 17.0544C43.8551 16.3868 48.9417 15.8521 51.0593 16.0892C54.2512 16.4256 57.0996 17.2046 60.3141 18.5993C60.9279 18.8707 61.1614 18.8992 61.5501 18.7169C62.226 18.3984 62.6381 17.5949 62.4371 17.0326C62.1864 16.3341 61.4878 15.9302 59.053 15.0369C56.4881 14.0866 54.1621 13.5532 51.5655 13.3134C49.2006 13.0847 44.4501 13.4425 42.119 14.0411ZM46.3986 23.5447C47.0436 24.1134 48.2252 27.9317 48.4586 30.1524C48.6038 31.5338 48.4448 33.9019 48.1164 35.333C47.9721 35.9847 47.9312 36.6077 48.0326 36.8976C48.3441 37.8372 48.5758 37.8482 56.1005 37.0574L62.9762 36.3347L63.5382 36.7883C64.1389 37.2732 64.278 37.7536 64.0248 38.3813C63.7559 39.0284 62.8852 39.3497 60.7629 39.5728C58.3248 39.829 58.0081 40.0214 58.1276 41.158C58.2525 42.3471 58.6254 42.5201 60.8779 42.354C62.4795 42.2387 62.8201 42.2736 63.204 42.5515C63.7992 42.984 63.8772 43.8951 63.3572 44.5155C63.0136 44.9582 62.8594 45.0098 61.2458 45.1794C59.7548 45.3361 59.4446 45.4217 59.0743 45.7789C58.5276 46.3137 58.5871 47.3859 59.2228 47.8671C59.568 48.1137 59.8735 48.1523 60.9435 48.0399C62.1362 47.9145 62.2802 47.9347 62.8034 48.3571C63.501 48.9202 63.581 49.5129 63.0896 50.2363C62.7358 50.7509 62.6499 50.7776 60.7786 51.0273C58.9443 51.2908 58.8233 51.3212 58.5342 51.7759C58.1841 52.3254 58.1894 52.7138 58.5362 53.3138C58.8387 53.83 59.603 54.0149 60.8308 53.8858C61.6026 53.8047 61.8573 53.8664 62.2449 54.1792C63.0181 54.7874 62.9826 55.7989 62.1848 56.307C61.8052 56.5768 60.2479 56.7758 52.4601 57.5943C43.4796 58.5382 43.1795 58.5521 42.5483 58.2825C40.6683 57.437 39.1471 57.1373 36.3566 57.077L35.5036 57.0605L34.6601 49.0344L33.8183 41.0258L34.6616 40.1062C35.1067 39.6175 36.5798 38.2781 37.9327 37.1459C41.2221 34.3604 42.4412 33.1362 43.2404 31.797C44.494 29.7205 44.8298 28.3593 44.7313 25.7354C44.7024 24.4479 44.7423 23.984 44.9778 23.6941C45.339 23.2495 45.988 23.1813 46.3986 23.5447ZM31.8353 49.1545L33.1034 61.2199L32.5403 61.2614C32.0492 61.3131 31.8028 61.1622 30.953 60.3322C27.8112 57.2679 25.4287 53.3284 24.0867 48.9966C23.2047 46.1722 22.8352 40.8012 23.3368 38.1496C23.397 37.8781 23.7265 37.8081 26.989 37.4652L30.5672 37.0891L31.8353 49.1545Z" fill="white"/>
<path d="M26.1087 43.2693C25.453 44.1157 25.9766 45.386 27 45.5081C28.4341 45.6578 29.1963 43.9697 28.0939 43.096C27.4721 42.5782 26.576 42.6547 26.1087 43.2693Z" fill="white"/>
</g>
<defs>
<clipPath id="clip0_498_626">
<rect width="90.2997" height="90.0219" fill="white" transform="translate(0.21875 9.87054) rotate(-6)"/>
</clipPath>
</defs>
</svg>
