<svg width="110" height="105" viewBox="0 0 110 105" fill="none" xmlns="http://www.w3.org/2000/svg">
<path d="M65.2662 79.8649L78.864 91.5604L77.984 78.9756L97.8763 77.5846C102.791 77.2409 103.542 73.268 103.929 71.2255L103.94 71.1678L102.612 52.1801C102.286 47.5188 97.3141 45.8173 94.3687 45.9371C84.9453 46.3205 65.0333 47.3272 60.7725 48.2864C56.5116 49.2456 54.9045 51.4591 54.9775 55.511C55.0648 60.3497 55.4525 70.9213 56.3053 74.4987C57.1581 78.0761 59.4582 79.8532 65.2662 79.8649Z" stroke="white" stroke-width="3"/>
<path d="M45.3169 43.7188L32.8508 59.1248L33.5298 44.543L13.7673 45.9249C9.56951 46.2185 6.26698 43.1604 5.94631 40.8234C5.38773 36.7525 4.34495 27.3242 4.64253 22.1785C4.94011 17.0328 8.65607 14.9407 10.4768 14.5378C20.1329 13.5641 40.6431 11.712 45.4359 12.0932C50.2288 12.4745 52.0365 16.0631 52.3412 17.8098C52.6991 22.928 53.7434 34.02 53.7169 37.483C53.6636 44.4424 47.4445 43.1337 45.3169 43.7188Z" stroke="white" stroke-width="3"/>
<path d="M15.2362 28.3448C16.5628 28.2521 17.2928 29.0834 17.336 29.7017C17.3792 30.32 16.7721 31.2448 15.4455 31.3375C14.1189 31.4303 13.389 30.599 13.3458 29.9807C13.3025 29.3624 13.9097 28.4376 15.2362 28.3448Z" stroke="white" stroke-width="3"/>
<path d="M29.2021 27.3682C30.5287 27.2755 31.2586 28.1067 31.3018 28.7251C31.3451 29.3434 30.7379 30.2682 29.4113 30.3609C28.0847 30.4537 27.3548 29.6224 27.3116 29.0041C27.2683 28.3858 27.8755 27.461 29.2021 27.3682Z" stroke="white" stroke-width="3"/>
<circle cx="42.7742" cy="27.9229" r="1.5" transform="rotate(-4 42.7742 27.9229)" stroke="white" stroke-width="3"/>
</svg>
