<svg width="87" height="87" viewBox="0 0 87 87" fill="none" xmlns="http://www.w3.org/2000/svg">
<path d="M37.4508 0.407813C37.1789 0.679688 37.043 2.68477 37.043 7.1707C37.043 14.0355 37.1789 14.6133 38.8781 14.6133C40.6113 14.6133 40.7812 13.8996 40.7812 7.10273C40.7812 0.271875 40.7133 0 38.9121 0C38.3344 0 37.6887 0.169922 37.4508 0.407813Z" fill="white"/>
<path d="M23.857 2.10701C23.6531 2.31092 23.4492 2.85467 23.4492 3.26248C23.4492 4.01014 28.7168 13.9336 29.3625 14.3414C30.484 15.089 32.2852 14.0695 32.2852 12.7101C32.2512 12.3703 30.9937 9.7535 29.4645 6.96678C26.7457 2.00506 26.6437 1.86912 25.4883 1.76717C24.8426 1.6992 24.0949 1.86912 23.857 2.10701Z" fill="white"/>
<path d="M50.8746 2.44689C49.2094 5.13165 45.5391 12.2684 45.5391 12.8121C45.5391 14.3414 47.6801 15.157 48.6656 14.0016C49.6512 12.9481 54.375 4.01017 54.375 3.26251C54.375 2.20899 53.7293 1.69923 52.4379 1.69923C51.6562 1.69923 51.1805 1.93712 50.8746 2.44689Z" fill="white"/>
<path d="M66.2696 8.36014C65.5219 8.66599 59.2348 14.7152 49.2434 24.6726L33.4067 40.5094L32.4551 39.3539C31.4356 38.1305 30.3141 35.8535 28.9887 32.1152C27.5954 28.309 26.5419 26.5078 24.5028 24.4687C21.2403 21.2402 16.1086 19.1672 13.4579 20.0508C11.9626 20.5266 10.8751 21.716 10.6372 23.2113C10.5012 24.1969 10.7731 25.1144 12.3364 28.4449C16.1766 36.6351 17.9438 42.2426 18.1477 46.9664C18.2157 48.4277 18.4536 49.8211 18.6915 50.1269C19.3032 50.8406 20.2547 50.7726 21.1044 49.923C21.784 49.2433 21.818 48.9715 21.6141 46.5926C21.0704 40.7133 19.8469 36.5332 16.4485 29.0226C15.2251 26.3039 14.3075 23.857 14.4094 23.5851C14.8172 22.5316 19.2012 24.3668 21.5801 26.5418C23.5852 28.3769 24.4688 29.9402 25.9981 34.0863C27.3575 37.8586 27.8672 38.9801 29.2946 41.0531C30.4501 42.7523 32.761 44.5195 33.7805 44.5195C34.2903 44.5195 39.6258 39.3879 50.9766 28.0371C64.0266 14.9531 67.6629 11.5207 68.5126 11.3508C70.8915 10.909 73.2024 13.4578 72.4208 15.7008C72.2168 16.2445 67.425 21.4101 61.104 27.9012C55.0547 34.0523 50.093 39.4219 50.0251 39.7957C49.9571 40.1695 50.093 40.7133 50.2969 40.9851C51.0106 41.8348 52.1321 41.5289 53.5254 40.1015C55.7684 37.7906 58.5551 37.6547 59.6426 39.7957C60.6282 41.6648 60.1184 43.466 58.1473 45.3351C57.0598 46.3887 56.7879 47.4762 57.5016 48.1898C58.0793 48.7676 59.3028 48.6996 59.8465 48.0199C60.8661 46.7965 63.0071 45.5391 64.0946 45.5391C65.6918 45.5391 66.9493 46.7285 67.1872 48.4957C67.3571 49.8211 67.2551 50.025 65.7938 51.5883C64.1965 53.2875 63.8227 54.5109 64.6383 55.3265C65.25 55.9383 66.0657 55.8363 67.1532 54.9867C68.3086 54.0691 70.5856 53.9332 71.5372 54.7148C71.877 54.9867 72.3528 55.7004 72.5907 56.2781C73.4743 58.3851 73.0665 58.9289 61.7497 70.4156C51.9622 80.373 50.9766 81.2566 48.7676 82.2762C44.4856 84.2812 39.6258 84.0094 35.6836 81.5285C34.834 81.0187 31.7415 78.1641 28.8528 75.2074C23.4493 69.7019 22.4637 68.3086 21.6141 64.9781C20.8665 62.1234 18.3176 61.6137 18.0797 64.2984C17.9438 65.9637 19.4051 69.668 21.2063 72.1828C23.3473 75.1394 32.0813 83.6016 34.3243 84.859C37.3829 86.5922 39.6598 87.1019 43.8059 86.932C47.0344 86.8301 47.6801 86.6941 49.9571 85.6406C52.37 84.5531 53.0836 83.9414 63.6528 73.4402C69.804 67.357 75.1055 61.8176 75.4454 61.1719C76.3629 59.3367 76.6008 57.6715 76.1251 55.7004C75.6153 53.6273 73.8141 51.6223 71.911 50.9766C70.6875 50.6027 70.6875 50.5687 70.6875 48.6996C70.6875 45.3351 68.3086 42.5824 65.1141 42.2426C63.6528 42.0726 63.6188 42.0387 63.4489 40.5773C63.245 38.7422 61.8856 36.6691 60.3223 35.8195C59.6766 35.4797 59.1329 35.1058 59.1329 35.0039C59.1329 34.9019 62.4973 31.4695 66.6434 27.3574C70.7555 23.2453 74.4938 19.2691 74.9356 18.5215C76.5668 15.7687 76.329 12.6082 74.3239 10.2972C72.3188 8.02029 68.9543 7.20467 66.2696 8.36014Z" fill="white"/>
<path d="M18.0797 55.1226C17.8418 55.3605 17.6719 56.0402 17.6719 56.6519C17.6719 58.0453 18.5895 58.657 19.8469 58.0793C21.3762 57.3656 21.3762 55.6324 19.8129 55.0207C18.7594 54.6129 18.5555 54.6468 18.0797 55.1226Z" fill="white"/>
<path d="M67.7988 20.7984L64.4004 24.2988L67.9008 20.9004C71.1293 17.7398 71.5371 17.332 71.2652 17.332C71.2312 17.332 69.668 18.8953 67.7988 20.7984Z" fill="white"/>
<path d="M53.1856 25.8281C50.3989 28.6148 48.1899 30.9258 48.2579 30.9258C48.3598 30.9258 50.7387 28.6148 53.5255 25.8281C56.3122 23.0074 58.5212 20.7305 58.4532 20.7305C58.3512 20.7305 55.9723 23.0074 53.1856 25.8281Z" fill="white"/>
<path d="M65.0461 52.0641L64.0605 53.1855L65.182 52.2C66.2016 51.2484 66.4395 50.9766 66.1676 50.9766C66.0996 50.9766 65.6238 51.4863 65.0461 52.0641Z" fill="white"/>
<path d="M68.9885 62.7012C67.5951 64.0945 66.5416 65.25 66.6435 65.25C66.7115 65.25 67.9349 64.0945 69.3283 62.7012C70.7217 61.3078 71.7752 60.1523 71.6732 60.1523C71.6053 60.1523 70.3818 61.3078 68.9885 62.7012Z" fill="white"/>
<path d="M29.3966 75.7852C31.4357 77.8242 33.2029 79.5234 33.3048 79.5234C33.3728 79.5234 31.7755 77.8242 29.7365 75.7852C27.6974 73.7121 25.9302 72.0469 25.8283 72.0469C25.7603 72.0469 27.3576 73.7121 29.3966 75.7852Z" fill="white"/>
</svg>
