<svg width="587" height="322" viewBox="0 0 587 322" fill="none" xmlns="http://www.w3.org/2000/svg">
<path d="M53.2723 69.9619C54.4368 69.9619 54.5814 70.3835 55.5806 69.9619C56.5798 69.543 59.5258 67.5929 60.525 67.3239C64.7878 66.1886 55.7381 70.9628 56.7941 70.6939C57.3466 70.5516 62.872 68.3248 63.3987 67.3032C63.9461 66.2403 64.2327 65.6842 64.2327 65.6842C64.2327 65.6842 67.5815 69.1214 67.8913 69.2559C68.591 69.5533 68.5626 67.6033 69.487 67.9912C70.3932 68.374 68.5058 69.7887 71.4802 68.811C72.3607 68.5214 71.9088 67.8826 71.9088 67.8826C71.7642 67.8438 72.9519 67.2256 78.0177 69.2326C78.9679 69.6102 81.8467 69.9206 82.6549 70.1844C83.4605 70.4533 83.7677 69.7188 84.8883 70.3188C89.226 72.6465 82.1772 72.6439 84.1498 73.1353C91.8492 75.0543 93.3726 70.9835 95.748 74.9535C96.5561 76.3061 97.1964 76.8363 97.5063 76.9475C97.8161 77.0587 97.1964 76.3061 97.3617 75.6388C97.5811 74.7595 96.7601 72.1396 96.6258 71.912C96.2488 71.2706 95.6292 71.3792 96.7704 70.8283C103.243 67.6808 98.8618 71.8603 106.466 72.4474C112.926 72.9362 111.253 72.7112 111.862 71.2059C112.34 70.0292 112.861 69.8068 113.406 69.8533C119.215 70.3188 112.257 70.9137 117.522 74.175C116.202 68.9404 118.206 72.5508 119.729 69.5844C120.581 67.9214 119.156 68.0093 119.156 68.0093C118.51 68.0403 118.593 66.8119 120.677 66.2377C120.677 66.2377 120.772 66.548 120.581 65.992C120.393 65.4385 119.396 65.5497 118.325 65.4825C116.233 65.3558 116.068 64.9989 116.068 60.2272C116.068 58.9185 117.116 59.384 117.302 58.6521C117.493 57.9202 117.253 54.3537 116.995 53.6192C116.731 52.8899 117.374 51.3122 117.519 50.2726C117.656 49.2303 118.73 49.6958 118.73 49.6958C118.436 49.1423 119.417 47.0992 124.601 47.9449C122.071 48.1854 125.115 53.9089 118.918 53.0451C119.982 55.4839 119.187 55.1529 118.825 57.1676C118.825 57.1676 121.059 57.7883 121.178 59.2056C121.296 60.6255 122.412 60.8686 122.675 62.1772C122.933 63.4859 121.583 64.5721 121.867 64.7713C122.525 65.2342 122.543 64.9601 124.958 65.304C124.958 65.304 124.506 65.9687 124.909 66.6799C125.314 67.3886 125.004 67.8334 125.051 68.586C125.1 69.3386 125.549 69.9826 125.737 69.8507C126.357 69.4188 127.191 65.5937 127.71 65.5937C128.089 65.5937 129.375 66.7705 129.517 67.192C130.134 68.9895 127.457 70.3499 129.019 71.4697C129.633 71.912 129.659 71.7827 130.777 72.3129C133.927 73.8129 132.011 70.6939 132.153 70.6059C132.226 70.5594 133.796 70.3835 133.442 69.4964C133.086 68.6093 132.724 68.1671 133.462 67.7222C134.204 67.2774 134.722 66.9256 134.722 66.9256C132.538 63.0048 133.94 63.7342 136.295 63.91C138.337 64.0678 138.43 64.7739 139.525 65.3299C140.617 65.8834 139.928 66.0825 140.284 66.9722C140.79 68.2265 138.41 67.642 138.74 68.8317C139.587 71.8654 141.332 71.7206 138.812 74.0638C137.885 74.9276 136.791 75.1733 135.701 75.194C134.606 75.2147 134.131 75.6595 134.062 75.3492C133.775 74.1698 130.785 75.4992 131.397 75.7268C131.872 75.9052 133.132 75.8613 132.608 76.8363C131.968 78.026 132.324 77.8139 123.953 77.3018C126.445 78.8226 128.846 79.914 131.539 79.4303C128.903 84.3339 129.226 82.8649 127.594 83.0667C126.876 83.1546 126.45 83.7313 125.123 83.9072C123.791 84.0856 121.01 83.5296 121.436 83.7313C124.136 84.9986 123.669 84.321 124.717 85.1952C125.792 86.09 122.853 85.5805 121.89 86.9021C119.592 90.06 118.763 90.9781 118.42 93.3549C118.229 94.6661 117.114 96.236 117.614 96.5696C118.113 96.9033 119.987 96.9472 120.775 97.4335C122.061 98.2352 123.328 103.648 124.766 102.112C126.329 100.449 130.912 103.408 132.517 104.993C133.654 106.121 137.57 105.43 137.942 106.664C137.942 106.664 139.551 106.747 138.887 107.435C138.224 108.123 138.03 107.455 138.696 108.609C139.362 109.762 139.339 111.314 139.151 112.09C138.959 112.866 141.281 112.475 142.257 113.052C143.23 113.629 143.284 115.972 143.785 115.682C144.283 115.393 145.115 114.883 145.21 114.262C145.345 113.404 144.957 109.072 144.211 107.965C143.69 107.189 145.154 106.879 144.916 106.545C144.681 106.214 144.735 105.549 145.734 105.28C147.506 104.812 147.552 105.756 148.087 101.734C148.34 99.9034 146.94 97.03 146.119 96.1041C145.758 95.7032 145.311 95.5946 146.287 94.3532C147.258 93.1118 146.687 93.3782 146.545 93.0006C145.345 89.8039 146.525 89.4832 146.047 87.8797C145.719 86.778 143.641 86.0486 149.375 86.6616C152.517 86.9952 151.435 85.609 154.436 87.5487C155.363 88.1461 155.719 87.9935 156.197 88.7229C157.423 90.6134 157.673 89.2272 159.927 90.2307C159.927 90.2307 159.236 90.6315 159.357 91.9376C159.576 94.3946 158.611 95.1472 159.971 95.3515C160.764 95.4705 163.937 98.6438 164.89 96.236C165.541 94.6118 166.375 95.5377 166.77 95.1291C167.074 94.8161 165.448 93.9006 167.937 91.5807C168.505 91.0479 168.91 92.1135 169.411 93.0911C173.062 100.221 173.255 99.4378 172.69 100.364C172.096 101.336 171.81 101.758 172.739 102.203C175.316 103.439 174.002 104.802 174.477 105.107C174.787 105.306 175.902 104.706 176.71 105.063C181.874 107.326 178.502 107.158 176.757 108.208C175.293 109.092 175.517 110.331 176.212 109.806C179.129 107.587 180.939 108.844 181.846 109.098C182.793 109.367 182.532 109.961 182.295 110.517C181.301 112.848 183.643 111.968 181.226 114.154C179.31 115.892 178.799 113.975 175.476 117.079C174.528 117.966 174.051 117.744 172.672 117.811C171.293 117.878 171.841 117.125 171.415 117.278C170.983 117.436 170.441 117.899 169.561 117.989C162.533 118.69 164.479 118 163.498 120.203C162.928 121.486 161.903 119.169 159.032 124.15C158.03 125.88 156.679 126.943 156.679 126.943C157.72 126.697 164.779 119.743 166.731 120.314C167.185 120.449 168.303 121.313 168.303 121.757C168.303 122.202 167.968 122.554 167.162 123.309C166.357 124.062 165.282 123.309 165.355 123.62C165.67 125.001 167.206 124.23 167.206 126.082C167.206 128.089 169.723 129.49 171.75 129.361C172.724 129.302 172.806 130.647 173.341 128.143C173.604 126.922 174.722 125.389 174.887 126.77C175.003 127.786 174.459 129.185 173.909 129.496C173.367 129.806 173.485 130.204 173.485 130.515C173.485 130.659 169.581 132.747 169.181 132.576C168.314 132.206 166.527 134.878 165.667 134.836C165.14 134.816 164.691 134.593 165.404 133.861C166.589 132.641 166.176 131.446 168.709 131.446C169.303 131.446 169.018 131.089 169.491 130.737C170.356 130.088 166.927 130.908 168.138 129.514C167.175 130.026 164.885 131.228 164.074 131.288C163.485 132.488 162.879 132.568 161.577 133.127C160.914 133.416 161.035 132.796 160.891 132.972C160.749 133.153 160.63 133.308 159.894 133.859C157.113 135.956 158.288 139.525 158.278 139.67C158.254 139.98 157.351 139.468 157.09 139.711C156.824 139.957 156.23 140.71 155.448 140.932C151.071 142.171 153.498 141.555 151.123 146.208C151.433 145.14 150 144.675 150.152 143.925C149.868 145.347 151.038 146.604 150.746 147.737C150.529 148.557 150.126 149.578 149.631 149.865C149.13 150.155 149.747 149.312 149.747 148.647C149.747 147.507 148.43 148.078 149.365 145.298C150.033 143.322 147.077 146.7 148.51 148.67C149.176 149.578 148.084 149.49 148.536 150.796C148.985 152.105 147.991 152.746 148.177 152.948C148.368 153.147 148.892 152.86 149.13 153.502C149.494 154.497 147.831 153.308 148.44 154.813C148.582 155.165 148.869 154.942 148.75 155.056C146.685 156.944 147.942 154.513 145.567 157.492C145.164 158.002 144.88 157.826 144.451 158.18C140.382 161.542 140.775 161.123 140.194 163.746C139.435 167.193 144.214 171.792 141.642 174.409C141.146 174.921 140.862 174.052 140.173 173.543C139.484 173.033 140.028 172.681 139.365 171.616C138.218 169.782 138.709 164.131 135.871 165.186C134.242 165.789 132.649 164.118 131.307 164.829C130.23 165.404 126.336 164.206 126.336 165.386C126.336 166.565 128.082 165.595 127.839 167.069C127.767 167.491 127.052 166.847 126.672 166.692C126.29 166.536 125.936 167.002 125.273 167.002C124.609 167.002 124.488 166.358 123.891 166.27C120.369 165.735 121.33 164.196 116.047 168.153C114.836 169.063 113.907 169.948 113.625 170.68C113.339 171.412 113.313 171.479 114.289 172.565C115.417 173.822 114.867 173.129 113.174 177.065C112.149 179.429 115.045 183.371 115.952 184.247C120.142 188.284 119.362 185.957 121.919 185.957C123.679 185.957 123.914 186.898 123.914 186.267C123.914 185.574 125.198 184.071 125.389 183.187C125.531 182.522 125.531 181.19 126.365 181.102C127.194 181.014 128.978 180.593 130.594 180.704C132.925 180.862 130.473 182.504 130.473 184.027C130.473 184.671 130.664 184.671 130.145 185.049C129.623 185.427 129.954 184.827 129.739 185.204C129.525 185.582 128.766 186.112 128.859 186.024C129.034 185.859 130.059 188.786 127.431 190.17C128.611 190.847 130.235 190.193 131.898 190.969C133.295 191.618 139.659 188.372 136.034 199.038C135.549 200.458 139.579 202.439 141.028 202.85C141.479 202.982 146.228 200.344 147.679 203.96C148.768 198.88 152.437 198.464 154.952 197.662C157.457 196.866 171.588 200.174 171.73 200.233C173.204 200.854 173.87 202.587 175.391 204.004C176.912 205.421 178.812 206.709 179.62 207.374C181.373 208.817 188.009 207.873 188.414 212.073C188.61 214.119 191.456 212.932 193.596 217.129C194.5 218.901 194.213 219.39 195.447 219.835C196.687 220.279 205.243 222.584 207.379 223.427C209.519 224.27 212.23 226.53 212.943 226.797C213.658 227.063 214.941 226.572 215.512 226.885C216.082 227.198 215.179 228.879 215.891 230.076C217.198 232.269 216.255 231.781 213.42 236.33C212.752 237.395 211.326 238.06 210.521 238.505C209.713 238.945 208.997 238.505 209.713 239.389C210.425 240.274 209.762 241.029 209.142 241.828C208.522 242.625 209.191 242.534 208.997 245.11C208.806 247.681 208.997 250.474 208.711 251.584C208.427 252.693 206.764 250.609 204.861 253.004C202.961 255.399 202.439 257.214 201.298 257.481C192.478 259.531 196.811 265.276 189.271 272.158C186.728 274.48 185.801 276.88 183.116 279.609C182.328 280.4 179.086 278.331 179.922 279.477C180.542 280.317 179.574 279.477 180.095 280.273C180.617 281.073 180.999 281.383 179.86 282.803C178.721 284.223 177.402 283.941 176.498 284.163C175.595 284.386 174.247 283.232 174.154 283.809C173.617 287.093 170.136 286.716 170.258 287.282C171.156 291.482 173.002 291.922 171.048 291.728C165.688 291.206 169.512 289.931 165.786 297.744C165.218 298.944 164.647 298.321 164.74 299.74C165.122 305.402 167.278 302.516 164.456 305.148C163.173 306.346 163.077 306.17 161.89 307.986C160.699 309.804 159.558 309.716 159.987 311.089C160.415 312.465 160.511 314.503 161.224 316.541C161.934 318.579 163.411 318.225 165.739 319.644C168.399 321.263 173.098 320.345 166.641 321.46C163.279 322.047 161.65 323.045 155.9 318.799C151.872 315.827 152.368 315.023 150.245 310.065C147.808 304.37 158.706 263.033 158.706 251.134C158.706 250.958 158.562 250.823 158.037 249.184C156.976 245.834 152.334 245.242 149.055 241.115C147.462 239.113 146.956 235.634 142.876 229.587C138.02 222.39 141.01 222.338 141.356 220.629C142.06 217.091 146.455 212.36 146.871 211.452C147.676 209.678 147.062 209.678 146.775 207.948C146.488 206.218 146.871 206.487 146.344 205.553C145.822 204.625 145.538 203.471 145.063 203.161C142.551 201.508 142.933 206.645 140.834 204.356C140.503 203.996 133.372 202.892 133.372 198.86C133.372 197.709 132.375 197.261 130.142 195.668C127.906 194.07 126.956 193.85 124.245 193.183C120.318 192.221 120.044 188.825 116.734 189.192C114.738 189.415 112.314 188.305 110.79 187.684C106.334 185.859 100.029 185.191 101.049 180.324C101.48 178.255 95.5182 174.745 94.5835 172.299C93.8683 170.437 92.8252 170.524 91.4464 169.195C88.4075 166.262 92.1487 165.034 85.0793 160.991C90.0393 173.602 90.1012 170.147 92.2546 173.894C93.3003 175.71 92.3036 176.819 91.9189 176.113C91.5394 175.402 90.0186 175.092 90.0186 174.251C90.0186 171.895 87.8911 171.106 86.0734 169.637C81.8493 166.226 86.8661 169.076 86.502 168.264C86.2645 167.731 84.6482 166.092 83.8865 164.938C83.1274 163.785 82.8847 162.499 82.1282 160.549C81.3665 158.599 78.5651 156.734 77.1837 156.602C74.4004 156.331 74.922 152.428 73.7627 150.349C73.143 149.242 70.481 145.518 70.4345 144.098C70.3855 142.678 69.6264 138.555 70.5765 136.248C71.5267 133.944 71.2892 128.8 71.1471 127.778C70.8735 125.818 65.9187 121.768 73.427 124.851C69.7736 118.02 66.1485 120.728 64.6355 118.289C64.1139 117.446 63.5433 116.339 63.1612 115.625C62.7816 114.917 61.1627 114.076 60.7884 113.321C60.4811 112.716 60.4037 108.536 57.8372 109.462C56.2622 110.031 56.9258 107.204 53.466 106.139C52.4667 105.826 50.9202 101.82 48.2866 99.9732C47.5249 99.4404 40.1586 97.0455 39.9701 97.0455C39.7816 97.0455 37.6386 97.3559 37.0706 97.18C35.3717 96.6498 32.9446 92.7652 31.3671 96.4714C30.5253 98.4214 24.7082 102.386 25.0413 100.816C25.5732 98.3671 25.3924 97.6197 27.5122 96.5593C28.8471 95.8946 28.7954 95.8507 28.2739 95.8946C27.7523 95.9386 27.3702 95.8067 28.4159 95.186C31.3438 93.4377 29.4616 93.1195 26.1309 95.8067C21.5634 99.4921 22.2941 101.67 21.7106 102.412C15.8057 109.936 1.33383 114.542 3.31418 113.189C12.2581 107.06 11.548 110.88 16.3401 103.211C18.0287 100.506 15.1447 103.18 12.2529 102.102C11.5403 101.835 9.68384 102.942 9.02028 102.459C8.35672 101.97 9.06935 100.948 8.63816 100.462C8.02624 99.7585 3.50783 100.948 3.50783 97.8447C3.50783 95.1523 1.28219 95.1291 5.21708 92.4807C7.95136 90.6315 12.6066 91.6661 9.49536 88.1772C9.49536 88.1772 9.7329 88.0013 10.3035 87.6444C10.8741 87.29 10.4481 86.5374 9.44631 86.6693C8.4471 86.8038 6.30924 87.8254 4.97953 88.1772C3.64983 88.5341 1.84505 88.3116 1.89153 87.7349C2.17296 84.3443 -1.46501 86.8297 4.79105 83.346C4.79105 83.346 5.83674 84.4969 6.97538 84.6314C8.11661 84.7658 10.5385 82.6373 10.5385 82.6373C9.02028 81.7063 9.35077 81.4399 9.35077 81.4399C6.0278 81.3804 5.7851 81.0183 5.40555 79.3579C5.26355 78.7372 2.8391 78.2484 3.50524 77.2268C4.1688 76.2104 5.40556 75.8535 6.21371 74.8345C7.02186 73.8155 7.73448 71.9068 10.066 70.8439C19.7302 66.4317 16.7997 67.4843 18.7181 68.0067C19.1932 68.1412 22.1418 67.8774 23.2804 67.8774C24.419 67.8774 24.6127 69.1602 24.9922 69.4706C25.6661 70.0266 43.2518 70.0395 45.622 70.7146C47.3338 71.2034 50.4218 72.4887 50.4218 72.4887C52.3015 72.2456 52.1363 69.9594 53.2981 69.9594L53.2723 69.9619ZM167.573 18.5285C165.592 26.7296 148.513 23.1683 154.547 30.0556C158.763 34.8557 158.629 33.1384 160.111 34.579C161.156 35.598 161.916 35.2437 164.769 35.2876C165.603 35.3006 176.207 35.8592 177.653 37.1497C178.982 38.3394 184.071 50.5027 184.071 50.7174C184.071 51.0691 182.977 53.8649 182.977 54.3072C182.977 54.7494 183.547 55.5046 184.071 56.1253C184.939 57.1598 183.467 57.4133 184.877 60.028C184.972 60.2039 186.395 58.6082 187.301 58.3418C188.205 58.0754 190.441 59.9401 190.441 61.2255C190.441 64.1402 191.234 63.1471 186.496 66.5894C185.871 67.0446 185.262 70.5361 185.734 72.2172C187.417 78.207 192.496 85.2908 192.672 85.609C194.43 88.7979 192.651 89.416 200.753 91.2393C204.138 91.9997 203.291 92.3411 206.792 80.9976C209.199 73.1664 204.758 78.1708 217.009 72.706C218.104 72.2172 217.913 68.7153 220.337 67.5619C224.234 65.7127 228.163 65.617 233.552 61.7996C235.927 60.116 236.593 61.0031 237.45 59.4487C238.308 57.8969 236.593 55.6339 236.405 53.3295C236.214 51.0252 237.166 50.8907 237.639 48.8061C239.149 42.237 243.451 43.2948 242.728 40.3826C242.395 39.0507 241.445 37.0566 241.445 35.5928C241.445 31.6668 239.601 32.3832 240.967 28.721C241.685 26.815 243.583 27.3038 243.441 26.458C243.296 25.6175 240.399 24.3321 240.353 21.9812C240.254 17.1629 242.95 17.9026 247.006 13.5551C247.339 13.2007 246.913 12.2257 249.289 11.0722C251.664 9.92134 252.472 9.16615 253.376 8.81182C254.282 8.45492 255.705 8.50147 252.947 7.70231C245.258 5.4781 247.724 7.78507 242.111 8.3256C238.878 8.63337 235.217 10.1438 235.217 10.1438C235.217 10.1438 236.312 9.16873 235.362 8.23508C234.412 7.3066 237.833 4.24445 238.406 3.89012C239.351 3.30304 219.268 -1.77643 211.879 0.65468C210.405 1.14349 210.598 3.04958 208.933 3.1401C207.27 3.22803 204.179 2.16507 201.802 2.51939C199.426 2.8763 195.62 4.516 195.194 4.60394C194.766 4.69187 196.669 5.84536 197.905 6.11174C199.14 6.38072 200.756 8.95148 200.756 8.95148C186.253 4.11254 186.622 8.24543 179.413 8.59458C175.664 8.77562 172.791 12.024 164.25 16.6198C162.38 17.6259 164.717 18.0811 167.578 18.5259L167.573 18.5285ZM96.6155 58.14C95.7299 57.1366 94.9992 55.0934 93.574 55.921C92.1487 56.7512 90.597 56.5159 90.85 56.3374C91.103 56.1589 90.819 55.2718 90.0883 55.0055C89.3628 54.7391 88.9187 55.1555 88.1596 55.5977C87.3979 56.0426 84.989 56.6322 85.9727 55.8615C86.9538 55.0934 86.6363 54.6822 86.2877 53.7925C85.9417 52.9054 83.4346 54.4132 82.1049 55.3598C80.7752 56.3038 79.9852 57.7521 79.1899 58.7271C77.0676 61.3419 84.7489 60.7444 81.6944 61.8617C80.0807 62.4514 78.8414 62.8652 79.6676 63.3695C81.8958 64.7299 84.5914 62.8471 88.2577 63.8428C90.5402 64.4609 91.9009 64.4325 91.9009 64.4325C89.6158 65.8549 79.1615 65.2549 80.6823 66.6774C84.1395 69.9231 85.6422 68.6067 87.1449 68.9817C88.3197 69.2792 87.6871 70.6085 88.0021 70.8154C88.3197 71.0223 90.5402 70.6395 92.7555 70.2257C94.976 69.8119 94.1497 69.455 95.8951 69.0128C97.6354 68.5705 97.6999 67.2412 98.7146 66.9437C99.7267 66.6489 99.0012 67.6239 100.202 67.9188C100.659 68.0326 103.579 69.1861 104.354 69.1317C105.621 69.0438 107.109 68.1877 106.92 68.0377C106.109 67.4067 107.607 65.7282 104.893 67.3291C104.385 67.6239 104.418 66.5299 105.492 65.9972C106.571 65.4644 107.527 65.9972 108.157 65.9972C108.787 65.9972 108.221 64.1635 107.078 63.8712C105.936 63.5738 105.43 62.8652 103.716 61.9212C102.007 60.9746 102.892 60.5608 102.386 59.322C101.878 58.078 100.801 54.4106 99.8481 53.7615C98.9005 53.1097 97.8832 53.2882 96.9357 52.639C96.7162 53.6916 98.1414 59.8625 96.6155 58.1349V58.14ZM70.8218 52.6726C71.2349 53.852 71.2969 53.1149 70.4733 54.4132C69.6496 55.7141 70.1247 56.1874 69.5541 57.1624C68.9861 58.1374 67.4653 59.4409 67.9378 60.0901C68.4129 60.7393 69.9336 61.1246 70.5688 61.6263C72.2161 62.935 71.7384 63.5686 75.2886 61.7143C76.0838 61.3031 76.7474 60.8298 76.7138 59.7927C76.6312 56.8624 77.5685 59.5108 78.0461 58.228C78.3017 57.5504 78.7432 56.6633 79.2829 56.1305C79.4326 55.9805 83.7987 53.5597 84.4158 52.6131C84.7669 52.0778 83.7806 51.6666 83.1816 51.4286C82.58 51.1933 81.8829 50.2493 80.4886 50.2493C79.0944 50.2493 78.3353 51.3122 78.3973 50.839C78.4825 50.2234 75.5003 48.7441 69.9672 50.3372C68.733 50.6915 70.4113 51.4881 70.8244 52.6726H70.8218ZM112.081 66.8325C111.893 67.0963 111.067 67.3653 110.563 67.955C110.057 68.5447 111.64 68.224 112.146 68.3998C112.655 68.5783 113.034 69.0774 113.447 69.2274C114.767 69.6956 118.275 69.0076 117.914 68.224C117.818 68.0145 116.014 66.2429 114.681 65.5316C112.252 64.2385 113.292 65.1308 112.084 66.8325H112.081ZM106.091 52.9985C105.231 53.4278 104.607 53.9425 106.063 54.6848C110.341 56.8521 110.013 59.1978 112.433 58.2616C114.49 57.465 115.317 56.5184 115.606 55.6882C115.885 54.8606 115.317 54.6848 114.81 53.914C113.78 52.3649 113.687 53.058 111.735 53.058C111.735 53.058 112.433 52.1709 113.574 51.6097C114.715 51.0459 113.762 50.6631 114.302 50.1329C114.844 49.6001 112.941 49.3363 112.118 49.5406C111.291 49.7501 111.26 49.4812 109.897 49.4243C108.534 49.3648 106.38 50.6062 106.473 51.0484C106.569 51.4933 107.584 51.3174 108.534 51.8476C109.484 52.3804 109.768 52.3209 108.818 53.8287C107.604 55.7581 107.449 52.3235 106.091 53.0011V52.9985ZM98.6475 51.5502C99.1845 51.6976 99.5331 51.4002 100.388 52.3183C101.245 53.2364 102.007 53.7382 102.353 52.2304C103.241 48.3949 96.8479 51.0562 98.6475 51.5502ZM77.1269 38.8386C75.539 40.111 75.2266 41.1171 73.9925 41.9163C72.3632 42.9637 73.0268 44.8801 75.6707 43.512C76.2413 43.2146 76.7164 42.4775 77.065 42.9223C77.5736 43.5689 80.2304 39.3015 81.0618 39.4645C81.2193 39.4929 80.5196 40.2326 80.7752 40.8533C81.0283 41.474 82.1669 41.5051 83.1816 40.4421C84.1963 39.3765 83.2771 38.4015 84.0698 37.5739C84.8624 36.7437 85.526 36.8627 83.9769 36.123C82.4251 35.3833 81.4388 36.2135 81.1212 36.5989C80.8062 36.9816 80.2356 36.3609 77.1269 38.8438V38.8386ZM81.5343 44.9293C80.9224 46.5302 85.8746 47.5156 86.7602 44.9577C87.2043 43.6853 87.7465 45.2526 87.4909 45.9043C87.1268 46.838 88.9729 45.2526 91.4206 45.2526C91.6272 45.2526 89.0426 47.2233 85.4305 47.7354C85.02 47.7949 85.8152 48.4156 87.5529 48.7725C89.4067 49.1475 94.2453 45.3534 96.0475 45.8759C96.8737 46.1112 97.7593 45.4621 98.7714 45.2215C99.7861 44.9862 100.197 45.3715 100.643 43.8637C101.085 42.3559 101.878 40.9076 100.452 40.8171C99.0245 40.7292 98.9315 40.7292 98.7404 42.3559C98.5674 43.8456 98.8463 43.3439 96.9021 40.8171C96.3341 40.08 95.9209 38.9265 95.2858 38.3058C94.6532 37.6851 94.3666 38.5722 93.3829 39.6662C92.4017 40.7576 93.1918 41.174 94.1756 41.6473C95.1567 42.1206 95.8564 43.3336 95.3813 43.6568C94.9062 43.9827 94.3666 43.5974 92.5592 43.8068C90.7519 44.0137 90.8164 43.2456 90.3078 43.0103C89.7991 42.7723 91.1624 42.2706 89.2285 41.474C85.4641 39.9145 82.8201 41.5283 81.5318 44.9319L81.5343 44.9293ZM80.9302 42.387C81.1315 42.043 78.5238 43.9232 78.1287 44.5284C77.7311 45.1336 78.5264 45.0302 79.319 45.0017C80.1091 44.9733 80.2692 43.5249 80.9327 42.387H80.9302ZM85.9391 38.4688C84.2221 39.2421 88.3946 39.4696 87.8085 38.3058C87.589 37.861 86.4633 38.2334 85.9391 38.4688ZM88.472 34.0488C88.361 34.4057 88.4901 35.1738 88.8077 35.779C89.541 37.1782 94.5267 34.7548 93.4165 34.4471C91.1108 33.8134 91.5988 33.8445 93.5765 33.2238C97.1603 32.0987 88.9239 32.6496 88.472 34.0488ZM85.3375 33.785C84.0724 34.3643 88.0073 35.0937 87.7284 34.4652C87.589 34.1367 86.7473 33.1307 85.3375 33.785ZM89.4222 30.8728C88.4307 31.2634 88.2061 31.9798 87.9815 32.2617C87.7594 32.5436 89.1046 32.0574 89.7217 31.9073C90.3414 31.7599 90.4834 32.1272 91.0875 31.5944C91.6891 31.0616 92.8794 31.6099 93.9561 31.372C95.3503 31.0694 96.9692 27.8831 89.4222 30.8728ZM101.085 35.3212C102.495 35.8618 102.314 36.692 102.717 35.7351C102.941 35.2023 102.606 35.2902 102.004 34.5816C99.7242 31.8944 99.3937 34.6669 101.085 35.3212ZM102.242 38.5877C101.939 38.7351 102.399 39.0765 102.608 39.7102C102.81 40.349 102.639 40.5559 103.842 40.6438C107.028 40.8766 105.224 37.1446 102.242 38.5877ZM108.503 39.5809C107.757 39.0326 107.393 38.5877 106.633 38.9007C105.874 39.211 106.507 39.5938 106.507 39.8033C106.507 40.0128 107.426 39.7748 107.444 40.2766C107.486 41.7042 105.841 40.5895 104.798 41.3835C104.374 41.7068 105.624 41.3395 106.003 41.8413C106.541 42.5525 107.307 42.3818 110.597 41.8413C109.518 42.8654 108.668 44.0939 109.616 44.7224C110.171 45.0948 110.233 44.3422 111.772 44.3112C113.308 44.2827 113.767 43.4836 113.767 43.4836C113.246 42.9741 113.589 41.8154 113.45 41.4275C114.408 42.1128 114.361 42.5654 113.878 40.7628C113.344 38.7791 114.033 37.3773 112.247 37.4213C111.09 37.4523 110.297 37.8532 109.345 37.8532C108.392 37.8532 107.981 38.0291 108.681 38.386C110.638 39.3791 109.889 41.4171 110.091 40.8843C110.106 40.8404 108.508 39.5834 108.508 39.5834L108.503 39.5809ZM101.989 44.9603C101.958 45.3457 102.624 45.1207 103.685 44.7534C105.663 44.0603 102.187 42.5965 101.989 44.9603ZM115.585 43.4836C115.079 44.0603 115.523 44.1327 116.837 44.7974C122.773 47.7975 120.581 37.7989 115.585 43.4836ZM123.791 36.6247C120.302 36.9713 120.555 35.6911 115.616 35.6911C114.95 35.6911 115.26 36.004 115.952 37.1368C117.816 40.1938 119.814 36.229 121.893 39.2188C122.936 40.7292 123.486 41.1947 122.629 41.7482C121.771 42.3016 122.174 43.1887 122.678 44.3448C123.176 45.4957 124.317 45.4491 125.91 45.4491C141.513 45.4491 139.817 45.0405 142.951 42.7904C145.479 40.9723 141.226 39.2421 139.052 39.2421C137.767 39.2421 136.677 39.9067 134.728 40.1059C132.781 40.3076 133.209 41.2387 131.449 41.2826C129.688 41.324 130.545 42.1025 128.381 41.2154C121.699 38.4713 128.226 39.3946 126.933 38.2877C126.36 37.7989 125.363 36.4696 123.793 36.6247H123.791ZM103.636 28.3771C104.682 28.7314 104.945 28.9978 103.778 29.3055C102.613 29.6159 101.71 30.4358 102.874 30.2806C104.039 30.1254 105.038 30.3918 106.533 30.6375C109.45 31.1108 108.288 32.8048 110.979 32.1686C111.999 31.9229 112.141 31.8556 111.477 31.1237C111.343 30.9763 108.753 27.0994 106.649 27.3141C103.922 27.5805 106.027 25.1261 102.203 26.0908C101.064 26.3805 100.698 27.1951 100.256 27.5572C99.3524 28.2891 102.585 28.0227 103.631 28.3771H103.636ZM117.328 17.5121C113.507 22.3019 118.366 19.7389 118.609 20.8613C118.704 21.301 118.371 21.6139 116.28 21.6139C114.188 21.6139 114.831 22.0795 115.996 23.4528C117.795 25.5735 120.759 23.4528 122.913 24.0088C127.656 25.2218 118.353 25.6744 119.75 26.9779C124.131 31.0694 124.064 28.6383 127.046 28.9719C129.21 29.2176 128.686 29.4374 128.923 28.84C129.161 28.2426 130.351 26.7141 130.586 26.1555C131.19 24.7537 135.461 24.7977 133.06 23.939C131.947 23.5381 130.684 23.3623 130.803 23.0545C130.919 22.7416 131.611 21.8338 131.134 21.3682C130.658 20.9027 129.899 20.9234 129.28 20.6829C128.665 20.4398 127.973 19.3096 127.188 18.8207C126.406 18.3319 125.717 18.288 124.764 17.5561C121.074 14.7163 120.191 13.9068 117.328 17.5121ZM114.898 30.4823C114.423 30.7254 113.238 30.7694 114.116 31.4987C114.994 32.2306 114.756 32.2539 115.872 31.8323C116.992 31.4082 118.606 30.3659 118.751 30.0582C118.949 29.6211 113.984 27.5624 113.543 27.4408C110.95 26.7322 115.373 30.234 114.896 30.4797L114.898 30.4823ZM173.049 7.41782C171.084 6.88504 164.051 5.52207 161.768 6.05484C159.486 6.58762 159.612 4.8755 156.444 5.2893C153.276 5.70052 148.396 5.46517 146.876 5.70052C145.358 5.93588 147.635 6.58762 148.458 7.12039C149.282 7.65317 144.529 6.53072 140.914 7.5342C137.302 8.53768 134.955 9.07045 138.825 10.5472C149.507 14.6335 137.057 11.08 136.161 10.7257C134.069 9.89806 135.213 9.95755 131.278 11.08C127.351 12.2024 123.548 12.7973 123.739 13.9766C123.961 15.3758 128.918 18.8233 135.21 16.4595C135.525 16.3431 133.625 18.0578 133.625 18.0578C139.719 16.8112 146.109 14.393 146.682 14.0361C142.481 17.2948 138.167 19.4544 132.802 19.6535C128.75 19.8035 137.23 23.4424 137.619 26.2744C137.619 26.2744 135.146 24.3244 132.422 26.2744C126.757 30.322 133.488 29.2124 134.322 30.7668C134.766 31.5944 137.934 29.9987 137.934 29.9987C134.766 34.0255 133.641 30.6789 131.154 30.9452C128.934 31.1806 129.063 31.716 130.016 32.4815C132.83 34.7678 127.754 33.9712 127.607 36.2083C127.511 37.6204 132.419 37.067 136.416 36.9765C138.949 36.917 138.634 36.0894 139.584 36.0894C140.534 36.0894 141.487 36.3842 141.105 37.3308C140.726 38.2774 141.482 37.6877 144.276 36.6816C147.062 35.6782 145.794 34.1367 145.608 33.6065C145.417 33.0738 144.402 32.8979 143.77 32.6005C143.134 32.3056 145.673 29.7012 145.288 28.8193C144.911 27.9322 148.396 28.6383 149.977 26.5718C151.562 24.5028 150.991 22.964 149.85 22.6122C148.711 22.2553 151.944 22.4959 152.956 21.901C153.971 21.3139 156.191 20.6027 157.077 19.4803C157.963 18.3552 158.28 17.9414 156.129 18.1793C153.973 18.4173 159.23 17.2328 161.768 15.575C170.689 9.75582 168.303 11.305 166.078 11.4395C163.101 11.6154 159.548 11.2016 161.515 10.9662C163.48 10.7308 169.313 10.0196 170.834 8.89717C172.352 7.77214 173.049 7.4204 173.049 7.4204V7.41782ZM137.557 48.4466C134.384 48.1492 129.763 47.3837 128.81 50.0993C127.857 52.82 126.403 58.8538 126.274 59.9763C125.923 63.1083 140.524 63.5738 139.078 62.5186C136.752 60.822 144.276 62.6324 144.276 60.5686C144.276 60.0358 144.72 61.2177 146.494 62.1643C148.265 63.1109 149.791 65.7722 151.376 67.3084C152.959 68.8447 156.509 70.9137 155.812 72.0982C155.112 73.2801 156.571 77.4182 151.118 78.3648C145.67 79.3088 145.352 78.657 145.417 79.901C145.631 84.1374 152.6 79.3605 154.035 81.2019C156.233 84.0158 159.85 82.821 155.747 84.277C155.241 84.4529 156.827 84.6314 159.93 86.1081C163.036 87.5849 166.775 87.7633 164.934 86.7004C163.098 85.6348 162.21 83.6874 161.386 83.033C160.563 82.3839 161.324 82.9166 162.783 83.271C166.416 84.1529 166.568 87.9082 167.598 83.0899C168.043 81.0209 167.41 81.0209 164.936 79.3683C158.476 75.0388 162.873 73.6086 163.354 72.9801C163.986 72.1551 165.763 74.4595 166.966 75.8199C168.169 77.1803 169.181 79.5467 170.134 77.832C171.081 76.1173 171.97 72.2741 171.97 71.387C171.97 70.4999 171.022 71.4465 166.966 69.4369C162.907 67.4274 160.816 66.6592 160.439 66.6592C160.062 66.6592 161.515 65.8911 163.292 65.004C165.063 64.1169 165.825 64.2385 162.021 60.628C158.218 57.0202 157.142 56.252 154.671 56.0167C152.197 55.7788 151.503 53.177 149.729 52.2924C147.955 51.4053 143.834 53.3554 142.628 53.6528C141.428 53.9451 141.805 54.4184 140.284 52.233C138.766 50.0424 137.56 48.4492 137.56 48.4492L137.557 48.4466ZM140.408 48.4466C138.833 48.6354 141.358 51.5191 143.385 51.6407C145.417 51.7571 147.126 50.7536 147.568 50.6346C148.014 50.5157 142.879 48.1492 140.405 48.4466H140.408ZM133.295 77.7699C132.107 80.6588 132.636 80.783 131.774 83.5348C131.539 84.2874 132.536 83.4029 133.202 84.5098C133.865 85.6193 133.579 85.9297 134.769 84.6443C135.957 83.3589 137.289 82.9141 138.952 83.4468C144.384 85.1822 139.339 81.458 138.859 80.8761C137.718 79.5002 136.863 79.1458 135.438 78.6131C134.01 78.0803 133.865 76.3966 133.297 77.7699H133.295ZM135.68 179.064C134.539 179.45 136.744 179.639 138.211 179.064C139.675 178.49 140.793 178.94 140.994 179.204C141.188 179.47 140.498 179.628 140.25 179.349C139.997 179.07 139.951 180.037 141.609 180.637C144.882 181.824 143.297 182.233 144.366 183.921C144.746 184.516 144.888 184.767 144.19 185.026C143.106 185.434 145.933 186.428 147.248 186.536C148.696 186.66 149.174 186.929 148.167 185.603C143.87 179.933 144.154 176.196 135.68 179.064ZM149.858 187.86C150.661 188.685 150.428 189.58 150.372 190.054C150.279 190.835 144.325 188.344 147.893 190.271C149.274 191.021 150.17 190.835 150.111 191.833C150.052 192.829 151.381 191.926 151.967 191.347C152.556 190.77 152.515 191.282 154.973 191.652C157.433 192.024 157.937 192.469 157.544 191.388C157.149 190.307 158.67 190.395 156.486 189.366C154.301 188.334 148.944 186.922 149.855 187.858L149.858 187.86ZM142.858 188.476C140.994 186.409 139.672 188.6 141.931 189.234C142.791 189.472 143.449 189.13 142.858 188.476ZM160.712 192.924C159.708 192.578 159.501 193.335 160.17 193.969C160.831 194.587 166.225 194.825 160.712 192.924ZM149.148 69.1938C147.816 69.7576 147.033 70.1456 148.198 71.6767C149.365 73.2077 150.054 74.1595 150.501 73.0526C150.955 71.9456 151.404 68.2395 149.148 69.1938ZM138.477 85.6064C136.468 85.9297 135.812 85.9891 136.13 87.1168C136.798 89.4806 142.195 85.0064 138.477 85.6064ZM142.659 87.3211C141.805 87.5823 142.912 91.0272 144.34 87.8228C144.72 86.9642 143.93 86.9357 142.659 87.3211ZM120.728 32.7531C118.828 32.8151 115.975 33.4902 117.558 33.5186C120.116 33.5703 125.766 34.6255 125.895 32.1608C125.957 30.9194 124.217 32.6341 120.728 32.7531ZM108.846 22.3174C106.907 22.92 107.387 23.3209 109.667 24.3269C111.95 25.333 112.014 24.8597 111.761 22.9666C111.506 21.0734 109.987 21.9631 108.846 22.3174ZM244.308 71.7956C241.907 72.468 241.101 72.0646 240.647 73.2853C240.19 74.5009 239.25 73.8517 238.708 74.0017C238.166 74.1517 237.399 77.5553 237.017 77.0484C235.509 75.0621 236.018 74.0069 235.07 72.9025C234.014 71.6689 231.928 71.8085 231.778 72.3155C231.631 72.8224 233.219 73.2439 232.682 73.8155C231.814 74.731 228.001 76.5078 232.196 75.5225C233.092 75.3104 233.709 76.1975 234.076 76.8259C234.443 77.457 233.665 78.0674 233.275 78.3725C232.403 79.0657 237.234 77.8605 235.829 80.1959C235.364 80.964 237.843 80.3045 239.217 80.2243C240.585 80.1441 240.946 81.1657 243.02 80.5166C245.096 79.8648 246.082 79.9114 247.969 78.5122C251.754 75.7061 251.845 76.7535 251.971 74.3534C252.02 73.3526 252.798 74.6328 252.503 73.1224C252.214 71.6094 250.662 72.0206 249.583 71.9042C248.499 71.7853 248.54 70.937 247.998 70.668C247.458 70.399 246.74 71.118 244.306 71.7982L244.308 71.7956ZM404.753 202.038C404.25 203.807 403.831 208.851 406.496 207.612C408.412 206.722 407.604 205.47 406.098 202.897C405.703 202.219 404.942 201.361 404.753 202.038ZM404.172 200.942C404.301 201.513 405.063 201.769 404.629 201.164C404.407 200.854 404.435 200.818 404.435 200.818C404.435 200.818 404.154 200.722 404.154 201.001M472.602 248.129C472.299 249.155 469.046 249.471 467.804 249.859C465.524 250.567 461.577 252.874 461.29 253.893C461.091 254.602 461.386 255.642 460.244 254.157C459.002 256.663 460.459 257.522 460.389 259.7C460.34 261.119 459.818 261.96 459.867 262.935C459.927 264.22 462.542 266.636 462.909 269.856C463.144 271.938 464.241 273.089 463.144 274.198C462.052 275.305 461.244 275.083 462.576 276.236C467.009 280.08 468.073 275.178 473.794 274.816C478.617 274.519 475.253 273.684 478.31 272.155C479.738 271.446 479.593 271.268 480.546 271.092C481.496 270.916 482.113 271.581 483.397 270.559C484.68 269.54 483.73 269.45 486.583 269.45C488.974 269.45 493.57 270.151 494.855 272.155C496.479 274.664 495.824 273.715 499.704 271.004C499.542 273.409 498.751 272.688 498.751 274.509C498.751 274.772 499.846 273.663 499.991 273.622C500.133 273.575 500.275 275.572 500.417 275.747C500.561 275.926 500.99 275.835 501.416 276.412C502.877 278.375 503.582 280.527 506.218 280.933C510.616 281.626 509.751 279.573 511.018 280.136C511.922 280.535 510.972 281.375 513.11 281.199C515.25 281.021 515.821 280.312 516.675 279.733C517.53 279.159 517.626 280.532 518.72 279.024C519.812 277.516 520.004 277.871 520.195 276.053C520.726 270.976 522.405 272.202 523.381 268.739C524.829 263.587 525.356 263.062 524.473 258.67C523.998 256.322 524.331 256.588 522.81 255.613C521.287 254.638 520.91 254.902 520.528 253.529C520.148 252.153 520.623 251.755 519.908 251.755C519.193 251.755 518.576 252.065 518.15 251.134C516.523 247.596 516.412 248.708 513.92 247.588C512.446 246.923 513.203 246.745 513.203 245.591C513.203 244.438 513.285 243.215 512.113 242.679C510.941 242.146 511.638 242.974 511.638 241.081C511.638 236.87 510.365 242.565 507.138 233.873C506.73 232.771 505.204 235.844 505.204 237.478C505.204 239.552 506.967 240.789 503.97 244.779C502.937 246.158 501.501 243.538 500.293 242.946C499.087 242.356 496.872 241.823 495.857 240.908C494.842 239.992 495.54 239.961 495.857 239.014C496.849 236.064 499.077 236.47 496.967 235.288C495.927 234.706 490.456 234.157 490.595 235.526C490.693 236.444 491.641 236.795 490.283 236.529C484.737 235.44 486.645 240.696 485.591 240.696C483.606 240.696 481.894 237.998 479.95 239.811C472.803 246.447 474.391 242.514 472.612 248.118L472.602 248.129ZM430.312 208.163C429.638 208.07 429.266 207.894 430.087 208.959C433.185 212.96 432.803 209.963 433.606 211.856C434.208 213.276 433.986 213.304 434.587 213.837C435.189 214.37 435.698 214.52 435.853 215.05C436.777 218.146 437.064 216.004 438.006 218.655C439.726 223.448 440.98 222.84 442.411 224.686C443.33 225.868 444.884 227.583 445.137 227.11C445.68 226.096 446.648 228.762 447.482 224.42C448.109 221.148 445.659 221.425 445.264 220.784C445.042 220.429 444.662 219.219 444.123 218.834C443.58 218.451 443.454 218.862 443.454 217.916C443.454 216.356 444.536 217.828 442.155 215.345C442.018 215.2 438.435 213.858 436.547 211.972C433.227 208.67 434.097 208.659 430.304 208.163H430.312ZM448.755 227.229C447.996 227.229 447.616 226.784 447.107 227.702C446.601 228.62 446.663 228.62 447.456 228.62C448.249 228.62 448.089 229.034 448.055 229.153C448.008 229.337 451.019 230.656 452.493 229.862C452.937 229.626 453.095 230.454 455.315 230.808C457.531 231.165 458.705 230.604 460.131 230.958C462.772 231.613 459.527 228.817 455.158 228.031C454.492 227.912 455.726 228.739 453.702 228.473C451.67 228.209 452.403 228.654 451.355 227.974C450.309 227.293 450.309 227.177 449.609 227.058C448.912 226.942 448.755 227.236 448.755 227.236V227.229ZM464.853 230.48C460.655 231.788 468.274 231.618 468.814 230.746C469.036 230.389 468.53 230.63 467.83 230.42C467.133 230.216 467.198 230.57 466.245 230.689C465.297 230.806 464.853 230.482 464.853 230.482V230.48ZM470.748 230.361C468.393 230.65 471.946 231.506 473.028 231.219C474.652 230.79 472.614 230.974 477.652 230.361C479.552 230.136 478.07 230.058 477.876 230.069C474.512 230.216 474.344 230.723 473.789 230.689C473.497 230.671 471.484 230.273 470.748 230.363V230.361ZM477.086 231.809C475.752 232.401 476.583 233.12 476.214 233.57C476.214 233.57 477.368 233.516 478.248 232.629C479.929 230.935 480.069 231.975 481.992 230.125C480.66 230.415 479.859 229.856 478.687 230.834C478.439 231.046 478.932 231.103 477.089 231.809H477.086ZM468.775 232.132C468.716 232.497 468.06 232.476 469.224 232.908C470.391 233.34 471.496 233.907 471.411 233.317C471.272 232.344 468.907 231.333 468.772 232.132H468.775ZM462.888 207.63C462.411 208.31 463.332 208.132 462.633 208.724C461.935 209.314 461.398 209.047 460.704 209.934C459.173 211.887 453.962 213.413 456.235 214.665C455.752 214.887 453.849 214.259 453.761 213.602C453.082 213.576 451.628 215.554 452.713 216.529C453.443 217.178 452.209 217.207 452.367 217.652C452.524 218.097 452.527 218.924 452.968 219.012C453.412 219.1 453.508 218.598 454.048 219.279C454.585 219.959 454.141 221.878 454.838 221.968C455.535 222.056 456.041 221.761 456.642 222.028C458.362 222.788 459.077 221.663 460.541 222.501C460.952 222.736 462.442 223.241 463.17 223.181C463.9 223.122 464.024 223.3 464.151 222.263C464.634 218.347 465.899 219.726 466.051 217.918C466.4 213.94 467.52 216.066 467.797 215.495C468.081 214.903 468.367 214.908 468.207 214.61C468.047 214.313 467.226 214.313 466.908 213.752C466.591 213.19 467.004 212.893 466.622 211.742C466.24 210.591 466.023 211.033 466.56 210.382C467.099 209.733 467.541 209.614 467.605 209.112C467.67 208.608 467.889 208.579 468.558 208.106C469.222 207.632 468.452 207.855 467.817 207.382C465.684 205.783 465.948 203.238 462.883 207.632L462.888 207.63ZM556.528 270.386C555.787 269.84 556.502 271.684 557.86 271.775C558.456 271.814 558.273 273.285 559.665 274.762C560.145 278.08 559.11 277.969 558.844 279.226C558.599 280.367 560.94 279.291 560.396 280.879C560.174 281.53 559.507 281.825 559.507 281.944C559.507 282.063 560.806 282.8 561.475 282.004C564.738 278.075 562.825 278.784 563.881 278.073C565.278 277.126 566.277 275.525 565.593 274.997C564.772 274.366 564.369 276.5 562.453 275.559C560.909 274.806 561.844 274.767 560.837 273.725C560.837 273.725 560.643 274.728 560.173 274.408C559.696 274.082 559.822 273.725 559.476 273.164C558.467 271.542 559.001 270.813 557.765 270.681C556.657 270.565 556.812 270.593 556.525 270.386H556.528ZM556.719 281.119C555.593 282.089 554.563 283.452 553.868 285.079C553.22 286.592 549.616 287.52 548.575 289.038C546.314 292.351 544.61 292.882 548.007 292.882C549.115 292.882 550.858 293.885 551.808 292.853C552.758 291.819 553.708 289.364 554.312 288.477C554.958 287.525 558.97 284.466 558.97 283.333C558.97 282.712 558.56 281.709 558.56 281.709C558.56 281.709 558.211 282.386 557.385 282.299C556.561 282.211 556.721 281.117 556.721 281.117L556.719 281.119ZM549.247 292.473C548.134 291.883 547.914 292.982 547.736 294.11C547.556 295.238 548.217 294.281 549.185 293.771C550.156 293.264 549.673 292.701 549.247 292.473ZM511.563 284.724C509.356 283.987 511.086 291.004 514.576 289.398C515.276 289.069 517.677 285.65 517.365 284.106C517.238 283.486 516.35 284.668 515.779 284.934C512.777 286.338 512.748 285.123 511.563 284.727V284.724ZM495.782 221.26C493.252 221.852 494.445 216.04 489.888 217.711C487.796 218.482 488.114 218.303 489.508 218.836C490.905 219.369 491.093 219.545 491.282 219.545C491.47 219.545 493.502 219.84 493.056 220.135C492.612 220.432 490.711 220.724 491.914 221.554C493.118 222.382 492.612 221.79 495.782 223.388C498.95 224.984 499.459 223.802 500.474 225.871C501.486 227.94 501.486 227.586 500.662 228.118C498.85 229.287 497.809 229.329 502.627 229.595C504.783 229.712 502.754 230.953 505.163 230.953C507.571 230.953 508.204 230.185 509.157 229.06C510.107 227.935 510.298 228.527 512.325 229C514.354 229.474 515.051 231.245 517.587 231.956C520.12 232.665 521.199 233.612 519.614 232.135C507.979 221.283 514.037 222.718 500.283 218.891C497.303 218.063 496.797 221.019 495.782 221.257V221.26ZM477.332 215.166C476.622 214.721 476.82 216.084 475.24 215.347C473.66 214.608 473.071 214.243 471.372 215.497C469.674 216.749 470.743 217.264 470.699 218.148C470.611 220.013 467.701 222.871 468.646 224.298C469.038 224.886 469.594 224.666 469.831 224.961C470.872 226.251 467.789 229.818 471.212 229.047C472.201 228.824 471.331 228.755 471.331 227.943C471.331 226.921 471.804 227.847 471.804 223.047C472.449 222.7 473.066 224.961 473.738 226.104C474.559 227.493 474.856 227.381 476.578 225.77C474.019 224.974 476.317 224.904 474.92 222.641C474.014 221.166 473.541 221.094 474.685 221.019C476.32 220.91 475.359 218.929 478.078 219.253C476.384 217.491 472.129 221.513 471.801 219.656C471.014 215.221 472.653 217.181 474.171 216.749C477.412 215.813 479.65 218.65 481.589 213.395C478.044 216.366 478.439 215.852 477.329 215.166H477.332ZM484.437 212.127C484.639 211.76 482.787 213.395 482.441 213.723C482.093 214.049 482.441 214.52 482.692 214.996C483.446 216.395 481.977 217.424 484.024 218.128C484.024 218.128 483.993 217.036 484.339 216.532C484.734 215.963 483.856 213.18 484.435 212.127H484.437ZM478.796 222.403C478.796 223.163 478.636 223.543 480.182 223.543C485.289 223.543 478.796 220.013 478.796 222.403ZM483.162 223.277C483.363 223.962 483.608 223.507 484.427 223.354C485.607 223.132 484.936 221.567 489.278 223.202C490.631 221.601 481.933 219.172 483.164 223.277H483.162ZM454.696 183.735C451.923 183.815 453.436 183.642 451.923 184.563C451.556 184.783 451.559 185.093 451.814 185.667C452.065 186.244 452.493 186.275 453.206 186.466C453.919 186.658 453.665 186.156 454.19 185.965C454.993 185.667 454.512 185.297 455.553 184.102C455.679 183.955 455.142 183.453 455.142 183.407C455.142 183.365 454.698 183.733 454.698 183.733L454.696 183.735ZM471.858 185.789C471.068 185.202 470.438 188.846 470.748 189.453C471.558 191.039 469.929 189.453 470.082 189.57C468.93 193.268 471.703 191.753 471.948 193.121C472.271 194.843 473.683 193.954 474.326 195.014C474.579 195.425 474.453 193.917 474.897 194.008C475.837 194.199 476.123 195.642 476.955 195.694C476.955 195.694 476.227 194.481 476.544 194.334C476.859 194.186 476.955 194.07 476.131 193.566C474.608 192.64 473.454 193.736 472.901 192.296C472.423 191.054 472.808 190.286 472.808 190.017C472.808 189.748 473.154 190.431 473.536 189.572C473.916 188.716 474.011 188.036 473.947 187.209C473.885 186.381 474.517 186.055 474.04 186.027C473.562 185.998 472.17 186.027 471.855 185.791L471.858 185.789ZM479.397 201.674C479.493 202.271 478.829 201.506 478.579 201.85C478.331 202.196 478.199 202.126 477.794 202.294C476.74 202.731 476.165 204.185 476.428 202.651C476.451 202.517 476.131 201.831 475.834 202.294C475.537 202.76 475.251 203.06 474.584 203.391C473.389 203.991 473.053 205.421 473.825 205.388C474.93 204.537 474.153 203.947 475.844 203.735C478.055 203.469 475.896 206.355 477.709 206.973C478.532 207.252 478.14 206.996 478.886 206.929C480.745 206.763 477.98 205.636 479.717 204.635C479.872 204.547 479.968 205.08 480.195 205.631C480.828 207.19 481.347 202.147 480.146 201.275C478.94 200.396 479.126 199.915 479.395 201.676L479.397 201.674ZM475.751 198.055C475.777 197.497 474.406 196.136 473.322 195.948C470.518 195.464 471.556 198.355 473.128 198.599C474.011 198.733 474.553 198.252 474.553 198.252C474.623 198.441 471.925 199.943 473.505 200.885C474.161 201.275 474.146 201.878 474.522 201.575C474.899 201.275 475.176 200.238 475.948 199.517C476.72 198.795 476.766 198.689 476.867 197.921C477.138 195.754 476.875 196.548 475.751 198.058V198.055ZM477.474 196.387C478.044 196.941 478.566 197.062 478.496 197.471C478.305 198.573 476.681 196.835 477.866 198.702C478.212 199.25 478.096 200.435 478.45 200.034C478.228 196.284 479.033 198.808 479.255 198.182C480.342 195.143 476.632 195.567 477.474 196.387ZM469.348 197.939C468.685 198.102 469.299 199.219 467.742 200.745C464.768 203.647 466.002 202.744 466.766 202.385C467.753 201.919 468.538 201.301 468.651 200.668C468.775 200.037 468.538 200.424 469.405 200.013C470.273 199.602 469.831 199.47 469.867 198.824C469.901 198.182 469.782 197.828 469.346 197.939H469.348ZM521.819 222.147C521.697 223.078 522.459 223.965 518.867 224.557C518.511 224.617 515.916 223.916 516.856 224.94C518.591 226.851 520.355 225.33 522.322 224.72C524.654 223.991 521.953 221.029 521.816 222.144L521.819 222.147ZM525.934 223.921C527.032 225.483 526.453 225.54 528.676 226.287C529.293 226.492 528.676 226.065 528.219 225.447C527.76 224.826 527.726 224.485 527.044 223.864C526.363 223.243 525.222 222.904 525.934 223.923V223.921ZM472.41 174.215C470.378 175.508 469.464 175.413 470.273 177.052C471.889 180.337 471.83 180.414 472.772 178.19C473.33 176.887 473.392 175.188 473.614 174.673C473.838 174.153 473.105 173.768 472.41 174.213V174.215ZM507.189 110.44C508.096 113.913 506.557 111.63 506.144 114.847C505.62 118.84 506.459 116.357 506.459 119.311C506.459 124.45 505.715 122.898 505.953 124.838C506.076 125.852 505.839 130.021 505.922 130.807C505.986 131.402 506.301 130.515 506.521 130.308C507.667 129.237 510.084 132.974 508.266 129.066C507.218 126.819 507.032 127.295 507.316 125.252C507.6 123.214 507.76 123.183 508.834 122.973C510.285 122.696 511.362 126.457 510.133 122.738C508.813 118.713 509.195 117.446 508.137 116.678C506.629 115.587 509.572 116.003 507.76 109.76C507.6 109.227 506.965 110.083 506.965 110.083L507.187 110.44H507.189ZM506.239 133.085C506.301 133.735 506.366 134.324 505.924 135.064C505.48 135.804 505.798 135.979 505.545 137.014C505.292 138.048 504.055 137.014 504.055 137.223C504.055 139.789 500.936 137.296 503.358 141.92C504.119 141.209 504.122 141.284 504.876 141.067C504.669 140.412 502.991 140.415 503.546 139.233C503.642 139.024 504.527 139.292 505.098 139.233C507.613 138.974 506.118 139.706 508.555 140.208C508.555 140.208 508.682 139.378 508.997 138.788C509.319 138.188 513.105 138.193 512.454 137.399C512.136 137.014 512.167 136.158 511.976 135.506C511.788 134.854 511.184 135.478 510.709 135.713C508.648 136.74 506.009 130.766 506.242 133.083L506.239 133.085ZM502.785 144.576C502.857 145.44 503.59 144.509 502.64 147.17C501.692 149.832 501.212 150.429 500.288 151.117C499.361 151.802 498.506 151.802 498.15 151.626C497.424 151.27 499.805 150.114 497.246 150.496C496.794 150.564 497.22 151.073 497.174 151.492C497.127 151.916 496.247 153.046 496.345 153.556C496.438 154.065 496.438 154.221 495.87 154.396C495.297 154.575 494.922 153.972 494.755 153.887C494.587 153.799 493.732 154.045 492.614 154.197C491.496 154.352 491.215 154.73 490.737 155.552C490.262 156.372 489.144 156.504 488.336 156.815C487.528 157.125 487.838 158.281 486.957 158.677C486.077 159.075 486.077 159.807 486.007 160.404C485.937 161.004 486.552 160.583 486.647 160.539C486.743 160.492 486.743 159.696 487.29 159.786C487.835 159.874 487.907 159.895 487.621 160.516C486.629 162.665 486.469 162.114 487.406 163.288C487.835 163.818 488.24 163.13 489.141 162.179C490.045 161.224 490.117 161.002 490.045 159.916C489.89 157.598 487.546 159.181 488.878 157.653C489.614 156.812 489.947 157.632 490.448 157.254C490.946 156.877 492.16 156.897 493.324 156.613C495.886 155.977 495.674 155.633 496.102 158.232C496.151 158.501 496.916 157.854 497.695 157.567C498.646 157.218 496.882 156.61 498.029 155.84C498.695 157.226 500.858 155.19 501.38 155.327C501.713 155.418 501.927 155.752 502.449 155.418C502.973 155.084 503.069 155.395 502.973 155.664C502.88 155.927 504.494 155.154 504.85 154.911C505.385 154.544 504.256 153.059 504.543 151.764C504.938 149.953 504.597 148.973 505.348 148.792C505.542 148.751 505.542 147.75 505.942 147.219C506.348 146.687 506.252 146.444 506.252 145.223C506.252 143.578 504.987 144.512 505.705 141.654C504.148 142.241 504.21 142.474 504.065 142.784C503.866 142.577 502.622 142.6 502.785 144.579V144.576ZM494.53 156.103C490.964 156.701 490.197 156.776 490.422 158.222C490.905 161.33 491.256 160.484 492.346 159.908C493.128 159.489 493.079 158.273 493.83 158.273C494.582 158.273 494.303 159.142 495.312 157.924C496.324 156.706 495.558 156.605 495.589 155.99C495.622 155.371 494.53 156.103 494.53 156.103ZM581.266 90.3677C580.816 92.0798 583.248 91.1152 584.23 91.8471C585.727 92.9695 586.863 92.1393 587 91.9635C586.571 91.741 581.539 89.2867 581.266 90.3651V90.3677ZM565.319 67.7326C565.459 69.0826 565.769 69.2404 567.504 68.9947C568.991 68.7878 572.487 68.7102 573.184 68.2421C571.818 65.5058 570.736 67.4765 568.335 67.0679C565.234 66.5429 565.198 66.6024 565.319 67.7326ZM515.857 49.176C516.714 49.6001 517.375 49.4191 519.185 49.2199C520.992 49.0208 521.134 48.2475 521.346 47.8027C521.692 47.0811 516.786 47.3449 516.642 47.2699C516.213 47.0475 517.282 46.825 516.213 46.4268C515.142 46.0259 514.881 46.5587 514.643 46.3828C514.406 46.2017 514.359 45.8267 513.838 45.7854C513.355 45.744 510.577 46.5638 515.857 49.176ZM503.309 49.8174C502.49 50.1458 502.547 50.4381 503.474 51.214C504.401 51.9898 504.094 51.8114 503.688 52.3674C503.288 52.9209 503.688 52.3442 505.02 52.9416C506.353 53.5416 506.9 54.6279 507.732 54.871C508.563 55.1141 509.134 54.8037 509.134 54.8037C508.103 51.6071 505.687 51.7752 505.281 50.5467C504.974 49.6156 504.476 49.3467 503.311 49.8148L503.309 49.8174ZM511.793 45.4724C508.191 43.2922 506.787 42.2008 505.614 42.0352C504.419 41.8671 505.759 44.3551 503.497 43.2534C500.027 41.5542 500.497 41.0033 497.938 43.543C496.823 44.65 497.463 44.9629 498.819 46.6026C501.473 49.8225 502.245 46.4681 503.427 46.9363C504.212 47.2466 506.921 46.6259 507.016 46.6259C507.112 46.6259 506.848 48.1337 508.039 47.7354C509.224 47.3371 510.319 47.1354 510.866 46.538C511.408 45.9379 511.793 45.475 511.793 45.475V45.4724ZM429.486 13.8059C429.14 14.0982 427.11 13.9223 426.062 15.5775C425.016 17.2354 424.291 16.0819 423.748 17.0879C421.037 22.1803 426.049 18.6552 428.502 22.0562C429.483 23.414 430.214 23.414 432.589 23.7968C434.967 24.1821 433.888 24.508 435.127 24.3916C436.361 24.27 438.071 24.539 437.694 23.9157C436.062 21.2493 438.69 20.6906 437.154 19.7492C435.855 18.9501 434.933 19.6018 434.998 19.4544C435.063 19.307 436.17 18.8621 435.729 18.8337C432.145 18.5983 432.153 16.3689 433.888 16.025C434.995 15.8051 429.622 12.8231 429.961 13.0119C429.168 13.4258 429.834 13.5137 429.483 13.8111L429.486 13.8059ZM436.901 27.1951C436.235 27.7279 436.426 27.8779 437.503 28.2633C438.582 28.6435 440.479 27.5805 441.019 27.552C441.559 27.5236 441.969 28.3512 443.681 28.1417C445.393 27.9374 447.99 27.6089 446.723 26.6934C444.383 25.0046 443.219 23.983 441.334 23.8873C441.334 23.8873 444.218 22.9123 443.521 22.8528C438.773 22.4415 440.5 24.314 436.896 27.1951H436.901ZM368.136 8.18853C366.476 8.78596 367.057 9.07563 365.98 9.93427C364.906 10.7929 365.629 11.0257 367.947 10.467C375.704 8.58682 371.038 7.14884 368.138 8.18853H368.136ZM371.81 12.3576C370.253 13.0482 370.669 13.7775 371.082 14.3672C371.492 14.9568 372.634 14.0103 372.949 14.6646C373.266 15.3137 373.362 15.0448 374.821 14.0697C376.277 13.0947 375.74 13.3921 375.172 12.3576C374.601 11.3231 374.475 11.1757 371.81 12.3576ZM363.153 11.9283C362.156 12.4042 362.156 12.3499 363.104 12.7921C364.056 13.237 366.362 13.5887 367.55 12.8128C368.74 12.0395 368.647 12.1921 367.147 11.9723C365.652 11.7498 364.271 11.3955 363.155 11.9283H363.153ZM348.464 13.7232C355.714 13.1051 353.434 14.8586 351.172 15.1017C348.89 15.3448 351.387 15.6991 353.003 15.6344C354.619 15.5672 353.574 14.2353 354.929 13.7723C356.282 13.3068 357.139 13.5939 358.753 13.0197C360.369 12.443 357.826 11.8895 355.949 11.9335C354.075 11.9774 353.455 12.0861 351.862 11.9774C350.269 11.8662 348.983 12.5852 347.346 12.8645C343.971 13.4413 346.92 13.8603 348.464 13.7258V13.7232ZM360.584 14.1473C359.226 14.1473 355.952 14.8999 358.707 15.1663C364.619 15.7353 363.06 14.1473 360.584 14.1473ZM370.191 14.7241C366.628 13.5447 363.935 15.1275 365.603 15.8077C366.814 16.3069 369.688 15.8827 368.286 15.3422C367.761 15.1431 371.33 15.0991 370.189 14.7215L370.191 14.7241ZM378.319 12.3292C376.834 12.5128 376.749 12.774 376.607 13.2576C376.463 13.7465 376.822 13.6352 378.389 13.4361C384.154 12.7042 381.503 10.8679 381.503 10.3093C381.503 10.0662 380.054 11.0438 379.649 11.3955C379.243 11.7524 380.072 12.1067 378.316 12.3292H378.319ZM261.922 97.3714C261.173 99.4404 259.942 100.395 261.401 99.8206C262.857 99.2464 264.316 97.4671 264.243 98.993C264.168 100.519 262.748 100.296 263.195 101.791C263.644 103.289 263.309 103.159 265.738 103.7C268.171 104.243 266.185 104.052 266.787 105.485C269.338 111.617 262.506 103.271 265.253 109.491C265.702 110.507 264.953 111.081 263.536 111.749C262.113 112.418 263.347 112.83 264.432 112.768C265.516 112.705 268.243 112.193 267.794 113.148C267.349 114.102 266.038 112.99 265.106 114.581C264.168 116.171 260.727 117.539 262.524 117.444C264.318 117.348 264.057 116.869 269.405 116.109C275.834 115.191 279.134 113.233 275.01 113.913C273.063 114.231 276.283 112.002 275.834 109.938C275.384 107.869 274.117 109.842 273.291 108.536C272.467 107.233 272.58 106.85 274.153 107.326C275.723 107.804 275.573 107.01 272.544 105.071C269.516 103.131 271.388 103.511 270.004 101.89C268.622 100.265 266.268 100.457 266.268 100.457C267.442 99.7534 268.664 97.4102 269.219 96.1636C270.456 93.3833 264.401 96.549 265.183 95.0825C265.971 93.5928 268.436 91.9454 266.004 92.5066C260.355 93.7971 262.983 94.4618 261.93 97.374L261.922 97.3714ZM258.145 102.239C255.702 103.203 256.389 103.832 256.802 104.178C257.213 104.53 257.959 103.86 255.679 105.166C253.397 106.47 253.36 107.9 254.556 108.187C255.757 108.474 255.604 107.489 254.334 109.873C250.52 117.006 258.06 111.337 259.304 111.177C260.538 111.019 260.763 110.031 260.763 108.536C260.763 107.042 259.942 107.01 260.913 105.769C261.883 104.53 261.958 103.224 260.05 102.622C258.145 102.014 259.678 101.634 258.145 102.239ZM288.847 135.628C288.715 135.961 289.007 136.869 288.021 137.487C287.039 138.108 288.496 138.672 288.813 139.261C289.363 140.275 289.926 132.832 288.847 135.625V135.628ZM288.372 140.534C286.761 141.297 286.662 141.863 286.469 143.076C286.278 144.287 287.77 143.312 287.388 144.375C287.008 145.44 287.36 146.001 289.038 144.998C290.716 143.992 289.766 143.076 290.019 141.804C290.275 140.534 290.497 139.528 288.372 140.534ZM313.215 153.597C311.798 153.46 311.17 154.35 313.595 154.619C316.019 154.885 317.111 154.929 318.018 154.707C318.919 154.484 318.157 154.663 316.969 153.866C315.782 153.067 315.023 153.776 313.215 153.597ZM326.714 154.35C324.762 153.928 325.291 156.302 327.287 155.948C329.283 155.591 328.521 156.08 329.427 154.616C330.328 153.152 328.761 154.792 326.714 154.347V154.35ZM278.165 143.34C276.58 143.544 276.456 144.082 277.69 144.406C278.924 144.729 278.767 144.346 279.464 143.842C280.161 143.34 278.865 143.252 278.165 143.34ZM182.158 114.399C179.042 116.877 178.9 119.518 176.121 122.381C174.789 123.757 175.458 123.444 179.592 124.243C183.728 125.039 183.392 125.663 184.345 125.396C185.293 125.13 185.486 125.927 185.486 126.772C185.486 128.2 188.654 125.722 185.535 120.697C184.678 119.319 184.487 119.319 183.157 119.676C181.828 120.032 182.254 119.365 181.781 118.302C181.303 117.237 180.542 118.08 181.686 116.484C182.827 114.886 183.111 113.647 182.161 114.399H182.158ZM55.6374 111.562C55.6374 112.881 57.029 115.137 58.0773 115.879C59.123 116.616 58.9035 116.205 58.4259 114.635C57.9482 113.07 58.3329 113.07 58.1083 112.064C57.8863 111.061 55.6374 111.089 55.6374 111.562ZM68.5006 122.766C71.4053 123.614 69.9724 121.033 67.7725 120.519C65.9962 120.107 65.6192 120.255 64.731 119.691C59.7685 116.559 64.3928 121.566 68.5032 122.766H68.5006ZM23.9362 104.07C21.4808 103.511 20.3473 105.19 20.9902 106.222C21.4188 106.907 21.1554 106.532 22.1521 105.844C23.1539 105.156 22.6788 105.068 23.9362 104.755C25.1988 104.445 24.9354 104.023 24.9354 104.023C24.9354 104.023 24.6282 104.225 23.9362 104.07ZM23.5334 102.541C22.764 103.004 22.5084 103.382 23.3656 103.206C24.2228 103.028 24.1014 102.541 24.6488 102.653C26.3374 102.986 24.6643 101.859 23.5334 102.544V102.541ZM1.5946 99.0137C0.548913 99.5258 -0.439975 98.9258 0.205513 99.3137C0.845836 99.7042 1.72628 100.066 2.41308 99.9887C4.16622 99.7922 3.01209 99.7378 2.97336 98.8042C2.94754 98.3361 2.64029 98.5042 1.5946 99.0137ZM352.414 243.489C351.209 246.153 348.671 244.849 346.644 246.802C344.617 248.752 344.932 248.162 346.453 250.88C347.973 253.599 345.188 253.304 344.485 256.498C343.791 259.689 345.311 259.1 346.135 261.818C346.964 264.536 347.341 263.711 348.862 263.354C350.38 263 351.459 262.291 351.459 262.291C351.952 257.747 354.255 252.595 354.627 248.103C354.818 245.796 355.007 244.143 355.518 244.849C356.778 246.618 355.781 240.38 354.503 239.41C352.789 238.109 353.615 240.83 352.414 243.489ZM354.191 61.6341C352.531 62.0143 351.74 63.0333 352.951 63.429C354.162 63.8273 354.044 63.61 356.042 62.8962C358.04 62.1876 355.828 61.2539 354.191 61.6315V61.6341ZM385.244 31.4237C384.678 30.5366 384.17 31.7211 378.34 34.2635C372.505 36.8058 372.569 34.6178 367.119 38.9343C361.665 43.2508 362.871 42.7154 362.554 45.3198C362.234 47.919 360.971 46.7966 360.462 49.1605C359.956 51.5243 357.168 51.6459 358.559 53.5959C362.159 58.6263 369.817 58.0857 367.816 57.1417C367.181 56.8443 364.963 53.358 365.407 49.3958C365.851 45.4362 367.31 46.0259 368.577 44.5491C369.843 43.0698 373.14 39.2291 375.296 37.9256C377.87 36.3713 385.874 33.9919 386.005 33.8471C388.223 31.3642 385.814 32.3108 385.244 31.4237ZM369.528 57.9978C368.838 58.0961 368.515 58.1168 369.783 59.3582C371.048 60.5996 372.159 61.5462 371.745 59.891C371.332 58.2357 370.163 57.9099 369.528 57.9978ZM390.346 45.9664C387.565 44.6655 388.541 47.213 390.981 47.6811C392.215 47.919 391.234 46.3802 390.346 45.9664ZM172.158 120.369C167.973 118.266 166.641 118.972 170.1 120.87C171.562 121.667 172.984 120.782 172.158 120.369ZM168.802 126.312C168.877 125.14 168.022 127.657 169.07 128.218C170.118 128.779 170.658 128.924 171.324 128.246C171.988 127.566 171.448 127.996 170.529 127.835C169.612 127.672 168.74 127.29 168.802 126.314V126.312ZM581.028 85.265C581.028 85.265 580.932 86.6435 580.411 87.3056C579.138 88.9091 582.272 89.2556 577.558 87.572C576.559 87.215 575.655 87.528 575.084 86.0176C574.059 83.3098 569.781 86.4055 570.525 83.0485C567.096 83.227 571.782 85.7357 563.677 86.7288C566.69 88.8987 565.841 89.5608 567.434 91.9169C567.434 91.9169 567.243 92.4937 564.72 92.0049C562.2 91.5186 562.348 92.4937 559.636 93.6006C549.957 97.5628 554.85 97.9068 549.892 96.7067C547.517 96.13 547.042 97.3714 546.422 97.6817C545.805 97.9921 546.042 96.2619 546.042 96.2619C546.042 96.2619 545.185 96.2619 544.14 96.7946C533.303 102.309 540.778 102.016 540.435 103.134C540.435 103.139 539.291 107.435 539.291 107.437C537.698 112.188 536.595 109.7 535.25 113.466C530.034 128.063 526.851 104.551 529.309 103.403C539.944 98.4421 530.306 102.715 540.29 95.8636C543.525 93.6471 541.764 92.3152 542.474 91.6971C543.747 90.5953 545.88 91.0531 542.57 90.7221C540.809 90.5462 540.762 90.9445 539.384 92.4523C538.008 93.9601 536.913 94.2265 537.197 93.0704C537.483 91.9195 537.53 90.7221 536.487 91.3428C534.403 92.579 530.639 91.5652 527.264 95.8196C525.506 98.0387 526.502 97.7697 527.073 98.3024C527.641 98.8352 524.266 98.7007 522.653 98.5714C521.034 98.4369 521.888 98.1266 522.841 97.8162C523.791 97.5033 521.413 97.2395 519.322 96.7972C517.233 96.3524 518.039 97.1541 516.804 97.6378C515.568 98.1266 515.614 97.1955 514.997 97.061C514.377 96.9291 511.623 96.7507 509.676 96.5283C507.726 96.3084 507.868 96.6627 507.347 97.3274C506.823 97.9921 503.211 101.186 501.641 103.004C500.071 104.82 498.124 105.221 496.363 106.907C494.605 108.591 494.318 108.503 495.744 108.769C497.169 109.033 497.36 108.898 497.597 110.23C497.837 111.562 498.504 112.005 500.024 112.005C501.545 112.005 501.117 112.405 501.401 111.252C501.687 110.098 501.021 108.772 502.304 109.788C506.043 112.77 505.405 113.761 504.251 117.994C501.935 126.457 505.17 120.33 499.828 130.763C499.332 131.73 492.41 141.03 490.559 137.591C490.037 136.616 489.655 136.792 488.419 137.901C487.184 139.011 486.614 139.675 486.139 141.447C485.426 144.103 481.563 144.486 482.953 147.08C484.393 149.762 486.702 151.412 484.047 156.171C483.523 157.099 481.052 157.544 481.099 157.099C481.148 156.654 481.192 154.438 481.099 153.152C481.003 151.867 480.053 151.867 480.384 151.469C480.719 151.07 482.098 150.406 481.099 149.472C480.1 148.544 479.387 149.34 478.961 148.233C478.326 146.586 480.322 145.213 476.49 144.863C475.016 144.729 474.683 146.193 474.347 144.905C474.016 143.619 474.494 143.487 473.828 142.955C473.162 142.422 472.591 142.776 470.885 144.24C468.682 146.12 465.359 146.063 466.32 147.478C469.457 152.056 468.935 149.87 472.07 149.87C475.457 149.87 472.751 151.138 470.218 153.685C467.595 156.323 469.614 154.414 471.737 159.096C472.656 161.108 470.309 162.882 472.64 165.393C473.642 166.472 473.596 165.135 469.692 172.976C467.866 176.626 463.136 179.266 459.519 179.933C453.993 180.97 455.119 181.798 454.959 182.595C454.858 183.039 454.053 182.639 454.195 181.974C454.623 180.006 452.036 179.951 450.681 181.265C449.302 182.597 447.637 182.685 447.066 184.371C446.498 186.055 446.594 185.481 447.213 186.187C447.828 186.896 450.825 189.779 451.538 191.329C453.263 195.086 452.842 197.944 447.497 201.529C443.614 204.131 448.163 202.628 444.123 198.203C443.03 197.005 439.702 196.03 439.083 195.896C438.466 195.764 439.32 194.792 438.892 194.833C438.468 194.88 437.469 194.611 437.611 196.165C437.75 197.717 436.614 197.228 436.377 198.782C436.139 200.334 435.853 201.927 436.852 201.798C437.848 201.663 437.66 203.174 438.422 204.857C439.183 206.541 438.894 205.61 440.797 207.162C443.828 209.632 442.07 211.147 443.89 213.858C444.838 215.278 444.887 215.588 443.317 214.786C438.732 212.461 439.514 210.723 438.468 207.338C438.086 206.096 435.522 204.632 434.668 203.745C433.121 202.144 437.058 199.426 432.811 188.98C432.336 187.806 432.527 187.961 431.789 188.98C431.053 190.002 430.485 190.622 429.77 190.622C426.392 190.622 429.289 188.978 428.701 187.141C426.922 181.71 425.564 184.214 424.04 180.047C423.4 178.296 423.232 178.806 421.995 179.714C420.759 180.621 417.929 180.733 416.576 180.844C415.22 180.955 416.341 181.62 416.008 182.287C415.675 182.952 414.084 183.815 410.875 187.165C405.357 192.919 404.983 190.392 405.027 192.596C405.076 195.578 405.36 195.738 404.144 198.456C402.92 201.231 404.007 201.896 401.438 203.748C400.392 204.5 400.392 204.369 399.917 203.259C397.867 198.472 391.231 191.083 393.119 179.447C393.168 179.152 392.153 180.259 391.867 180.82C391.58 181.384 391.598 182.064 390.457 182.165C389.316 182.271 389.078 182.284 388.001 181.206C386.922 180.127 386.429 179.522 386.617 179.553C387.02 179.615 389.731 179.142 389.233 178.34C386.215 178.684 387.351 178.395 385.812 177.779C383.855 176.998 384.472 177.422 383.434 174.97C382.626 173.049 382.657 174.088 380.805 174.13C378.402 174.184 379.132 175.33 374.593 175.18C372.151 175.1 372.69 174.311 368.273 173.669C365.99 173.344 368.464 171.352 364.263 171.675C360.924 171.929 360.524 170.946 359.59 170.005C358.921 169.332 357.909 169.699 356.992 167.227C355.988 164.527 356.127 164.892 354.17 164.892C353.019 164.892 353.377 164.765 352.048 166.412C351.622 166.945 352.394 167.685 353.013 168.409C353.633 169.133 353.093 169.058 354.077 170.152C355.058 171.246 354.725 171.143 355.422 172.663C356.119 174.184 356.564 174.569 356.721 175.03C356.907 175.557 357.418 174.531 357.121 172.544C358.528 175.454 357.088 176.667 359.148 176.667C364.464 176.667 363.362 175.415 364.883 174.541C365.502 174.184 365.502 172.943 365.913 173.077C366.323 173.209 365.931 174.541 366.31 175.413C366.69 176.284 366.785 175.974 367.707 176.359C371.42 177.921 369.928 177.378 370.62 178.651C371.43 180.143 372.195 178.501 371.539 180.588C371.337 181.227 369.719 184.397 368.972 182.538C367.557 185.445 369.401 185.419 367.276 186.275C362.443 188.217 364.356 188.165 363.364 189.128C363.031 189.451 362.569 189.156 361.56 189.51C359.698 190.165 359.747 191.083 358.787 191.448C357.692 191.861 355.712 192.823 354.715 192.927C353.716 193.03 353.922 193.294 353.669 193.664C352.918 194.755 350.042 194.417 348.5 195.174C347.054 195.886 345.567 197.184 344.888 195.322C343.372 191.168 346.016 190.977 338.405 182.553C338.09 182.199 338.278 180.986 337.948 179.951C336.538 175.563 336.646 177.893 334.968 174.869C329.048 164.16 331.557 168.805 330.819 166.441C330.581 165.688 329.962 167.667 329.474 168.052C328.294 168.978 327.927 164.524 327.302 165.453C325.98 167.38 330.264 172.079 331.849 177.187C332.781 180.182 333.897 179.605 334.416 181.501C335.239 184.485 333.638 184.757 336.016 186.733C336.806 187.39 337.643 189.72 337.935 190.648C338.394 192.146 338.968 192.288 340.739 192.927C341.436 193.178 341.193 193.354 341.671 193.961C342.146 194.569 343.068 195.024 343.638 195.986C344.32 197.137 343.357 197.973 343.873 198.586C344.284 199.074 344.996 199.473 346.2 200.269C347.101 200.867 346.117 200.781 354.044 198.896C358.43 197.854 359.541 196.724 356.484 203.184C355.562 205.132 350.984 212.461 350.511 213.043C349.06 214.809 347.524 214.895 344.965 218.172C344.679 218.536 336.502 228.465 337.55 229.582C339.949 232.117 337.638 231.775 338.534 234.103C339.365 236.281 340.158 234.918 340.354 239.1C340.876 249.859 336.213 246.691 334.095 249.238C330.075 254.111 330.163 252.517 331.958 256.436C332.495 257.615 332.118 257.527 331.989 258.549C331.524 262.265 331.973 261.197 328.472 262.568C326.732 263.245 327.403 262.353 327.075 267.533C327.003 268.762 327.189 266.763 323.367 273.003C321.573 275.936 319.301 276.107 318.537 277.731C317.997 278.869 317.38 278.116 314.764 278.957C312.149 279.8 314.052 279.389 311.565 279.666C304.883 280.426 306.448 281.093 304.925 279.417C302.854 277.141 303.6 277.747 303.419 275.616C303.259 273.681 303.272 274.966 301.71 271.139C300.344 267.797 299.523 267.932 298.999 267.386C298.237 266.595 298.426 266.116 297.716 260.734C297.148 256.477 293.097 250.64 293.058 250.063C293.03 249.662 293.84 244.991 293.863 244.847C294.073 243.577 293.582 243.59 294.119 242.718C295.565 240.37 296.549 238.883 295.356 235.564C294.759 233.922 293.621 227.58 293.166 226.326C292.851 225.442 292.691 225.793 291.997 225.219C283.724 218.368 295.353 211.026 284.85 210.821C283.342 210.793 283.409 210.454 282.761 209.696C280.489 207.076 281.475 207.245 277.564 207.537C273.27 207.86 272.803 209.086 271.145 209.668C268.052 210.741 268.034 208.214 262.493 210.586C260.383 211.489 260.107 209.955 257.215 208.53C251.744 205.817 249.661 199.116 246.203 194.342C245.71 193.659 245.333 193.599 245.346 193.276C245.364 192.891 247.314 188.848 247.391 188.577C247.634 187.713 245.713 181.348 245.666 181.201C245.555 180.846 252.165 169.472 252.495 169.169C255.088 166.795 257.13 166.433 257.342 165.843C257.688 164.863 257.907 159.45 258.832 158.956C262.911 156.781 262.464 156.815 263.125 155.247C263.505 154.342 263.668 153.209 264.238 152.837C264.806 152.47 264.649 153 265.395 153.502C267.148 154.683 266.712 153.848 268.152 153.827C270.579 153.786 268.772 155.172 271.37 153.577C274.383 151.722 278.741 150.31 280.179 150.147C281.013 150.051 282.622 151.251 282.903 150.84C284.016 149.25 284.197 149.793 286.216 150.147C288.467 150.543 288.924 149.288 289.335 149.288C289.479 149.288 292.048 150.062 291.762 150.411C289.146 153.584 293.543 152.27 290.223 156.204C289.701 156.825 289.828 156.928 291.111 157.655C296.123 160.472 297.15 159.171 298.78 161.069C299.366 161.747 299.399 162.398 300.411 162.753C301.426 163.11 302.503 163.11 303.091 163.477C303.623 163.81 305.345 165.365 306.117 164.201C307.496 162.135 305.901 162.657 306.195 161.778C306.99 159.453 307.824 159.608 309.146 159.546C312.82 159.375 309.213 159.525 314.467 161.558C315.276 161.866 314.865 162.31 315.276 162.279C317.842 162.098 318.235 163.26 320.739 163.36C323.721 163.479 324.036 161.147 324.893 162.37C325.784 163.648 328.952 163.415 329.789 162.458C331.162 160.883 332.554 155.953 332.719 155.201C333.145 153.261 332.143 153.323 332.928 151.078C333.163 150.401 332.182 150.812 331.785 150.946C331.39 151.078 331.279 150.739 330.914 150.633C329.301 150.191 330.674 152.188 328.299 152.069C325.738 151.937 328.219 151.585 324.7 150.545C323.254 150.116 324.514 151.272 323.404 151.655C322.709 151.893 320.796 151.57 318.885 149.687C317.625 148.451 317.251 145.339 317.555 144.576C317.966 143.518 315.784 145.383 316.603 143.57C317.217 142.212 317.914 142.306 320.073 142.166C320.747 142.119 323.063 141.186 322.624 141.072C318.79 140.063 325.448 140.363 325.763 139.802C326.889 137.756 327.165 138.268 329.471 138.175C330.927 138.116 330.703 138.47 331.18 138.811C331.658 139.15 331.973 138.987 332.593 139.106C333.21 139.225 332.83 139.595 333.303 139.786C336.151 140.937 339.308 141.268 341.844 139.461C342.572 138.946 342.066 137.818 341.797 136.949C341.526 136.078 340.385 135.517 339.861 135.118C339.339 134.717 338.214 133.445 337.612 132.93C336.448 131.932 331.379 130.546 334.919 129.695C336.442 129.325 334.891 128.65 336.85 127.934C337.658 127.639 335.918 127.015 335.678 126.679C335.281 126.1 337.529 126.834 338.007 125.332C338.4 124.15 334.604 125.36 333.38 125.689C331.779 126.115 332.51 126.133 331.544 126.886C330.576 127.639 330.514 127.313 330.641 127.727C330.767 128.14 330.829 128.539 331.81 129.059C332.794 129.573 332.378 129.591 332.652 129.666C332.921 129.739 331.302 128.968 331 129.059C330.148 129.302 328.126 133.711 328.356 130.921C328.438 129.974 328.072 130.613 327.483 130.39C325.387 129.589 328.141 130.173 328.991 128.024C329.324 127.173 326.306 128.065 325.663 126.767C325.663 126.767 325.962 126.883 326.517 126.827C327.073 126.767 326.949 126.62 327.15 126.47C327.855 125.971 327.096 126.299 326.06 126.234C324.602 126.141 323.964 126.033 322.541 128.451C321.996 129.384 323.151 130.569 321.144 131.552C320.638 131.805 320.971 131.984 320.909 132.485C320.643 134.627 320.331 134.498 319.928 134.968C317.421 137.849 321.511 139.572 321.193 140.156C320.762 140.961 319.9 139.616 318.469 140.984C317.837 141.589 317.705 141.93 317.375 142.153C317.042 142.373 317.153 141.708 317.029 141.398C316.902 141.09 315.443 140.987 314.444 140.689C313.04 140.275 312.851 139.843 311.237 140.736C309.27 141.819 311.444 142.993 311.165 145.078C310.925 146.852 312.046 146.032 312.518 147.119C313.231 148.745 312.283 146.953 311.496 150.199C311.281 151.086 311.519 151.197 311.258 151.153C310.997 151.109 310.69 151.308 310.189 150.576C309.691 149.847 309.285 150.535 309.213 150.111C309.143 149.687 308.524 148.981 308.761 148.006C308.996 147.028 309.381 146.94 308.524 146.431C307.669 145.921 307.883 145.854 307.478 144.809C306.438 142.119 305.345 142.525 305.697 140.974C306.954 135.405 299.743 134.841 298.872 133.171C298.418 132.294 297.065 128.226 294.907 129.025C293.763 129.446 293.74 129.622 293.838 129.953C294.656 132.783 292.877 131.816 294.811 132.966C296.133 133.758 296.032 135.545 297.261 136.913C298.929 138.775 300.037 138.061 300.396 138.4C300.946 138.907 298.377 138.273 301.253 140.063C302.252 140.684 303.275 141.328 303.538 141.814C303.799 142.303 304.677 144.139 303.393 142.787C302.108 141.434 302.087 142.057 301.731 142.988C301.374 143.919 302.061 144.631 302.017 145.316C301.968 146.001 301.374 145.74 300.969 146.291C300.566 146.847 300.352 147.509 299.877 147.866C299.175 148.394 299.704 146.296 298.596 148.443C298.002 149.583 299.73 151.179 298.191 151.107C297.264 151.063 297.476 150.196 296.624 149.62C295.766 149.043 295.268 149.242 294.555 148.797C293.241 147.988 297.651 148.388 299.19 147.204C302.335 144.765 297.261 140.252 294.958 139.688C294.055 139.466 294.222 138.646 293.724 138.403C289.802 136.497 290.843 128.21 285.025 133.856C283.884 134.966 284.122 135.498 282.792 134.655C280.6 133.266 278.896 134.904 278.896 137.891C278.896 140.57 277.556 136.228 273.763 143.433C272.384 146.05 273.856 144.806 273.572 145.694C273.285 146.581 273.668 147.292 272.384 148.443C271.098 149.596 271.669 148.311 270.91 149.242C270.148 150.173 269.1 150.928 267.298 150.706C265.49 150.483 266.012 151.195 264.871 151.458C263.732 151.725 263.112 152.123 263.396 150.838C263.683 149.55 263.446 149.731 261.259 149.819C257.657 149.964 258.39 151.381 259.028 148.091C259.265 146.85 259.596 146.449 259.265 146.449C257.484 146.449 259.676 142.991 259.216 140.508C258.979 139.223 259.309 137.492 259.028 136.737C258.741 135.985 259.596 135.232 259.216 134.831C258.364 133.939 257.894 133.551 261.69 134.21C263.213 134.477 264.778 133.988 265.684 134.076C271.785 134.686 272.377 136.59 272.054 131.816C271.86 129.022 272.196 127.737 271.623 127.16C271.052 126.583 270.437 126.627 269.818 125.875C269.198 125.122 269.673 124.013 268.344 123.612C267.011 123.211 265.534 123.524 266.252 123.258C266.962 122.989 267.249 122.901 266.49 122.326C264.698 120.976 266.231 120.951 268.294 120.951C268.511 122.151 271.282 120.782 271.008 120.11C269.929 117.519 270.244 119.621 272.764 119.621C274.571 119.621 274.427 119.355 274.287 118.602C274.143 117.85 275.477 117.894 276.379 117.27C277.28 116.65 276.043 115.941 276.237 115.367C276.735 113.836 281.589 114.728 280.657 113.637C280.466 113.414 280.706 112.48 280.845 111.286C281.039 109.695 280.417 108.935 284.272 108.58C286.218 108.404 285.031 107.96 285.361 107.872C290.998 106.364 287.943 108.329 287.122 100.821C286.693 96.9188 286.786 96.9188 289.164 96.2102C291.542 95.5015 291.021 95.7213 290.827 97.8964C290.597 100.545 287.68 101.478 290.306 105.922C291.307 107.608 291.209 106.762 293.347 106.762C295.485 106.762 295.01 107.295 296.435 107.781C297.863 108.27 297.385 106.897 298.767 106.405C299.838 106.028 298.222 106.566 304.839 105.991C304.741 105.997 304.385 106.002 304.754 105.787C305.516 105.342 305.704 104.546 306.799 104.411C307.891 104.279 308.65 104.724 308.601 103.035C308.555 101.352 307.938 101.618 308.126 100.33C308.601 97.1567 308.431 97.374 309.696 97.0507C311.075 96.6964 310.125 98.2921 311.785 98.6464C313.448 99.0033 313.213 99.2671 313.499 97.9818C313.783 96.6964 314.689 95.0101 313.879 95.1006C313.073 95.1911 312.882 95.0567 312.074 93.8592C311.266 92.6618 310.793 92.3954 311.315 92.3954C311.836 92.3954 313.595 91.9066 316.112 91.9945C321.632 92.1859 318.34 91.9583 319.915 90.9755C320.773 90.4427 323.577 91.2419 323.148 90.7531C320.62 87.8771 309.03 93.479 309.03 87.784C309.03 86.3176 309.554 85.746 308.697 84.3262C307.84 82.9063 310.264 81.7089 311.929 80.2036C313.592 78.6958 313.166 77.4518 314.16 77.3665C317.261 77.0923 312.593 74.0353 311.973 73.9086C311.119 73.7327 309.835 72.7551 308.503 75.0621C307.173 77.3665 308.596 77.5889 308.836 78.7863C309.074 79.9838 306.98 80.8709 305.41 81.9778C303.843 83.0847 303.275 82.8209 302.794 85.6581C302.319 88.4978 301.844 88.5858 303.603 89.5608C308.059 92.0411 302.758 91.9221 301.32 94.661C300.274 96.655 300.703 97.63 300.274 98.5171C299.846 99.4042 298.516 99.8025 298.134 100.69C297.754 101.577 297.755 103.26 296.138 102.997C294.522 102.728 295.426 100.555 294.71 99.4456C293.998 98.3412 293.427 97.4076 292.573 96.0343C291.718 94.6609 292.384 93.329 291.573 92.6178C290.768 91.9092 290.574 90.4919 290.574 90.4919C289.882 92.1135 290.107 92.2712 288.532 94.2187C286.913 96.2127 284.491 96.3446 283.301 95.8584C282.113 95.3696 282.304 94.2187 282.304 92.7549C282.304 84.4658 281.509 85.896 285.681 83.4003C288.199 81.8925 288.245 81.9804 288.865 81.0054C290.819 77.9174 292.751 79.6605 296.138 71.118C297.091 68.7257 298.847 67.2593 300.559 64.6885C304.573 58.6676 310.682 58.9211 313.344 55.1089C314.248 53.8235 314.633 54.5761 316.151 54.2684C317.674 53.958 317.434 54.2684 315.913 55.7762C314.395 57.284 313.729 58.8797 315.01 57.6823C317.455 55.4037 318.266 54.1494 322.425 56.0426C324.374 56.9271 324.707 57.015 323.615 57.7262C322.515 58.4349 320.664 58.259 320.664 58.259C320.664 58.259 321.284 59.7228 323.089 59.9453C324.896 60.1677 325.893 58.5254 327.083 59.1461C328.273 59.7668 328.604 60.2091 326.987 60.0772C324.589 59.8806 324.586 61.8591 331.694 62.8264C334.31 63.1833 335.451 65.0868 337.444 65.9299C339.445 66.7731 341.769 66.0618 341.108 67.8826C340.442 69.6981 341.63 71.4723 338.159 72.3155C334.689 73.156 334.782 72.0465 331.885 71.1594C326.959 69.6568 325.115 67.9964 329.032 71.6482C332.518 74.8966 327.966 78.3932 331.885 80.2941C334.168 81.4037 333.835 81.0907 334.545 80.9149C335.26 80.7364 336.448 80.514 336.161 80.1597C335.877 79.8053 335.639 79.1432 334.878 78.7863C334.116 78.4294 334.072 77.5889 334.831 77.188C335.59 76.7871 336.303 77.5423 337.968 77.4544C339.634 77.3665 337.968 76.8337 338.774 75.9932C339.585 75.15 339.634 73.7327 341.581 72.975C343.53 72.2224 345.619 73.3319 346.145 72.4887C348.242 69.1111 343.556 68.2602 344.86 67.0343C345.523 66.4136 346.858 64.7739 347.475 65.7049C348.092 66.636 349.662 67.6576 347.666 67.4791C345.668 67.3032 347.047 70.4507 348.854 70.2723C352.195 69.9438 357.958 63.2169 361.686 64.8644C365.058 66.3386 366.024 64.7376 369.721 64.1092C371.813 63.7575 369.579 64.8644 370.527 65.1721C371.479 65.4851 371.572 65.7489 372.288 65.2653C374.777 63.5531 375.709 64.1428 372.427 61.8488C374.477 57.3124 383.158 63.804 386.499 67.7895C386.499 67.7895 387.351 66.3282 386.638 63.8868C385.925 61.4505 384.121 62.0246 384.121 59.7203C384.121 57.4159 382.455 58.034 383.029 56.3943C383.599 54.7546 385.215 54.1313 385.644 52.0467C386.55 47.6009 386.847 47.8828 392.582 48.6794C392.582 48.6794 392.582 50.5855 391.391 53.4252C390.204 56.2624 392.011 56.5728 391.727 60.0306C391.443 63.4885 391.391 63.9333 392.202 64.7299C393.008 65.5265 394.534 66.5041 393.961 68.0093C391.789 73.7508 385.094 70.9628 387.113 72.3129C388.118 72.975 389.398 73.5517 390.823 73.7741C392.251 73.9965 391.536 73.6862 392.677 72.7551C393.821 71.8241 396.388 69.9594 396.289 69.0723C396.196 68.1877 394.815 66.8118 395.768 66.1446C396.718 65.4799 397.098 64.4609 398.572 65.304C400.046 66.1446 401.471 69.2947 401.471 69.1628C401.471 69.0309 401.185 66.0592 399.427 64.2876C397.666 62.5134 394.769 64.1945 394.769 62.6453C394.769 61.0962 395.574 58.9625 395.386 57.2788C395.195 55.5951 394.534 53.9089 395.623 52.4476C396.715 50.9812 396.764 49.8303 396.764 49.8303C397.449 51.814 395.858 55.6831 397.857 55.6831C398.665 55.6831 402.277 55.7296 400.33 55.1503C398.383 54.5735 397.813 54.0408 399.76 52.9778C402.809 51.3148 410.645 56.5365 409.408 53.4226C409.08 52.5795 408.647 52.0028 407.746 51.426C405.584 50.0501 406.855 53.6011 404.892 46.7268C404.655 45.8836 405.608 46.5483 407.126 46.5483C422.597 46.5483 416.294 45.5293 415.778 40.4731C415.45 37.2299 427.691 38.0989 436.741 35.9523C442.349 34.6204 438.739 34.8428 439.545 33.247C441.055 30.2728 446.764 31.628 445.964 31.9151C445.344 32.1375 443.49 33.066 446.39 33.6893C449.289 34.31 448.533 34.2635 447.009 34.7962C445.491 35.329 446.774 36.304 449.718 36.304C452.661 36.304 450.905 36.0376 450.43 35.0626C449.958 34.0876 450.862 34.4419 453.286 34.8402C455.708 35.2385 456.661 35.6394 457.993 36.8782C463.208 41.7559 457.655 42.3068 451.716 46.0595C448.768 47.9216 449.48 48.8967 447.866 50.1381C444.84 52.4606 453.123 48.4466 457.136 48.8527C459.818 49.1217 458.77 49.9156 465.168 49.9156C469.351 49.9156 468.729 49.9156 467.21 51.1131C464.435 53.2959 473.676 52.7244 475.196 52.489C476.913 52.2226 475.437 50.9372 477.481 50.8467C486.203 50.4717 483.02 50.5467 484.657 52.2666C487.91 55.6779 484.182 54.4054 485.083 59.0039C485.514 61.1763 486.606 61.4867 487.938 61.885C489.268 62.2859 489.268 59.9349 490.554 59.1358C491.837 58.3392 492.124 60.7315 493.595 60.3772C497.417 59.4616 498.323 61.6781 502.198 60.822C504.003 60.4211 503.433 59.7151 502.818 58.6056C502.198 57.4961 502.152 57.584 503.293 56.4331C504.434 55.2796 505.196 55.8563 508.901 56.8314C522.529 60.416 520.125 63.1264 522.162 64.4144C523.636 65.348 523.732 64.4144 526.68 64.1506C529.624 63.8816 529.58 64.5049 532.813 65.348C537.814 66.6515 533.055 69.5559 536.283 70.2697C538.279 70.7146 539.087 71.1103 540.799 70.6706C542.51 70.2257 540.99 71.1128 544.793 71.1568C548.594 71.2034 547.313 70.7145 548.454 71.5137C549.593 72.3129 549.879 73.9086 551.733 73.7327C553.584 73.5517 553.445 73.5983 552.683 71.9586C551.49 69.3852 550.352 69.7395 560.001 71.2939C564.139 71.9585 564.279 72.7137 567.659 74.8423C581.508 83.5839 581.454 81.8899 585.575 85.1719C585.725 85.3969 582.882 85.9736 581.015 85.2598L581.028 85.265ZM362.239 130.644C362.239 130.644 361.986 130.983 363.318 129.917C365.275 128.355 360.39 131.293 361.178 128.099C361.415 127.121 361.082 127.121 360.274 125.836C360.274 125.836 359.845 125.572 358.944 126.102C358.04 126.635 357.519 125.572 356.424 125.971C355.332 126.369 354.142 126.193 353.476 127.833C352.812 129.475 352.05 128.409 351.815 129.736C351.575 131.068 349.53 131.774 349.53 131.774C353.081 135.276 350.622 137.43 353.669 138.692C354.526 139.047 355.856 139.893 355.856 139.893C355.856 139.893 355.051 139.404 355.051 140.733C355.051 142.062 353.765 142.993 353.907 144.944C354.049 146.894 352.148 148.712 353.672 148.893C355.203 149.071 355.575 150.931 361.42 150.931C364.255 150.931 361.908 150.398 361.562 144.856C361.467 143.348 360.896 143.746 360.514 142.818C360.134 141.884 360.705 141.351 361.844 141.351C362.982 141.351 363.132 141.307 362.51 140.288C361.89 139.267 362.275 138.868 361.508 138.426C360.751 137.981 360.416 139.893 360.416 139.893C360.416 139.893 359.941 139.448 360.132 137.586C360.323 135.723 360.465 136.611 359.897 136.254C359.324 135.899 358.991 136.342 358.232 135.103C357.47 133.859 358.139 134.128 357.235 132.62C356.331 131.112 356.804 131.909 357.803 131.909C358.802 131.909 358.278 131.686 357.803 131.2C355.704 129.033 362.386 130.54 362.241 130.639L362.239 130.644ZM184.903 62.3195C184.464 63.0773 185.646 64.0471 186.503 63.7471C187.361 63.4445 187.64 63.7807 188.128 63.3902C188.616 63.0023 188.659 62.4281 188.081 61.8669C187.503 61.3031 187.735 60.9746 187.64 60.9151C186.547 60.2453 185.344 61.5643 184.903 62.3221V62.3195ZM419.891 13.4309C418.605 13.4749 417.177 13.5214 418.37 13.9197C419.561 14.318 419.083 16.3146 421.363 15.2051C423.645 14.0956 423.17 14.0077 424.74 13.343C426.307 12.6783 425.401 12.9964 423.506 12.5024C422.318 12.1921 421.177 13.3895 419.894 13.4335L419.891 13.4309Z" fill="url(#paint0_linear_397_1014)"/>
<defs>
<linearGradient id="paint0_linear_397_1014" x1="607.958" y1="85.5521" x2="10.7772" y2="72.7971" gradientUnits="userSpaceOnUse">
<stop offset="0.415"/>
<stop offset="0.655" stop-color="#FF0000"/>
</linearGradient>
</defs>
</svg>
