<svg width="175" height="61" viewBox="0 0 175 61" fill="none" xmlns="http://www.w3.org/2000/svg">
<g clip-path="url(#clip0_525_1603)">
<path d="M35.6482 4.67936V8.90161H39.8612H44.0741V4.67936V0.457115H39.8612H35.6482V4.67936Z" fill="#151515"/>
<path d="M14.0973 13.0914C9.91674 14.2931 7.61581 16.1444 6.51396 19.1324C4.9584 23.2572 6.02785 27.382 9.17136 29.5581C10.8241 30.6949 14.0973 31.7992 19.1528 32.9684C22.6528 33.7804 24.4028 34.5599 25.1482 35.6641C25.6019 36.3787 25.6019 36.5411 25.1158 37.483C24.338 38.977 22.426 39.7565 19.5093 39.7565C16.1714 39.7565 14.0325 38.5548 13.2871 36.3137L12.8982 35.2094H8.68525H4.47229L4.69914 36.5735C5.3797 40.7308 8.97692 44.0112 14.4538 45.4403C16.9491 46.0898 22.6204 46.0898 25.1158 45.4078C30.463 44.0437 33.5093 40.3086 33.5093 35.2094C33.5417 32.4163 32.8288 30.6949 31.0788 29.2333C29.3288 27.7393 27.6112 27.0572 22.0695 25.6282C19.1204 24.8812 16.139 24.0367 15.4908 23.7444C11.8612 22.2179 14.3566 18.6452 19.088 18.6452C21.4214 18.6777 23.2038 19.6196 24.0464 21.3735L24.7593 22.8675H28.7454H32.764L32.5371 21.6333C31.8241 17.4435 28.6158 14.1307 24.1436 12.9614C21.551 12.3119 16.5927 12.3443 14.0973 13.0914Z" fill="#151515"/>
<path d="M61.5742 12.9614C59.4029 13.5785 56.9399 15.1375 55.838 16.5666C55.0927 17.5734 54.3797 18.0281 54.4769 17.411C54.5093 17.2811 54.5093 16.3392 54.4769 15.2999L54.4445 13.4486H50.5556H46.6667V29.2008V44.9531H50.6853H54.7038L54.8334 34.7872C54.9306 25.141 54.9955 24.5888 55.676 23.0299C56.5834 21.0162 58.1066 19.9119 60.3427 19.6196C62.3843 19.3597 64.7177 19.7495 65.5603 20.529C66.9862 21.7957 67.0834 22.5751 67.0834 34.0727V44.9531H71.3288H75.5742L75.4121 32.5137C75.3149 23.4521 75.1853 19.782 74.8612 18.905C74.1158 16.8264 72.2362 14.6828 70.2917 13.6759C67.9908 12.5067 64.2964 12.2144 61.5742 12.9614Z" fill="#151515"/>
<path d="M87.6621 12.9289C83.8381 13.8383 80.889 15.9819 79.7871 18.5803C78.3288 21.9905 78.5881 25.6282 80.4353 27.8692C82.2825 30.1427 84.4214 31.0846 91.9723 32.9034C97.8057 34.3325 99.4908 35.6641 97.9677 37.7428C96.9307 39.1718 95.4075 39.7565 92.6529 39.7565C89.3797 39.7565 87.6621 38.912 86.5603 36.7359L85.8149 35.2094H81.6668H77.551L77.8103 36.671C78.3936 39.7565 80.3381 42.1924 83.5464 43.9137C86.2362 45.3428 88.8612 45.9274 92.7501 45.9274C99.4584 45.9274 103.477 43.9787 105.648 39.6915C106.458 38.0026 106.62 37.3205 106.62 35.3069C106.62 32.4812 106.005 31.0521 104.06 29.2658C102.375 27.7393 101.273 27.2846 95.926 25.9205C89.8334 24.329 88.4075 23.8743 87.5973 23.0948C85.3288 21.0486 88.4399 18.3854 92.6853 18.7102C95.0186 18.8726 96.1529 19.5871 97.0603 21.5034L97.7084 22.835L101.695 22.8675H105.648V22.0555C105.648 20.5939 104.352 17.7358 103.088 16.4367C100.398 13.676 97.0279 12.4418 92.1992 12.5067C90.6112 12.5067 88.5371 12.7016 87.6621 12.9289Z" fill="#151515"/>
<path d="M120.718 12.799C116.537 13.2537 113.037 15.0725 111.579 17.5734C110.898 18.7426 109.894 21.7632 109.861 22.6076C109.861 22.77 111.579 22.8674 113.685 22.8674H117.542L118.319 21.6657C119.519 19.8469 120.62 19.1973 122.759 19.0349C125.968 18.8076 128.333 20.4315 128.333 22.8999C128.333 24.8487 126.875 25.4333 119.292 26.57C111.838 27.7068 108.889 30.5974 108.889 36.7359C108.889 40.5359 110.25 42.8419 113.491 44.4984C117.444 46.512 124.185 46.0249 127.588 43.459C128.139 43.0368 128.69 42.6795 128.755 42.6795C128.852 42.6795 129.014 43.1992 129.111 43.8163L129.338 44.9531H133.194H137.083V34.0726C137.083 27.2846 136.954 22.5751 136.727 21.5033C135.301 14.8452 129.759 11.8571 120.718 12.799ZM128.593 31.7666C128.722 34.0402 127.977 36.8009 126.972 37.7103C125.125 39.4317 121.852 40.406 119.421 39.9513C116.31 39.3667 116.181 34.0402 119.227 32.4487C119.778 32.1889 121.787 31.5718 123.699 31.1171C125.644 30.6624 127.329 30.1752 127.523 29.9803C128.139 29.3632 128.495 29.9478 128.593 31.7666Z" fill="#151515"/>
<path d="M140 25.6931L140.162 37.9701L140.972 39.5616C142.82 43.1667 146.158 45.2779 150.403 45.5377C151.796 45.6027 153.611 45.5052 154.389 45.3103C156.269 44.8556 158.634 43.4266 159.153 42.4522C159.866 41.0881 160.093 41.6727 160.093 44.8556C160.093 48.5582 159.542 50.0523 157.727 51.6762C154 54.9566 148.458 53.1702 147.616 48.4283L147.389 47.2266H143.597H139.806L140.033 49.1753C140.94 56.8403 148.491 61.7771 156.852 60.1207C158.31 59.8284 160.32 59.2113 161.292 58.7566C163.56 57.6198 165.958 55.2164 167.125 52.8454L168.033 50.9617L168.13 32.1889L168.227 13.4486H164.144H160.093V23.8094C160.093 30.3701 159.963 34.5274 159.736 35.112C158.245 39.0419 152.185 40.4385 149.528 37.4505C148.199 35.9564 148.102 34.9171 148.102 23.9718V13.4486H143.986H139.838L140 25.6931Z" fill="#151515"/>
<path d="M35.6482 37.3206V45.2779H39.8612H44.0741V37.3206V29.3633H39.8612H35.6482V37.3206Z" fill="#151515"/>
</g>
<defs>
<clipPath id="clip0_525_1603">
<rect width="175" height="60.0858" fill="white" transform="translate(0 0.457092)"/>
</clipPath>
</defs>
</svg>
