<svg width="111" height="57" viewBox="0 0 111 57" fill="none" xmlns="http://www.w3.org/2000/svg">
<rect width="111" height="57" transform="matrix(1 0 0 -1 0 57)" fill="white"/>
<path d="M24.1103 1.76497C21.4964 3.19072 20.0707 4.69569 18.4865 7.78484C14.4468 15.5473 16.031 20.2207 26.0906 30.6762C34.962 39.8645 35.9917 42.7952 32.9817 49.6072C30.4471 55.1518 24.1103 57.0528 18.8825 53.8053C12.7835 50.1616 13.9716 38.4387 20.7836 34.9535L23.6351 33.4486L21.9717 31.7852C18.8825 28.696 12.7042 30.0426 9.21905 34.4783C7.15962 37.0922 6.36753 42.6368 7.55566 46.2804C11.1993 57.2905 25.2985 60.4588 36.5461 52.7755C42.0116 49.0527 44.467 44.1418 45.8928 34.0822C47.1602 24.9732 48.7443 21.7256 51.9919 21.7256C53.8929 21.7256 53.8929 21.8048 53.8929 30.4386C53.9721 37.2506 54.289 39.7853 55.3979 42.1615C59.4375 50.3993 70.8436 51.3498 78.0517 43.9041L80.6656 41.211L82.6458 42.716C85.2597 44.8546 86.4478 44.6962 89.2201 42.0031C90.4875 40.7358 91.5172 40.0229 91.5172 40.4189C91.5172 42.0823 95.3192 42.9536 97.7747 41.9239C102.369 40.0229 104.666 32.7357 101.418 30.3594C97.5371 27.5079 92.7053 30.3594 90.2498 37.013C88.6657 41.211 86.9231 43.6665 85.8933 43.0328C84.7844 42.3992 85.1013 36.6169 86.2894 33.607C87.6359 30.5178 89.1409 29.9634 89.1409 32.5773C89.1409 34.2406 89.2201 34.2406 90.4083 33.0525C92.8637 30.597 89.4577 29.0129 85.8933 30.8347C84.5468 31.6267 84.3884 31.3891 84.3884 28.7752C84.3884 24.6564 81.6161 19.3494 78.5269 17.3691C75.2001 15.3889 68.705 15.2305 65.1406 17.1315C63.398 18.082 63.2384 21.7256 57.7742 18.2404C56.4561 17.5275 52.6256 18.2404 49.9325 20.6167L47.0017 23.1514L47.477 20.4583C48.5859 13.8047 49.4572 7.54721 49.2988 7.3888C49.1404 7.23038 47.3978 8.2601 45.4176 9.52744C43.3581 10.874 40.1898 12.1413 38.368 12.379C35.5164 12.775 35.2788 12.9334 36.7046 13.4879C38.1303 14.0424 38.4472 14.7552 38.4472 17.5275C38.4472 23.3098 37.7343 23.2306 30.9223 17.0523C25.2985 11.9037 24.6648 10.9532 24.6648 8.41852C24.6648 3.19072 29.8926 -0.373684 34.6451 1.60654C37.0214 2.55705 38.6848 6.35908 37.0214 6.91354C35.1996 7.46801 36.1501 8.65614 38.4472 8.65614C40.269 8.65614 40.9026 8.2601 41.2987 6.67592C42.7244 0.97287 31.6352 -2.19548 24.1103 1.76497ZM72.5862 18.3196C74.6457 22.2009 71.8734 44.4586 68.9426 47.4685C67.9129 48.4191 67.5961 48.4191 66.4079 47.2309C63.5564 44.3794 65.6158 21.8048 69.101 18.0028C70.7644 16.181 71.4773 16.181 72.5862 18.3196ZM98.646 33.5278C98.646 37.2506 97.2994 41.9239 96.2697 41.9239C95.0816 41.9239 94.5271 38.7556 95.0816 35.7456C95.8737 31.0723 96.2697 30.0426 97.5371 30.0426C98.3292 30.0426 98.646 30.9931 98.646 33.5278Z" fill="black"/>
<path d="M103.161 40.8942C101.973 42.0031 102.606 44.3002 104.111 44.3002C106.171 44.3002 106.963 42.9536 105.775 41.5279C104.666 40.2605 103.953 40.0229 103.161 40.8942Z" fill="black"/>
</svg>
