<svg width="151" height="61" viewBox="0 0 151 61" fill="none" xmlns="http://www.w3.org/2000/svg">
<g clip-path="url(#clip0_525_1625)">
<rect width="150" height="59.8101" transform="matrix(1 0 0 -1 0.357422 60.4051)" fill="black"/>
<path d="M19.1968 1.8623C19.8152 4.46529 20.2178 7.08266 20.3617 9.57059C20.6493 14.7047 20.7931 22.9019 20.7931 34.5794C20.7931 46.4007 20.75 47.5943 20.2754 50.4705C19.9302 52.5414 18.9235 56.9996 18.8373 56.8989C18.7222 56.7838 17.7443 52.3401 17.3991 50.3986C16.752 46.6595 16.6226 35.3703 17.0684 17.3939C17.2266 10.304 17.3848 7.71543 17.7731 5.41445C18.0894 3.58804 18.7797 0.510483 18.8516 0.596771C18.8804 0.625534 19.0242 1.18639 19.1968 1.8623ZM14.4222 4.33587C13.7032 11.6127 13.5306 16.5598 13.5306 29.4022C13.5306 38.261 13.5881 41.0221 13.7895 43.999C13.9333 46.0124 14.0771 48.3709 14.1202 49.2481L14.2065 50.8301L13.8758 50.3267C13.3005 49.4207 12.0494 46.6883 11.5892 45.2933C10.4531 41.8419 10.223 40.1161 9.99286 33.7021C9.80591 28.1366 9.9641 22.1109 10.4531 16.2434C10.9133 10.7067 11.2296 8.88029 12.1644 6.52179C12.8979 4.681 14.4366 1.77602 14.5804 1.93422C14.6236 1.96298 14.5373 3.05595 14.4222 4.33587ZM24.676 4.65224C26.1141 7.55723 26.6462 9.62812 27.0345 13.8706C27.7104 20.9029 27.9405 28.0647 27.7104 33.9322C27.4659 40.1736 27.2071 42.0288 26.0997 45.2933C25.4382 47.2348 23.6406 50.9595 23.5543 50.5568C23.4967 50.3123 23.6406 47.7237 23.9713 42.9204C24.2014 39.4546 24.2877 24.7715 24.1151 18.8752C23.9426 13.4391 23.6406 7.81609 23.3817 5.38568C23.3098 4.66663 23.2091 3.57367 23.166 2.9409L23.0797 1.79041L23.468 2.36565C23.6693 2.68204 24.2158 3.71746 24.676 4.65224ZM9.23066 3.99072C8.92866 4.95425 7.80693 10.2753 7.63436 11.6415C7.03035 16.1284 6.6133 26.4828 6.75711 32.6523C6.82901 35.8449 7.10225 39.6128 7.54807 43.4238C7.60559 44.0134 7.64874 44.5311 7.61998 44.5599C7.4474 44.7468 5.93738 41.9857 5.11766 40.0298C4.18288 37.8008 3.69393 35.658 3.50697 33.0837C3.23373 29.359 3.67955 19.9969 4.34108 15.3087C4.77251 12.2311 5.30461 10.5341 6.64206 7.83047C7.72064 5.65892 9.56143 2.91214 9.23066 3.99072ZM29.6375 5.29939C31.1475 7.57161 32.3268 10.304 32.9595 13.0508C33.4485 15.1649 33.9231 19.8387 34.1675 25.1597C34.5558 33.4289 34.1963 36.3483 32.2692 40.7633C31.7084 42.0432 30.1696 44.79 30.0689 44.6893C30.0402 44.6606 30.1408 43.5676 30.2846 42.2733C30.8599 37.1248 30.9318 35.5142 30.9174 29.1865C30.903 18.0986 30.4141 12.188 29.0622 6.46427C28.789 5.31378 28.5301 4.22082 28.487 4.04824C28.3576 3.48738 28.6308 3.80375 29.6375 5.29939Z" fill="#FFCC00"/>
<path d="M9.23066 3.99072C8.92866 4.95425 7.80693 10.2753 7.63436 11.6415C7.03035 16.1284 6.6133 26.4828 6.75711 32.6523C6.82901 35.8449 7.10225 39.6128 7.54807 43.4238C7.60559 44.0134 7.64874 44.5311 7.61998 44.5599C7.4474 44.7468 5.93738 41.9857 5.11766 40.0298C4.18288 37.8008 3.69393 35.658 3.50697 33.0837C3.23373 29.359 3.67955 19.9969 4.34108 15.3087C4.77251 12.2311 5.30461 10.5341 6.64206 7.83047C7.72064 5.65892 9.56143 2.91214 9.23066 3.99072Z" fill="#FFCC00"/>
<path d="M14.4222 4.33587C13.7032 11.6127 13.5306 16.5598 13.5306 29.4022C13.5306 38.261 13.5881 41.0221 13.7895 43.999C13.9333 46.0124 14.0771 48.3709 14.1202 49.2481L14.2065 50.8301L13.8758 50.3267C13.3005 49.4207 12.0494 46.6883 11.5892 45.2933C10.4531 41.8419 10.223 40.1161 9.99286 33.7021C9.80591 28.1366 9.9641 22.1109 10.4531 16.2434C10.9133 10.7067 11.2296 8.88029 12.1644 6.52179C12.8979 4.681 14.4366 1.77602 14.5804 1.93422C14.6236 1.96298 14.5373 3.05595 14.4222 4.33587Z" fill="#FFCC00"/>
<path d="M19.1968 1.8623C19.8152 4.46529 20.2178 7.08266 20.3617 9.57059C20.6493 14.7047 20.7931 22.9019 20.7931 34.5794C20.7931 46.4007 20.75 47.5943 20.2754 50.4705C19.9302 52.5414 18.9235 56.9996 18.8373 56.8989C18.7222 56.7838 17.7443 52.3401 17.3991 50.3986C16.752 46.6595 16.6226 35.3703 17.0684 17.3939C17.2266 10.304 17.3848 7.71543 17.7731 5.41445C18.0894 3.58804 18.7797 0.510483 18.8516 0.596771C18.8804 0.625534 19.0242 1.18639 19.1968 1.8623Z" fill="#FFCC00"/>
<path d="M24.676 4.65224C26.1141 7.55723 26.6462 9.62812 27.0345 13.8706C27.7104 20.9029 27.9405 28.0647 27.7104 33.9322C27.4659 40.1736 27.2071 42.0288 26.0997 45.2933C25.4382 47.2348 23.6406 50.9595 23.5543 50.5568C23.4967 50.3123 23.6406 47.7237 23.9713 42.9204C24.2014 39.4546 24.2877 24.7715 24.1151 18.8752C23.9426 13.4391 23.6406 7.81609 23.3817 5.38568C23.3098 4.66663 23.2091 3.57367 23.166 2.9409L23.0797 1.79041L23.468 2.36565C23.6693 2.68204 24.2158 3.71746 24.676 4.65224Z" fill="#FFCC00"/>
<path d="M29.6375 5.29939C31.1475 7.57161 32.3268 10.304 32.9595 13.0508C33.4485 15.1649 33.9231 19.8387 34.1675 25.1597C34.5558 33.4289 34.1963 36.3483 32.2692 40.7633C31.7084 42.0432 30.1696 44.79 30.0689 44.6893C30.0402 44.6606 30.1408 43.5676 30.2846 42.2733C30.8599 37.1248 30.9318 35.5142 30.9174 29.1865C30.903 18.0986 30.4141 12.188 29.0622 6.46427C28.789 5.31378 28.5301 4.22082 28.487 4.04824C28.3576 3.48738 28.6308 3.80375 29.6375 5.29939Z" fill="#FFCC00"/>
<path d="M83.3073 26.1806C84.8188 27.7083 86.28 28.9814 86.5823 28.9814C86.8846 28.9814 88.3457 27.7083 89.8572 26.1806L92.5779 23.3798H97.0117C99.4301 23.3798 101.445 23.5835 101.445 23.7872C101.445 24.0418 98.8759 26.7408 95.8025 29.7962C91.5199 33.972 89.6053 35.5506 88.0434 36.0089C86.8342 36.3654 82.8539 36.62 78.5712 36.62H71.2152V35.0923V33.5646H76.0017C78.6216 33.5646 80.7881 33.3609 80.7881 33.1062C80.7881 32.8516 80.0324 31.9859 79.1758 31.2221C78.2689 30.4582 75.9513 28.4212 74.0367 26.6389L70.6106 23.3798H75.5986H80.5866L83.3073 26.1806Z" fill="#FFCC00"/>
<path d="M122.356 25.1621L125.379 26.9954L128.604 25.1621C131.778 23.4307 132.03 23.3798 137.27 23.3798H142.661L137.773 26.3333C135.053 27.912 132.836 29.3888 132.836 29.5416C132.836 29.6943 135.506 31.3239 138.781 33.2081L144.676 36.62H138.176H131.727L128.805 34.8376C127.193 33.8701 125.681 33.0553 125.48 33.0553C125.228 33.0553 123.716 33.8701 122.104 34.8376L119.131 36.6709L112.934 36.5181L106.687 36.3654L112.531 32.9535L118.376 29.5925L115.403 27.7083C113.74 26.6898 111.523 25.3149 110.415 24.6529L108.4 23.4307L113.841 23.3798C119.232 23.3798 119.383 23.4307 122.356 25.1621Z" fill="#FFCC00"/>
<path fill-rule="evenodd" clip-rule="evenodd" d="M65.2108 29.5775C66.0032 28.0807 65.7831 26.0997 64.6385 24.779L63.582 23.5464L51.7399 23.4143C45.2245 23.3263 39.7657 23.4143 39.5896 23.5904C39.4135 23.7665 39.2815 26.3638 39.2815 29.3574V34.7722H43.6837H48.086V33.2314V31.6906H54.9095C62.2173 31.6906 64.3304 31.2503 65.2108 29.5775ZM48.0858 29.0493V27.5085V25.9677H52.2239C57.0664 25.9677 57.7707 26.1438 57.7707 27.5085C57.7707 28.8732 57.0664 29.0493 52.2239 29.0493H48.0858Z" fill="#FFCC00"/>
</g>
<defs>
<clipPath id="clip0_525_1625">
<rect width="150" height="59.8101" fill="white" transform="matrix(1 0 0 -1 0.357422 60.4051)"/>
</clipPath>
</defs>
</svg>
