<svg width="80" height="65" viewBox="0 0 80 65" fill="none" xmlns="http://www.w3.org/2000/svg">
<g clip-path="url(#clip0_525_1531)">
<path d="M68.1337 55.6129L73.3801 54.9748C73.3801 54.9748 63.7364 39.754 63.6185 39.5677C64.8017 36.3087 65.4064 32.8895 65.4064 29.3986C65.4064 12.8555 51.8398 -0.602661 35.1638 -0.602661L33.6515 -0.586222L32.5513 -0.574577L34.889 3.12085C34.3653 3.12578 33.8436 3.14578 33.3275 3.18154L31.1239 -0.301273L30.7347 -0.253736L25.8706 0.337806L28.2096 4.03405C27.7564 4.1557 27.3081 4.28955 26.8643 4.43449L24.3857 0.518912L23.9968 0.566586L19.1331 1.15909L22.4207 6.35268C22.0245 6.56941 21.6349 6.79572 21.2504 7.03176L17.6484 1.34033L17.2592 1.38759L12.3942 1.97955L17.406 9.89646C17.0645 10.203 16.7305 10.5177 16.4054 10.8412L10.91 2.16148L10.5218 2.20915L5.65675 2.80055L13.1946 14.7077C12.9145 15.1183 12.6478 15.5382 12.3913 15.9646L12.3004 15.822L4.17192 2.98221L3.78262 3.02961L-1.08093 3.62184C-1.08093 3.62184 7.52536 17.217 7.52536 17.2183C5.80217 21.0593 4.92179 25.1541 4.92179 29.3983C4.92179 45.9387 18.4887 59.3973 35.1637 59.3973C36.299 59.3973 37.4487 59.3328 38.5805 59.2081L38.6052 59.206L39.6363 59.0077L37.5311 55.6822L37.4545 55.5792C37.9658 55.5363 38.4724 55.4792 38.974 55.4066L41.1874 58.8954L46.4777 58.2508L43.9103 54.209C44.3221 54.0674 44.7277 53.915 45.1296 53.7528L47.8653 58.0825L53.1732 57.4357L49.4367 51.5418C49.8199 51.2973 50.1981 51.0427 50.5675 50.7793L54.6748 57.2537L59.8808 56.6192L54.2112 47.6605C54.5357 47.3281 54.852 46.9878 55.1566 46.6395L61.3567 56.4383L66.6772 55.7912L58.1825 42.4158C58.436 41.9725 58.6779 41.5219 58.9075 41.0632L68.1337 55.6129Z" fill="white"/>
<path d="M35.2365 48.0167C45.5884 48.0167 53.9541 39.6514 53.9541 29.3818C53.9541 19.1018 45.5884 10.7368 35.2365 10.7368C24.8733 10.7368 16.4412 19.1018 16.4412 29.3818C16.4412 39.6515 24.8733 48.0167 35.2365 48.0167Z" fill="url(#paint0_radial_525_1531)"/>
<path d="M16.4034 29.3817C16.4034 39.678 24.8516 48.0539 35.2365 48.0539C45.5792 48.0539 53.992 39.678 53.992 29.3817C53.992 19.0807 45.5789 10.699 35.2365 10.699C24.8515 10.6988 16.4034 19.0806 16.4034 29.3817ZM16.4786 29.3817C16.4786 19.1221 24.8936 10.774 35.2365 10.774C45.5368 10.774 53.9177 19.1221 53.9177 29.3817C53.9177 39.6373 45.5368 47.9804 35.2365 47.9804C24.8933 47.9802 16.4786 39.6373 16.4786 29.3817Z" fill="#010202"/>
<path d="M28.3016 12.0904L32.1629 14.0716L29.0117 19.5311L23.087 21.0167L21.656 16.6246C23.5192 14.6436 25.6604 13.081 28.3016 12.0904Z" fill="#010202"/>
<path d="M49.3834 17.0427L48.8728 21.0828L42.6592 19.5312L39.3091 14.8532L42.8803 12.366C45.5219 13.4992 47.519 14.853 49.3834 17.0427Z" fill="#010202"/>
<path d="M50.8807 39.585L46.5203 40.3663L46.6665 33.6298L50.4483 29.6676L53.6658 32.5731C53.2331 35.1172 52.2341 37.5267 50.8807 39.585Z" fill="#010202"/>
<path d="M32.3068 47.8085L30.0214 44.0549L35.6577 41.2925L41.3726 43.197L40.1617 47.3782C38.5869 47.8085 36.8781 48.0166 35.2361 48.0166C34.3035 48.0166 33.2284 47.9514 32.3068 47.8085Z" fill="#010202"/>
<path d="M16.6515 32.0792L19.8688 28.667L23.6525 33.0701L23.8745 39.2991H19.3691L19.303 39.2328C17.938 37.0312 17.0836 34.6987 16.6515 32.0792Z" fill="#010202"/>
<path d="M31.8076 24.132L39.1638 24.4183L41.1618 31.5066L35.1591 35.6122L29.2997 31.0777L31.8076 24.132Z" fill="#010202"/>
<path d="M19.7988 28.6653L19.9398 28.6672C20.0161 24.403 22.1585 21.6685 23.1235 21.0764L23.0504 20.9573C22.0635 21.563 19.8771 24.3441 19.7988 28.6653Z" fill="#010202"/>
<path d="M28.9539 19.5703C29.5234 20.4055 31.7258 24.1299 31.7468 24.1666L31.8683 24.0968C31.8461 24.0594 29.6416 20.3316 29.07 19.4922L28.9539 19.5703Z" fill="#010202"/>
<path d="M39.1273 24.3581L39.1995 24.478C39.6176 24.2323 42.4562 20.3751 42.7259 19.5523L42.5918 19.51C42.3117 20.3687 39.4509 24.1686 39.1273 24.3581Z" fill="#010202"/>
<path d="M23.6387 33.0014L23.6659 33.1376C24.3305 33.0056 28.5975 31.6517 29.3401 31.1338L29.2596 31.0203C28.5703 31.5008 24.3466 32.8614 23.6387 33.0014Z" fill="#010202"/>
<path d="M41.14 31.5723C42.268 31.9417 46.0612 33.2796 46.6242 33.6869L46.7057 33.5751C46.098 33.1347 42.141 31.7543 41.1835 31.4407L41.14 31.5723Z" fill="#010202"/>
<path d="M35.0898 35.622C35.1733 36.2395 35.5882 40.745 35.5882 41.2926H35.7279C35.7279 40.6961 35.2963 36.1064 35.2281 35.6039L35.0898 35.622Z" fill="#010202"/>
<path d="M23.8075 39.3194C24.1777 40.5015 28.7618 44.0486 30.0167 44.1243L30.0255 43.9851C28.7962 43.9118 24.3035 40.4362 23.9405 39.2787L23.8075 39.3194Z" fill="#010202"/>
<path d="M33.0733 13.9064L32.163 14.0021V14.1409L33.0917 14.0435C34.6548 13.8352 37.5641 13.4468 39.2627 14.9056L39.3542 14.8C37.6074 13.3013 34.6576 13.695 33.0733 13.9064Z" fill="#010202"/>
<path d="M48.823 21.1315C49.7096 22.0115 50.5965 26.8751 50.378 29.6625L50.5182 29.6738C50.7202 27.088 49.8993 22.0032 48.922 21.0338L48.823 21.1315Z" fill="#010202"/>
<path d="M41.2863 43.493L41.3252 43.6249C42.9481 43.1356 45.8446 41.3618 46.5758 40.4098L46.4644 40.3258C45.7457 41.2616 42.8897 43.0086 41.2863 43.493Z" fill="#010202"/>
<path d="M16.3583 29.4042C16.3583 39.7047 24.8114 48.0857 35.2026 48.0857C45.5512 48.0857 53.9688 39.7047 53.9688 29.4042C53.9688 19.0951 45.5512 10.7092 35.2026 10.7092C24.8113 10.7091 16.3583 19.0951 16.3583 29.4042ZM16.4344 29.4042C16.4344 19.1363 24.854 10.7843 35.2025 10.7843C45.5086 10.7843 53.8931 19.1362 53.8931 29.4042C53.8931 39.6636 45.5086 48.0113 35.2025 48.0113C24.854 48.011 16.4344 39.6634 16.4344 29.4042Z" fill="#010202"/>
<path d="M31.7693 47.7306L17.0621 24.4946C16.6308 26.0599 16.3954 27.7056 16.3954 29.4042C16.3954 29.6383 16.4057 29.8702 16.4142 30.1028L26.3945 45.8687C28.0545 46.746 29.8619 47.3804 31.7693 47.7306Z" fill="#FF0000"/>
<path d="M32.1968 32.1262L41.5581 46.9454C42.6996 46.5344 43.7889 46.0167 44.8157 45.4034L36.3981 32.1262H32.1968Z" fill="#FF0000"/>
<path d="M39.4656 32.1301L46.9457 43.9203C47.886 43.1685 48.7492 42.3261 49.5256 41.4086L43.6491 32.1262L39.4656 32.1301Z" fill="#FF0000"/>
<path d="M46.6996 32.1261L51.1551 39.1674C51.8944 37.9718 52.5 36.6878 52.9563 35.336L50.9181 32.126H46.6996V32.1261Z" fill="#FF0000"/>
<path d="M24.9458 32.1219L35.0369 48.0435C35.0931 48.0435 35.1471 48.0478 35.2024 48.0478C36.5114 48.0478 37.7866 47.9136 39.0182 47.6592L29.1466 32.1219H24.9458Z" fill="#FF0000"/>
<path d="M16.0815 29.4042C16.0815 39.857 24.6595 48.3605 35.2025 48.3605C45.7043 48.3605 54.2464 39.857 54.2464 29.4042C54.2464 18.9434 45.7043 10.435 35.2025 10.435C24.6595 10.435 16.0815 18.9433 16.0815 29.4042ZM16.7113 29.4042C16.7113 19.288 25.0062 11.0597 35.2024 11.0597C45.3563 11.0597 53.6161 19.288 53.6161 29.4042C53.6161 39.5115 45.3563 47.735 35.2024 47.735C25.0063 47.7349 16.7113 39.5112 16.7113 29.4042Z" fill="#010202"/>
<path d="M35.1639 55.0991C49.4718 55.0991 61.0717 43.5921 61.0717 29.3984C61.0717 15.2035 49.4721 3.6969 35.1639 3.6969C20.8561 3.6969 9.25635 15.2035 9.25635 29.3984C9.25649 43.5921 20.8561 55.0991 35.1639 55.0991ZM15.4374 29.3983C15.4374 18.5904 24.2697 9.82959 35.1642 9.82959C46.0594 9.82959 54.8918 18.5904 54.8918 29.3983C54.8918 40.2054 46.0594 48.9663 35.1642 48.9663C24.2697 48.9663 15.4374 40.2054 15.4374 29.3983Z" fill="#010202"/>
<path d="M9.90393 29.3983C9.90393 43.2151 21.236 54.4557 35.1638 54.4557C49.0928 54.4557 60.4236 43.2151 60.4236 29.3983C60.4236 15.5807 49.0928 4.33966 35.1638 4.33966C21.236 4.33952 9.90393 15.5807 9.90393 29.3983ZM10.4319 29.3983C10.4319 15.8701 21.526 4.8638 35.1638 4.8638C48.8022 4.8638 59.8953 15.8699 59.8953 29.3983C59.8953 42.9251 48.8022 53.9304 35.1638 53.9304C21.526 53.9304 10.4319 42.9251 10.4319 29.3983Z" fill="white"/>
<path d="M12.8585 24.4233L13.6085 25.5063L14.8776 25.1319L14.0728 26.173L14.8236 27.2542L13.575 26.8168L12.7703 27.8594L12.8043 26.547L11.5559 26.1104L12.8257 25.7374L12.8585 24.4233Z" fill="white"/>
<path d="M12.7703 30.9355L13.5211 32.0175L14.7892 31.6427L13.9843 32.6861L14.7363 33.7669L13.4881 33.3296L12.6833 34.3716L12.7171 33.0575L11.469 32.6224L12.7389 32.2486L12.7703 30.9355Z" fill="white"/>
<path d="M57.47 24.4233L56.7226 25.5063L55.4517 25.1319L56.258 26.173L55.5058 27.2542L56.7557 26.8168L57.5588 27.8594L57.5258 26.547L58.7725 26.1104L57.5031 25.7374L57.47 24.4233Z" fill="white"/>
<path d="M57.5588 30.9355L56.8088 32.0175L55.5389 31.6427L56.3452 32.6861L55.5936 33.7669L56.8419 33.3296L57.6449 34.3716L57.6126 33.0575L58.8602 32.6224L57.5908 32.2486L57.5588 30.9355Z" fill="white"/>
<path d="M8.22018 17.1613C6.49823 20.887 5.53886 25.0321 5.53886 29.3983C5.53886 45.6284 18.8028 58.7855 35.1639 58.7855C36.2961 58.7855 37.4136 58.7218 38.5129 58.6006L38.6352 58.5767L37.0199 56.0271L36.7861 55.7082C36.2497 55.7406 35.7085 55.7562 35.1641 55.7562C20.4887 55.7562 8.59208 43.9562 8.59208 29.3987C8.59208 24.7053 9.82806 20.3001 11.9941 16.4841L11.7808 16.1505L3.85875 3.63745L-0.0421143 4.11173L8.04396 16.8855L8.22018 17.1613Z" fill="#FF0000"/>
<path d="M62.9432 39.6341C64.1359 36.4456 64.7909 32.9974 64.7909 29.3983C64.7909 13.1675 51.5258 0.00915527 35.1642 0.00915527L33.6591 0.0255946L35.4673 2.88179L35.58 3.04016C50.0646 3.26127 61.7365 14.9768 61.7365 29.3986C61.7365 33.3633 60.8548 37.1241 59.2726 40.4979L59.3676 40.6407L68.4472 54.9589L72.3421 54.4844L63.0355 39.7991L62.9432 39.6341Z" fill="#FF0000"/>
<path d="M15.922 11.2298L10.5967 2.81592L6.69519 3.29088L13.5351 14.0958C14.2633 13.0849 15.0608 12.1278 15.922 11.2298Z" fill="#FF0000"/>
<path d="M20.6898 7.29683L17.3343 1.99432L13.4326 2.46942L17.8344 9.42408C18.7366 8.65349 19.69 7.94248 20.6898 7.29683Z" fill="#FF0000"/>
<path d="M26.2223 4.57245L24.0722 1.17444L20.1718 1.64899L22.9268 6.00212C23.9866 5.45524 25.0849 4.97562 26.2223 4.57245Z" fill="#FF0000"/>
<path d="M32.5878 3.16359L30.8102 0.353149L26.9094 0.828109L28.7946 3.80527C30.0281 3.50484 31.2936 3.2862 32.5878 3.16359Z" fill="#FF0000"/>
<path d="M45.7482 53.577L48.1804 57.4268L52.1344 56.9465L48.957 51.933C47.9312 52.5512 46.8581 53.0997 45.7482 53.577Z" fill="#FF0000"/>
<path d="M51.1088 50.4836L54.9892 56.5992L58.8442 56.129L53.8078 48.1743C52.9626 49.0018 52.0614 49.7743 51.1088 50.4836Z" fill="#FF0000"/>
<path d="M55.6195 46.22L61.6702 55.7839L65.6374 55.3015L57.8782 43.0841C57.2021 44.1846 56.4455 45.2338 55.6195 46.22Z" fill="#FF0000"/>
<path d="M39.6797 55.3697L41.5008 58.241L45.4384 57.7617L43.3516 54.4761C42.1617 54.8582 40.9361 55.1567 39.6797 55.3697Z" fill="#FF0000"/>
<path d="M16.0815 29.4042C16.0815 39.857 24.6595 48.3605 35.2025 48.3605C45.7043 48.3605 54.2464 39.857 54.2464 29.4042C54.2464 18.9434 45.7043 10.435 35.2025 10.435C24.6595 10.435 16.0815 18.9433 16.0815 29.4042ZM15.4373 29.3983C15.4373 18.5904 24.2696 9.82959 35.1641 9.82959C46.0593 9.82959 54.8917 18.5904 54.8917 29.3983C54.8917 40.2054 46.0593 48.9663 35.1641 48.9663C24.2696 48.9663 15.4373 40.2054 15.4373 29.3983Z" fill="white"/>
<path d="M21.678 14.3025L21.0285 14.8946L20.504 14.3285C20.0276 14.4988 19.5786 14.5864 19.1573 14.5912C18.6147 14.5959 18.2109 14.4553 17.9457 14.1689L17.9275 14.1493C17.7166 13.9214 17.6559 13.6651 17.7459 13.3801C17.8239 13.135 18.0104 12.8782 18.3045 12.6101L19.6089 11.4207C19.903 11.1525 20.1762 10.9898 20.4289 10.9327C20.7196 10.8648 20.9715 10.9455 21.184 11.1749L21.2022 11.1945C21.4701 11.484 21.5792 11.8944 21.5294 12.4255C21.492 12.8395 21.3664 13.2764 21.1529 13.7356L21.678 14.3025ZM19.8837 12.366L20.4805 13.0102C20.5517 12.8254 20.5992 12.6236 20.6236 12.4043C20.6526 12.138 20.6309 11.9655 20.5586 11.8876C20.5152 11.8407 20.4513 11.8295 20.3667 11.8535C20.2825 11.8776 20.177 11.9472 20.051 12.0621L18.911 13.1015C18.7797 13.2213 18.6975 13.3212 18.6652 13.4012C18.6326 13.4812 18.6393 13.5463 18.6851 13.5955C18.7575 13.6736 18.928 13.7078 19.1968 13.6982C19.4274 13.6896 19.639 13.6575 19.8313 13.6022L19.2346 12.958L19.8837 12.366Z" fill="white"/>
<path d="M23.3521 12.9137L21.5193 9.91061L22.2739 9.45743L23.0766 10.773L23.0328 9.00151L23.8834 8.49066L23.8342 10.3146L25.8079 11.4388L24.9574 11.9496L23.1349 10.8682L24.1068 12.4606L23.3521 12.9137Z" fill="white"/>
<path d="M29.2021 10.0533L28.425 6.62832L29.2854 6.43625L29.626 7.93662L30.1513 6.24296L31.1211 6.02637L30.491 7.74044L32.0028 9.42808L31.0328 9.64467L29.6507 8.04525L30.0626 9.86125L29.2021 10.0533Z" fill="white"/>
<path d="M33.5139 9.29262L32.6335 9.34495L32.4748 6.71932L33.3553 6.66698L33.4082 7.54032C33.5818 7.44155 33.7485 7.31469 33.908 7.16003C34.1012 6.97152 34.195 6.82412 34.1883 6.71822C34.1847 6.65479 34.1422 6.60589 34.0617 6.57177C33.981 6.53766 33.8555 6.52561 33.6848 6.53574L32.2491 6.62123L32.4215 5.84063L33.7449 5.76186C34.1434 5.73816 34.4584 5.78323 34.6905 5.89708C34.9589 6.0301 35.1027 6.25038 35.1213 6.5578L35.123 6.58424C35.1394 6.85645 35.0608 7.12551 34.8871 7.39114C34.7362 7.62006 34.5218 7.84021 34.2449 8.05186C34.0189 8.22502 33.7598 8.38229 33.4677 8.52381L33.5139 9.29262Z" fill="white"/>
<path d="M37.6774 9.37839L37.9078 7.08826L36.6862 8.17709L36.5762 9.26948L35.6986 9.18263L36.0499 5.68927L36.9275 5.77612L36.8066 6.97935L38.0287 5.88517L38.9064 5.97203L38.555 9.46538L37.6774 9.37839Z" fill="white"/>
<path d="M39.1807 9.57534L39.8799 7.03807L40.7307 7.26877L40.236 9.06436L40.8789 9.23861C41.0692 9.29012 41.1767 9.26998 41.2023 9.17779C41.2258 9.09258 41.1802 8.94092 41.0654 8.72297C40.9624 8.53008 40.8171 8.30198 40.6295 8.0384C40.788 7.98991 40.9545 7.91949 41.1288 7.82743C41.3427 7.71318 41.4609 7.61509 41.4833 7.53331C41.4957 7.48906 41.4778 7.44289 41.43 7.39508C41.3821 7.3474 41.3014 7.30809 41.1881 7.27726L39.6978 6.87327L40.1137 6.18884L41.6091 6.59421C41.9838 6.69586 42.2389 6.82641 42.3739 6.98601C42.5091 7.14575 42.5405 7.35699 42.4682 7.61989C42.4135 7.81798 42.3194 7.97237 42.1855 8.08279C42.0752 8.17417 41.9143 8.25527 41.7028 8.32637C41.8995 8.57789 42.0336 8.78859 42.1049 8.95846C42.1959 9.17765 42.2141 9.38643 42.1596 9.58439C42.0758 9.88851 41.9355 10.0688 41.7389 10.1255C41.5699 10.1752 41.2863 10.1459 40.8874 10.0378L39.1807 9.57534Z" fill="white"/>
<path d="M43.9481 11.2034L42.342 10.4666L43.8276 7.28027L45.7344 8.15512L45.7098 8.99106L44.3029 8.34554L43.4681 10.1361L44.0667 10.4107C44.1858 10.4654 44.2867 10.4881 44.3689 10.4792C44.4511 10.4703 44.5074 10.4337 44.5374 10.3695C44.5837 10.27 44.5715 10.1495 44.5007 10.008L43.9775 9.04339L44.7654 8.91996L45.2924 9.88632C45.3649 10.017 45.4023 10.1666 45.4045 10.335C45.4064 10.5033 45.3745 10.6581 45.3088 10.7994C45.2012 11.0305 45.0329 11.189 44.8045 11.2749C44.5472 11.3711 44.2616 11.3474 43.9481 11.2034Z" fill="white"/>
<path d="M45.4711 12.4925C45.4754 12.2091 45.5009 11.961 45.5472 11.7482C45.6213 11.4133 45.7544 11.1052 45.9467 10.8241C46.3271 10.2676 46.7622 9.91471 47.252 9.76525C47.829 9.58893 48.4374 9.71606 49.0775 10.1468L49.5377 10.4564L49.284 11.2148L48.7353 10.8457C48.4639 10.6631 48.1615 10.5701 47.8281 10.5665C47.4946 10.563 47.2663 10.6513 47.143 10.8316L47.966 11.3853L48.3981 10.7534L49.1281 11.2445L47.6398 13.4214L46.9099 12.9302L47.5308 12.0217L46.6151 11.4053C46.529 11.5311 46.4644 11.7076 46.4215 11.9344C46.3824 12.13 46.3624 12.3387 46.3617 12.5602L45.4711 12.4925Z" fill="white"/>
<path d="M51.0555 12.7726C50.9063 12.6359 50.7376 12.5813 50.5496 12.6086C50.3615 12.636 50.1961 12.7264 50.0534 12.8797C49.8334 13.1163 49.7187 13.4008 49.7094 13.734C49.6995 14.1144 49.8398 14.4382 50.1305 14.7042L50.2169 14.7834L49.5459 15.2152C49.0693 14.7784 48.8311 14.2787 48.8318 13.7152C48.8305 13.1745 49.0445 12.6738 49.4733 12.2135C49.8001 11.8624 50.1361 11.6785 50.4812 11.6622C50.8037 11.6494 51.117 11.7818 51.4207 12.0601L51.9797 12.6009L51.6255 13.2944L51.0555 12.7726Z" fill="white"/>
<path d="M20.1044 47.9313L22.0469 45.2094L22.7669 45.7147L21.9158 46.907L23.491 46.2234L24.3024 46.7933L22.6417 47.4135L22.4471 49.5765L21.6356 49.0066L21.8541 46.9934L20.8241 48.4367L20.1044 47.9313Z" fill="white"/>
<path d="M23.8892 50.366L23.104 49.967L24.2527 47.7433L25.0377 48.1423L24.6555 48.8818C24.8537 48.8885 25.0595 48.8683 25.2728 48.822C25.5321 48.765 25.6848 48.6917 25.7311 48.6021C25.7587 48.5483 25.7461 48.4873 25.6936 48.4188C25.6407 48.3506 25.5383 48.2776 25.3861 48.2002L24.106 47.5498L24.6369 46.9989L25.8169 47.5985C26.172 47.7791 26.4218 47.9742 26.566 48.1835C26.7325 48.4269 26.7484 48.679 26.6141 48.9394L26.6025 48.9619C26.4834 49.1926 26.2839 49.3726 26.0039 49.5023C25.7617 49.6137 25.4692 49.6862 25.1265 49.7196C24.8468 49.7477 24.5463 49.7461 24.2251 49.7151L23.8892 50.366Z" fill="white"/>
<path d="M27.8487 52.0304L28.5628 49.9616L27.1424 50.688L26.8017 51.6745L25.9673 51.3912L27.0566 48.2358L27.8911 48.5194L27.5159 49.6063L28.9379 48.8751L29.7724 49.1586L28.6831 52.3138L27.8487 52.0304Z" fill="white"/>
<path d="M29.4272 52.5105L29.8823 50.0529L30.7498 50.211L30.4278 51.9502L31.0835 52.0695C31.2774 52.1048 31.3826 52.0781 31.399 51.9887C31.4142 51.9059 31.3547 51.7655 31.22 51.5667C31.0993 51.3912 30.9333 51.1852 30.7221 50.9483C30.8751 50.891 31.0339 50.8124 31.1985 50.7125C31.4003 50.5887 31.5085 50.4871 31.5233 50.4077C31.5313 50.3649 31.5092 50.3227 31.4572 50.2803C31.4052 50.2385 31.3213 50.207 31.2057 50.1861L29.6862 49.9092L30.0347 49.2299L31.5595 49.5078C31.9416 49.5774 32.2072 49.683 32.3567 49.8247C32.5062 49.9665 32.5574 50.165 32.5102 50.4198C32.4747 50.6116 32.3954 50.765 32.2729 50.8793C32.172 50.9739 32.0198 51.0626 31.8159 51.1449C32.0352 51.3697 32.1884 51.5596 32.2755 51.7159C32.3867 51.9177 32.4247 52.114 32.389 52.3062C32.3344 52.6007 32.2121 52.782 32.0221 52.8497C31.8589 52.9091 31.574 52.9016 31.1674 52.8275L29.4272 52.5105Z" fill="white"/>
<path d="M34.7834 53.1559L34.8606 50.9707L33.7144 52.0754L33.6775 53.1173L32.7959 53.0867L32.9137 49.7537L33.7953 49.7842L33.7547 50.9324L34.9012 49.8227L35.783 49.8535L35.665 53.1866L34.7834 53.1559Z" fill="white"/>
<path d="M38.1916 52.9709L37.9589 50.7967L36.9802 52.0497L37.0913 53.0867L36.2141 53.179L35.8601 49.8727L36.7374 49.7801L36.8587 50.9125L37.838 49.6643L38.7152 49.572L39.0691 52.8786L38.1916 52.9709ZM37.8154 49.454L36.497 49.5929L36.7489 48.8317L38.0673 48.6927L37.8154 49.454Z" fill="white"/>
<path d="M44.0326 51.4761L43.2191 51.8144L42.2455 49.5098L43.059 49.1716L43.383 49.9382C43.5157 49.7925 43.6331 49.6233 43.7349 49.4315C43.858 49.1985 43.8997 49.0352 43.8607 48.9424C43.8371 48.8868 43.7819 48.8568 43.6954 48.8528C43.6086 48.8488 43.4863 48.8795 43.3286 48.9452L42.0023 49.4966L41.9196 48.7388L43.1423 48.2305C43.5103 48.0774 43.8216 48.0137 44.076 48.0392C44.3709 48.07 44.5755 48.22 44.6894 48.4898L44.6991 48.5131C44.7999 48.752 44.8105 49.0195 44.7301 49.3155C44.6596 49.5709 44.5267 49.8393 44.332 50.1211C44.1735 50.3513 43.9783 50.5781 43.7476 50.8018L44.0326 51.4761Z" fill="white"/>
<path d="M46.1377 50.5259L44.5308 47.5963L45.3055 47.178L46.9124 50.1074L46.1377 50.5259Z" fill="white"/>
<path d="M45.5439 47.0735L47.0209 46.1067L47.703 46.5356L46.6857 47.2013L48.1316 49.3755L47.3954 49.8575L45.5439 47.0735Z" fill="white"/>
</g>
<defs>
<radialGradient id="paint0_radial_525_1531" cx="0" cy="0" r="1" gradientUnits="userSpaceOnUse" gradientTransform="translate(35.1976 29.3767) scale(18.738 18.5882)">
<stop stop-color="white"/>
<stop offset="0.202" stop-color="#FDFDFD"/>
<stop offset="0.3768" stop-color="#F1F1F1"/>
<stop offset="0.5414" stop-color="#DFDFDF"/>
<stop offset="0.6999" stop-color="#C7C6C7"/>
<stop offset="0.8526" stop-color="#A6A6A6"/>
<stop offset="1" stop-color="#808081"/>
</radialGradient>
<clipPath id="clip0_525_1531">
<rect width="80" height="65" fill="white"/>
</clipPath>
</defs>
</svg>
