<svg width="122" height="41" viewBox="0 0 122 41" fill="none" xmlns="http://www.w3.org/2000/svg">
<g clip-path="url(#clip0_525_1513)">
<path d="M92.354 16.4579C89.487 15.4263 88.5923 14.8158 88.5923 13.7C88.5923 12.4579 89.5887 11.7211 91.3577 11.7211C92.8013 11.7211 94.245 12.1421 95.3227 12.5842L95.7903 7.19474C94.4687 6.81579 92.8623 6.52105 91.1137 6.52105C85.3187 6.52105 81.5977 9.93158 81.5977 14.4368C81.557 17.3 83.4073 20.0158 88.2467 21.7211C90.9713 22.6684 91.683 23.2579 91.683 24.4789C91.683 25.7211 90.768 26.5 88.572 26.5C86.437 26.5 83.6717 25.5105 82.3093 24.6684L81.0283 30.0579C82.7973 31.0474 85.5017 31.7421 88.5923 31.7421C95.3023 31.7421 98.7183 28.4368 98.7183 23.9105C98.6777 20.3526 96.8273 18.0368 92.354 16.4579ZM109.942 25.6158C107.746 25.6158 107.075 24.2895 107.075 21.3632V0.5L99.9587 2.18421V7.04737H97.2543L96.7663 12.5842H99.979V22.4579C99.979 25.8684 100.65 28.1842 101.992 29.6368C103.131 30.8789 105.083 31.7211 107.421 31.7211C109.475 31.7211 111.183 31.4684 112.138 31.0684L112.098 25.3842C111.569 25.4895 110.857 25.5947 109.942 25.6158ZM107.645 12.6053H112.098V7.04737H107.645V12.6053ZM26.9417 19.5737C26.7993 15.8684 26.6773 11.3842 26.6773 6.9H26.535C25.5793 10.8368 24.278 15.2368 23.0783 18.8368L19.2963 30.8789H13.8267L10.5123 18.9211C9.49567 15.3 8.43833 10.9 7.70633 6.87895H7.625C7.442 11.0263 7.29967 15.8053 7.076 19.6579L6.527 31.3632H0L1.97233 0.521053H11.3257L14.3553 10.8158C15.311 14.3737 16.287 18.2474 16.9783 21.8474H17.1207C17.995 18.2895 19.0523 14.1842 20.069 10.7737L23.3833 0.521053H32.5537L34.2617 31.3632H27.389L26.9417 19.5737ZM65.4327 21.5526C65.6767 24.6684 68.625 26.1421 72.041 26.1421C74.5217 26.1421 76.5143 25.8053 78.507 25.1526L79.4627 30.2474C77.0837 31.2368 74.176 31.7211 71.004 31.7211C63.074 31.7211 58.5397 26.9842 58.5397 19.4053C58.5397 13.2789 62.22 6.5 70.333 6.5C77.897 6.5 80.7437 12.5632 80.7437 18.5632C80.7437 19.8474 80.6013 20.9842 80.4997 21.5316L65.4327 21.5526ZM73.993 16.3947C73.993 14.5632 73.2203 11.5105 69.8857 11.5105C66.8357 11.5105 65.5953 14.3737 65.4123 16.3947H73.993Z" fill="#0089FF"/>
<path d="M117.079 0.542096L122 9.82631L117.079 19.1526H112.098L117.018 9.82631L112.077 0.542096H117.079C117.079 0.521043 117.079 0.521043 117.079 0.542096ZM56.1809 40.5H36.1729V35.3632H56.1809V40.5ZM42.0493 21.5316C42.2933 24.6474 45.2416 26.121 48.6576 26.121C51.1383 26.121 53.1309 25.7842 55.1236 25.1316L56.0792 30.2263C53.7002 31.2158 50.7926 31.7 47.6206 31.7C39.6906 31.7 35.1562 26.9632 35.1562 19.3842C35.1562 13.2579 38.8366 6.47894 46.9496 6.47894C54.5136 6.47894 57.3603 12.5421 57.3603 18.5421C57.3603 19.8263 57.2179 20.9632 57.1162 21.5105H42.0493V21.5316ZM50.6096 16.3737C50.6096 14.5421 49.8369 11.4895 46.5023 11.4895C43.4523 11.4895 42.2119 14.3526 42.0086 16.3737H50.6096Z" fill="#FF0000"/>
</g>
<defs>
<clipPath id="clip0_525_1513">
<rect width="122" height="40" fill="white" transform="translate(0 0.5)"/>
</clipPath>
</defs>
</svg>
