<svg width="192" height="33" viewBox="0 0 192 33" fill="none" xmlns="http://www.w3.org/2000/svg">
<path fill-rule="evenodd" clip-rule="evenodd" d="M39.0666 9.84935C41.558 10.4324 42.088 12.1817 42.3001 21.67L42.3208 22.5744C42.4787 29.4429 42.5319 31.7523 41.4684 32.5249C40.9298 32.9162 40.1046 32.9132 38.8614 32.9087C38.723 32.9082 38.5794 32.9077 38.4305 32.9077C36.4692 32.9077 34.879 32.6426 34.667 32.3246C34.4549 31.9535 34.3489 28.561 34.4019 24.7445C34.4549 20.8749 34.2429 17.1114 33.9779 16.3163L33.3948 14.8321L25.8677 14.9911L18.2876 15.1501L18.0226 23.8964L17.7575 32.6426H14.047H10.3365L10.1775 21.564C10.1245 15.2561 10.2835 10.2734 10.5485 9.90235C11.0256 9.31927 36.4162 9.26626 39.0666 9.84935ZM7.95114 32.9077L7.84512 21.087L7.6861 9.31927H4.34662C1.69624 9.31927 0.848121 9.5313 0.477068 10.2204C0 11.1215 -0.106015 29.6212 0.371054 31.6885C0.636092 32.8016 0.954137 32.9077 4.29362 32.9077H7.95114ZM7.6861 5.60874V2.95836V0.30798H4.34662C0.530076 0.30798 0 0.626019 0 3.01136C0 5.3437 1.00714 5.97979 4.61166 5.76776L7.6861 5.60874ZM51.9474 5.3437C51.7884 3.17039 51.5234 1.10309 51.2584 0.73204C50.8343 0.0959511 44.8974 -0.16909 44.3144 0.41399C44.1553 0.626022 43.9963 7.30498 43.9963 15.2561V29.8332L45.5335 31.3704C47.0708 32.9077 47.1768 32.9077 53.1666 32.9077C59.9516 32.9077 60.6407 32.5896 60.3227 29.6212C60.1639 27.8749 60.1108 27.8719 57.2627 27.7137L57.2627 27.7137L57.2482 27.7129C56.8964 27.6963 56.5679 27.6826 56.2611 27.6699L56.2611 27.6699C54.2638 27.5866 53.1878 27.5418 52.6096 26.9825C51.9345 26.3293 51.938 24.9746 51.9457 22.0378V22.0371V22.0363V22.0355V22.0346V22.0337V22.0327V22.0317V22.0306V22.0294C51.9465 21.7002 51.9474 21.3511 51.9474 20.9809V14.8851L55.0219 14.8321C56.6651 14.7791 58.3084 14.7791 58.6264 14.8321C59.8986 14.9911 60.6407 13.2948 60.1106 11.2806L59.6336 9.37227L55.923 9.31927H52.2125L51.9474 5.3437ZM91.7562 10.1144C93.5054 11.0685 94.3535 13.5069 94.3535 17.6415C94.3535 18.1735 94.3603 18.6603 94.3665 19.1057V19.1064V19.107V19.1076V19.1081V19.1086V19.1091V19.1095V19.1099C94.3927 20.9976 94.4086 22.142 93.8583 22.8401C93.0111 23.9149 90.8217 23.9317 85.2614 23.9742C84.3413 23.9813 83.3288 23.989 82.2148 24.0024L70.7652 24.1614V25.7516V27.3419L81.4727 27.4479C87.4095 27.5009 92.4453 27.7129 92.7633 27.8719C93.4524 28.296 93.4524 30.5753 92.7633 31.9005C92.2332 32.8546 91.4911 32.9077 79.7234 32.9077C65.1994 32.9077 64.0332 32.6426 63.026 29.3031C62.655 27.9779 62.496 24.5325 62.655 19.6558L62.814 12.1287L64.4042 10.8565C65.9945 9.58431 66.1535 9.58431 78.3451 9.58431H78.3452C85.8193 9.58431 91.1201 9.79634 91.7562 10.1144ZM104.319 17.0584C104.372 8.47115 104.213 1.20911 103.948 0.944069C103.259 0.254971 96.9509 0.0959435 96.6859 0.785042C96.5799 1.10309 96.5268 8.41814 96.5798 17.0054L96.7389 32.6426H100.449H104.16L104.319 17.0584ZM114.019 0.944069C114.284 1.20911 114.443 7.83505 114.39 17.0584L114.231 32.6426H110.521H106.81L106.651 17.0054C106.545 4.28355 106.651 1.26212 107.234 0.838055C108.136 0.201962 113.33 0.254971 114.019 0.944069ZM124.303 32.6426V21.246V9.84935L120.963 9.58431C118.79 9.42529 117.412 9.5313 117.094 9.90235C116.829 10.2734 116.67 15.2561 116.723 21.564L116.882 32.6426H120.592H124.303ZM124.303 3.01136V5.60874L121.705 5.76776C117.306 6.0328 116.617 5.66174 116.617 3.01136C116.617 1.79219 116.776 0.626022 116.935 0.41399C117.094 0.254971 118.843 0.201962 120.751 0.30798L124.303 0.467003V3.01136ZM157.168 12.1287L155.683 10.8565C154.199 9.58431 154.199 9.58431 140.947 9.58431H140.947H127.695L127.854 12.0757L128.013 14.62L138.085 14.7791C143.651 14.8321 148.474 14.9911 148.845 15.1501C149.163 15.2561 149.481 16.1042 149.481 17.0054V18.6486L139.039 18.5956C138.596 18.5919 138.169 18.5881 137.757 18.5844C131.238 18.5256 128.553 18.5014 127.45 19.8104C126.677 20.7274 126.681 22.2987 126.687 24.9707C126.688 25.2212 126.688 25.4814 126.688 25.7516C126.688 31.0524 127.112 32.0595 129.498 32.6426C130.134 32.8016 136.654 32.8547 143.916 32.8016L157.168 32.6426V22.4121V12.1287ZM189.714 9.79634C190.085 10.2204 190.297 11.4926 190.191 12.6057L190.032 14.62L179.431 14.7791C173.6 14.8321 168.564 14.9911 168.193 15.0971C167.769 15.2561 167.716 15.8392 167.981 16.8463L168.352 18.3306L178.954 18.6486C184.732 18.8076 189.555 18.9667 189.608 19.0197C190.615 19.8678 191.357 22.8892 191.357 26.0167C191.357 29.5152 191.251 29.9392 189.82 31.3704L188.23 32.9077L174.554 32.8016L160.878 32.6426V30.2573V27.8719L172.01 27.6069L183.141 27.3419V25.7516V24.1614L172.911 23.8964L162.627 23.6313L161.408 22.2001C159.182 19.6558 159.076 13.6129 161.143 11.0685C162.097 9.90236 162.415 9.84935 175.031 9.58431C182.081 9.42529 188.177 9.21325 188.495 9.16025C188.813 9.10724 189.396 9.37228 189.714 9.79634ZM70.8712 15.2561C70.1821 15.8922 70.5001 17.9595 71.3483 18.2776C71.8253 18.4366 75.2708 18.5956 79.0344 18.5956C85.8193 18.5956 85.8723 18.5956 86.1904 17.3234C86.3494 16.5813 86.3494 15.7332 86.1374 15.4682C85.7663 14.8321 71.4543 14.62 70.8712 15.2561ZM135.01 27.1298C134.745 26.8648 134.639 26.0167 134.851 25.2746L135.169 23.8964H142.378H149.534L149.375 25.5926L149.216 27.3419L142.378 27.5009C138.509 27.5539 135.275 27.3949 135.01 27.1298Z" fill="#43D8AB"/>
</svg>
