<svg width="222" height="45" viewBox="0 0 222 45" fill="none" xmlns="http://www.w3.org/2000/svg">
<g clip-path="url(#clip0_525_1519)">
<path d="M24.7193 5.13607C24.8864 5.30471 24.9743 5.49111 24.9743 5.65976C24.9743 6.06806 25.2733 6.38761 25.6603 6.38761C25.8361 6.38761 26.1175 6.46748 26.267 6.56512C26.5484 6.73377 26.5836 6.81366 26.6891 7.47049C26.7595 7.89654 27.0849 8.16283 27.5421 8.16283C27.9555 8.16283 28.2808 8.44686 28.36 8.89067C28.3951 9.05931 28.4039 10.0179 28.3863 11.0298L28.3863 11.0329C28.36 12.8583 28.3598 12.8673 28.1313 13.0891C27.9818 13.24 27.762 13.3376 27.4454 13.3909C26.7155 13.5062 26.6979 13.5595 26.6628 15.0241C26.6364 16.2401 26.6276 16.2934 26.3989 16.5241C26.2407 16.7017 26.0824 16.7727 25.8713 16.7727C25.3261 16.7727 24.9831 17.0744 24.9743 17.5538C24.9743 18.255 24.4203 18.6721 23.796 18.4591C23.3915 18.326 23.2859 18.184 23.2068 17.6336C23.1101 17.0478 22.8375 16.7727 22.3274 16.7727C21.9405 16.7727 21.5448 16.4709 21.5448 16.178C21.5448 14.9531 21.4744 13.8524 21.3865 13.6926C21.2809 13.4974 21.193 13.4619 20.5598 13.3554C20.3488 13.3198 20.1553 13.2133 20.0146 13.0358L19.786 12.7607V10.7191V8.67764L20.041 8.42023C20.2433 8.22496 20.384 8.16283 20.6478 8.16283C21.1754 8.16283 21.4304 7.91429 21.5008 7.32846C21.5799 6.72489 21.7998 6.49411 22.4066 6.39647C22.9782 6.30771 23.1189 6.19233 23.1892 5.73077C23.3123 4.91417 24.1741 4.58575 24.7193 5.13607Z" fill="#D00000"/>
<path d="M14.6768 18.5923C14.8702 18.7609 14.9582 18.9296 15.0022 19.2313C15.0373 19.4799 15.1429 19.7284 15.266 19.8527C15.4506 20.0391 15.5386 20.0568 16.4883 20.0568C17.8601 20.0568 18.1064 20.1988 18.2383 21.0421C18.3086 21.4504 18.6076 21.7344 19.0473 21.8054C19.5134 21.8764 19.7596 22.054 19.8739 22.409C20.0674 22.9948 19.5749 23.6073 18.9154 23.6073C18.5988 23.6073 18.2998 23.9712 18.2119 24.4505C18.1503 24.77 18.0624 24.9476 17.8777 25.0896C17.6579 25.276 17.5348 25.2937 16.6378 25.2937C15.3363 25.2937 15.1077 25.418 14.9934 26.1547C14.9582 26.421 14.8615 26.5985 14.6768 26.7583L14.4042 26.9802H12.3992C10.4294 26.9802 10.3854 26.9713 10.1568 26.776C9.99847 26.6429 9.89294 26.4388 9.84018 26.137C9.74345 25.5955 9.44446 25.2937 9.01356 25.2937C8.58266 25.2937 8.28367 24.9919 8.13418 24.4061C7.99348 23.8469 7.80002 23.6517 7.31636 23.5718C7.13169 23.5451 6.86787 23.4386 6.74476 23.3321C6.5425 23.1812 6.50732 23.0836 6.50732 22.7108C6.50732 22.1516 6.73596 21.8853 7.29877 21.7965C7.71208 21.7344 8.09021 21.4504 8.09021 21.2196C8.09021 21.1397 8.13418 20.9267 8.18694 20.7403C8.29247 20.3586 8.68819 20.0568 9.08391 20.0568C9.46205 20.0568 9.84898 19.6219 9.84898 19.2136C9.84898 18.9651 9.91053 18.823 10.1216 18.6278L10.3942 18.3704H12.3992H14.4042L14.6768 18.5923Z" fill="#D00000"/>
<path d="M37.8397 18.468C38.1035 18.5834 38.341 18.9917 38.341 19.3024C38.341 19.6308 38.7806 20.0568 39.1236 20.0568C39.5281 20.0568 39.9766 20.4918 40.0382 20.9533C40.0997 21.4415 40.3987 21.7433 40.8736 21.8054C41.4012 21.8764 41.6826 22.1871 41.6826 22.693C41.6826 23.1812 41.41 23.4919 40.8912 23.5718C40.3987 23.6517 40.1173 23.9002 40.0557 24.2996C39.9414 24.9564 39.6161 25.2937 39.0884 25.2937C38.7806 25.2937 38.341 25.7375 38.341 26.0482C38.341 26.35 38.1211 26.776 37.9101 26.8914C37.8045 26.9447 36.9427 26.9802 35.7292 26.9802C33.9616 26.9802 33.6978 26.9624 33.5395 26.8204C33.2933 26.6251 33.1526 26.3411 33.1526 26.0482C33.1526 25.9062 33.0471 25.7109 32.8976 25.5511C32.6426 25.2937 32.6338 25.2937 31.5697 25.2937C30.5057 25.2937 30.4969 25.2937 30.2506 25.0363C30.0836 24.8677 29.9692 24.6458 29.9341 24.3972C29.8549 23.9179 29.5999 23.6516 29.1426 23.5806C28.4127 23.4653 28.0522 22.8706 28.3512 22.2936C28.5183 21.9652 28.6678 21.8764 29.169 21.7877C29.5735 21.7255 29.8989 21.4149 29.8989 21.1042C29.8989 20.7758 30.1539 20.332 30.4177 20.1988C30.6112 20.0923 30.9454 20.0568 31.6576 20.0568C32.625 20.0568 32.6426 20.0568 32.8976 19.7994C33.0735 19.6219 33.1526 19.4533 33.1526 19.258C33.1526 19.0538 33.2405 18.8852 33.4516 18.6721L33.7506 18.3704H35.694C36.8988 18.3704 37.7078 18.4059 37.8397 18.468Z" fill="#D00000"/>
<path d="M24.7457 27.1666C24.904 27.3441 24.9743 27.5483 24.9743 27.7613C24.9831 28.2495 25.203 28.4803 25.7482 28.569C26.0296 28.6134 26.2934 28.7199 26.4253 28.8442C26.6188 29.0306 26.6364 29.1016 26.6628 30.3087C26.6979 31.7822 26.7507 31.9064 27.4278 32.0041C28.36 32.1372 28.4303 32.3325 28.3863 34.8533L28.3863 34.8556C28.3512 37.0457 28.3509 37.0635 27.5158 37.1966C26.9266 37.2942 26.7507 37.4718 26.654 38.0665C26.5572 38.6612 26.3638 38.8564 25.7658 38.9541C25.2206 39.0428 24.9743 39.2736 24.9743 39.6908C24.9743 39.8594 24.8864 40.0458 24.7193 40.2145C24.3588 40.5784 23.8311 40.5784 23.4706 40.2145C23.3299 40.0725 23.2156 39.8683 23.2156 39.7618C23.2156 39.5044 22.9869 39.0872 22.8199 39.0162C22.7407 38.9896 22.5385 38.963 22.3714 38.963C21.9581 38.963 21.5623 38.5813 21.5096 38.1463C21.492 37.9688 21.448 37.738 21.4128 37.6315C21.3425 37.4008 20.9292 37.1877 20.5423 37.1877C20.3136 37.1877 20.1905 37.1256 20.0146 36.9126L19.786 36.6374V34.6137V32.5899L20.0146 32.3147C20.1729 32.1195 20.3224 32.0396 20.4983 32.0396C20.639 32.0396 20.894 31.9863 21.0611 31.9153C21.4744 31.7378 21.5096 31.5869 21.5272 29.9271C21.5448 29.0572 21.5536 29.0039 21.7734 28.7998C21.9405 28.64 22.1076 28.5779 22.3538 28.5779C22.8462 28.5779 23.2156 28.1962 23.2156 27.6903C23.2156 27.1577 23.5058 26.8914 24.0862 26.8914C24.4643 26.8914 24.5522 26.9269 24.7457 27.1666Z" fill="#D00000"/>
<path d="M24.8249 20.6249C26.0296 21.0598 26.5836 22.4978 25.9944 23.6694C25.1326 25.4002 22.6352 25.1783 22.0196 23.3144C21.4744 21.6545 23.1716 20.0302 24.8249 20.6249Z" fill="#D00000"/>
<path d="M32.8888 13.5329C33.0295 13.6039 33.1878 13.7459 33.2405 13.8347C33.2845 13.9323 33.3285 14.5448 33.3285 15.1927V16.3821L33.0735 16.6306C32.9064 16.7904 32.6865 16.8881 32.4403 16.9236C31.9566 16.9857 31.6928 17.2165 31.6225 17.6514C31.5961 17.8378 31.4994 18.0863 31.4026 18.2017C31.2443 18.4059 31.1652 18.4147 30.0748 18.4502C28.8612 18.4769 28.4743 18.4059 28.316 18.0952C28.0698 17.6336 28.1577 15.6543 28.4303 15.3702C28.5095 15.2992 28.7733 15.2105 29.0283 15.1661C29.6087 15.0773 29.8197 14.8732 29.8725 14.3406C29.9165 14.0122 29.9868 13.879 30.2243 13.666C30.5145 13.3997 30.532 13.3997 31.5785 13.3997C32.3436 13.3997 32.7041 13.4352 32.8888 13.5329Z" fill="#435D74"/>
<path d="M31.1564 26.9447C31.3675 27.0246 31.5697 27.4418 31.5697 27.7879C31.5697 28.1341 31.8687 28.4891 32.1589 28.4891C32.4755 28.4891 32.9328 28.711 33.0998 28.9418C33.2142 29.1105 33.2405 29.3856 33.2405 30.3354V31.5248L32.9855 31.7822L32.7305 32.0396H31.5257H30.321L30.0748 31.7733C29.9077 31.5958 29.8197 31.3827 29.7934 31.1076C29.7318 30.5928 29.5471 30.3886 29.0723 30.3176C28.8348 30.2821 28.615 30.1756 28.4919 30.0425C28.2984 29.8294 28.2808 29.7495 28.2808 28.569L28.272 27.3264L28.571 27.0512L28.8788 26.776L29.9341 26.8293C30.5232 26.8559 31.0685 26.9092 31.1564 26.9447Z" fill="#435D74"/>
<path d="M34.5508 32.0751C35.0433 32.3325 35.1312 32.9538 34.7443 33.3887C34.0672 34.1521 32.8712 33.3 33.3636 32.4035C33.5923 31.9863 34.1023 31.8443 34.5508 32.0751Z" fill="#435D74"/>
<path d="M19.6981 27.1311L19.9795 27.3707L19.9443 28.6045C19.9091 30.0247 19.8651 30.1135 19.1089 30.2289C18.5724 30.3087 18.291 30.5839 18.291 31.0366C18.291 31.2851 18.2207 31.436 18.0096 31.6579L17.7282 31.9508H16.5675C15.4418 31.9508 15.3891 31.9419 15.1341 31.72L14.8615 31.4893V30.2289V28.9684L15.1077 28.7377C15.2572 28.5956 15.4858 28.4891 15.7408 28.4625C16.2157 28.4004 16.4795 28.1341 16.5587 27.6193C16.6554 27.0157 16.928 26.9181 18.4405 26.9003C19.3815 26.8914 19.4342 26.9003 19.6981 27.1311Z" fill="#435D74"/>
<path d="M14.5976 32.1905C14.9494 32.5189 15.0109 32.8828 14.7735 33.2645C14.5449 33.6462 14.2107 33.7704 13.7974 33.6462C13.1642 33.4509 12.9796 32.6875 13.4456 32.2082C13.7886 31.8621 14.2283 31.8532 14.5976 32.1905Z" fill="#435D74"/>
<path d="M18.124 13.6483C18.3086 13.8613 18.379 14.0211 18.379 14.2696C18.379 14.6956 18.6252 14.9531 19.1616 15.0773C19.3727 15.1217 19.6013 15.2193 19.6717 15.2903C19.8475 15.4679 19.997 16.817 19.9179 17.5271C19.8651 18.0242 19.8212 18.1307 19.5837 18.3349C19.3023 18.5745 19.3023 18.5745 18.1679 18.5213C17.0599 18.4769 17.0159 18.468 16.8225 18.2461C16.6818 18.0774 16.6202 17.8911 16.6202 17.6514C16.6202 17.181 16.3212 16.8614 15.8815 16.8614C15.6617 16.8614 15.4858 16.7815 15.2572 16.5863L14.9494 16.3111V15.0951C14.9494 13.3465 14.9934 13.3021 16.7345 13.3376L17.8689 13.3554L18.124 13.6483Z" fill="#435D74"/>
<path d="M28.0258 25.4269C28.5095 25.9861 28.061 26.8914 27.3047 26.8914C27.1816 26.8914 26.9617 26.776 26.8035 26.634C26.566 26.421 26.5133 26.3145 26.5133 26.0038C26.5133 25.6932 26.566 25.5866 26.8123 25.3647C27.0673 25.134 27.1552 25.0985 27.4718 25.1428C27.7092 25.1783 27.9027 25.276 28.0258 25.4269Z" fill="#435D74"/>
<path d="M21.2018 18.6011C21.5184 18.7609 21.7206 19.1958 21.6591 19.5509C21.5887 19.8971 21.1578 20.2343 20.7797 20.2343C19.8827 20.2343 19.6453 18.8941 20.4895 18.5568C20.7973 18.4325 20.9028 18.4414 21.2018 18.6011Z" fill="#435D74"/>
<path d="M27.9906 18.8142C28.3248 19.187 28.316 19.6308 27.973 19.9769C27.6213 20.3231 27.12 20.3409 26.7859 19.9947C26.4605 19.6663 26.4077 19.3734 26.61 19.0006C26.9266 18.397 27.5333 18.3171 27.9906 18.8142Z" fill="#435D74"/>
<path d="M34.7882 12.0062C35.2455 12.5565 34.8586 13.3997 34.1551 13.3997C33.7506 13.3997 33.5395 13.2755 33.3636 12.9382C33.0998 12.4322 33.3549 11.873 33.9089 11.7221C34.287 11.6245 34.5332 11.7044 34.7882 12.0062Z" fill="#435D74"/>
<path d="M21.2721 25.2582C21.3865 25.3381 21.536 25.5423 21.6063 25.7109C21.7118 25.9861 21.7118 26.0482 21.5711 26.3411C21.149 27.211 19.9619 26.9536 19.9619 25.9861C19.9619 25.3026 20.7269 24.8766 21.2721 25.2582Z" fill="#435D74"/>
<path d="M14.3778 11.7488C14.967 11.9973 15.0901 12.6985 14.624 13.169C14.1228 13.6749 13.1906 13.2932 13.1906 12.5743C13.1906 12.237 13.4544 11.8287 13.7534 11.7133C14.0085 11.6068 14.0348 11.6068 14.3778 11.7488Z" fill="#435D74"/>
</g>
<path d="M66.561 15.2143V18.839H64.3584H62.1558V17.6098C62.1558 16.0653 61.6209 15.624 59.8903 15.7501L58.5373 15.8447L58.4429 25.7102L58.38 35.5757L54.3524 35.4812L50.3563 35.3866L50.2934 25.7732C50.2305 20.5095 50.1361 16.0023 50.0731 15.7816C49.9787 15.561 49.6012 15.3719 49.255 15.3719C48.6887 15.3719 48.6257 15.1828 48.6257 13.4807V11.5896H57.5934H66.561V15.2143Z" fill="#D00000"/>
<path d="M100.701 12.283C101.079 14.0796 104.949 34.8823 104.949 35.2605C104.949 35.4181 103.344 35.5442 101.236 35.5442H97.5229L96.0126 27.4123C95.1945 22.968 94.4079 19.1857 94.2505 19.0596C93.9359 18.7129 93.9044 18.902 92.5199 27.3492C91.9221 31.0685 91.3557 34.441 91.2613 34.8193C91.104 35.4812 90.9152 35.5442 89.0588 35.5442H87.045L87.1708 34.6617C87.9575 30.5011 89.8769 18.7129 90.0342 17.3891C90.2544 15.7186 90.223 15.6871 89.4049 15.6871C88.6182 15.6871 88.5868 15.6556 88.5868 13.6383V11.5896H94.5652C100.481 11.5896 100.544 11.5896 100.701 12.283Z" fill="#D00000"/>
<path d="M115.647 16.6327C115.647 19.4064 115.773 21.6757 115.899 21.6757C116.056 21.6757 116.937 19.4379 117.913 16.6957L119.675 11.7472L123.954 11.6526L128.233 11.5581L128.17 23.4723L128.076 35.3866L124.394 35.4812L120.681 35.5757V30.1859C120.681 22.9995 120.335 22.9996 118.07 30.0914L116.371 35.3866L112.406 35.4812L108.41 35.5757V26.2776C108.41 21.1714 108.316 16.7587 108.221 16.4751C108.095 16.1914 107.686 15.8132 107.277 15.6556C106.585 15.4034 106.522 15.1828 106.522 13.4807V11.5896H111.085H115.647V16.6327Z" fill="#D00000"/>
<path d="M138.9 14.2057C138.931 18.8075 139.781 21.6757 141.291 22.3692C142.928 23.0941 143.022 22.7789 143.022 16.9479V11.5896H147.584H152.147V13.6068C152.147 15.4664 152.084 15.6556 151.455 15.7501L150.731 15.8447L150.637 25.6787L150.574 35.5442H146.798H143.022V32.2977C143.022 30.1859 142.896 28.9252 142.644 28.673C142.424 28.4524 141.512 28.2948 140.599 28.2948C136.855 28.2948 133.425 26.0569 131.82 22.5268C131.002 20.7302 130.908 20.1943 130.813 16.0653L130.687 11.5896H134.778H138.837L138.9 14.2057Z" fill="#D00000"/>
<path d="M163.16 16.6327C163.16 19.4064 163.286 21.6757 163.443 21.6757C163.569 21.6757 164.481 19.4379 165.425 16.6957L167.156 11.7472L171.435 11.6526L175.746 11.5581V23.5669V35.5442H171.97H168.194V30.1859C168.194 23.0311 167.848 23.0311 165.614 30.0914L163.915 35.3866L159.919 35.4812L155.923 35.5757V26.246C155.923 16.9163 155.797 15.6871 154.821 15.6871C154.444 15.6871 154.349 15.2143 154.349 13.6383V11.5896H158.755H163.16V16.6327Z" fill="#D00000"/>
<path d="M188.301 15.4349C188.301 17.5467 188.395 19.3118 188.458 19.3748C188.804 19.7531 191.227 19.564 191.479 19.1542C191.667 18.902 191.793 17.0739 191.793 15.1197V11.5896H195.726H199.66V23.5669V35.5442H195.726H191.793V30.0284V24.5125L190.975 24.1973C189.937 23.7875 189.496 23.7875 188.867 24.2603C188.458 24.607 188.364 25.5211 188.269 30.0284L188.175 35.3866L184.179 35.4812L180.151 35.5757L180.088 25.7102L179.994 15.8447L179.301 15.7501C178.641 15.6556 178.578 15.4664 178.578 13.6068V11.5896H183.423H188.238L188.301 15.4349Z" fill="#D00000"/>
<path d="M217.689 23.1887C218.853 29.5556 219.829 34.9454 219.797 35.1345C219.797 35.4497 218.853 35.5442 216.179 35.5442C213.536 35.5442 212.497 35.4497 212.435 35.1345C212.34 34.9454 212.12 33.9052 211.868 32.8651L211.459 30.9739L209.319 30.8794C207.306 30.7848 207.18 30.8163 206.897 31.5728C206.739 32.0141 206.519 33.0857 206.393 33.9683L206.173 35.5442H204.191C202.397 35.5442 202.177 35.4812 202.177 34.9138C202.177 34.5671 202.806 30.5642 203.593 26.0254C205.386 15.3089 205.355 15.9392 204.379 15.6871C203.656 15.5295 203.593 15.3404 203.498 13.5438L203.404 11.5896H209.477H215.55L217.689 23.1887Z" fill="#D00000"/>
<path d="M84.7795 29.461C85.3144 32.2662 85.7549 34.7878 85.7549 35.0714C85.7549 35.5127 85.2829 35.5442 82.0734 35.4812L78.4235 35.3866L77.92 33.1803L77.4166 30.9739L75.4028 30.8794C74.3015 30.8163 73.2631 30.9109 73.0743 31.1C72.917 31.2576 72.6024 32.2977 72.4136 33.4009L72.0674 35.3866L70.0851 35.4812L68.1343 35.5757L68.1657 34.6932C68.1657 34.2204 68.8265 29.8708 69.6446 25.0798C70.4627 20.2889 71.092 16.2229 71.0291 16.0338C70.9662 15.8447 70.5571 15.6871 70.1481 15.6871C69.4243 15.6871 69.3929 15.5925 69.3929 13.6383V11.5896L75.4342 11.6526L81.4756 11.7472L81.7273 13.0079C82.0025 14.5514 83.2642 21.3253 84.3341 27.0695L84.7795 29.461Z" fill="#D00000"/>
<path d="M74.2701 21.1714C73.9869 22.4637 73.7351 24.1973 73.7037 25.0483L73.6407 26.5612H75.0567H76.4726L76.3782 25.1429C76.2838 23.2202 75.3399 18.839 75.0252 18.839C74.8994 18.839 74.5532 19.8791 74.2701 21.1714Z" fill="#ECECEC"/>
<path d="M208.344 21.1084C208.061 22.3692 207.809 24.1028 207.746 24.9853L207.683 26.5613L209.036 26.6558C209.98 26.7189 210.421 26.6243 210.547 26.3091C210.83 25.5526 209.54 18.839 209.099 18.839C208.942 18.839 208.596 19.8792 208.344 21.1084Z" fill="#ECECEC"/>
<defs>
<clipPath id="clip0_525_1519">
<rect width="49.3333" height="38.0172" fill="white" transform="matrix(1 0 0 -1 0 41.1207)"/>
</clipPath>
</defs>
</svg>
