<svg width="308" height="61" viewBox="0 0 308 61" fill="none" xmlns="http://www.w3.org/2000/svg">
<g clip-path="url(#clip0_525_1617)">
<path fill-rule="evenodd" clip-rule="evenodd" d="M104.438 12.3421L101.443 29.1896V30.5C101.443 32.9335 103.315 34.8055 106.123 34.8055C108.556 34.8055 110.99 33.3079 111.364 30.3128L114.547 12.3421H126.714L121.098 44.1652C119.226 54.8354 111.739 60.4512 102.379 60.4512C96.0142 60.4512 89.2752 58.0177 84.5953 52.589L91.5215 44.3524L93.0191 45.6628C95.827 47.9091 98.6349 49.5939 102.379 49.5939C105.748 49.5939 108.182 48.0963 109.118 43.978V42.6677C106.746 44.2822 103.937 45.1315 101.068 45.1012C93.5807 45.1012 88.9008 39.8597 88.9008 33.3079L89.2752 29.564L92.2703 12.3421H104.438ZM42.6636 12.3421C52.5849 12.3421 58.5752 19.4555 58.5752 27.5049C58.5752 30.1256 57.8264 32.7463 57.0776 34.6183H34.9886C36.1118 37.4262 38.7325 38.5494 42.4764 38.5494C45.7726 38.5151 49.0014 37.6111 51.8361 35.9286L55.58 43.978C51.4476 46.9948 46.4695 48.6323 41.3532 48.6579C30.1215 48.6579 22.8209 41.3573 22.8209 31.6232C22.8209 20.953 31.6191 12.3421 42.6636 12.3421ZM18.3282 0.548767L16.4563 13.0908L14.5843 23.1994L12.8996 32.9335V34.4311C12.8996 37.4262 15.3331 38.175 19.6386 38.175H22.4465L20.5746 48.2835L16.2691 48.6579C9.53004 48.6579 0.544678 46.786 0.544678 36.6774C0.544678 35.5543 0.544678 34.2439 0.919068 32.9335L2.79102 23.1994L6.16053 0.548767H18.3282ZM80.8514 0.548767L78.9794 12.3421H88.152L86.2801 22.2634H76.9203L75.0483 32.9335V34.4311C75.0483 37.4262 77.4819 38.175 81.9746 38.175H84.5953L82.7233 48.2835L78.4179 48.6579C71.6788 48.6579 62.6935 46.786 62.6935 36.6774L62.8807 32.9335L64.7526 22.2634H59.5111L61.1959 12.3421H66.6246L68.8709 0.548767H80.8514ZM42.102 21.7018C39.1069 21.7018 36.4861 23.5738 35.363 26.9433H47.5307C47.5307 23.5738 44.9099 21.7018 41.9148 21.7018H42.102Z" fill="black"/>
<path fill-rule="evenodd" clip-rule="evenodd" d="M260.184 12.3421C269.357 12.3421 275.16 19.8299 275.16 28.628C275.16 37.0518 269.544 48.6579 256.44 48.6579C251.76 48.6579 248.391 47.1604 246.519 44.7268L243.711 60.4512H231.731L239.967 13.0908H251.012L250.45 16.4604C252.696 13.6524 256.066 12.3421 260.184 12.3421ZM215.445 12.3421C225.928 12.3421 233.79 19.8299 233.79 29.7512C233.79 40.6085 224.43 48.4707 213.573 48.4707C203.09 48.4707 195.415 40.9829 195.415 31.2488C195.415 20.5786 204.774 12.5293 215.445 12.5293V12.3421ZM292.569 12.3421C298.372 12.3421 303.052 14.5884 306.234 18.5195L299.495 25.2585C298.662 24.2508 297.637 23.4178 296.481 22.8074C295.324 22.197 294.058 21.8213 292.756 21.7018C291.446 21.7018 290.884 22.2634 290.884 23.1994C290.884 24.1354 291.446 24.5097 292.756 25.0713L295.751 26.1945C301.367 28.4408 305.111 31.436 305.111 36.4902C305.111 41.5445 301.367 48.6579 290.884 48.6579C287.792 48.7838 284.72 48.1089 281.965 46.6987C279.21 45.2884 276.866 43.1907 275.16 40.6085L282.273 34.0567C284.894 37.0518 287.515 39.2982 291.071 39.2982C292.569 39.2982 293.879 38.7366 293.879 37.6134C293.879 36.8646 293.318 36.303 292.007 35.7414L288.825 34.6183C283.209 32.3719 279.465 29.3768 279.465 23.5738C279.465 16.6475 285.081 12.3421 292.569 12.3421ZM175.572 0.735962L172.577 15.8988C174.947 14.1188 177.851 13.1949 180.814 13.278C188.114 13.278 192.981 17.9579 192.981 25.0713L192.794 28.2536L189.05 48.6579H177.07L180.439 29.9384V28.0665C180.439 25.2585 178.567 23.5738 175.759 23.5738C173.139 23.5738 171.079 25.0713 170.518 28.4408L166.961 48.6579H154.793L163.404 0.548767H175.572V0.735962ZM141.503 12.3421C147.306 12.3421 151.985 14.5884 155.355 18.5195L148.616 25.2585C147.761 24.2293 146.707 23.3836 145.516 22.7723C144.326 22.1611 143.024 21.797 141.69 21.7018C140.379 21.7018 139.818 22.2634 139.818 23.1994C139.818 24.1354 140.379 24.5097 141.69 25.0713L144.872 26.1945C150.488 28.4408 154.232 31.436 154.232 36.4902C154.232 41.5445 150.488 48.6579 140.005 48.6579C136.882 48.8167 133.771 48.1577 130.98 46.746C128.19 45.3343 125.816 43.2187 124.093 40.6085L131.394 34.2439C134.015 37.239 136.635 39.4854 140.192 39.4854C141.69 39.4854 143.187 38.9238 143.187 37.8006C143.187 37.0518 142.439 36.4902 141.315 35.9286L137.946 34.8055C132.33 32.5591 128.586 29.564 128.586 23.761C128.586 16.8347 134.202 12.5293 141.69 12.5293L141.503 12.3421ZM256.253 23.1994C254.267 23.1994 252.363 23.9883 250.958 25.3925C249.554 26.7967 248.765 28.7013 248.765 30.6872C248.765 34.9927 251.573 37.8006 255.504 37.8006C259.623 37.8006 262.805 34.2439 262.805 29.9384C262.805 25.8201 260.184 23.1994 256.253 23.1994ZM215.07 23.1994C210.952 23.1994 207.77 26.5689 207.582 31.0616C207.582 34.9927 210.39 37.8006 214.134 37.8006C216.087 37.7517 217.944 36.9413 219.308 35.5424C220.672 34.1434 221.435 32.2667 221.435 30.3128C221.435 26.0073 218.627 23.1994 215.07 23.1994Z" fill="#FCD31B"/>
</g>
<defs>
<clipPath id="clip0_525_1617">
<rect width="307" height="59.9024" fill="white" transform="translate(0.357422 0.548767)"/>
</clipPath>
</defs>
</svg>
