<svg width="106" height="61" viewBox="0 0 106 61" fill="none" xmlns="http://www.w3.org/2000/svg">
<g clip-path="url(#clip0_525_1621)">
<path fill-rule="evenodd" clip-rule="evenodd" d="M84.4512 0.42189V45.6499H73.5925V2.6833L84.4512 0.42189ZM53.5343 49.9362C56.5329 49.9362 58.9636 52.3185 58.9636 55.2572C58.9636 58.1958 56.5329 60.5781 53.5343 60.5781C50.5359 60.5781 48.105 58.1958 48.105 55.2572C48.105 52.3185 50.5359 49.9362 53.5343 49.9362ZM53.5343 13.266C62.7793 13.266 70.2899 20.612 70.2899 29.6871C70.2899 38.7623 62.7792 46.1081 53.5343 46.1081C44.2744 46.1081 36.7789 38.7623 36.7789 29.6871C36.7789 20.612 44.2894 13.266 53.5343 13.266ZM53.5343 35.008C56.5355 35.008 58.9636 32.6283 58.9636 29.6871C58.9636 26.7458 56.5355 24.3662 53.5343 24.3662C50.5331 24.3662 48.105 26.7458 48.105 29.6871C48.105 32.6283 50.5331 35.008 53.5343 35.008ZM19.3751 35.008C21.2451 35.008 22.7684 33.5152 22.7684 31.6824C22.7684 29.8497 21.2451 28.3568 19.3751 28.3568H11.2311V35.008H19.3751ZM11.2311 11.0638V17.715H17.2636C19.1337 17.715 20.657 16.2221 20.657 14.3894C20.657 12.5566 19.1337 11.0638 17.2636 11.0638H11.2311ZM29.3739 21.7352C31.9982 24.2774 33.6269 27.7952 33.6118 31.6824C33.6118 39.3979 27.2326 45.6499 19.36 45.6499H0.357422V0.421875H17.2486C25.1211 0.421875 31.5004 6.67399 31.5004 14.3894C31.5004 17.0794 30.7313 19.6069 29.3739 21.7352ZM104.962 24.514H99.5477V32.8649C99.5477 35.3924 100.377 37.2546 102.549 37.2546C103.951 37.2546 104.977 36.9442 104.977 36.9442V44.7779C104.977 44.7779 102.73 46.1081 99.6833 46.1081H99.5477C99.4118 46.1081 99.2912 46.0934 99.1554 46.0934H99.0498C98.9896 46.0934 98.9141 46.0785 98.8538 46.0785C92.791 45.7681 88.6738 42.0286 88.6738 35.5402V8.00422L99.5325 5.74282V13.872H104.962V24.514Z" fill="#00D770"/>
</g>
<defs>
<clipPath id="clip0_525_1621">
<rect width="105" height="60.1562" fill="white" transform="translate(0.357422 0.421875)"/>
</clipPath>
</defs>
</svg>
