<svg width="151" height="152" viewBox="0 0 151 152" fill="none" xmlns="http://www.w3.org/2000/svg">
<path d="M119.87 52.86L99.2402 64.22L100.272 91L120.386 80.5L119.87 52.86Z" fill="#C11515"/>
<path d="M34.2559 27.1744L99.2402 64.22L119.87 52.86L53.3386 16.1318L34.2559 27.1744Z" fill="#EC4040"/>
<path d="M9.5 111.5L76.0315 149L140.5 111.5V41.5L119.87 52.86L120.386 80.5L100.272 91L99.2402 64.22L34.2559 27.1744L9.5 41.5V76.5V111.5Z" fill="white"/>
<path d="M140.5 41.5L76.0315 3L53.3386 16.1318L119.87 52.86L140.5 41.5Z" fill="white"/>
<path d="M76.0315 149L9.5 111.5V76.5V41.5M76.0315 149L140.5 111.5V41.5M76.0315 149V77M140.5 41.5L76.0315 3L53.3386 16.1318M140.5 41.5L119.87 52.86M9.5 41.5L34.2559 27.1744M9.5 41.5L56.5 67M76.0315 77L90 70M76.0315 77L66.5 72M34.2559 27.1744L99.2402 64.22M34.2559 27.1744L53.3386 16.1318M99.2402 64.22L119.87 52.86M99.2402 64.22L100.272 91L120.386 80.5L119.87 52.86M119.87 52.86L53.3386 16.1318M15.5 89L38 100M15.5 101.5L29.5 108" stroke="black" stroke-width="5" stroke-linecap="round" stroke-linejoin="round"/>
</svg>
