<svg width="151" height="150" viewBox="0 0 151 150" fill="none" xmlns="http://www.w3.org/2000/svg">
<g clip-path="url(#clip0_651_362)">
<path d="M136.412 11.0117C131.675 13.3645 122.411 17.9453 115.801 21.2406C104.574 26.8221 99.1879 29.4838 72.7193 42.5672C66.9597 45.3962 61.2087 48.2578 59.9516 48.8999C57.7456 50.0337 47.0623 55.2991 27.1803 65.1283C21.9483 67.7149 14.745 71.2696 11.1843 73.071C7.64769 74.8314 4.2327 76.5251 3.61616 76.8256C2.99963 77.126 2.31233 77.6888 2.08033 78.1326C1.52015 79.1847 1.9764 80.8071 2.96031 81.386C3.37028 81.6272 8.46983 82.9417 14.2707 84.282C26.0604 87.0178 43.1122 91.0257 49.1421 92.4454C51.332 92.9877 53.1473 93.5583 53.1897 93.7214C53.2829 94.0802 58.4985 105.466 64.8616 119.13C67.2851 124.314 69.9176 130.035 70.7344 131.842C72.3594 135.423 73.117 136.2 74.613 135.809C75.3285 135.622 78.8133 131.925 87.8904 121.68L100.257 107.789L103.365 108.788C105.106 109.343 108.41 110.43 110.701 111.225C125.316 116.148 135.825 119.567 136.387 119.594C137.634 119.582 138.499 118.764 138.794 117.363C138.95 116.625 139.275 113.998 139.535 111.526C140.335 103.375 141.289 93.5465 141.943 87.1057C142.291 83.6357 142.741 78.8157 142.978 76.3851C143.19 73.9957 143.782 67.8498 144.293 62.7348C144.838 57.6114 145.406 51.6456 145.613 49.5015C145.779 47.3332 146.223 42.7586 146.58 39.3212C146.938 35.8838 147.447 30.4909 147.774 27.34C148.069 24.1975 148.649 18.5423 149.027 14.7858C149.746 7.52678 149.632 6.68582 147.891 6.26985C146.739 5.97883 145.578 6.45641 136.412 11.0117ZM130.249 20.042C130.283 20.1724 123.618 26.199 110.14 38.2209C104.274 43.4464 86.2966 59.5356 71.3977 72.9043C67.1394 76.6994 61.4754 81.7676 58.7842 84.1081L53.9603 88.3994L51.5907 87.8344C46.6552 86.6163 28.2065 82.3117 20.5267 80.5569C16.0987 79.5545 12.437 78.5609 12.3946 78.3978C12.3437 78.202 15.5467 76.4941 19.4566 74.5665C28.8913 69.9758 46.9561 61.0396 49.8677 59.5471C51.1248 58.905 56.8759 56.0434 62.6354 53.2144C99.9981 34.741 115.508 27.0647 122.475 23.5369C128.461 20.5095 130.173 19.7484 130.249 20.042ZM143.323 20.7701C142.596 27.9966 141.432 39.6913 141.238 42.285C141.09 43.8562 140.76 47.5304 140.455 50.5012C140.142 53.4395 139.632 58.6934 139.274 62.1308C138.95 65.5597 138.312 71.9268 137.906 76.2476C135.234 103.524 134.236 113.051 134.076 113.371C133.98 113.536 133.032 113.365 132.002 113.007C130.93 112.626 128.378 111.76 126.285 111.053C87.8542 98.2814 80.0927 95.6771 80.0503 95.514C80.0418 95.4814 81.3784 93.8084 82.9724 91.7894C86.7982 87.132 89.0286 84.3545 92.1204 80.4811C93.4811 78.767 98.6915 72.3543 103.693 66.2053C113.839 53.6607 115.37 51.7977 118.945 47.3799C120.306 45.6658 124.171 40.8935 127.489 36.8216C130.831 32.7086 135.711 26.6262 138.393 23.3129C141.066 19.9669 143.347 17.3851 143.454 17.5312C143.57 17.7099 143.495 19.1578 143.323 20.7701ZM123.246 33.8552C122.973 34.2749 120.042 37.9668 116.7 42.0799C113.39 46.1844 109.54 50.8829 108.236 52.5474C106.891 54.1878 104.685 56.9241 103.372 58.556C102.036 60.229 95.964 67.7377 89.8837 75.2137C73.48 95.4895 73.2381 95.7617 73.1586 96.7927C73.0084 98.0859 72.4253 110.813 72.2541 116.571C72.1983 119.163 72.0818 121.388 72.0012 121.479C71.7607 121.89 71.0908 120.915 70.4139 119.246C70.0296 118.302 68.9204 115.77 67.9044 113.597C62.1743 101.301 58.9257 94.2774 58.4255 93.1541L57.8744 91.8351L62.1723 87.9252C64.5312 85.776 70.2843 80.6497 74.9385 76.5072C79.5927 72.3648 87.1475 65.6181 91.7042 61.5011C96.2608 57.3842 104.518 50.0009 110.021 45.1142C115.524 40.2275 120.735 35.5563 121.567 34.7467C123.287 33.0781 123.96 32.728 123.246 33.8552ZM86.7783 103.23C91.1539 104.699 94.8099 105.938 94.8509 105.962C94.9329 106.01 91.0563 110.472 86.2518 115.908C81.4389 121.311 77.3742 125.717 77.2428 125.612C77.1198 125.54 77.1731 121.869 77.3411 117.436C77.5501 113.027 77.7225 108.21 77.7653 106.77C77.8655 102.076 77.9832 100.792 78.406 100.681C78.6336 100.622 82.3702 101.77 86.7783 103.23Z" fill="black"/>
<path d="M143.323 20.7701C142.596 27.9966 141.432 39.6913 141.238 42.285C141.09 43.8562 140.76 47.5304 140.455 50.5012C140.142 53.4395 139.632 58.6934 139.274 62.1308C138.95 65.5597 138.312 71.9268 137.906 76.2476C135.234 103.524 134.236 113.051 134.076 113.371C133.98 113.536 133.032 113.365 132.002 113.007C130.93 112.626 128.378 111.76 126.285 111.053C87.8542 98.2814 80.0927 95.6771 80.0503 95.514C80.0418 95.4814 81.3784 93.8084 82.9724 91.7894C86.7982 87.132 89.0286 84.3545 92.1204 80.4811C93.4811 78.767 98.6915 72.3543 103.693 66.2053C113.839 53.6607 115.37 51.7977 118.945 47.3799C120.306 45.6658 124.171 40.8935 127.489 36.8216C130.831 32.7086 135.711 26.6262 138.393 23.3129C141.066 19.9669 143.347 17.3851 143.454 17.5312C143.57 17.7099 143.495 19.1578 143.323 20.7701Z" fill="#C11515"/>
<path d="M130.249 20.042C130.283 20.1724 123.618 26.199 110.14 38.2209C104.274 43.4464 86.2966 59.5356 71.3977 72.9043C67.1394 76.6994 61.4754 81.7676 58.7842 84.1081L53.9603 88.3994L51.5907 87.8344C46.6552 86.6163 28.2065 82.3117 20.5267 80.5569C16.0987 79.5545 12.437 78.5609 12.3946 78.3978C12.3437 78.202 15.5467 76.4941 19.4566 74.5665C28.8913 69.9758 46.9561 61.0396 49.8677 59.5471C51.1248 58.905 56.8759 56.0434 62.6354 53.2144C99.9981 34.741 115.508 27.0647 122.475 23.5369C128.461 20.5095 130.173 19.7484 130.249 20.042Z" fill="#C11515"/>
<path d="M123.246 33.8552C122.973 34.2749 120.042 37.9668 116.7 42.0799C113.39 46.1844 109.54 50.8829 108.236 52.5474C106.891 54.1878 104.685 56.9241 103.372 58.556C102.036 60.229 95.964 67.7377 89.8837 75.2137C73.48 95.4895 73.2381 95.7617 73.1586 96.7927C73.0084 98.0859 72.4253 110.813 72.2541 116.571C72.1983 119.163 72.0818 121.388 72.0012 121.479C71.7607 121.89 71.0908 120.915 70.4139 119.246C70.0296 118.302 68.9204 115.77 67.9044 113.597C62.1743 101.301 58.9257 94.2774 58.4255 93.1541L57.8744 91.8351L62.1723 87.9252C64.5312 85.776 70.2843 80.6497 74.9385 76.5072C79.5927 72.3648 87.1475 65.6181 91.7042 61.5011C96.2608 57.3842 104.518 50.0009 110.021 45.1142C115.524 40.2275 120.735 35.5563 121.567 34.7467C123.287 33.0781 123.96 32.728 123.246 33.8552Z" fill="white"/>
<path d="M86.7783 103.23C91.1539 104.699 94.8099 105.938 94.8509 105.962C94.9329 106.01 91.0563 110.472 86.2518 115.908C81.4389 121.311 77.3742 125.717 77.2428 125.612C77.1198 125.54 77.1731 121.869 77.3411 117.436C77.5501 113.027 77.7225 108.21 77.7653 106.77C77.8655 102.076 77.9832 100.792 78.406 100.681C78.6336 100.622 82.3702 101.77 86.7783 103.23Z" fill="#ECECEC"/>
<g filter="url(#filter0_f_651_362)">
<rect x="129.382" y="63.871" width="4.83871" height="30.9677" rx="2.41936" transform="rotate(5.69983 129.382 63.871)" fill="white"/>
</g>
</g>
<defs>
<filter id="filter0_f_651_362" x="125.735" y="63.2991" width="9.03411" height="32.4389" filterUnits="userSpaceOnUse" color-interpolation-filters="sRGB">
<feFlood flood-opacity="0" result="BackgroundImageFix"/>
<feBlend mode="normal" in="SourceGraphic" in2="BackgroundImageFix" result="shape"/>
<feGaussianBlur stdDeviation="0.4" result="effect1_foregroundBlur_651_362"/>
</filter>
<clipPath id="clip0_651_362">
<rect width="150" height="150" fill="white" transform="translate(0.5)"/>
</clipPath>
</defs>
</svg>
