<svg width="150" height="150" viewBox="0 0 150 150" fill="none" xmlns="http://www.w3.org/2000/svg">
<g clip-path="url(#clip0_288_795)">
<path d="M45.615 0.351532C45.3514 0.55661 44.9998 1.11325 44.824 1.5527C44.6189 2.10934 44.5311 14.0332 44.5311 38.2324V74.0625L30.4393 87.9492C22.7049 95.5664 15.5271 102.861 14.4725 104.15C12.0994 107.08 10.1951 110.918 9.19902 114.697C8.55449 117.187 8.4373 118.271 8.4373 122.021C8.408 124.424 8.58378 127.266 8.75957 128.32C10.6053 137.988 17.5193 145.811 26.9529 148.857C29.5018 149.707 30.1463 149.795 34.8924 149.912C42.2166 150.146 45.7322 149.326 51.0936 146.191L53.0857 145.02L53.8768 145.605C55.4295 146.689 59.4139 148.535 61.699 149.18C63.7791 149.795 64.6287 149.854 70.0193 149.854C75.8201 149.854 76.1131 149.824 78.6619 149.004C81.5623 148.096 83.3787 147.246 85.8396 145.664C86.8064 145.049 95.1268 136.992 106.787 125.391L126.123 106.113L129.053 104.619C135.498 101.279 139.277 96.7676 140.947 90.3808C141.797 87.0703 141.826 80.8008 140.947 77.5781C139.834 73.3301 137.549 69.6387 133.769 65.918L132.129 64.3359V33.5449C132.129 13.1836 132.012 2.40231 131.836 1.69919C131.66 1.08395 131.279 0.468719 130.957 0.292938C130.078 -0.175812 46.2596 -0.117218 45.615 0.351532ZM93.1639 9.66794V14.6484H71.3377H49.5115V9.66794V4.68747H71.3377H93.1639V9.66794ZM127.148 9.66794V14.6484H112.5H97.8514V9.66794V4.68747H112.5H127.148V9.66794ZM93.1639 21.8261V24.3164H71.3377H49.5115V21.8261V19.3359H71.3377H93.1639V21.8261ZM127.148 21.8261V24.3164H112.5H97.8514V21.8261V19.3359H112.5H127.148V21.8261ZM93.1639 44.2969V59.5898L88.535 64.2773C82.5584 70.3418 81.0643 72.5976 79.6287 77.5488C79.0428 79.541 78.9549 80.4785 78.9549 84.9609C78.9842 89.9707 78.9842 90.1465 79.9217 92.8711C81.1814 96.5332 82.7928 99.1992 85.4295 101.953L87.5682 104.18L72.0701 119.678C63.5447 128.203 56.5135 135.117 56.4842 135.059C56.4256 134.971 56.1326 133.74 55.8396 132.275C54.9314 127.617 52.5584 122.402 49.4236 118.066C48.7791 117.187 46.7283 114.932 44.8533 113.086C39.9314 108.193 35.3904 105.322 29.5603 103.477C28.0076 102.979 26.074 102.48 25.2537 102.363C24.4041 102.275 23.7303 102.1 23.7303 101.982C23.7303 101.895 29.3553 96.2109 36.2107 89.3555C43.0662 82.5 48.867 76.5527 49.1014 76.1133C49.4529 75.4394 49.5115 71.7187 49.5115 52.1484V29.0039H71.3377H93.1639V44.2969ZM127.148 44.2969V59.5605L122.373 64.4238C117.334 69.5508 116.221 70.9277 114.844 73.916C113.262 77.2265 112.734 79.9512 112.705 84.5215C112.705 92.0215 114.785 97.4414 119.502 102.1C120.498 103.066 121.289 103.975 121.289 104.15C121.289 104.297 114.316 111.416 105.791 119.941L90.2928 135.439L90.0877 133.857C89.3553 128.408 86.865 122.959 82.1775 116.426C81.9432 116.104 83.0564 114.844 86.865 111.006C91.6111 106.26 91.992 105.937 94.9217 104.443C101.25 101.191 104.678 97.207 106.699 90.8203C107.285 88.8867 107.373 88.0371 107.373 83.9355C107.373 79.834 107.285 78.9844 106.699 77.0508C105.381 72.8906 103.418 69.7851 99.785 66.2109L97.8514 64.3359V46.6699V29.0039H112.5H127.148V44.2969ZM97.1189 69.7851C99.9021 72.6269 100.84 73.8281 101.601 75.4101C102.832 77.9297 103.418 80.5957 103.418 83.7012C103.418 91.3183 99.9607 96.914 93.0467 100.4L91.0545 101.396L90.3221 100.723C88.6814 99.1699 86.3963 96.0937 85.4295 94.0723C83.8475 90.791 83.408 88.2715 83.5545 83.7012C83.701 79.2773 84.2283 77.3144 86.1326 74.0918C87.3045 72.1289 92.6365 66.2109 93.2811 66.2109C93.4568 66.2109 95.1853 67.8223 97.1189 69.7851ZM130.693 69.6387C135.263 74.3262 136.582 76.7578 137.138 81.5918C138.076 89.8535 134.531 96.709 127.5 100.283L125.039 101.514L122.929 99.2871C120.586 96.7969 119.062 94.1894 118.037 90.8203C117.129 87.9492 117.07 82.0898 117.89 79.1015C118.447 77.1094 119.678 74.414 120.762 72.8613C121.494 71.7773 126.855 66.2109 127.148 66.2109C127.265 66.2109 128.847 67.7637 130.693 69.6387ZM26.2498 107.373C32.3143 108.926 36.9725 111.65 41.8943 116.602C48.1053 122.871 51.1814 129.17 52.0018 137.432C52.1775 139.307 52.1482 139.424 51.3572 140.186C48.9256 142.471 44.2674 144.463 39.99 145.049C30.2928 146.338 21.6209 142.705 16.8455 135.352C14.1502 131.221 13.3299 128.174 13.3299 122.314C13.3299 118.652 13.4471 117.539 14.0037 115.635C14.824 112.793 16.2596 109.893 17.8709 107.842L19.1014 106.289L21.3572 106.494C22.5877 106.611 24.785 106.992 26.2498 107.373ZM79.8045 121.055C83.3201 125.742 85.8396 132.891 85.8396 138.164V140.01L84.4627 141.064C82.5291 142.529 78.7791 144.316 76.3182 144.902C73.2713 145.635 66.5037 145.576 63.5447 144.785C61.3768 144.199 58.1834 142.793 56.9822 141.914C56.4549 141.504 56.9822 140.918 67.3826 130.518C73.4178 124.482 78.4275 119.531 78.5154 119.531C78.6033 119.531 79.1893 120.205 79.8045 121.055Z" fill="black"/>
<path d="M122.754 63.7793L118.799 67.8223L122.842 63.8672C125.039 61.6992 126.855 59.8828 126.855 59.8535C126.855 59.6191 126.416 60.0586 122.754 63.7793Z" fill="black"/>
<path d="M90.6738 68.6133L88.3301 71.0449L90.7617 68.7012C92.9883 66.5332 93.3105 66.2109 93.0762 66.2109C93.0469 66.2109 91.9629 67.2949 90.6738 68.6133Z" fill="black"/>
<path d="M137.168 84.082C137.168 84.6386 137.227 84.873 137.314 84.58C137.373 84.3164 137.373 83.8476 137.314 83.5547C137.227 83.291 137.168 83.5254 137.168 84.082Z" fill="black"/>
<path d="M89.7948 100.195C90.41 100.84 90.996 101.367 91.0839 101.367C91.1718 101.367 90.703 100.84 90.0878 100.195C89.4725 99.5508 88.8866 99.0234 88.7987 99.0234C88.7108 99.0234 89.1796 99.5508 89.7948 100.195Z" fill="black"/>
<path d="M86.8652 111.094L81.8848 116.162L86.9531 111.182C91.6406 106.553 92.1387 106.055 91.9043 106.055C91.875 106.055 89.5898 108.34 86.8652 111.094Z" fill="black"/>
<path d="M41.748 116.602C42.539 117.393 43.2421 118.066 43.33 118.066C43.4179 118.066 42.832 117.393 42.041 116.602C41.2499 115.781 40.5468 115.137 40.4589 115.137C40.371 115.137 40.957 115.781 41.748 116.602Z" fill="black"/>
<path d="M67.4414 130.459C61.4648 136.436 56.543 141.416 56.543 141.504C56.543 141.592 61.4648 136.758 67.4414 130.752C73.8867 124.307 78.5156 119.883 78.75 119.971C78.9551 120.059 79.043 119.971 78.9551 119.824C78.8672 119.648 78.6914 119.531 78.5742 119.531C78.457 119.531 73.4473 124.453 67.4414 130.459Z" fill="black"/>
<path d="M69.082 145.518C69.58 145.576 70.459 145.576 70.9863 145.518C71.4843 145.459 71.0742 145.4 70.0195 145.4C68.9648 145.4 68.5547 145.459 69.082 145.518Z" fill="black"/>
<path d="M60.5859 4.89258C66.5625 4.95117 76.4062 4.95117 82.4121 4.89258C88.3886 4.86328 83.4961 4.83398 71.4843 4.83398C59.4726 4.83398 54.58 4.86328 60.5859 4.89258Z" fill="black"/>
<path d="M105.264 4.89258C109.248 4.95117 115.752 4.95117 119.766 4.89258C123.75 4.86328 120.469 4.83398 112.5 4.83398C104.531 4.83398 101.25 4.86328 105.264 4.89258Z" fill="black"/>
<path d="M107.578 84.082C107.578 84.6386 107.637 84.873 107.725 84.58C107.783 84.3164 107.783 83.8476 107.725 83.5547C107.637 83.291 107.578 83.5254 107.578 84.082Z" fill="black"/>
<path d="M117.275 84.8144C117.275 85.459 117.334 85.6933 117.393 85.3125C117.451 84.9609 117.451 84.4336 117.393 84.1406C117.305 83.8769 117.246 84.1699 117.275 84.8144Z" fill="black"/>
<path d="M85.5469 102.334C85.5469 102.393 85.9863 102.803 86.5137 103.301L87.4512 104.15L86.6016 103.184C85.7812 102.305 85.5469 102.1 85.5469 102.334Z" fill="black"/>
<path d="M71.9532 119.502C63.5743 127.881 56.6016 134.648 56.4551 134.561C56.2793 134.443 56.25 134.531 56.3965 134.766C56.543 135 61.4063 130.342 71.9532 119.795C80.3907 111.357 87.3047 104.414 87.3047 104.385C87.3047 104.18 86.1036 105.352 71.9532 119.502Z" fill="black"/>
<path d="M35.5372 145.225C35.9766 145.283 36.6211 145.283 37.002 145.225C37.3536 145.166 37.002 145.107 36.1817 145.107C35.3907 145.107 35.0684 145.166 35.5372 145.225Z" fill="black"/>
<path d="M97.998 9.81445V14.502H112.5H127.002V9.66797L127.031 4.83398L126.943 9.58008L126.855 14.3555H112.5H98.1445L98.0566 9.72656L97.9688 5.12695L97.998 9.81445Z" fill="black"/>
<path d="M60.4101 14.5605C66.2988 14.6191 76.0546 14.6191 82.0898 14.5605C88.0956 14.5312 83.2617 14.502 71.3378 14.502C59.414 14.502 54.4921 14.5312 60.4101 14.5605Z" fill="black"/>
<path d="M97.9688 21.8848L97.998 24.1699H112.5H127.002L127.031 21.9727V19.7754L126.943 21.8848L126.826 24.0234H112.5H98.1738L98.0566 21.8262L97.9688 19.6289V21.8848Z" fill="black"/>
<path d="M60.5859 24.2285C66.5625 24.2871 76.4062 24.2871 82.4121 24.2285C88.3886 24.1992 83.4961 24.1699 71.4843 24.1699C59.4726 24.1699 54.58 24.1992 60.5859 24.2285Z" fill="black"/>
<path d="M97.998 46.7285C97.998 56.3965 98.0273 60.3223 98.0566 55.4297C98.1152 50.5371 98.1152 42.6269 98.0566 37.8515C98.0273 33.0762 97.998 37.0605 97.998 46.7285Z" fill="black"/>
<path d="M127.002 44.2383C127.002 52.5293 127.031 55.9277 127.061 51.7969C127.119 47.6367 127.119 40.8399 127.061 36.709C127.031 32.5488 127.002 35.9473 127.002 44.2383Z" fill="black"/>
<path d="M89.0625 63.4863L85.4004 67.2363L89.1504 63.5742C92.6074 60.1758 93.0176 59.7656 92.7832 59.7656C92.7539 59.7656 91.084 61.4355 89.0625 63.4863Z" fill="black"/>
<path d="M129.639 68.8477C131.074 70.2832 132.334 71.4844 132.422 71.4844C132.48 71.4844 131.367 70.2832 129.932 68.8477C128.496 67.3828 127.236 66.2109 127.148 66.2109C127.09 66.2109 128.203 67.3828 129.639 68.8477Z" fill="black"/>
<path d="M103.213 83.7891C103.213 84.5215 103.271 84.8145 103.33 84.4336C103.389 84.082 103.389 83.4961 103.33 83.1152C103.271 82.7637 103.213 83.0566 103.213 83.7891Z" fill="black"/>
<path d="M123.779 100.195C124.395 100.84 124.981 101.367 125.068 101.367C125.156 101.367 124.688 100.84 124.072 100.195C123.457 99.5508 122.871 99.0234 122.783 99.0234C122.695 99.0234 123.164 99.5508 123.779 100.195Z" fill="black"/>
<path d="M45.1172 113.145C45.8203 113.936 46.4355 114.551 46.4941 114.551C46.7285 114.551 46.4941 114.287 45.2051 113.086L43.7988 111.768L45.1172 113.145Z" fill="black"/>
<path d="M13.2715 122.461C13.2715 123.193 13.3301 123.486 13.3887 123.105C13.4473 122.754 13.4473 122.168 13.3887 121.787C13.3301 121.436 13.2715 121.729 13.2715 122.461Z" fill="black"/>
<path d="M49.6289 9.66798C49.6289 12.334 49.6875 13.418 49.7168 12.0703C49.7754 10.752 49.7754 8.58399 49.7168 7.23633C49.6875 5.91798 49.6289 7.00196 49.6289 9.66798Z" fill="black"/>
<path d="M49.5996 21.8262C49.5996 23.1152 49.6582 23.6133 49.7168 22.9101C49.7754 22.2363 49.7754 21.1816 49.7168 20.5664C49.6582 19.9805 49.5996 20.5371 49.5996 21.8262Z" fill="black"/>
<path d="M49.6582 52.2949C49.6582 65.0097 49.6875 70.1953 49.7168 63.7793C49.7754 57.3633 49.7754 46.9336 49.7168 40.6347C49.6875 34.3066 49.6582 39.5508 49.6582 52.2949Z" fill="black"/>
<path d="M94.3359 67.1777C94.3359 67.207 95.3613 68.2324 96.6211 69.4336L98.877 71.6309L96.6797 69.3457C94.6582 67.2656 94.3359 66.9434 94.3359 67.1777Z" fill="black"/>
<path d="M36.1816 89.4141L23.584 102.1L36.2695 89.502C48.0176 77.7832 49.043 76.7578 48.8379 76.7578C48.8086 76.7578 43.0957 82.4707 36.1816 89.4141Z" fill="black"/>
<path d="M101.191 100.254L100.342 101.221L101.309 100.371C101.807 99.873 102.246 99.4629 102.246 99.4043C102.246 99.1699 102.012 99.375 101.191 100.254Z" fill="black"/>
<path d="M105.762 119.736L90.3809 135.205L105.85 119.824C120.205 105.527 121.406 104.297 121.201 104.297C121.172 104.297 114.229 111.24 105.762 119.736Z" fill="black"/>
<path d="M49.8044 9.66797V14.3555H71.4841H93.1638V9.66797V4.98047H71.4841H49.8044V9.66797Z" fill="white"/>
<path d="M98.1443 9.66797V14.3555H112.5H126.855V9.66797V4.98047H112.5H98.1443V9.66797Z" fill="white"/>
<path d="M49.8044 21.6797V24.0234H71.4841H93.1931L93.1052 21.7383L93.0173 19.4824L71.4255 19.3945L49.8044 19.3359V21.6797Z" fill="white"/>
<path d="M98.1443 21.6797V24.0234H112.5H126.855V21.6797V19.3359H112.5H98.1443V21.6797Z" fill="white"/>
<path d="M49.8044 51.9727C49.8044 67.3828 49.7166 75.2344 49.4822 75.791C49.3357 76.2305 43.5056 82.2949 36.5916 89.2383L23.9939 101.836L26.2791 102.363C34.2478 104.238 40.283 107.783 46.3474 114.258C49.4236 117.539 51.6501 120.732 53.4373 124.541C54.6677 127.148 55.9861 131.191 56.3962 133.711L56.6013 134.854L71.9236 119.531L87.2751 104.18L85.1658 101.953C82.822 99.4336 81.5037 97.3828 80.3025 94.4238C79.0134 91.2598 78.6619 89.0332 78.6619 84.375C78.6912 79.4531 79.2185 77.0215 81.1814 73.1543C82.7048 70.0781 83.408 69.1992 88.6814 63.8672L93.1638 59.2969L93.1052 44.2383L93.0173 29.1504L71.4255 29.0625L49.8044 29.0039V51.9727Z" fill="white"/>
<path d="M98.1443 46.6113V64.2188L100.576 66.7969C104.736 71.1621 106.552 74.5312 107.402 79.5117C107.9 82.3242 107.812 87.041 107.226 89.6484C106.435 93.1055 104.267 97.2363 101.982 99.7266C100.605 101.221 97.9978 103.037 95.0388 104.59C92.3728 106.025 91.7283 106.553 87.1287 111.123L82.0896 116.104L83.7595 118.359C86.6599 122.256 89.3845 128.379 90.0876 132.568C90.2048 133.213 90.3513 133.975 90.4392 134.297C90.5564 134.736 93.8669 131.572 105.937 119.502L121.26 104.18L118.974 101.807C114.17 96.7969 112.295 91.4648 112.588 83.5547C112.734 79.1016 113.174 77.1387 114.697 73.916C116.279 70.5762 117.715 68.7012 122.431 64.0137L126.855 59.6191V44.3262V29.0039H112.5H98.1443V46.6113Z" fill="white"/>
<path d="M90.8202 68.7598C89.4432 70.166 87.8905 71.8945 87.3632 72.5684C86.2499 74.0039 84.58 77.5195 84.1405 79.3945C83.6132 81.6797 83.4374 85.3125 83.7596 87.5977C84.4042 92.373 85.9276 95.5957 89.2089 99.1699L91.0546 101.221L93.0468 100.225C99.8436 96.7383 103.125 91.4355 103.125 83.877C103.125 80.1562 102.773 78.3691 101.455 75.5859C100.576 73.7695 99.785 72.7734 96.8554 69.7852L93.3104 66.1816L90.8202 68.7598Z" fill="white"/>
<path d="M123.838 69.6973C121.347 72.2754 120.527 73.3594 119.56 75.3516C117.949 78.6035 117.363 81.709 117.568 85.9863C117.803 91.4941 119.59 95.625 123.428 99.5215L125.215 101.338L127.529 100.107C133.389 97.002 136.582 92.0508 137.021 85.4004C137.256 81.8555 136.728 78.9551 135.322 75.9375C134.355 73.8281 133.74 73.0371 130.781 70.0195C128.877 68.0859 127.265 66.5039 127.148 66.5039C127.031 66.5039 125.537 67.9395 123.838 69.6973Z" fill="white"/>
<path d="M18.574 107.256C16.2889 109.805 14.3553 114.053 13.7693 117.832C13.242 121.143 13.535 127.031 14.3553 129.639C16.5818 136.641 21.6502 141.738 28.6521 144.082C30.7322 144.785 31.3475 144.844 36.035 144.844C40.6346 144.873 41.3963 144.814 43.3592 144.199C45.9959 143.35 48.5154 142.119 50.4197 140.684C51.7381 139.717 51.8553 139.512 51.8553 138.398C51.8553 136.406 51.035 132.275 50.0975 129.58C47.9002 123.252 43.242 117.158 37.0896 112.588C33.0467 109.6 26.5135 107.139 21.533 106.758C19.3357 106.582 19.16 106.611 18.574 107.256Z" fill="white"/>
<path d="M67.5291 130.664C61.5818 136.611 56.7771 141.533 56.8357 141.621C57.5096 142.236 61.2596 143.936 63.1346 144.492C65.156 145.078 66.1228 145.166 70.3123 145.166C74.9998 145.137 75.2342 145.107 77.9295 144.17C80.6541 143.262 84.3162 141.211 85.3416 140.098C86.3963 138.955 85.0193 131.426 82.91 126.709C82.0018 124.717 78.9256 119.824 78.5447 119.824C78.4568 119.824 73.5057 124.688 67.5291 130.664Z" fill="white"/>
</g>
<defs>
<clipPath id="clip0_288_795">
<rect width="150" height="150" fill="white"/>
</clipPath>
</defs>
</svg>
