<svg width="151" height="150" viewBox="0 0 151 150" fill="none" xmlns="http://www.w3.org/2000/svg">
<g clip-path="url(#clip0_651_60)">
<path d="M46.1152 0.351532C45.8515 0.55661 45.5 1.11325 45.3242 1.5527C45.1191 2.10934 45.0312 14.0332 45.0312 38.2324V74.0625L30.9394 87.9492C23.2051 95.5664 16.0273 102.861 14.9726 104.15C12.5996 107.08 10.6953 110.918 9.6992 114.697C9.05467 117.187 8.93748 118.271 8.93748 122.021C8.90819 124.424 9.08397 127.266 9.25975 128.32C11.1055 137.988 18.0195 145.811 27.4531 148.857C30.0019 149.707 30.6465 149.795 35.3926 149.912C42.7168 150.146 46.2324 149.326 51.5937 146.191L53.5859 145.02L54.3769 145.605C55.9297 146.689 59.914 148.535 62.1992 149.18C64.2793 149.795 65.1289 149.854 70.5195 149.854C76.3203 149.854 76.6133 149.824 79.1621 149.004C82.0625 148.096 83.8789 147.246 86.3398 145.664C87.3066 145.049 95.6269 136.992 107.287 125.391L126.623 106.113L129.553 104.619C135.998 101.279 139.777 96.7676 141.447 90.3808C142.297 87.0703 142.326 80.8008 141.447 77.5781C140.334 73.3301 138.049 69.6387 134.27 65.918L132.629 64.3359V33.5449C132.629 13.1836 132.512 2.40231 132.336 1.69919C132.16 1.08395 131.779 0.468719 131.457 0.292938C130.578 -0.175812 46.7598 -0.117218 46.1152 0.351532ZM93.664 9.66794V14.6484H71.8379H50.0117V9.66794V4.68747H71.8379H93.664V9.66794ZM127.648 9.66794V14.6484H113H98.3515V9.66794V4.68747H113H127.648V9.66794ZM93.664 21.8261V24.3164H71.8379H50.0117V21.8261V19.3359H71.8379H93.664V21.8261ZM127.648 21.8261V24.3164H113H98.3515V21.8261V19.3359H113H127.648V21.8261ZM93.664 44.2969V59.5898L89.0351 64.2773C83.0586 70.3418 81.5644 72.5976 80.1289 77.5488C79.543 79.541 79.4551 80.4785 79.4551 84.9609C79.4844 89.9707 79.4844 90.1465 80.4219 92.8711C81.6816 96.5332 83.293 99.1992 85.9297 101.953L88.0683 104.18L72.5703 119.678C64.0449 128.203 57.0137 135.117 56.9844 135.059C56.9258 134.971 56.6328 133.74 56.3398 132.275C55.4316 127.617 53.0586 122.402 49.9238 118.066C49.2793 117.187 47.2285 114.932 45.3535 113.086C40.4316 108.193 35.8906 105.322 30.0605 103.477C28.5078 102.979 26.5742 102.48 25.7539 102.363C24.9043 102.275 24.2305 102.1 24.2305 101.982C24.2305 101.895 29.8555 96.2109 36.7109 89.3555C43.5664 82.5 49.3672 76.5527 49.6015 76.1133C49.9531 75.4394 50.0117 71.7187 50.0117 52.1484V29.0039H71.8379H93.664V44.2969ZM127.648 44.2969V59.5605L122.873 64.4238C117.834 69.5508 116.721 70.9277 115.344 73.916C113.762 77.2265 113.234 79.9512 113.205 84.5215C113.205 92.0215 115.285 97.4414 120.002 102.1C120.998 103.066 121.789 103.975 121.789 104.15C121.789 104.297 114.816 111.416 106.291 119.941L90.793 135.439L90.5879 133.857C89.8555 128.408 87.3652 122.959 82.6777 116.426C82.4433 116.104 83.5566 114.844 87.3652 111.006C92.1113 106.26 92.4922 105.937 95.4219 104.443C101.75 101.191 105.178 97.207 107.199 90.8203C107.785 88.8867 107.873 88.0371 107.873 83.9355C107.873 79.834 107.785 78.9844 107.199 77.0508C105.881 72.8906 103.918 69.7851 100.285 66.2109L98.3515 64.3359V46.6699V29.0039H113H127.648V44.2969ZM97.6191 69.7851C100.402 72.6269 101.34 73.8281 102.102 75.4101C103.332 77.9297 103.918 80.5957 103.918 83.7012C103.918 91.3183 100.461 96.914 93.5469 100.4L91.5547 101.396L90.8223 100.723C89.1816 99.1699 86.8965 96.0937 85.9297 94.0723C84.3476 90.791 83.9082 88.2715 84.0547 83.7012C84.2012 79.2773 84.7285 77.3144 86.6328 74.0918C87.8047 72.1289 93.1367 66.2109 93.7812 66.2109C93.957 66.2109 95.6855 67.8223 97.6191 69.7851ZM131.193 69.6387C135.764 74.3262 137.082 76.7578 137.639 81.5918C138.576 89.8535 135.031 96.709 128 100.283L125.539 101.514L123.43 99.2871C121.086 96.7969 119.562 94.1894 118.537 90.8203C117.629 87.9492 117.57 82.0898 118.391 79.1015C118.947 77.1094 120.178 74.414 121.262 72.8613C121.994 71.7773 127.355 66.2109 127.648 66.2109C127.766 66.2109 129.348 67.7637 131.193 69.6387ZM26.75 107.373C32.8144 108.926 37.4726 111.65 42.3945 116.602C48.6055 122.871 51.6816 129.17 52.5019 137.432C52.6777 139.307 52.6484 139.424 51.8574 140.186C49.4258 142.471 44.7676 144.463 40.4902 145.049C30.793 146.338 22.1211 142.705 17.3457 135.352C14.6504 131.221 13.8301 128.174 13.8301 122.314C13.8301 118.652 13.9472 117.539 14.5039 115.635C15.3242 112.793 16.7597 109.893 18.3711 107.842L19.6015 106.289L21.8574 106.494C23.0879 106.611 25.2851 106.992 26.75 107.373ZM80.3047 121.055C83.8203 125.742 86.3398 132.891 86.3398 138.164V140.01L84.9629 141.064C83.0293 142.529 79.2793 144.316 76.8183 144.902C73.7715 145.635 67.0039 145.576 64.0449 144.785C61.8769 144.199 58.6836 142.793 57.4824 141.914C56.9551 141.504 57.4824 140.918 67.8828 130.518C73.918 124.482 78.9277 119.531 79.0156 119.531C79.1035 119.531 79.6894 120.205 80.3047 121.055Z" fill="black"/>
<path d="M123.254 63.7793L119.299 67.8223L123.342 63.8672C125.539 61.6992 127.355 59.8828 127.355 59.8535C127.355 59.6191 126.916 60.0586 123.254 63.7793Z" fill="black"/>
<path d="M91.1738 68.6133L88.8301 71.0449L91.2617 68.7012C93.4883 66.5332 93.8105 66.2109 93.5762 66.2109C93.5469 66.2109 92.4629 67.2949 91.1738 68.6133Z" fill="black"/>
<path d="M137.668 84.082C137.668 84.6386 137.727 84.873 137.814 84.58C137.873 84.3164 137.873 83.8476 137.814 83.5547C137.727 83.291 137.668 83.5254 137.668 84.082Z" fill="black"/>
<path d="M90.2949 100.195C90.9102 100.84 91.4961 101.367 91.584 101.367C91.6719 101.367 91.2031 100.84 90.5879 100.195C89.9727 99.5508 89.3867 99.0234 89.2988 99.0234C89.2109 99.0234 89.6797 99.5508 90.2949 100.195Z" fill="black"/>
<path d="M87.3652 111.094L82.3848 116.162L87.4531 111.182C92.1406 106.553 92.6387 106.055 92.4043 106.055C92.375 106.055 90.0898 108.34 87.3652 111.094Z" fill="black"/>
<path d="M42.2481 116.602C43.0391 117.393 43.7422 118.066 43.8301 118.066C43.918 118.066 43.332 117.393 42.541 116.602C41.75 115.781 41.0469 115.137 40.959 115.137C40.8711 115.137 41.457 115.781 42.2481 116.602Z" fill="black"/>
<path d="M67.9414 130.459C61.9648 136.436 57.043 141.416 57.043 141.504C57.043 141.592 61.9648 136.758 67.9414 130.752C74.3867 124.307 79.0156 119.883 79.25 119.971C79.4551 120.059 79.543 119.971 79.4551 119.824C79.3672 119.648 79.1914 119.531 79.0742 119.531C78.957 119.531 73.9473 124.453 67.9414 130.459Z" fill="black"/>
<path d="M69.5821 145.518C70.0801 145.576 70.959 145.576 71.4864 145.518C71.9844 145.459 71.5743 145.4 70.5196 145.4C69.4649 145.4 69.0547 145.459 69.5821 145.518Z" fill="black"/>
<path d="M61.0859 4.89258C67.0625 4.95117 76.9062 4.95117 82.9121 4.89258C88.8886 4.86328 83.9961 4.83398 71.9843 4.83398C59.9726 4.83398 55.08 4.86328 61.0859 4.89258Z" fill="black"/>
<path d="M105.764 4.89258C109.748 4.95117 116.252 4.95117 120.266 4.89258C124.25 4.86328 120.969 4.83398 113 4.83398C105.031 4.83398 101.75 4.86328 105.764 4.89258Z" fill="black"/>
<path d="M108.078 84.082C108.078 84.6386 108.137 84.873 108.225 84.58C108.283 84.3164 108.283 83.8476 108.225 83.5547C108.137 83.291 108.078 83.5254 108.078 84.082Z" fill="black"/>
<path d="M117.775 84.8145C117.775 85.459 117.834 85.6934 117.893 85.3125C117.951 84.961 117.951 84.4336 117.893 84.1407C117.805 83.877 117.746 84.17 117.775 84.8145Z" fill="black"/>
<path d="M86.0469 102.334C86.0469 102.393 86.4863 102.803 87.0137 103.301L87.9512 104.15L87.1016 103.184C86.2812 102.305 86.0469 102.1 86.0469 102.334Z" fill="black"/>
<path d="M72.4531 119.502C64.0742 127.881 57.1015 134.648 56.9551 134.561C56.7793 134.443 56.75 134.531 56.8965 134.766C57.0429 135 61.9062 130.342 72.4531 119.795C80.8906 111.357 87.8047 104.414 87.8047 104.385C87.8047 104.18 86.6035 105.352 72.4531 119.502Z" fill="black"/>
<path d="M36.0371 145.225C36.4766 145.283 37.1211 145.283 37.5019 145.225C37.8535 145.166 37.5019 145.107 36.6816 145.107C35.8906 145.107 35.5684 145.166 36.0371 145.225Z" fill="black"/>
<path d="M98.498 9.81445V14.502H113H127.502V9.66797L127.531 4.83398L127.443 9.58008L127.355 14.3555H113H98.6445L98.5566 9.72656L98.4688 5.12695L98.498 9.81445Z" fill="black"/>
<path d="M60.9102 14.5605C66.7988 14.6191 76.5547 14.6191 82.5898 14.5605C88.5957 14.5312 83.7617 14.502 71.8379 14.502C59.9141 14.502 54.9922 14.5312 60.9102 14.5605Z" fill="black"/>
<path d="M98.4688 21.8848L98.498 24.1699H113H127.502L127.531 21.9727V19.7754L127.443 21.8848L127.326 24.0234H113H98.6738L98.5566 21.8262L98.4688 19.6289V21.8848Z" fill="black"/>
<path d="M61.0859 24.2285C67.0625 24.2871 76.9062 24.2871 82.9121 24.2285C88.8886 24.1992 83.9961 24.1699 71.9843 24.1699C59.9726 24.1699 55.08 24.1992 61.0859 24.2285Z" fill="black"/>
<path d="M98.498 46.7286C98.498 56.3966 98.5273 60.3224 98.5566 55.4298C98.6152 50.5372 98.6152 42.6271 98.5566 37.8517C98.5273 33.0763 98.498 37.0607 98.498 46.7286Z" fill="black"/>
<path d="M127.502 44.2383C127.502 52.5293 127.531 55.9277 127.561 51.7969C127.619 47.6367 127.619 40.8399 127.561 36.709C127.531 32.5488 127.502 35.9473 127.502 44.2383Z" fill="black"/>
<path d="M89.5625 63.4863L85.9004 67.2363L89.6504 63.5742C93.1074 60.1758 93.5176 59.7656 93.2832 59.7656C93.2539 59.7656 91.584 61.4355 89.5625 63.4863Z" fill="black"/>
<path d="M130.139 68.8477C131.574 70.2832 132.834 71.4844 132.922 71.4844C132.98 71.4844 131.867 70.2832 130.432 68.8477C128.996 67.3828 127.736 66.2109 127.648 66.2109C127.59 66.2109 128.703 67.3828 130.139 68.8477Z" fill="black"/>
<path d="M103.713 83.7891C103.713 84.5215 103.771 84.8145 103.83 84.4337C103.889 84.0821 103.889 83.4962 103.83 83.1153C103.771 82.7637 103.713 83.0567 103.713 83.7891Z" fill="black"/>
<path d="M124.279 100.195C124.895 100.84 125.48 101.367 125.568 101.367C125.656 101.367 125.187 100.84 124.572 100.195C123.957 99.5509 123.371 99.0236 123.283 99.0236C123.195 99.0236 123.664 99.5509 124.279 100.195Z" fill="black"/>
<path d="M45.6172 113.145C46.3203 113.936 46.9355 114.551 46.9941 114.551C47.2285 114.551 46.9941 114.287 45.7051 113.086L44.2988 111.768L45.6172 113.145Z" fill="black"/>
<path d="M13.7715 122.461C13.7715 123.193 13.8301 123.486 13.8887 123.106C13.9473 122.754 13.9473 122.168 13.8887 121.787C13.8301 121.436 13.7715 121.729 13.7715 122.461Z" fill="black"/>
<path d="M50.1289 9.66798C50.1289 12.334 50.1875 13.418 50.2168 12.0703C50.2754 10.752 50.2754 8.58399 50.2168 7.23633C50.1875 5.91798 50.1289 7.00196 50.1289 9.66798Z" fill="black"/>
<path d="M50.0996 21.8262C50.0996 23.1152 50.1582 23.6133 50.2168 22.9101C50.2754 22.2363 50.2754 21.1816 50.2168 20.5664C50.1582 19.9805 50.0996 20.5371 50.0996 21.8262Z" fill="black"/>
<path d="M50.1582 52.295C50.1582 65.0098 50.1875 70.1953 50.2168 63.7793C50.2754 57.3633 50.2754 46.9336 50.2168 40.6348C50.1875 34.3067 50.1582 39.5508 50.1582 52.295Z" fill="black"/>
<path d="M94.8359 67.1777C94.8359 67.207 95.8613 68.2324 97.1211 69.4336L99.377 71.6309L97.1797 69.3457C95.1582 67.2656 94.8359 66.9434 94.8359 67.1777Z" fill="black"/>
<path d="M36.6816 89.4141L24.084 102.1L36.7695 89.502C48.5176 77.7832 49.543 76.7578 49.3379 76.7578C49.3086 76.7578 43.5957 82.4707 36.6816 89.4141Z" fill="black"/>
<path d="M101.691 100.254L100.842 101.221L101.809 100.371C102.307 99.873 102.746 99.4629 102.746 99.4043C102.746 99.1699 102.512 99.375 101.691 100.254Z" fill="black"/>
<path d="M106.262 119.736L90.8809 135.205L106.35 119.824C120.705 105.527 121.906 104.297 121.701 104.297C121.672 104.297 114.729 111.24 106.262 119.736Z" fill="black"/>
<path d="M50.3047 9.66797V14.3555H71.9844H93.6641V9.66797V4.98047H71.9844H50.3047V9.66797Z" fill="white"/>
<path d="M98.6445 9.66797V14.3555H113H127.355V9.66797V4.98047H113H98.6445V9.66797Z" fill="white"/>
<path d="M50.3047 21.6797V24.0234H71.9844H93.6934L93.6055 21.7383L93.5176 19.4824L71.9258 19.3945L50.3047 19.3359V21.6797Z" fill="#EC4040"/>
<path d="M98.6445 21.6797V24.0234H113H127.355V21.6797V19.3359H113H98.6445V21.6797Z" fill="#C11515"/>
<path d="M50.3047 51.9727C50.3047 67.3828 50.2168 75.2344 49.9824 75.791C49.8359 76.2305 44.0059 82.2949 37.0918 89.2383L24.4941 101.836L26.7793 102.363C34.748 104.238 40.7832 107.783 46.8477 114.258C49.9238 117.539 52.1504 120.732 53.9375 124.541C55.168 127.148 56.4863 131.191 56.8965 133.711L57.1016 134.854L72.4238 119.531L87.7754 104.18L85.666 101.953C83.3223 99.4336 82.0039 97.3828 80.8027 94.4238C79.5137 91.2598 79.1621 89.0332 79.1621 84.375C79.1914 79.4531 79.7188 77.0215 81.6816 73.1543C83.2051 70.0781 83.9082 69.1992 89.1816 63.8672L93.6641 59.2969L93.6055 44.2383L93.5176 29.1504L71.9258 29.0625L50.3047 29.0039V51.9727Z" fill="white"/>
<path d="M98.6445 46.6113V64.2188L101.076 66.7969C105.236 71.1621 107.053 74.5312 107.902 79.5117C108.4 82.3242 108.312 87.041 107.727 89.6484C106.936 93.1055 104.768 97.2363 102.482 99.7266C101.105 101.221 98.498 103.037 95.5391 104.59C92.873 106.025 92.2285 106.553 87.6289 111.123L82.5898 116.104L84.2598 118.359C87.1602 122.256 89.8848 128.379 90.5879 132.568C90.7051 133.213 90.8516 133.975 90.9395 134.297C91.0566 134.736 94.3672 131.572 106.438 119.502L121.76 104.18L119.475 101.807C114.67 96.7969 112.795 91.4648 113.088 83.5547C113.234 79.1016 113.674 77.1387 115.197 73.916C116.779 70.5762 118.215 68.7012 122.932 64.0137L127.355 59.6191V44.3262V29.0039H113H98.6445V46.6113Z" fill="white"/>
<path d="M91.3203 68.7598C89.9434 70.166 88.3906 71.8945 87.8633 72.5684C86.75 74.0039 85.0801 77.5195 84.6406 79.3945C84.1133 81.6797 83.9375 85.3125 84.2598 87.5977C84.9043 92.373 86.4277 95.5957 89.709 99.1699L91.5547 101.221L93.5469 100.225C100.344 96.7383 103.625 91.4355 103.625 83.877C103.625 80.1562 103.273 78.3691 101.955 75.5859C101.076 73.7695 100.285 72.7734 97.3555 69.7852L93.8106 66.1816L91.3203 68.7598Z" fill="#EC4040"/>
<path d="M124.338 69.6973C121.848 72.2754 121.027 73.3594 120.06 75.3516C118.449 78.6035 117.863 81.709 118.068 85.9863C118.303 91.4941 120.09 95.625 123.928 99.5215L125.715 101.338L128.029 100.107C133.889 97.002 137.082 92.0508 137.521 85.4004C137.756 81.8555 137.228 78.9551 135.822 75.9375C134.855 73.8281 134.24 73.0371 131.281 70.0195C129.377 68.0859 127.766 66.5039 127.648 66.5039C127.531 66.5039 126.037 67.9395 124.338 69.6973Z" fill="#C11515"/>
<path d="M19.0742 107.256C16.789 109.805 14.8554 114.053 14.2695 117.832C13.7422 121.143 14.0351 127.031 14.8554 129.639C17.082 136.641 22.1504 141.738 29.1523 144.082C31.2324 144.785 31.8476 144.844 36.5351 144.844C41.1347 144.873 41.8965 144.814 43.8594 144.199C46.4961 143.35 49.0156 142.119 50.9199 140.684C52.2383 139.717 52.3555 139.512 52.3555 138.398C52.3555 136.406 51.5351 132.275 50.5976 129.58C48.4004 123.252 43.7422 117.158 37.5898 112.588C33.5469 109.6 27.0137 107.139 22.0332 106.758C19.8359 106.582 19.6601 106.611 19.0742 107.256Z" fill="#EC4040"/>
<path d="M68.0293 130.664C62.082 136.611 57.2773 141.533 57.3359 141.621C58.0097 142.236 61.7597 143.936 63.6347 144.492C65.6562 145.078 66.623 145.166 70.8125 145.166C75.5 145.137 75.7344 145.107 78.4297 144.17C81.1543 143.262 84.8164 141.211 85.8418 140.098C86.8965 138.955 85.5195 131.426 83.4101 126.709C82.5019 124.717 79.4258 119.824 79.0449 119.824C78.957 119.824 74.0058 124.688 68.0293 130.664Z" fill="#C11515"/>
</g>
<defs>
<clipPath id="clip0_651_60">
<rect width="150" height="150" fill="white" transform="translate(0.5)"/>
</clipPath>
</defs>
</svg>
