<svg width="167" height="44" viewBox="0 0 167 44" fill="none" xmlns="http://www.w3.org/2000/svg">
<g clip-path="url(#clip0_674_1540)">
<mask id="mask0_674_1540" style="mask-type:luminance" maskUnits="userSpaceOnUse" x="0" y="0" width="167" height="44">
<path d="M167 0H0V44H167V0Z" fill="white"/>
</mask>
<g mask="url(#mask0_674_1540)">
<path d="M19.5555 9.14544C19.9428 9.67636 20.2693 10.2369 20.5224 10.8269C21.0578 12.0395 21.3566 13.3872 21.3566 14.7659L25.7623 13.6449C25.4649 9.67495 23.5449 6.02327 20.4049 3.53906L17.6659 7.13018C18.3949 7.72166 19.0354 8.40327 19.5555 9.14544Z" fill="white"/>
<path d="M18.2469 29.4034C17.9786 29.0246 17.7406 28.6302 17.547 28.2218C16.8927 26.9037 16.5496 25.4334 16.5496 23.904V23.8125L12.13 24.9335C12.4122 28.9485 14.3322 32.6312 17.5027 35.1464L20.2416 31.5552C19.4532 30.9342 18.7836 30.2061 18.2469 29.4034Z" fill="white"/>
<path d="M35.8534 15.131C34.7523 14.2522 33.4271 13.7973 32.0729 13.7973C31.5818 13.7973 31.0755 13.8734 30.5692 13.9945L25.8066 15.207L21.2224 16.3731L20.5224 16.5547L19.8377 16.7209L19.034 16.9336L17.085 17.418L15.6408 17.7968H15.6256L6.60657 20.0853C6.4724 20.1163 6.32438 20.1304 6.19021 20.1304C5.99655 20.1304 5.80289 20.0994 5.62444 20.0388C5.446 19.9783 5.28277 19.8867 5.11816 19.7656C4.70179 19.4164 4.46386 18.9164 4.46386 18.3714V16.9617C4.46386 15.9914 5.23712 15.2042 6.19021 15.2042H19.034V10.6611H6.19159C2.76796 10.6611 0 13.4945 0 16.9631V18.3728C0 20.3275 0.86317 22.1456 2.38064 23.3426C3.48173 24.2214 4.82075 24.6918 6.17637 24.6918C6.68266 24.6918 7.18894 24.6157 7.69384 24.4946L12.0996 23.3736L16.699 22.2076H16.7142L18.1584 21.8287L19.0368 21.6161L31.6427 18.4038C31.7921 18.3728 31.9249 18.3432 32.059 18.3432C32.4464 18.3432 32.8032 18.4798 33.1159 18.7221C33.5322 19.0558 33.7854 19.5558 33.7854 20.1008V21.5851C33.7854 21.6907 33.7702 21.7978 33.7702 21.8118C33.6512 22.6906 32.9222 23.3426 32.059 23.3426H19.0368V27.8886H32.059C35.1548 27.8886 37.8038 25.5255 38.205 22.3132C38.234 22.0865 38.2492 21.8428 38.2492 21.5865V20.1022C38.2492 18.1475 37.3709 16.3449 35.8534 15.1324V15.131Z" fill="white"/>
<path d="M43.4072 32.0214V7.24121H51.7498C54.5026 7.24121 56.5982 7.80311 58.0355 8.92551C59.4727 10.0494 60.192 11.7224 60.192 13.9461C60.192 15.0811 59.8905 16.1021 59.2887 17.0105C58.687 17.9188 57.8072 18.6216 56.648 19.1201C57.9636 19.4834 58.9803 20.1664 59.6982 21.1706C60.4175 22.1747 60.7772 23.3801 60.7772 24.787C60.7772 27.1135 60.044 28.9006 58.5777 30.1484C57.1114 31.3961 55.0144 32.02 52.2838 32.02H43.4072V32.0214ZM47.6373 17.6738H51.783C53.0985 17.6738 54.1263 17.371 54.8678 16.764C55.6092 16.1571 55.9799 15.298 55.9799 14.1855C55.9799 12.9603 55.6369 12.0759 54.9508 11.5309C54.2646 10.9859 53.1981 10.7141 51.7498 10.7141H47.6373V17.6752V17.6738ZM47.6373 20.8396V28.5837H52.335C53.6615 28.5837 54.6976 28.2486 55.4446 27.5796C56.1916 26.9107 56.565 25.9798 56.565 24.7884C56.565 22.2127 55.2717 20.8959 52.6863 20.8396H47.6373Z" fill="white"/>
<path d="M73.6223 17.3848C73.087 17.2933 72.5351 17.2482 71.9665 17.2482C70.106 17.2482 68.8514 17.9735 68.2054 19.4268V32.0211H64.1427V13.6064H68.0214L68.121 15.6653C69.1018 14.0655 70.4615 13.2656 72.2003 13.2656C72.7799 13.2656 73.2585 13.3458 73.6376 13.5036L73.621 17.3848H73.6223Z" fill="white"/>
<path d="M86.7055 32.0211C86.527 31.6704 86.3721 31.0972 86.2379 30.3016C84.9445 31.6746 83.3621 32.3619 81.4891 32.3619C79.6161 32.3619 78.19 31.8338 77.0432 30.779C75.8951 29.7242 75.321 28.4187 75.321 26.8639C75.321 24.9008 76.0362 23.3953 77.4693 22.3448C78.901 21.2956 80.9496 20.7703 83.6138 20.7703H86.1051V19.562C86.1051 18.6086 85.8423 17.8467 85.3194 17.2735C84.7965 16.7004 83.9984 16.4145 82.9291 16.4145C82.0037 16.4145 81.2456 16.6497 80.655 17.12C80.0643 17.5918 79.7697 18.1903 79.7697 18.9156H75.707C75.707 17.9059 76.0362 16.9609 76.6932 16.0821C77.3503 15.2034 78.2453 14.5133 79.3768 14.0148C80.5083 13.5148 81.7699 13.2656 83.1643 13.2656C85.2821 13.2656 86.9697 13.8078 88.2298 14.8907C89.4886 15.9751 90.136 17.4975 90.1692 19.4606V27.7652C90.1692 29.4214 90.3975 30.7438 90.8553 31.731V32.0211H86.7096H86.7055ZM82.2416 29.0425C83.0439 29.0425 83.7992 28.844 84.5074 28.4468C85.2157 28.0497 85.7468 27.516 86.1037 26.847V23.3756H83.914C82.409 23.3756 81.2788 23.6418 80.5208 24.1755C79.7628 24.7093 79.3837 25.4641 79.3837 26.4386C79.3837 27.2329 79.6424 27.8652 80.1611 28.337C80.6785 28.8074 81.3729 29.044 82.243 29.044L82.2416 29.0425Z" fill="white"/>
<path d="M97.7994 13.6064L97.9156 15.7329C99.2533 14.088 101.009 13.2656 103.182 13.2656C106.948 13.2656 108.866 15.4611 108.932 19.8521V32.0211H104.869V20.0915C104.869 18.9226 104.62 18.0579 104.125 17.496C103.629 16.9341 102.818 16.6539 101.693 16.6539C100.056 16.6539 98.8341 17.4087 98.0318 18.917V32.0225H93.9691V13.6064H97.798H97.7994Z" fill="white"/>
<path d="M111.968 22.6793C111.968 19.843 112.614 17.5644 113.908 15.8463C115.201 14.1268 116.933 13.2678 119.108 13.2678C121.025 13.2678 122.574 13.948 123.755 15.3098V5.87988H127.818V32.0219H124.14L123.939 30.115C122.725 31.6135 121.104 32.3627 119.074 32.3627C117.045 32.3627 115.243 31.4938 113.933 29.7588C112.623 28.0223 111.968 25.6635 111.968 22.6793ZM116.031 23.037C116.031 24.9086 116.385 26.3704 117.093 27.4196C117.802 28.4688 118.807 28.9941 120.11 28.9941C121.77 28.9941 122.985 28.2392 123.754 26.7309V18.8671C123.007 17.3926 121.804 16.6547 120.144 16.6547C118.828 16.6547 117.814 17.1842 117.1 18.246C116.388 19.3065 116.031 20.9049 116.031 23.037Z" fill="white"/>
<path d="M131.892 8.82471C131.892 8.18957 132.09 7.66147 132.485 7.2418C132.881 6.82213 133.447 6.6123 134.181 6.6123C134.916 6.6123 135.486 6.82213 135.887 7.2418C136.288 7.66147 136.489 8.18957 136.489 8.82471C136.489 9.45984 136.288 9.96824 135.887 10.3823C135.486 10.7963 134.917 11.0034 134.181 11.0034C133.445 11.0034 132.88 10.7963 132.485 10.3823C132.09 9.96824 131.892 9.44858 131.892 8.82471ZM136.205 32.0234H132.142V13.6073H136.205V32.022V32.0234Z" fill="white"/>
<path d="M142.056 32.0212V16.6695H139.298V13.6065H142.056V11.9208C142.056 9.87872 142.614 8.30143 143.729 7.18889C144.842 6.07635 146.403 5.52148 148.41 5.52148C149.122 5.52148 149.882 5.62429 150.684 5.82708L150.583 9.0605C150.136 8.97037 149.619 8.92389 149.028 8.92389C147.089 8.92389 146.119 9.93927 146.119 11.97V13.6037H149.796V16.6667H146.119V32.0183H142.056V32.0212Z" fill="white"/>
<path d="M159.091 26.0992L162.77 13.6064H167.099L159.91 34.8123C158.808 37.9105 156.935 39.4596 154.293 39.4596C153.702 39.4596 153.051 39.3568 152.337 39.1512V35.9361L153.106 35.9868C154.131 35.9868 154.904 35.7967 155.422 35.4164C155.94 35.0362 156.35 34.3982 156.65 33.504L157.235 31.9225L150.883 13.6064H155.263L159.09 26.0992H159.091Z" fill="white"/>
</g>
</g>
<defs>
<clipPath id="clip0_674_1540">
<rect width="167" height="44" fill="white"/>
</clipPath>
</defs>
</svg>
