<svg width="167" height="44" viewBox="0 0 167 44" fill="none" xmlns="http://www.w3.org/2000/svg">
<g clip-path="url(#clip0_595_1001)">
<path d="M19.5555 9.14585C19.9428 9.67677 20.2693 10.2373 20.5224 10.8273C21.0578 12.0399 21.3566 13.3876 21.3566 14.7663L25.7623 13.6453C25.4649 9.67536 23.5449 6.02368 20.4049 3.53947L17.6659 7.13059C18.3949 7.72207 19.0354 8.40368 19.5555 9.14585Z" fill="#242424"/>
<path d="M18.2469 29.404C17.9786 29.0252 17.7406 28.6308 17.547 28.2224C16.8927 26.9043 16.5496 25.434 16.5496 23.9046V23.8131L12.13 24.9341C12.4122 28.9491 14.3322 32.6318 17.5027 35.147L20.2416 31.5558C19.4532 30.9348 18.7836 30.2067 18.2469 29.404Z" fill="#242424"/>
<path d="M35.8534 15.1311C34.7523 14.2523 33.4271 13.7974 32.0729 13.7974C31.5818 13.7974 31.0755 13.8735 30.5692 13.9946L25.8066 15.2071L21.2224 16.3732L20.5224 16.5548L19.8377 16.721L19.034 16.9337L17.085 17.4181L15.6408 17.7969H15.6256L6.60657 20.0854C6.4724 20.1164 6.32438 20.1305 6.19021 20.1305C5.99655 20.1305 5.80289 20.0995 5.62444 20.0389C5.446 19.9784 5.28277 19.8868 5.11816 19.7657C4.70179 19.4165 4.46386 18.9165 4.46386 18.3715V16.9618C4.46386 15.9915 5.23712 15.2043 6.19021 15.2043H19.034V10.6612H6.19159C2.76796 10.6612 0 13.4946 0 16.9632V18.3729C0 20.3276 0.86317 22.1457 2.38064 23.3427C3.48173 24.2215 4.82075 24.6919 6.17637 24.6919C6.68266 24.6919 7.18894 24.6158 7.69384 24.4947L12.0996 23.3737L16.699 22.2077H16.7142L18.1584 21.8288L19.0368 21.6162L31.6427 18.4039C31.7921 18.3729 31.9249 18.3433 32.059 18.3433C32.4464 18.3433 32.8032 18.4799 33.1159 18.7222C33.5322 19.0559 33.7854 19.5559 33.7854 20.1009V21.5852C33.7854 21.6908 33.7702 21.7979 33.7702 21.8119C33.6512 22.6907 32.9222 23.3427 32.059 23.3427H19.0368V27.8887H32.059C35.1548 27.8887 37.8038 25.5256 38.205 22.3133C38.234 22.0866 38.2492 21.8429 38.2492 21.5866V20.1023C38.2492 18.1476 37.3709 16.345 35.8534 15.1325V15.1311Z" fill="#242424"/>
<path d="M43.4072 32.022V7.24184H51.7498C54.5026 7.24184 56.5982 7.80374 58.0355 8.92614C59.4727 10.05 60.192 11.723 60.192 13.9467C60.192 15.0817 59.8905 16.1027 59.2887 17.0111C58.687 17.9194 57.8072 18.6222 56.648 19.1207C57.9636 19.484 58.9803 20.167 59.6982 21.1712C60.4175 22.1753 60.7772 23.3807 60.7772 24.7876C60.7772 27.1141 60.044 28.9012 58.5777 30.149C57.1114 31.3967 55.0144 32.0206 52.2838 32.0206H43.4072V32.022ZM47.6373 17.6744H51.783C53.0985 17.6744 54.1263 17.3716 54.8678 16.7646C55.6092 16.1577 55.9799 15.2986 55.9799 14.1861C55.9799 12.9609 55.6369 12.0765 54.9508 11.5315C54.2646 10.9865 53.1981 10.7147 51.7498 10.7147H47.6373V17.6758V17.6744ZM47.6373 20.8402V28.5843H52.335C53.6615 28.5843 54.6976 28.2492 55.4446 27.5802C56.1916 26.9113 56.565 25.9804 56.565 24.789C56.565 22.2133 55.2717 20.8965 52.6863 20.8402H47.6373Z" fill="#242424"/>
<path d="M73.6223 17.3857C73.087 17.2942 72.5351 17.2491 71.9665 17.2491C70.106 17.2491 68.8514 17.9744 68.2054 19.4277V32.022H64.1427V13.6073H68.0214L68.121 15.6662C69.1018 14.0664 70.4615 13.2665 72.2003 13.2665C72.7799 13.2665 73.2585 13.3467 73.6376 13.5045L73.621 17.3857H73.6223Z" fill="#242424"/>
<path d="M86.7055 32.022C86.527 31.6713 86.3721 31.0981 86.2379 30.3025C84.9445 31.6755 83.3621 32.3628 81.4891 32.3628C79.6161 32.3628 78.19 31.8347 77.0432 30.7799C75.8951 29.7251 75.321 28.4196 75.321 26.8648C75.321 24.9017 76.0362 23.3962 77.4693 22.3457C78.901 21.2965 80.9496 20.7712 83.6138 20.7712H86.1051V19.5629C86.1051 18.6095 85.8423 17.8476 85.3194 17.2744C84.7965 16.7013 83.9984 16.4154 82.9291 16.4154C82.0037 16.4154 81.2456 16.6506 80.655 17.1209C80.0643 17.5927 79.7697 18.1912 79.7697 18.9165H75.707C75.707 17.9068 76.0362 16.9618 76.6932 16.083C77.3503 15.2043 78.2453 14.5142 79.3768 14.0157C80.5083 13.5157 81.7699 13.2665 83.1643 13.2665C85.2821 13.2665 86.9697 13.8087 88.2298 14.8916C89.4886 15.976 90.136 17.4984 90.1692 19.4615V27.7661C90.1692 29.4223 90.3975 30.7447 90.8553 31.7319V32.022H86.7096H86.7055ZM82.2416 29.0434C83.0439 29.0434 83.7992 28.8449 84.5074 28.4477C85.2157 28.0506 85.7468 27.5169 86.1037 26.8479V23.3765H83.914C82.409 23.3765 81.2788 23.6427 80.5208 24.1764C79.7628 24.7102 79.3837 25.465 79.3837 26.4395C79.3837 27.2338 79.6424 27.8661 80.1611 28.3379C80.6785 28.8083 81.3729 29.0449 82.243 29.0449L82.2416 29.0434Z" fill="#242424"/>
<path d="M97.7994 13.6073L97.9156 15.7338C99.2533 14.0889 101.009 13.2665 103.182 13.2665C106.948 13.2665 108.866 15.462 108.932 19.853V32.022H104.869V20.0924C104.869 18.9235 104.62 18.0588 104.125 17.4969C103.629 16.935 102.818 16.6548 101.693 16.6548C100.056 16.6548 98.8341 17.4096 98.0318 18.9179V32.0234H93.9691V13.6073H97.798H97.7994Z" fill="#242424"/>
<path d="M111.968 22.6794C111.968 19.8431 112.614 17.5645 113.908 15.8464C115.201 14.1269 116.933 13.2679 119.108 13.2679C121.025 13.2679 122.574 13.9481 123.755 15.3099V5.88002H127.818V32.022H124.14L123.939 30.1151C122.725 31.6136 121.104 32.3628 119.074 32.3628C117.045 32.3628 115.243 31.4939 113.933 29.7589C112.623 28.0224 111.968 25.6636 111.968 22.6794ZM116.031 23.0371C116.031 24.9087 116.385 26.3705 117.093 27.4197C117.802 28.4689 118.807 28.9942 120.11 28.9942C121.77 28.9942 122.985 28.2393 123.754 26.731V18.8672C123.007 17.3927 121.804 16.6548 120.144 16.6548C118.828 16.6548 117.814 17.1843 117.1 18.2461C116.388 19.3066 116.031 20.905 116.031 23.0371Z" fill="#242424"/>
<path d="M131.892 8.82475C131.892 8.18961 132.09 7.66151 132.485 7.24184C132.881 6.82217 133.447 6.61234 134.181 6.61234C134.916 6.61234 135.486 6.82217 135.887 7.24184C136.288 7.66151 136.489 8.18961 136.489 8.82475C136.489 9.45988 136.288 9.96827 135.887 10.3823C135.486 10.7963 134.917 11.0034 134.181 11.0034C133.445 11.0034 132.88 10.7963 132.485 10.3823C132.09 9.96827 131.892 9.44862 131.892 8.82475ZM136.205 32.0234H132.142V13.6073H136.205V32.022V32.0234Z" fill="#242424"/>
<path d="M142.056 32.022V16.6703H139.298V13.6073H142.056V11.9216C142.056 9.87955 142.614 8.30227 143.729 7.18973C144.842 6.07719 146.403 5.52232 148.41 5.52232C149.122 5.52232 149.882 5.62513 150.684 5.82792L150.583 9.06134C150.136 8.97121 149.619 8.92473 149.028 8.92473C147.089 8.92473 146.119 9.9401 146.119 11.9708V13.6045H149.796V16.6675H146.119V32.0191H142.056V32.022Z" fill="#242424"/>
<path d="M159.091 26.1001L162.77 13.6073H167.099L159.91 34.8132C158.808 37.9114 156.935 39.4605 154.293 39.4605C153.702 39.4605 153.051 39.3577 152.337 39.1521V35.937L153.106 35.9877C154.131 35.9877 154.904 35.7976 155.422 35.4173C155.94 35.0371 156.35 34.3991 156.65 33.5049L157.235 31.9234L150.883 13.6073H155.263L159.09 26.1001H159.091Z" fill="#242424"/>
</g>
<defs>
<clipPath id="clip0_595_1001">
<rect width="167" height="44" fill="white"/>
</clipPath>
</defs>
</svg>
