<svg width="18" height="15" viewBox="0 0 18 15" fill="none" xmlns="http://www.w3.org/2000/svg">
<path d="M13.4208 1.74404C7.47676 4.76404 3.86476 6.60004 1.96076 7.56404C0.936763 8.08404 0.112763 8.50804 0.124763 8.50804C0.136763 8.50804 0.948763 8.78004 1.92476 9.11204C2.90076 9.44404 4.28476 9.91204 4.99676 10.156L6.29676 10.592L7.10876 9.78004C8.38876 8.50804 16.8128 0.028039 16.7968 0.0320396C16.7888 0.0320396 15.2688 0.804039 13.4208 1.74404Z" fill="white"/>
<path d="M12.5048 5.51199L7.15277 10.884L7.82477 11.112C10.7568 12.104 13.5288 13.044 14.5168 13.384C15.1648 13.608 15.7088 13.788 15.7288 13.788C15.7448 13.788 15.7608 12.924 15.7608 11.868C15.7608 9.80399 15.7648 9.75199 15.9648 9.61199C16.0848 9.52799 16.2768 9.52799 16.3968 9.61199C16.5968 9.75599 16.6008 9.79199 16.6008 12.016V14.088L17.2288 14.296C17.5728 14.412 17.8608 14.5 17.8688 14.492C17.8768 14.488 17.8768 11.252 17.8728 7.30799L17.8608 0.135987L12.5048 5.51199ZM16.3968 8.09199C16.4488 8.12799 16.5128 8.21999 16.5448 8.29199C16.5928 8.40799 16.5928 8.44799 16.5448 8.56399C16.3968 8.91599 15.9648 8.91599 15.8168 8.56399C15.7688 8.44799 15.7688 8.40799 15.8168 8.29199C15.8848 8.12799 16.0208 8.02799 16.1808 8.02799C16.2488 8.02799 16.3448 8.05599 16.3968 8.09199Z" fill="white"/>
<path d="M6.88074 13.316V14.968L7.45274 14.408C8.99674 12.888 9.36074 12.528 9.36074 12.5C9.36074 12.48 9.34074 12.468 9.32074 12.468C9.29674 12.468 8.75274 12.288 8.11274 12.068C7.46874 11.848 6.92874 11.668 6.91274 11.668C6.89274 11.668 6.88074 12.412 6.88074 13.316Z" fill="white"/>
</svg>
